<svg width="277" height="123" viewBox="0 0 277 123" fill="none" xmlns="http://www.w3.org/2000/svg">
<rect width="33" height="12" transform="translate(0 16.5002)" fill="white"/>
<path d="M10.6562 27.05C10.6602 27.05 10.6642 27.0441 10.6642 27.0441C10.696 27.0206 10.7279 26.9912 10.7558 26.9559C10.7518 26.9559 10.7478 26.9559 10.7438 26.95C10.7159 26.9794 10.6841 27.0147 10.6562 27.05Z" fill="#00008F"/>
<path d="M15.0694 25.5631L14.9997 25.6231C15.0396 25.6131 15.0694 25.6031 15.0694 25.5631Z" fill="#00008F"/>
<path fill-rule="evenodd" clip-rule="evenodd" d="M13.6426 27.082C13.7704 26.9534 13.8983 26.817 14.0261 26.6768H14.0222C14.2624 26.4041 14.4948 26.143 14.7737 25.9054C14.8589 25.8274 14.9402 25.7612 15.0177 25.7067C15.0291 25.6952 15.0349 25.6782 15.0406 25.6615C15.0465 25.644 15.0523 25.627 15.0642 25.6171C15.009 25.6381 14.965 25.6714 14.9207 25.7049C14.8749 25.7396 14.8289 25.7745 14.7698 25.7963C14.7466 25.7963 14.7233 25.7729 14.7466 25.7495C14.8279 25.6911 14.9092 25.6287 14.9867 25.5664H14.9712C14.948 25.5664 14.948 25.543 14.948 25.5197C14.6596 25.4739 14.4381 25.6711 14.2399 25.8476L14.2275 25.8586C14.1966 25.8741 14.1675 25.8587 14.1446 25.8466C14.133 25.8405 14.123 25.8352 14.1152 25.8352C13.9398 25.894 13.7885 26.0025 13.6362 26.1116C13.4959 26.2121 13.3548 26.3133 13.1933 26.3768V26.33C13.1384 26.349 13.0842 26.3736 13.0298 26.3983C12.9498 26.4347 12.8696 26.4712 12.7865 26.4898C12.6349 26.525 12.4943 26.5204 12.358 26.516C12.3133 26.5146 12.2689 26.5132 12.2249 26.5132C11.9768 26.5378 11.7319 26.5909 11.4872 26.644L11.4076 26.6612C11.4037 26.6632 11.3998 26.6641 11.3959 26.6651C11.3921 26.6661 11.3882 26.667 11.3843 26.669C11.2371 26.708 11.1016 26.7625 10.966 26.8404L10.9505 26.8482C10.9452 26.8554 10.9398 26.8617 10.9349 26.8676C10.929 26.8745 10.9237 26.8808 10.9195 26.8872C10.873 26.9417 10.8304 26.9885 10.7646 27.0235C10.6673 27.0724 10.5832 27.1479 10.5005 27.2221C10.4647 27.2543 10.429 27.2863 10.3927 27.3157C10.385 27.3235 10.3695 27.3274 10.3578 27.3274C10.2378 27.4443 10.1177 27.5612 9.99373 27.6742C9.98598 27.682 9.95112 27.6859 9.924 27.682C9.924 27.682 9.92788 27.682 9.92788 27.6781L9.9395 27.6547L9.9976 27.5612C10.0092 27.5437 10.0199 27.5261 10.0305 27.5086C10.0412 27.4911 10.0518 27.4735 10.0635 27.456C10.0944 27.4093 10.1255 27.3625 10.1603 27.3196C10.168 27.308 10.168 27.2963 10.1603 27.2885C10.1525 27.2807 10.1409 27.2768 10.1293 27.2768C10.2416 27.1677 10.3733 27.0742 10.5089 26.9924V26.9885C10.4934 26.9924 10.4702 26.9807 10.4818 26.9651C10.4932 26.9508 10.5024 26.9344 10.5112 26.919L10.5205 26.9028C10.5225 26.8989 10.5234 26.8959 10.5244 26.893C10.5254 26.8901 10.5263 26.8872 10.5283 26.8833C10.5263 26.8794 10.5234 26.8765 10.5205 26.8735C10.5176 26.8706 10.5147 26.8677 10.5128 26.8638L10.4893 26.8793C10.4612 26.8977 10.4324 26.9166 10.4082 26.9378C10.3911 26.9526 10.3751 26.9727 10.3588 26.9935C10.3232 27.0384 10.2857 27.0859 10.23 27.0859C10.2261 27.0859 10.2068 27.0859 10.1952 27.082C10.1835 27.082 10.1758 27.0781 10.1719 27.0742C10.1719 27.0722 10.1719 27.0713 10.1724 27.0708C10.1729 27.0703 10.1738 27.0703 10.1758 27.0703C10.1758 27.0703 10.1797 27.0664 10.1797 27.0625C10.1797 27.0625 10.1797 27.0586 10.1835 27.0586C10.1855 27.0547 10.1874 27.0518 10.1893 27.0489C10.1913 27.0459 10.1932 27.043 10.1952 27.0391C10.1971 27.0352 10.199 27.0323 10.201 27.0294C10.2029 27.0265 10.2048 27.0235 10.2068 27.0196C10.2087 27.0177 10.2097 27.0148 10.2106 27.0119C10.2116 27.0089 10.2126 27.006 10.2145 27.0041L10.2189 26.996C10.2227 26.9892 10.2273 26.981 10.23 26.9729C10.2319 26.969 10.2339 26.9661 10.2358 26.9632C10.2378 26.9602 10.2397 26.9573 10.2416 26.9534C10.2474 26.9456 10.2523 26.9369 10.2571 26.9281C10.262 26.9193 10.2668 26.9106 10.2726 26.9028C10.2765 26.895 10.2804 26.8872 10.2881 26.8794C10.292 26.8716 10.2959 26.8648 10.2997 26.858C10.3036 26.8511 10.3075 26.8443 10.3114 26.8365C10.323 26.817 10.3114 26.8015 10.2959 26.7976C10.3385 26.743 10.3888 26.6963 10.4508 26.6612H10.4431C10.4965 26.6343 10.5515 26.6028 10.6062 26.5715C10.6384 26.5531 10.671 26.5344 10.7026 26.517C10.7142 26.5054 10.7258 26.4937 10.7413 26.4859C10.6135 26.5287 10.4973 26.5872 10.385 26.6651C10.385 26.6651 10.354 26.6768 10.3462 26.6846C10.3462 26.6846 10.323 26.6924 10.292 26.6651C10.2881 26.6612 10.2881 26.6573 10.2881 26.6495C10.3016 26.6224 10.3293 26.6045 10.3594 26.5851C10.3812 26.571 10.4041 26.5562 10.4237 26.5365C10.4469 26.5365 10.4663 26.5365 10.4663 26.5599C10.9124 26.2101 11.4625 26.1292 12.0144 26.048C12.3539 25.998 12.6941 25.948 13.0112 25.8352C13.0441 25.8119 13.078 25.7895 13.1119 25.7671C13.1458 25.7447 13.1797 25.7223 13.2126 25.6989C13.2691 25.6754 13.3198 25.6351 13.3734 25.5924C13.4263 25.5503 13.4822 25.5058 13.5496 25.4729C13.7278 25.3365 13.8634 25.1807 13.9331 24.9508C13.9331 24.9275 13.9099 24.9041 13.9099 24.9041C13.6155 25.2197 13.2785 25.469 12.9182 25.6521C12.5747 25.8334 12.2067 25.8602 11.8423 25.8868C11.7054 25.8968 11.569 25.9068 11.4347 25.9248C11.4579 25.8781 11.5044 25.8781 11.547 25.8781C11.547 25.8228 11.5735 25.799 11.6075 25.7684C11.6166 25.7603 11.6263 25.7516 11.6361 25.7417H11.702C11.7136 25.7417 11.7194 25.73 11.7252 25.7184C11.731 25.7067 11.7368 25.695 11.7484 25.695C11.7949 25.695 11.8608 25.6716 11.8375 25.6716C11.802 25.6259 11.7504 25.644 11.6934 25.664C11.6386 25.6832 11.5789 25.7041 11.5238 25.6716C11.5443 25.6491 11.5504 25.6222 11.556 25.5976C11.5621 25.5711 11.5675 25.5474 11.5896 25.5352H11.6787C11.6787 25.4885 11.7252 25.4456 11.7252 25.4456C11.9272 25.3242 12.1223 25.2181 12.3137 25.1141C12.4416 25.0445 12.568 24.9758 12.6936 24.9041C12.6682 24.9041 12.6456 24.9145 12.6238 24.9247C12.589 24.9408 12.5558 24.9562 12.5154 24.9275C12.5386 24.9275 12.5386 24.9109 12.5386 24.8943C12.5386 24.8778 12.5386 24.8612 12.5619 24.8612C12.7072 24.8224 12.8365 24.7595 12.9686 24.6952C13.0619 24.6498 13.1565 24.6038 13.2591 24.5651C13.2287 24.5651 13.2005 24.5733 13.173 24.5813C13.1201 24.5967 13.0699 24.6113 13.0112 24.5651C13.0266 24.5574 13.039 24.5475 13.0513 24.5377C13.076 24.5181 13.1002 24.4989 13.1468 24.4989V24.4327C13.1468 24.4093 13.17 24.4093 13.1933 24.4093C13.17 24.4093 13.1468 24.3859 13.1468 24.3859C13.1591 24.3611 13.1833 24.3561 13.2103 24.3504C13.2343 24.3453 13.2605 24.3398 13.2824 24.3197C13.2591 24.3197 13.2165 24.3197 13.2165 24.2963C13.2824 24.2067 13.3947 24.1833 13.507 24.1599C13.4954 24.1365 13.4731 24.1365 13.4538 24.1365C13.4344 24.1365 13.4179 24.1365 13.4179 24.1132C13.4179 24.0898 13.4412 24.0898 13.4644 24.0898H13.4179C13.3815 24.0715 13.3879 24.0387 13.3924 24.0161C13.3936 24.0098 13.3947 24.0044 13.3947 24.0002C13.4857 23.893 13.5156 23.7664 13.5454 23.6406C13.5599 23.579 13.5745 23.5176 13.5961 23.4586C13.5729 23.4586 13.5496 23.4586 13.5496 23.4353C13.3318 23.677 12.9866 23.7686 12.6587 23.8556L12.6277 23.8638H12.5154C12.4031 23.9106 12.2443 23.9106 12.1319 23.8404C12.0785 23.8124 12.0404 23.7774 11.9993 23.7395C11.9718 23.7143 11.9429 23.6878 11.9073 23.6612C11.7252 23.5482 11.547 23.4586 11.3456 23.3885C10.7839 23.2093 10.199 23.1158 9.61412 23.1392C9.77746 23.0493 9.95088 23.0136 10.1266 22.9774C10.2176 22.9586 10.3093 22.9398 10.4004 22.9132C10.458 22.8962 10.515 22.8788 10.5716 22.8614C10.8929 22.7629 11.2046 22.6673 11.547 22.6872C11.5022 22.6713 11.4448 22.677 11.392 22.6823C11.3672 22.6848 11.3434 22.6872 11.3224 22.6872C11.0634 22.6679 10.8019 22.7256 10.529 22.7857C10.4712 22.7985 10.4129 22.8113 10.354 22.8236C10.2471 22.8458 10.1455 22.8778 10.0437 22.9098C9.93151 22.945 9.81915 22.9803 9.69934 23.0028C9.64737 23.0207 9.60565 23.0512 9.56501 23.081C9.49962 23.1288 9.43704 23.1745 9.3391 23.1625V23.0924C9.56376 22.8197 9.83491 22.5508 10.1952 22.5275C10.5434 22.4708 10.8717 22.5112 11.2142 22.5533C11.2718 22.5604 11.3297 22.5675 11.3882 22.5742C11.669 22.5968 11.9317 22.6594 12.2148 22.7269L12.2443 22.734C12.3062 22.734 12.3411 22.7885 12.3748 22.8414C12.4023 22.8843 12.429 22.9261 12.4689 22.9366C12.5241 22.9556 12.5792 22.9591 12.6344 22.9627C12.7148 22.9678 12.7952 22.973 12.8756 23.0262C12.8756 23.0104 12.873 22.9951 12.8704 22.98C12.8653 22.9501 12.8602 22.9208 12.8756 22.8898C12.9256 22.8395 12.9829 22.853 13.0393 22.8663C13.0834 22.8767 13.127 22.887 13.1662 22.8664C13.289 22.7902 13.1738 22.6732 13.0585 22.556C13.0029 22.4996 12.9472 22.4431 12.9182 22.3911C12.9182 22.3677 12.9415 22.3444 12.9415 22.3444C12.9924 22.39 13.0398 22.4371 13.0867 22.4839C13.2043 22.601 13.3194 22.7156 13.4799 22.7963C13.5922 22.8431 13.8634 22.9093 13.8169 22.7729C13.7373 22.5963 13.6014 22.4432 13.4642 22.2885C13.4077 22.2249 13.351 22.1609 13.2979 22.095V22.0054C13.2625 22.0054 13.2541 21.9919 13.2435 21.9752C13.2402 21.9699 13.2367 21.9643 13.232 21.9586V21.869C13.1752 21.8392 13.1625 21.792 13.1497 21.7446C13.1424 21.7175 13.1351 21.6905 13.1197 21.6664C13.0808 21.6035 13.0781 21.5261 13.0752 21.4463C13.0729 21.3828 13.0705 21.3178 13.0499 21.2574C13.0035 21.121 12.9841 21.008 12.9609 20.8716C12.9356 20.7321 12.9079 20.5987 12.8807 20.4682C12.8328 20.2377 12.7866 20.0159 12.7594 19.7846C12.7236 19.4541 12.8905 19.1745 13.0612 18.8887C13.1118 18.804 13.1627 18.7187 13.2088 18.6314C13.3676 18.3587 13.5458 18.0898 13.8401 17.9067C13.9044 17.6407 14.0791 17.4192 14.253 17.1988L14.2662 17.1821C14.4379 16.9681 14.7245 16.8374 14.9357 16.741L14.9596 16.7301C15.2734 16.5899 15.5561 16.5002 15.56 16.5002H0V28.4963H11.0396C11.3348 28.2822 11.6283 28.1472 11.9775 27.9864C12.1369 27.9131 12.3079 27.8344 12.496 27.7404C12.5359 27.7204 12.5832 27.6971 12.6357 27.6712C12.951 27.5161 13.4534 27.269 13.6426 27.082ZM10.1396 25.4635C10.0958 25.4679 10.0494 25.4726 10.0669 25.4374C10.0832 25.3586 10.1639 25.3349 10.2428 25.3118C10.2765 25.3019 10.31 25.2922 10.3378 25.2782L10.3505 25.2716L10.3598 25.2667C10.4035 25.2435 10.457 25.2151 10.4965 25.2316C10.5231 25.2694 10.5561 25.2792 10.5881 25.2887C10.612 25.2958 10.6353 25.3027 10.6551 25.3209C10.5714 25.4049 10.4737 25.4132 10.3747 25.4216C10.3089 25.4272 10.2425 25.4328 10.1791 25.4607C10.1678 25.4607 10.1538 25.4621 10.1396 25.4635ZM6.71263 24.9157C6.71263 24.939 6.73587 24.9624 6.73587 24.9624C7.27817 24.3507 7.77011 23.8287 8.46735 23.3962C8.48601 23.3884 8.47907 23.3981 8.46984 23.4111C8.45609 23.4305 8.43727 23.4569 8.49059 23.4429C8.72141 23.3903 8.82508 23.1926 8.92594 23.0002C8.95202 22.9504 8.97791 22.9011 9.00577 22.8546C9.11155 22.6826 9.26178 22.5724 9.41317 22.4613C9.52234 22.3812 9.63212 22.3007 9.72625 22.1962C9.72625 22.2196 9.72625 22.2429 9.703 22.2663C9.72625 22.2897 9.74949 22.2897 9.77273 22.2897C9.81359 22.2589 9.8582 22.2461 9.90095 22.2339C9.95547 22.2183 10.007 22.2036 10.0439 22.1533C9.86569 22.0832 9.63715 22.0598 9.45897 22.13C8.9864 22.3559 8.58355 22.7183 8.20007 23.1274C7.96766 23.3728 7.7275 23.6027 7.43311 23.7624C7.23169 24.1676 7.00702 24.5299 6.71263 24.9157ZM8.60369 23.4666C8.59155 23.491 8.57942 23.5037 8.56783 23.5158C8.55726 23.5269 8.54714 23.5374 8.5379 23.556C8.51469 23.6026 8.49147 23.622 8.4489 23.6453C8.42568 23.6453 8.40246 23.6453 8.40246 23.622C8.42568 23.5327 8.49147 23.4433 8.58047 23.42C8.60369 23.4239 8.60369 23.4472 8.60369 23.4666ZM9.59422 26.9266C9.61357 26.9071 9.63679 26.8838 9.6484 26.8604C9.66775 26.8136 9.54778 26.8253 9.52843 26.837C9.51088 26.8511 9.49969 26.8653 9.4862 26.8823L9.48199 26.8877C9.46585 26.9062 9.44696 26.9234 9.42778 26.9409C9.41477 26.9527 9.40163 26.9647 9.38912 26.9773C9.33494 27.0318 9.28076 27.0864 9.22271 27.137C9.18401 27.1721 9.30785 27.1877 9.33494 27.1643C9.3659 27.1409 9.39299 27.1136 9.42008 27.0864C9.4304 27.0864 9.44072 27.0846 9.4476 27.0835L9.45233 27.0827L9.45491 27.0825C9.51906 27.0609 9.5668 27.0163 9.61324 26.9728L9.62518 26.9617C9.64066 26.9461 9.62131 26.9305 9.59422 26.9266ZM9.24401 26.6733C9.24357 26.6733 9.24326 26.6734 9.24304 26.6737C9.24256 26.6741 9.24256 26.6751 9.24256 26.6771C9.2188 26.6934 9.19535 26.71 9.17194 26.7265C9.11139 26.7694 9.05116 26.812 8.98691 26.8485C8.92546 26.8831 8.86246 26.913 8.79889 26.9432C8.76226 26.9606 8.72545 26.978 8.68864 26.9966C8.68864 26.9966 8.68864 26.9927 8.68477 26.9927C8.67702 26.981 8.66153 26.9771 8.64604 26.9849C8.56082 27.0316 8.48722 27.094 8.42137 27.1602C8.40975 27.168 8.39813 27.1797 8.39038 27.1914L8.35552 27.2264V27.2303C8.34003 27.2459 8.32453 27.2615 8.30516 27.2849C8.30114 27.2889 8.29804 27.293 8.29507 27.2968C8.28947 27.3042 8.2843 27.3109 8.27418 27.316C8.25868 27.3238 8.21995 27.3238 8.22382 27.3004V27.2965C8.2122 27.3043 8.19671 27.3121 8.18508 27.316C8.17927 27.3199 8.17346 27.3228 8.16765 27.3258C8.16184 27.3287 8.15603 27.3316 8.15022 27.3355C8.14635 27.3316 8.1386 27.3316 8.13473 27.3316C8.13086 27.3316 8.12311 27.3316 8.11923 27.3355C8.1102 27.3433 8.10116 27.3507 8.09212 27.358C8.07404 27.3727 8.05597 27.3875 8.03789 27.4056C7.99141 27.4485 7.9488 27.4952 7.90619 27.5459C7.90619 27.5459 7.90619 27.5498 7.90232 27.5498C7.90232 27.5517 7.90135 27.5527 7.90038 27.5537C7.89941 27.5547 7.89844 27.5556 7.89844 27.5576L7.8907 27.5654C7.88922 27.5669 7.8883 27.5684 7.88752 27.5696C7.88626 27.5717 7.88534 27.5732 7.88295 27.5732L7.87907 27.5771C7.8752 27.5849 7.87133 27.5927 7.86358 27.6004C7.85971 27.6043 7.85196 27.6082 7.84421 27.6082C7.84034 27.6043 7.83647 27.6004 7.83647 27.5965C7.83453 27.5946 7.83356 27.5927 7.83259 27.5907C7.83162 27.5888 7.83066 27.5868 7.82872 27.5849C7.82485 27.579 7.82194 27.5732 7.81904 27.5673C7.81613 27.5615 7.81322 27.5556 7.80935 27.5498V27.5459C7.80935 27.5439 7.80838 27.542 7.80741 27.5401C7.80645 27.5381 7.80548 27.5362 7.80548 27.5342L7.8752 27.4524L7.87907 27.4485C7.88295 27.4446 7.88682 27.4397 7.89069 27.4349C7.89456 27.43 7.89844 27.4251 7.90232 27.4212C7.90813 27.4134 7.9149 27.4056 7.92168 27.3978C7.92846 27.3901 7.93524 27.3823 7.94105 27.3745C7.94299 27.3706 7.94493 27.3677 7.94686 27.3647C7.9488 27.3618 7.95074 27.3589 7.95267 27.355C7.97591 27.3238 7.99915 27.2927 8.0224 27.2576V27.2537C8.02627 27.2498 8.03014 27.2459 8.03014 27.2381C8.04176 27.2225 8.05339 27.2069 8.06113 27.1914L8.08437 27.1446V27.1407L8.08825 27.1368C8.08825 27.1349 8.08921 27.1339 8.09018 27.1329C8.09115 27.1319 8.09212 27.131 8.09212 27.129C8.09599 27.1193 8.09986 27.1105 8.10373 27.1018C8.1076 27.093 8.11149 27.0842 8.11536 27.0745V27.0706L8.11923 27.055C8.12117 27.0511 8.12214 27.0472 8.12311 27.0433C8.12408 27.0394 8.12505 27.0355 8.12698 27.0316V27.0277C8.12892 27.0219 8.12989 27.016 8.13086 27.0102C8.13182 27.0043 8.13279 26.9985 8.13473 26.9927C8.13473 26.9888 8.13473 26.981 8.13086 26.9771C8.1541 26.9342 8.18508 26.8953 8.21995 26.8563C8.21801 26.8563 8.21607 26.8573 8.21414 26.8582C8.21303 26.8588 8.21191 26.8594 8.2108 26.8597C8.20998 26.86 8.20915 26.8602 8.20833 26.8602C8.19109 26.871 8.17624 26.8855 8.16113 26.9002C8.14908 26.9119 8.13686 26.9238 8.12311 26.9342C8.09987 26.9537 8.05338 26.9225 8.08437 26.8991C8.10374 26.8836 8.11923 26.868 8.13472 26.8524C8.13472 26.8524 8.13473 26.8485 8.1386 26.8485C8.15404 26.8345 8.16887 26.8187 8.18381 26.8027C8.20635 26.7786 8.22919 26.7543 8.25481 26.7355C8.28192 26.716 8.30129 26.7004 8.32453 26.681C8.3284 26.6771 8.33228 26.6732 8.33615 26.6732C8.35165 26.6537 8.36714 26.6342 8.38651 26.6147C8.38651 26.6147 8.39038 26.6147 8.39038 26.6108C8.5234 26.4818 8.71032 26.4363 8.90111 26.3899C9.02144 26.3606 9.14332 26.3309 9.25418 26.2797C9.3168 26.2536 9.38663 26.2639 9.45564 26.274C9.51044 26.282 9.5647 26.29 9.61442 26.2797C9.68027 26.2797 9.74999 26.2797 9.81584 26.3264C9.66268 26.408 9.5165 26.5013 9.37189 26.5935C9.33002 26.6202 9.28817 26.6469 9.24643 26.6732C9.24535 26.6732 9.24457 26.6732 9.24401 26.6733ZM9.72805 25.0853C9.70992 25.0874 9.69817 25.0888 9.70824 25.0989C9.77409 25.1651 9.90967 25.1417 10.0026 25.0911C10.0685 25.0443 10.1382 25.0443 10.2273 25.0443C10.2505 25.0443 10.2505 25.0015 10.2505 24.9781C10.3164 25.0015 10.3629 25.0015 10.4287 25.0015C10.9671 24.8885 11.4862 24.7755 11.982 24.5262C11.4803 24.1385 10.8618 23.9659 10.256 23.7967C10.1555 23.7687 10.0554 23.7407 9.95615 23.7119C9.97796 23.7119 9.99976 23.7191 10.0217 23.7265C10.066 23.7412 10.1109 23.7562 10.1576 23.7119C10.0961 23.6629 10.0277 23.6535 9.95993 23.6442C9.90384 23.6365 9.8482 23.6289 9.79733 23.5989C9.80264 23.5989 9.80895 23.6001 9.81582 23.6014C9.83902 23.6059 9.86849 23.6116 9.88642 23.5755C9.76876 23.5163 9.6511 23.4963 9.53232 23.476C9.47123 23.4655 9.40984 23.455 9.348 23.4392C9.46034 23.4158 9.53006 23.3262 9.53006 23.2132C9.53006 23.1898 9.48358 23.1898 9.46034 23.1898C9.19306 23.3262 9.01101 23.5755 8.89867 23.8677C8.99995 23.9274 9.10909 23.9204 9.21607 23.9137C9.27686 23.9098 9.33694 23.906 9.39449 23.9145C9.34369 23.9627 9.27029 23.9758 9.19974 23.9884C9.17344 23.9931 9.14753 23.9977 9.12334 24.0041C9.05361 24.0197 8.98776 24.0703 9.01101 24.1171C9.0265 24.1366 9.04199 24.1443 9.06136 24.1482C9.01101 24.1638 8.96452 24.1872 8.92191 24.2301C8.98568 24.2803 9.05144 24.2706 9.11634 24.261C9.14211 24.2572 9.16774 24.2534 9.19306 24.2534C9.19306 24.2817 9.21164 24.2913 9.23095 24.3013C9.24088 24.3065 9.25102 24.3117 9.25891 24.3197C9.14658 24.3625 9.05749 24.456 9.03425 24.5223C9.00648 24.5898 8.95522 24.6336 8.9044 24.6771C8.87015 24.7064 8.8361 24.7355 8.80958 24.7716V24.8417C8.73475 24.9081 8.65784 24.9673 8.58199 25.0257C8.42617 25.1458 8.27479 25.2624 8.15495 25.4301C8.17819 25.4301 8.17819 25.4534 8.17819 25.4768C8.15676 25.5091 8.12627 25.5315 8.09735 25.5528C8.06355 25.5776 8.0319 25.6009 8.01938 25.6365C8.01938 25.6599 8.01938 25.6833 8.04262 25.6833C8.18476 25.6363 8.30774 25.5572 8.42831 25.4797C8.53773 25.4093 8.64515 25.3402 8.7631 25.2976C8.85949 25.2744 8.94341 25.2307 9.02529 25.1881C9.09477 25.1519 9.16277 25.1165 9.23567 25.095C9.29184 25.0833 9.35381 25.0667 9.41579 25.0502C9.47777 25.0336 9.53974 25.0171 9.59591 25.0054C9.59591 25.0288 9.59591 25.0521 9.61915 25.0521H9.79733C9.78636 25.0786 9.75176 25.0826 9.72805 25.0853Z" fill="#00008F"/>
<path d="M32.9999 16.5002H20.0965C20.0965 16.5002 20.1199 16.5041 20.2175 16.5549C20.3228 16.6095 20.4593 16.6836 20.5412 16.7265C20.7089 16.8123 20.8689 16.9216 20.9742 17.0893C21.021 17.1556 21.0873 17.2922 21.0444 17.3819C20.9976 17.495 20.9742 17.6784 20.8611 17.7213C20.7246 17.7915 20.5451 17.7915 20.3852 17.7681C20.2955 17.7681 20.2058 17.7447 20.1121 17.7213C20.4515 17.8579 20.7714 18.0178 20.9976 18.3338C21.021 18.3806 21.1107 18.4001 21.2004 18.4001C21.2238 18.4001 21.2238 18.4469 21.2238 18.4664C21.177 18.5132 21.1341 18.5367 21.1575 18.603H21.2238C21.337 18.5562 21.3135 18.3299 21.4735 18.4001C21.5866 18.4664 21.6334 18.6264 21.5632 18.7395C21.4735 18.8292 21.3838 18.8995 21.2901 18.9658C21.2667 19.0126 21.2667 19.0789 21.2901 19.1257C21.3565 19.2155 21.3799 19.3052 21.4033 19.3988C21.4735 19.5588 21.493 19.7382 21.5632 19.8982C21.6529 20.2376 21.7426 20.577 21.7231 20.9203C21.7231 21.0997 21.6334 21.2597 21.6997 21.443C21.7465 21.6225 21.8596 21.759 21.9494 21.919C22.0391 22.0555 22.1288 22.1452 22.199 22.2818C22.3355 22.508 22.5852 22.7343 22.472 23.0074C22.4057 23.1673 22.1561 23.1439 21.9962 23.2337C21.8596 23.3468 21.9728 23.5302 22.043 23.6433C22.1561 23.8461 21.9065 23.9827 21.7465 24.0529C21.7933 24.1231 21.883 24.0997 21.9065 24.1426C21.9299 24.2558 22.043 24.3221 21.9728 24.4391C21.883 24.5757 21.61 24.642 21.7465 24.8487C21.8362 25.0087 21.7777 25.1842 21.7231 25.3481C21.6568 25.551 21.4735 25.6407 21.3135 25.6875C21.177 25.7343 21.0171 25.7343 20.8845 25.7109C20.8377 25.6875 20.7948 25.6641 20.748 25.6641C20.3618 25.6173 19.9756 25.508 19.5934 25.508C19.4802 25.5315 19.3671 25.551 19.2774 25.5978C19.176 25.6719 19.0824 25.7538 19.0044 25.8396C19.0044 25.8396 19.0044 25.8396 19.0005 25.8435C18.9849 25.8631 18.9654 25.8787 18.9497 25.8982C18.9419 25.9099 18.9302 25.9216 18.9224 25.9333C18.9146 25.9411 18.9107 25.9489 18.9029 25.9567C18.8366 26.0386 18.7781 26.1283 18.7235 26.2181C18.7196 26.2259 18.7157 26.2298 18.7118 26.2337C18.7079 26.2454 18.7001 26.2532 18.6923 26.2649C18.6182 26.4014 18.5636 26.5419 18.5207 26.6823C18.3646 27.2012 18.4349 27.6459 18.5441 27.7551C18.5753 27.7863 19.293 28.0087 19.7923 28.2311C20.0263 28.3364 20.1902 28.4144 20.3267 28.5002H32.996V16.5002H32.9999Z" fill="#E0000F"/>
<path d="M20.8631 20.8749C20.9526 20.8983 21.0888 20.8983 21.0888 20.945C21.0421 21.1243 20.7736 21.171 20.6375 21.3541H20.5674C20.5013 21.4009 20.5208 21.5139 20.4546 21.5139C20.3885 21.4905 20.3185 21.5139 20.2523 21.5373C20.3418 21.6269 20.4546 21.697 20.5908 21.6736C20.6141 21.6736 20.6569 21.7204 20.6569 21.7632C20.6569 21.7632 20.6803 21.7632 20.7036 21.7398C20.727 21.7398 20.7503 21.7398 20.7503 21.7632V21.8528C20.6842 21.9424 20.5674 21.8996 20.478 21.9191C20.6608 21.9658 20.8398 21.9658 20.9993 21.9191C21.1355 21.8723 20.9993 21.6463 21.0888 21.5334C21.0421 21.5334 21.0888 21.4632 21.0421 21.4632C21.0888 21.4165 21.1316 21.3502 21.1782 21.3269C21.2249 21.3269 21.2911 21.3035 21.3144 21.2567C21.3144 21.21 21.2249 21.1905 21.2444 21.1437C21.3806 21.0541 21.4934 20.9178 21.4467 20.7814C21.4233 20.7113 21.2444 20.7113 21.1316 20.6684C21.0187 20.6256 20.8826 20.6684 20.7464 20.6918C20.6336 20.6918 20.5208 20.7619 20.4079 20.7814C20.2484 20.8282 20.1123 20.9178 19.98 21.0074C20.1395 20.9412 20.2951 20.9178 20.478 20.871C20.6141 20.8749 20.727 20.8437 20.8631 20.8749" fill="#808080"/>
<path d="M1.236 42.5002V34.1002H3.36L5.412 37.6282L7.464 34.1002H9.588V42.5002H7.884V36.4762L6.012 39.6202H4.812L2.94 36.4762V42.5002H1.236ZM12.1124 42.5002V34.1002H13.8164V42.5002H12.1124ZM16.3443 42.5002V34.1002H18.5283L22.2843 40.1722V34.1002H23.9883V42.5002H21.8043L18.0483 36.4282V42.5002H16.3443ZM26.5176 42.5002V34.1002H28.2216V42.5002H26.5176ZM29.9934 41.3362L31.2294 40.1962C31.7334 40.8442 32.4054 41.2282 33.0894 41.2282C33.7614 41.2282 34.1694 40.8682 34.1694 40.2682C34.1694 38.7202 30.3534 39.1402 30.3534 36.2962C30.3534 34.9642 31.4574 33.8602 33.0654 33.8602C34.3254 33.8602 35.2854 34.4242 36.0054 35.2762L34.7574 36.4042C34.2654 35.7682 33.7134 35.3482 33.0774 35.3482C32.4774 35.3482 32.0814 35.7322 32.0814 36.2362C32.0814 37.7602 35.8974 37.3282 35.8974 40.2082C35.8734 41.7922 34.6374 42.7402 33.1014 42.7402C31.6854 42.7402 30.7374 42.2242 29.9934 41.3362ZM36.9415 35.6482V34.1002H43.8295V35.6482H41.2375V42.5002H39.5335V35.6482H36.9415ZM47.1982 33.3802L45.6502 31.7602H47.4022L48.7582 33.3802H47.1982ZM45.5062 42.5002V34.1002H50.4022V35.5162H47.2102V37.5082H49.9222V38.9242H47.2102V41.0842H50.4022V42.5002H45.5062ZM52.5622 42.5002V34.1002H55.1302C56.9782 34.1002 58.1182 35.0482 58.1182 36.6082C58.1182 37.6282 57.6262 38.3842 56.7622 38.7802L59.3902 42.5002H57.3862L55.1422 39.1042H54.2662V42.5002H52.5622ZM55.2262 35.5162H54.2662V37.6882H55.2262C55.9462 37.6882 56.3662 37.2682 56.3662 36.5842C56.3662 35.9482 55.9462 35.5162 55.2262 35.5162ZM60.6496 42.5002V34.1002H65.5456V35.5162H62.3536V37.5082H65.0656V38.9242H62.3536V41.0842H65.5456V42.5002H60.6496ZM1.236 54.5002V46.1002H4.536C7.2 46.1002 9 48.0322 9 50.3002C9 52.5682 7.2 54.5002 4.536 54.5002H1.236ZM4.56 47.6482H2.94V52.9522H4.56C6.12 52.9522 7.248 51.7882 7.248 50.3002C7.248 48.8002 6.12 47.6482 4.56 47.6482ZM10.8233 54.5002V46.1002H15.7193V47.5162H12.5273V49.5082H15.2393V50.9242H12.5273V53.0842H15.7193V54.5002H10.8233ZM21.1738 54.5002V46.1002H22.8778V52.9522H26.0698V54.5002H21.1738ZM27.3017 49.5562H25.8857L26.9657 46.1002H28.6937L27.3017 49.5562ZM30.2001 54.5002V46.1002H35.0961V47.5162H31.9041V49.5082H34.6161V50.9242H31.9041V53.0842H35.0961V54.5002H30.2001ZM37.2562 54.5002V46.1002H39.4402L43.1962 52.1722V46.1002H44.9002V54.5002H42.7162L38.9602 48.4282V54.5002H37.2562ZM46.6734 53.3362L47.9094 52.1962C48.4134 52.8442 49.0854 53.2282 49.7694 53.2282C50.4414 53.2282 50.8494 52.8682 50.8494 52.2682C50.8494 50.7202 47.0334 51.1402 47.0334 48.2962C47.0334 46.9642 48.1374 45.8602 49.7454 45.8602C51.0054 45.8602 51.9654 46.4242 52.6854 47.2762L51.4374 48.4042C50.9454 47.7682 50.3934 47.3482 49.7574 47.3482C49.1574 47.3482 48.7614 47.7322 48.7614 48.2362C48.7614 49.7602 52.5774 49.3282 52.5774 52.2082C52.5534 53.7922 51.3174 54.7402 49.7814 54.7402C48.3654 54.7402 47.4174 54.2242 46.6734 53.3362ZM54.5441 54.5002V46.1002H59.4401V47.5162H56.2481V49.5082H58.9601V50.9242H56.2481V53.0842H59.4401V54.5002H54.5441ZM61.6002 54.5002V46.1002H63.3042V54.5002H61.6002ZM69.6961 53.1442C70.4881 53.1442 71.1721 52.8682 71.6521 52.4122V50.9482H69.5161V49.4962H73.3561V53.0242C72.5761 54.0682 71.2681 54.7402 69.6961 54.7402C66.9721 54.7402 65.1121 52.7002 65.1121 50.3002C65.1121 47.9002 66.9241 45.8602 69.5761 45.8602C71.1001 45.8602 72.3481 46.5442 73.1161 47.5642L71.7721 48.6082C71.2921 47.9242 70.5361 47.4562 69.5761 47.4562C67.9921 47.4562 66.8641 48.6922 66.8641 50.3002C66.8641 51.9082 68.0521 53.1442 69.6961 53.1442ZM75.4312 54.5002V46.1002H77.6152L81.3712 52.1722V46.1002H83.0752V54.5002H80.8912L77.1352 48.4282V54.5002H75.4312ZM85.6044 54.5002V46.1002H90.5004V47.5162H87.3084V49.5082H90.0204V50.9242H87.3084V53.0842H90.5004V54.5002H85.6044ZM92.6605 54.5002V46.1002H94.7845L96.8365 49.6282L98.8885 46.1002H101.013V54.5002H99.3085V48.4762L97.4365 51.6202H96.2365L94.3645 48.4762V54.5002H92.6605ZM103.537 54.5002V46.1002H108.433V47.5162H105.241V49.5082H107.953V50.9242H105.241V53.0842H108.433V54.5002H103.537ZM110.593 54.5002V46.1002H112.777L116.533 52.1722V46.1002H118.237V54.5002H116.053L112.297 48.4282V54.5002H110.593ZM119.902 47.6482V46.1002H126.79V47.6482H124.198V54.5002H122.494V47.6482H119.902ZM0.48 65.3362L1.716 64.1962C2.22 64.8442 2.892 65.2282 3.576 65.2282C4.248 65.2282 4.656 64.8682 4.656 64.2682C4.656 62.7202 0.84 63.1402 0.84 60.2962C0.84 58.9642 1.944 57.8602 3.552 57.8602C4.812 57.8602 5.772 58.4242 6.492 59.2762L5.244 60.4042C4.752 59.7682 4.2 59.3482 3.564 59.3482C2.964 59.3482 2.568 59.7322 2.568 60.2362C2.568 61.7602 6.384 61.3282 6.384 64.2082C6.36 65.7922 5.124 66.7402 3.588 66.7402C2.172 66.7402 1.224 66.2242 0.48 65.3362ZM13.2107 63.3562V58.1002H14.9147V63.2122C14.9147 65.4202 13.6187 66.7402 11.5067 66.7402C9.40669 66.7402 8.11069 65.4202 8.11069 63.2122V58.1002H9.81469V63.3562C9.81469 64.4842 10.4507 65.1442 11.5187 65.1442C12.5627 65.1442 13.2107 64.4842 13.2107 63.3562ZM17.2115 66.5002V58.1002H19.9835C21.8315 58.1002 22.9595 59.0482 22.9595 60.6082C22.9595 62.1562 21.8315 63.1042 19.9835 63.1042H18.9155V66.5002H17.2115ZM20.0555 59.5162H18.9155V61.6882H20.0555C20.7755 61.6882 21.2075 61.2682 21.2075 60.5842C21.2075 59.9482 20.7755 59.5162 20.0555 59.5162ZM27.7528 57.3802H26.2048L27.5608 55.7602H29.3128L27.7528 57.3802ZM24.5488 66.5002V58.1002H29.4448V59.5162H26.2528V61.5082H28.9648V62.9242H26.2528V65.0842H29.4448V66.5002H24.5488ZM31.6049 66.5002V58.1002H34.1729C36.0209 58.1002 37.1609 59.0482 37.1609 60.6082C37.1609 61.6282 36.6689 62.3842 35.8049 62.7802L38.4329 66.5002H36.4289L34.1849 63.1042H33.3089V66.5002H31.6049ZM34.2689 59.5162H33.3089V61.6882H34.2689C34.9889 61.6882 35.4089 61.2682 35.4089 60.5842C35.4089 59.9482 34.9889 59.5162 34.2689 59.5162ZM39.6922 66.5002V58.1002H41.3962V66.5002H39.6922ZM43.9241 66.5002V58.1002H48.8201V59.5162H45.6281V61.5082H48.3401V62.9242H45.6281V65.0842H48.8201V66.5002H43.9241ZM55.8871 63.3562V58.1002H57.5911V63.2122C57.5911 65.4202 56.2951 66.7402 54.1831 66.7402C52.0831 66.7402 50.7871 65.4202 50.7871 63.2122V58.1002H52.4911V63.3562C52.4911 64.4842 53.1271 65.1442 54.1951 65.1442C55.2391 65.1442 55.8871 64.4842 55.8871 63.3562ZM59.8879 66.5002V58.1002H62.4559C64.3039 58.1002 65.4439 59.0482 65.4439 60.6082C65.4439 61.6282 64.9519 62.3842 64.0879 62.7802L66.7159 66.5002H64.7119L62.4679 63.1042H61.5919V66.5002H59.8879ZM62.5519 59.5162H61.5919V61.6882H62.5519C63.2719 61.6882 63.6919 61.2682 63.6919 60.5842C63.6919 59.9482 63.2719 59.5162 62.5519 59.5162ZM1.236 78.5002V70.1002H6.132V71.5162H2.94V73.5082H5.652V74.9242H2.94V77.0842H6.132V78.5002H1.236ZM7.60387 71.6482V70.1002H14.4919V71.6482H11.8999V78.5002H10.1959V71.6482H7.60387ZM19.4629 78.5002V70.1002H22.7629C25.4269 70.1002 27.2269 72.0322 27.2269 74.3002C27.2269 76.5682 25.4269 78.5002 22.7629 78.5002H19.4629ZM22.7869 71.6482H21.1669V76.9522H22.7869C24.3469 76.9522 25.4749 75.7882 25.4749 74.3002C25.4749 72.8002 24.3469 71.6482 22.7869 71.6482ZM29.0502 78.5002V70.1002H33.9462V71.5162H30.7542V73.5082H33.4662V74.9242H30.7542V77.0842H33.9462V78.5002H29.0502ZM39.4007 78.5002V70.1002H41.1047V76.9522H44.2967V78.5002H39.4007ZM45.2836 78.5002L48.4636 70.1002H50.6956L53.8756 78.5002H52.0636L51.2596 76.3162H47.8996L47.0956 78.5002H45.2836ZM48.4276 74.8642H50.7316L49.5796 71.7082L48.4276 74.8642ZM58.6471 78.5002V70.1002H61.2151C63.0631 70.1002 64.2031 71.0482 64.2031 72.6082C64.2031 73.6282 63.7111 74.3842 62.8471 74.7802L65.4751 78.5002H63.4711L61.2271 75.1042H60.3511V78.5002H58.6471ZM61.3111 71.5162H60.3511V73.6882H61.3111C62.0311 73.6882 62.4511 73.2682 62.4511 72.5842C62.4511 71.9482 62.0311 71.5162 61.3111 71.5162ZM66.7344 78.5002V70.1002H71.6304V71.5162H68.4384V73.5082H71.1504V74.9242H68.4384V77.0842H71.6304V78.5002H66.7344ZM77.347 77.1442C78.307 77.1442 79.063 76.6762 79.543 75.9922L80.887 77.0242C80.119 78.0682 78.871 78.7402 77.347 78.7402C74.695 78.7402 72.883 76.7002 72.883 74.3002C72.883 71.9002 74.695 69.8602 77.347 69.8602C78.871 69.8602 80.119 70.5442 80.887 71.5642L79.543 72.6082C79.063 71.9242 78.307 71.4562 77.347 71.4562C75.763 71.4562 74.635 72.6922 74.635 74.3002C74.635 75.9082 75.763 77.1442 77.347 77.1442ZM82.5458 78.5002V70.1002H84.2498V73.4482H88.4858V70.1002H90.1898V78.5002H88.4858V74.9962H84.2498V78.5002H82.5458ZM92.7191 78.5002V70.1002H97.6151V71.5162H94.4231V73.5082H97.1351V74.9242H94.4231V77.0842H97.6151V78.5002H92.7191ZM99.7752 78.5002V70.1002H102.343C104.191 70.1002 105.331 71.0482 105.331 72.6082C105.331 73.6282 104.839 74.3842 103.975 74.7802L106.603 78.5002H104.599L102.355 75.1042H101.479V78.5002H99.7752ZM102.439 71.5162H101.479V73.6882H102.439C103.159 73.6882 103.579 73.2682 103.579 72.5842C103.579 71.9482 103.159 71.5162 102.439 71.5162ZM111.525 77.1442C112.485 77.1442 113.241 76.6762 113.721 75.9922L115.065 77.0242C114.297 78.0682 113.049 78.7402 111.525 78.7402C108.873 78.7402 107.061 76.7002 107.061 74.3002C107.061 71.9002 108.873 69.8602 111.525 69.8602C113.049 69.8602 114.297 70.5442 115.065 71.5642L113.721 72.6082C113.241 71.9242 112.485 71.4562 111.525 71.4562C109.941 71.4562 108.813 72.6922 108.813 74.3002C108.813 75.9082 109.941 77.1442 111.525 77.1442ZM116.723 78.5002V70.1002H118.427V73.4482H122.663V70.1002H124.367V78.5002H122.663V74.9962H118.427V78.5002H116.723ZM126.897 78.5002V70.1002H131.793V71.5162H128.601V73.5082H131.313V74.9242H128.601V77.0842H131.793V78.5002H126.897Z" fill="black"/>
<path fill-rule="evenodd" clip-rule="evenodd" d="M31.18 101.114L30.0638 102.134H29.7758L30.4359 100.97H31.18V101.114ZM30.3759 105.062H30.1359C29.8358 105.422 29.4998 105.71 29.1757 105.71C28.8397 105.71 28.6717 105.506 28.6717 105.062C28.6717 104.882 28.6957 104.69 28.7317 104.522L30.688 103.874C31.072 102.962 30.6159 102.566 30.0759 102.566C29.1517 102.566 28.0956 104.186 28.0956 105.482C28.0956 106.094 28.3836 106.43 28.8397 106.43C29.3678 106.418 29.9198 105.902 30.3759 105.062ZM29.7046 103.094C29.9686 103.094 30.1966 103.298 30.0766 103.766L28.8644 104.09C29.0565 103.514 29.4165 103.094 29.7046 103.094ZM25.8886 103.118H26.5367L25.5045 105.95C25.4085 106.19 25.5405 106.43 25.7925 106.43C26.5247 106.43 27.4008 105.806 27.7368 104.918H27.5568C27.2928 105.29 26.7167 105.698 26.2846 105.77L27.2328 103.118H28.2049L28.3249 102.71H27.3768L27.7368 101.69H27.3648L26.6927 102.71L25.8886 102.818V103.118ZM24.9878 102.578C25.1198 102.578 25.2998 102.722 25.2158 102.986L24.0516 105.806C24.3517 105.758 24.6637 105.47 24.8438 105.206H25.0358C24.7597 105.914 24.1356 106.43 23.5956 106.43C23.4636 106.43 23.2715 106.286 23.3675 106.022L24.4477 103.202C24.1477 103.25 23.8356 103.538 23.6556 103.802H23.4756C23.7516 103.082 24.4237 102.578 24.9878 102.578ZM25.3246 101.858C25.5647 101.858 25.7687 101.666 25.7687 101.414C25.7687 101.174 25.5647 100.97 25.3246 100.97C25.0726 100.97 24.8806 101.174 24.8806 101.414C24.8806 101.654 25.0846 101.858 25.3246 101.858ZM20.0797 104.198C20.3437 103.622 20.2477 103.358 20.0797 103.358C19.9357 103.358 19.7676 103.514 19.5996 103.802H19.4196C19.6956 103.19 20.0557 102.578 20.4517 102.578C20.7878 102.578 20.9078 102.914 20.9078 103.286V103.814C20.9618 103.752 21.0144 103.69 21.0658 103.63L21.0667 103.628L21.0675 103.628C21.5745 103.033 21.9617 102.578 22.408 102.578C22.7561 102.578 22.9361 102.794 22.9361 103.118C22.9361 103.31 22.8761 103.55 22.7441 103.802L21.7479 105.806C22.048 105.758 22.36 105.47 22.54 105.206H22.7201C22.444 105.926 21.7719 106.43 21.2079 106.43C20.9558 106.43 20.8118 106.166 20.9198 105.95L22.072 103.73C22.204 103.478 22.228 103.31 22.024 103.31C21.7479 103.31 21.0998 103.766 20.7518 104.186L19.9957 106.178C19.9117 106.382 19.8277 106.43 19.6356 106.43C19.3236 106.43 19.1676 106.226 19.3116 105.902L20.0797 104.198ZM19.2987 103.43C19.4307 102.974 19.3587 102.566 19.0106 102.566C18.5766 102.566 18.4407 102.852 18.02 103.739L17.9905 103.802V103.274C17.9905 102.902 17.8705 102.566 17.5344 102.566C17.1384 102.566 16.7783 103.178 16.5023 103.79H16.6823C16.8743 103.514 17.0544 103.346 17.1984 103.346C17.3664 103.346 17.4624 103.61 17.1984 104.186L16.4303 105.89C16.2863 106.214 16.4423 106.418 16.7543 106.418C16.9464 106.418 17.0304 106.37 17.1144 106.166L17.8705 104.174C18.0865 103.91 18.2785 103.682 18.5186 103.43H19.2987ZM15.5064 103.766C15.6264 103.298 15.3984 103.094 15.1344 103.094C14.8463 103.094 14.4863 103.514 14.2942 104.09L15.5064 103.766ZM15.8057 105.062H15.5657C15.2656 105.422 14.9296 105.71 14.6055 105.71C14.2695 105.71 14.1015 105.506 14.1015 105.062C14.1015 104.882 14.1255 104.69 14.1615 104.522L16.1178 103.874C16.5018 102.962 16.0458 102.566 15.5057 102.566C14.5815 102.566 13.5254 104.186 13.5254 105.482C13.5254 106.094 13.8134 106.43 14.2695 106.43C14.7976 106.418 15.3497 105.902 15.8057 105.062ZM11.9665 103.118H11.3184V102.818L12.1225 102.71L12.7946 101.69H13.1666L12.8066 102.71H13.7547L13.6347 103.118H12.6626L11.7144 105.77C12.1465 105.698 12.7226 105.29 12.9866 104.918H13.1666C12.8306 105.806 11.9545 106.43 11.2224 106.43C10.9703 106.43 10.8383 106.19 10.9343 105.95L11.9665 103.118ZM7.88648 105.314C7.88648 104.438 8.85862 103.262 9.3987 103.262C9.51871 103.262 9.63873 103.274 9.73475 103.31L9.17066 104.822C8.84662 105.218 8.34254 105.698 8.10251 105.698C7.97049 105.698 7.88648 105.578 7.88648 105.314ZM10.5632 102.386L10.8632 102.41L9.81906 104.81C9.56702 105.386 9.67504 105.65 9.81906 105.65C9.96308 105.65 10.1431 105.482 10.3351 105.206H10.5152C10.2391 105.818 9.87907 106.43 9.48301 106.43C9.14696 106.43 8.94293 106.07 9.00294 105.422L9.02694 105.194L8.96158 105.285C8.53167 105.886 8.14265 106.43 7.74276 106.43C7.39471 106.43 7.21468 106.214 7.21468 105.89C7.21468 104.498 8.7389 102.722 10.1671 102.722H10.2271L10.5632 102.386ZM7.81402 103.43C7.94604 102.974 7.87403 102.566 7.52598 102.566C7.09192 102.566 6.956 102.852 6.53537 103.739L6.50583 103.802V103.274C6.50583 102.902 6.38581 102.566 6.04976 102.566C5.65371 102.566 5.29365 103.178 5.01761 103.79H5.19764C5.38967 103.514 5.56969 103.346 5.70171 103.346C5.86974 103.346 5.96575 103.61 5.70171 104.186L4.9336 105.902C4.78958 106.226 4.9456 106.43 5.25765 106.43C5.44968 106.43 5.53369 106.382 5.6177 106.178L6.37381 104.186C6.58984 103.922 6.78187 103.694 7.0219 103.442H7.81402V103.43ZM2.86842 106.069L2.79641 106.285H0L0.0720104 106.057C0.936136 105.901 1.08016 105.829 1.44021 104.857L2.22032 102.769C2.56837 101.797 2.49636 101.725 1.74025 101.569L1.81226 101.353H5.44879L5.23276 102.517H4.96872C4.96872 101.821 4.89671 101.641 4.23661 101.641H4.06859C3.4205 101.641 3.33648 101.737 3.15646 102.241L2.64038 103.645H3.39649C3.90056 103.645 4.09259 103.333 4.32063 102.925H4.58466L3.96057 104.629H3.69654C3.75654 104.113 3.75654 103.909 3.28848 103.909H2.53237L2.18432 104.869C1.80809 105.868 1.9156 105.888 2.81149 106.058C2.83013 106.062 2.8491 106.065 2.86842 106.069Z" fill="black"/>
<path fill-rule="evenodd" clip-rule="evenodd" d="M5.24476 91.9344L4.12857 92.7388V92.7508H3.84052L4.50063 91.7903H5.24476V91.9344ZM13.0472 97.565L14.8355 92.8107L14.7755 92.7387L13.5393 92.8827V93.0268L13.7793 93.2069C13.9843 93.3663 13.93 93.515 13.76 93.9807L13.7313 94.0593L12.3631 97.7091C12.2551 97.9252 12.3991 98.1893 12.6511 98.1893C13.2152 98.1893 13.8153 97.6731 14.0914 96.9647H13.9114C13.7193 97.2289 13.3353 97.517 13.0472 97.565ZM21.2438 93.9032L22.36 92.8827V92.7387H21.6159L20.9558 93.9032H21.2438ZM21.315 96.8207H21.5551C21.111 97.6731 20.5589 98.1893 20.0308 98.1893C19.5747 98.1893 19.2867 97.8532 19.2867 97.2409C19.2867 95.9442 20.3429 94.3234 21.267 94.3234C21.7951 94.3234 22.2632 94.7196 21.8791 95.6321L19.9108 96.2804C19.8748 96.4485 19.8508 96.6406 19.8508 96.8207C19.8508 97.2649 20.0188 97.469 20.3549 97.469C20.6789 97.469 21.015 97.1808 21.315 96.8207ZM21.2544 95.5241C21.3745 95.0678 21.1464 94.8637 20.8824 94.8637C20.6063 94.8637 20.2463 95.2839 20.0422 95.8482L21.2544 95.5241ZM17.7258 94.8874H17.0777V94.5873L17.8818 94.4792L18.554 93.4587H18.926L18.566 94.4792H19.5141L19.3941 94.8874H18.4219L17.4738 97.5408C17.9058 97.4687 18.4819 97.0605 18.746 96.6883H18.926C18.59 97.5768 17.7138 98.2011 16.9817 98.2011C16.7296 98.2011 16.5976 97.961 16.6936 97.7208L17.7258 94.8874ZM16.4055 94.7434C16.4775 94.4792 16.3095 94.3352 16.1655 94.3352C15.6014 94.3352 14.9292 94.8514 14.6532 95.5598H14.8332C15.0133 95.2956 15.3253 95.0075 15.6254 94.9595L14.5452 97.7808C14.4492 98.045 14.6412 98.1891 14.7732 98.1891C15.3133 98.1891 15.9374 97.6728 16.2135 96.9644H16.0334C15.8534 97.2286 15.5413 97.5167 15.2413 97.5647L16.4055 94.7434ZM16.9585 93.1829C16.9585 93.423 16.7544 93.6271 16.5144 93.6271C16.2744 93.6271 16.0703 93.423 16.0703 93.1829C16.0703 92.9428 16.2624 92.7387 16.5144 92.7387C16.7544 92.7387 16.9585 92.9428 16.9585 93.1829ZM10.8987 95.0318C10.3586 95.0318 9.38641 96.2084 9.38641 97.0848C9.38641 97.3489 9.47043 97.469 9.61445 97.469C9.84249 97.469 10.3466 96.9887 10.6706 96.5926L11.2347 95.0798C11.1267 95.0438 11.0187 95.0318 10.8987 95.0318ZM12.3632 94.1794L12.0632 94.1554L11.7271 94.4915H11.6671C10.2389 94.4915 8.71459 96.2684 8.71459 97.6611C8.71459 97.9853 8.89463 98.2014 9.24269 98.2014C9.64259 98.2014 10.0316 97.6573 10.4616 97.0561L10.5269 96.9648L10.5029 97.1929C10.4429 97.8412 10.6469 98.2014 10.983 98.2014C11.3791 98.2014 11.7391 97.5891 12.0152 96.9768H11.8351C11.6431 97.2529 11.4631 97.421 11.3191 97.421C11.175 97.421 11.067 97.1569 11.3191 96.5806L12.3632 94.1794ZM6.3135 98.0694C5.79741 98.2735 5.43734 98.5136 5.43734 98.8858C5.43734 99.234 5.7614 99.3781 6.43352 99.3781C7.33368 99.3781 7.82576 99.1139 7.82576 98.7658C7.82576 98.6097 7.62173 98.5376 7.08163 98.3576C6.73357 98.2495 6.48153 98.1535 6.3135 98.0694ZM6.91282 96.5926C6.67277 96.5926 6.58876 96.3885 6.58876 96.1724C6.58876 95.4761 6.92482 94.6117 7.46491 94.6117C7.70495 94.6117 7.78897 94.8158 7.78897 95.0319C7.77697 95.7402 7.44091 96.5926 6.91282 96.5926ZM7.3701 97.7211C8.03022 97.9252 8.43829 98.0813 8.43829 98.5375C8.43829 99.1258 7.3581 99.8221 6.04987 99.8101C5.29374 99.8101 4.64563 99.606 4.64563 99.1138C4.64563 98.6456 5.0777 98.2614 6.13389 97.9492C5.98986 97.8532 5.92985 97.7331 5.92985 97.565C5.92985 97.2769 6.1939 97.0488 6.64998 96.8327C6.2059 96.7726 5.91785 96.4365 5.91785 95.9442C5.91785 95.1879 6.54196 94.3234 7.52613 94.3234C7.73017 94.3234 7.9102 94.3715 8.05422 94.4675H9.13441L9.01439 94.8757H8.37828C8.41429 94.9838 8.43829 95.1038 8.43829 95.2359C8.43829 95.9682 7.85019 96.8087 6.91402 96.8567C6.67398 96.9887 6.55396 97.1688 6.55396 97.3129C6.55396 97.4824 6.75029 97.5398 7.1842 97.6664C7.24193 97.6833 7.30387 97.7014 7.3701 97.7211ZM3.56462 95.6682C4.03271 95.6682 4.04471 95.8723 3.9727 96.3885H4.23674L4.86085 94.6837H4.59681C4.36877 95.0919 4.17673 95.404 3.67264 95.404H2.64046L3.14455 93.9994C3.32458 93.4951 3.4086 93.3991 4.05671 93.3991H4.51279C5.17291 93.3991 5.24492 93.5791 5.24492 94.2755H5.50896L5.725 93.1109H1.81232L1.7403 93.327C2.49644 93.4831 2.56845 93.5551 2.22039 94.5276L1.44025 96.6286C1.08019 97.6011 0.936164 97.6732 0.0600105 97.8292L0 98.0574H4.34476L5.1249 96.8207H4.82484C4.32076 97.313 3.81667 97.7692 2.8325 97.7692C1.74998 97.7692 1.76926 97.7162 2.09407 96.8237C2.11497 96.7662 2.13715 96.7053 2.16038 96.6407L2.52044 95.6802H3.56462V95.6682Z" fill="black"/>
<path fill-rule="evenodd" clip-rule="evenodd" d="M7.14964 85.3879C7.3896 85.3879 7.59356 85.1839 7.59356 84.944C7.59356 84.7042 7.3896 84.5002 7.14964 84.5002C6.89769 84.5002 6.70573 84.7042 6.70573 84.944C6.70573 85.1959 6.89769 85.3879 7.14964 85.3879ZM10.7022 86.8989C10.7022 86.3231 10.5583 86.1072 10.1503 86.1072C9.64644 86.1072 9.17853 86.647 8.71062 87.2947L9.71843 84.5959L9.65844 84.5119L8.42268 84.6559V84.7998L8.66263 84.9797C8.87155 85.1422 8.81099 85.3046 8.63302 85.782L8.61464 85.8313L7.52285 88.6861C7.42687 88.926 7.31889 89.2138 7.31889 89.2858C7.31889 89.6217 7.7748 89.9455 8.19472 89.9455C9.13054 89.9575 10.7022 88.2303 10.7022 86.8989ZM21.1042 85.6754L22.22 84.6559V84.5119H21.4761L20.8163 85.6754H21.1042ZM21.1765 88.5901H21.4164C20.9605 89.4418 20.4086 89.9575 19.8807 89.9455C19.4248 89.9455 19.1369 89.6217 19.1369 89.0099C19.1369 87.7145 20.1927 86.0952 21.1165 86.0952C21.6444 86.0952 22.1123 86.4911 21.7284 87.4027L19.7727 88.0504C19.7368 88.2183 19.7128 88.4102 19.7128 88.5901C19.7128 89.0339 19.8807 89.2378 20.2167 89.2378C20.5406 89.2378 20.8765 88.95 21.1765 88.5901ZM21.1153 87.2947C21.2353 86.839 21.0073 86.635 20.7434 86.635C20.4555 86.635 20.0955 87.0549 19.9036 87.6186L21.1153 87.2947ZM17.5747 86.6597H16.9268V86.3598L17.7306 86.2519L18.4025 85.2323H18.7744L18.4145 86.2519H19.3623L19.2423 86.6597H18.2705L17.3227 89.3105C17.7546 89.2386 18.3305 88.8307 18.5945 88.4589H18.7744C18.4385 89.3465 17.5627 89.9702 16.8308 89.9702C16.5789 89.9702 16.4469 89.7304 16.5429 89.4905L17.5747 86.6597ZM16.5931 86.9715C16.7251 86.5157 16.6531 86.1079 16.3052 86.1079C15.8713 86.1079 15.7354 86.3944 15.3149 87.2811L15.2854 87.3434V86.8156C15.2854 86.4438 15.1654 86.1079 14.8295 86.1079C14.4336 86.1079 14.0736 86.7197 13.7977 87.3314H13.9776C14.1696 87.0555 14.3496 86.8876 14.4815 86.8876C14.6495 86.8876 14.7455 87.1515 14.4815 87.7272L13.7137 89.4305C13.5697 89.7543 13.7257 89.9582 14.0376 89.9582C14.2296 89.9582 14.3136 89.9102 14.3976 89.7063L15.1534 87.7152C15.3694 87.4513 15.5613 87.2234 15.8013 86.9715H16.5931ZM12.7902 87.2947C12.9101 86.839 12.6822 86.635 12.4182 86.635C12.1303 86.635 11.7823 87.0549 11.5784 87.6186L12.7902 87.2947ZM13.0893 88.5901H12.8494C12.5495 88.95 12.2135 89.2378 11.8896 89.2378C11.5536 89.2378 11.3857 89.0339 11.3857 88.5901C11.3857 88.4102 11.4097 88.2183 11.4457 88.0504L13.4013 87.4027C13.7852 86.4911 13.3293 86.0952 12.7894 86.0952C11.8656 86.0952 10.8098 87.7145 10.8098 89.0099C10.8098 89.6217 11.0977 89.9455 11.5536 89.9455C12.0815 89.9575 12.6334 89.4418 13.0893 88.5901ZM8.05122 89.0464C8.05122 89.2023 8.32717 89.3822 8.51913 89.3822C9.29898 89.3822 10.0308 87.9788 10.0188 87.1992C10.0188 86.9353 9.88686 86.8273 9.7069 86.8273C9.41896 86.8273 8.89106 87.2591 8.55512 87.667L8.24318 88.5066C8.1352 88.7825 8.05122 88.9984 8.05122 89.0464ZM6.79168 86.1079C6.93565 86.1079 7.10362 86.2519 7.03163 86.5157L5.87986 89.3345C6.1798 89.2865 6.49174 88.9986 6.6717 88.7348H6.85167C6.57572 89.4425 5.95184 89.9582 5.41195 89.9582C5.26798 89.9582 5.07601 89.8143 5.172 89.5504L6.25179 86.7317C5.95184 86.7796 5.63991 87.0675 5.45994 87.3314H5.27998C5.55592 86.6237 6.22779 86.1079 6.79168 86.1079ZM1.81165 84.8604H4.39115L4.31916 85.0883C3.44333 85.2443 3.29936 85.3162 2.93943 86.2878L2.17158 88.3989C1.79965 89.4064 1.89563 89.5264 2.5555 89.5264C3.37077 89.5264 3.90535 88.934 4.37213 88.4167C4.40681 88.3783 4.44111 88.3402 4.47513 88.3029H4.77507L3.92324 89.8142H0L0.071986 89.5983C0.935818 89.4424 1.07979 89.3704 1.43972 88.3989L2.21957 86.2758C2.5675 85.3042 2.49552 85.2323 1.73966 85.0763L1.81165 84.8604Z" fill="black"/>
<path d="M200.422 43.313V80.5005H190.195V62.4536L182.703 70.9302H179.641L172.148 62.4536V80.5005H161.922V43.313H165.531L181.172 59.1724L196.812 43.313H200.422Z" fill="#FA7659"/>
<path d="M245.023 43.0396C247.174 43.0396 249.289 43.313 251.367 43.8599C253.482 44.3703 255.177 45.063 256.453 45.938V55.8364C254.885 54.925 253.336 54.1411 251.805 53.4849C250.273 52.7922 248.469 52.4458 246.391 52.4458C245.188 52.4458 244.148 52.6281 243.273 52.9927C242.398 53.3573 241.961 53.9588 241.961 54.7974C241.961 55.7088 242.49 56.4015 243.547 56.8755C244.604 57.313 245.898 57.8234 247.43 58.4067L251.367 59.8833C254.029 60.9041 255.906 62.2896 257 64.0396C258.13 65.7896 258.695 67.5396 258.695 69.2896C258.695 71.6229 258.021 73.701 256.672 75.5239C255.323 77.3104 253.5 78.7323 251.203 79.7896C248.906 80.8104 246.336 81.3208 243.492 81.3208C241.305 81.3208 239.135 80.938 236.984 80.1724C234.833 79.4067 232.956 78.4588 231.352 77.3286V67.4302C233.102 68.7427 234.979 69.8182 236.984 70.6567C239.026 71.4953 241.068 71.9146 243.109 71.9146C244.385 71.9146 245.406 71.7687 246.172 71.4771C246.974 71.1489 247.375 70.6021 247.375 69.8364C247.375 69.2896 247.083 68.8156 246.5 68.4146C245.917 68.0135 245.133 67.6672 244.148 67.3755L238.953 65.7349C236.911 65.0786 235.326 64.1854 234.195 63.0552C233.065 61.925 232.281 60.6672 231.844 59.2817C231.406 57.8599 231.188 56.4198 231.188 54.9614C231.188 52.3729 231.844 50.2036 233.156 48.4536C234.469 46.6672 236.182 45.3182 238.297 44.4067C240.411 43.4953 242.654 43.0396 245.023 43.0396Z" fill="#5BB5A7"/>
<g filter="url(#filter0_d_2500_54224)">
<path d="M218.429 43.2056C220.321 43.2056 222.158 43.521 223.939 44.1519C225.758 44.7827 227.391 45.7104 228.838 46.9351C230.285 48.1597 231.436 49.644 232.289 51.3882C233.18 53.1323 233.625 55.0991 233.625 57.2886C233.625 60.146 232.957 62.6138 231.621 64.6919C230.285 66.7329 228.541 68.2915 226.389 69.3677C224.236 70.4438 221.954 70.9819 219.542 70.9819C218.132 70.9819 216.87 70.8521 215.757 70.5923C214.644 70.2954 213.679 69.9243 212.862 69.479V80.5005H202.453V43.2056H218.429ZM212.862 52.9468V61.5747C213.493 61.7974 214.161 61.9829 214.866 62.1313C215.608 62.2798 216.388 62.354 217.204 62.354C218.837 62.354 220.191 61.853 221.268 60.8511C222.381 59.812 222.938 58.6245 222.938 57.2886C222.938 55.7671 222.381 54.6724 221.268 54.0044C220.191 53.2993 218.837 52.9468 217.204 52.9468H212.862Z" fill="#000091"/>
</g>
<defs>
<filter id="filter0_d_2500_54224" x="196.453" y="39.2056" width="43.1719" height="49.2949" filterUnits="userSpaceOnUse" color-interpolation-filters="sRGB">
<feFlood flood-opacity="0" result="BackgroundImageFix"/>
<feColorMatrix in="SourceAlpha" type="matrix" values="0 0 0 0 0 0 0 0 0 0 0 0 0 0 0 0 0 0 127 0" result="hardAlpha"/>
<feOffset dy="2"/>
<feGaussianBlur stdDeviation="3"/>
<feColorMatrix type="matrix" values="0 0 0 0 0 0 0 0 0 0 0 0 0 0 0.0705882 0 0 0 0.16 0"/>
<feBlend mode="normal" in2="BackgroundImageFix" result="effect1_dropShadow_2500_54224"/>
<feBlend mode="normal" in="SourceGraphic" in2="effect1_dropShadow_2500_54224" result="shape"/>
</filter>
</defs>
</svg>
