<svg width="84" height="84" viewBox="0 0 84 84" fill="none" xmlns="http://www.w3.org/2000/svg">
<path fill-rule="evenodd" clip-rule="evenodd" d="M15.75 14.7001C15.171 14.7001 14.7 14.2291 14.7 13.6501C14.7 13.0711 15.171 12.6001 15.75 12.6001C16.3289 12.6001 16.8 13.0711 16.8 13.6501C16.8 14.2291 16.3289 14.7001 15.75 14.7001Z" fill="#CACAFB"/>
<path fill-rule="evenodd" clip-rule="evenodd" d="M5.24995 73.5C4.67098 73.5 4.19995 73.029 4.19995 72.45C4.19995 71.871 4.67098 71.4 5.24995 71.4C5.82892 71.4 6.29995 71.871 6.29995 72.45C6.29995 73.029 5.82892 73.5 5.24995 73.5Z" fill="#CACAFB"/>
<path fill-rule="evenodd" clip-rule="evenodd" d="M78.75 67.2C78.171 67.2 77.7 66.7289 77.7 66.15C77.7 65.571 78.171 65.1 78.75 65.1C79.3289 65.1 79.8 65.571 79.8 66.15C79.8 66.7289 79.3289 67.2 78.75 67.2Z" fill="#CACAFB"/>
<path fill-rule="evenodd" clip-rule="evenodd" d="M61.9499 12.6C61.3709 12.6 60.8999 12.129 60.8999 11.55C60.8999 10.971 61.3709 10.5 61.9499 10.5C62.5289 10.5 62.9999 10.971 62.9999 11.55C62.9999 12.129 62.5289 12.6 61.9499 12.6Z" fill="#CACAFB"/>
<path d="M44.2555 10.5C61.6525 10.5 75.7555 24.603 75.7555 42C75.7555 42.5799 75.2854 43.05 74.7055 43.05C74.1256 43.05 73.6555 42.5799 73.6555 42C73.6555 25.7628 60.4927 12.6 44.2555 12.6C28.0183 12.6 14.8555 25.7628 14.8555 42C14.8555 58.2372 28.0183 71.4 44.2555 71.4C55.968 71.4 66.418 64.4884 71.1128 53.9787C71.3493 53.4493 71.9703 53.2118 72.4998 53.4483C73.0292 53.6848 73.2667 54.3058 73.0302 54.8352C68.0005 66.0946 56.8039 73.5 44.2555 73.5C26.8585 73.5 12.7555 59.397 12.7555 42C12.7555 24.603 26.8585 10.5 44.2555 10.5Z" fill="#FA794A"/>
<path d="M74.7055 51.0222C74.7055 51.6451 74.2006 52.15 73.5777 52.15C72.9549 52.15 72.4499 51.6451 72.4499 51.0222C72.4499 50.3994 72.9549 49.8944 73.5777 49.8944C74.2006 49.8944 74.7055 50.3994 74.7055 51.0222Z" fill="#FA794A"/>
<path d="M15.2178 22.0837C14.7564 21.7324 14.0976 21.8217 13.7463 22.2831C10.1977 26.9445 8.24438 32.6337 8.24438 38.6167C8.24438 39.1966 8.71449 39.6667 9.29438 39.6667C9.87428 39.6667 10.3444 39.1966 10.3444 38.6167C10.3444 33.0973 12.1446 27.854 15.4172 23.5551C15.7685 23.0937 15.6792 22.4349 15.2178 22.0837Z" fill="#FA794A"/>
<path fill-rule="evenodd" clip-rule="evenodd" d="M58.7964 36.6628C58.0511 27.7193 53.0468 23.1 44.1 23.1C35.1532 23.1 30.1489 27.7193 29.4036 36.6628C29.3472 37.3396 29.9384 37.891 30.6097 37.7878L32.55 37.4893V37.948C31.7984 38.0929 31.2444 38.2933 30.8561 38.5829C29.8713 39.3171 29.3999 40.4914 29.3999 42C29.3999 44.6799 30.92 46.2 33.5999 46.2C33.7142 46.2 33.8243 46.1817 33.9273 46.1479C35.0443 48.3139 36.7759 50.0838 38.8799 51.2C38.8604 51.2801 38.85 51.3638 38.85 51.45C38.85 52.8136 38.2002 54.0254 37.1933 54.7927C37.177 54.8042 37.1612 54.8161 37.1457 54.8284C36.4479 55.3447 35.5846 55.65 34.65 55.65H32.55L32.3138 55.6543C28.9439 55.7785 26.25 58.5497 26.25 61.95C26.25 62.5299 26.7201 63 27.3 63C27.8799 63 28.35 62.5299 28.35 61.95C28.35 59.6304 30.2304 57.75 32.55 57.75H34.65L34.8862 57.7456C35.7644 57.7133 36.5967 57.5011 37.3474 57.1449C38.4731 58.9166 40.5493 59.4575 43.3047 58.7686C43.8672 58.628 44.2093 58.0579 44.0687 57.4953C43.928 56.9327 43.3579 56.5907 42.7953 56.7313C40.8321 57.2221 39.6854 56.9565 39.0737 55.9356C40.1012 54.9221 40.7822 53.5583 40.9229 52.0378C41.9319 52.3388 42.9976 52.5 44.1 52.5C45.2024 52.5 46.2681 52.3388 47.2771 52.0378C47.5664 55.1644 50.1403 57.6287 53.3138 57.7456L53.55 57.75H55.65C57.9696 57.75 59.85 59.6304 59.85 61.95C59.85 62.5299 60.3201 63 60.9 63C61.4799 63 61.95 62.5299 61.95 61.95C61.95 58.5497 59.2561 55.7785 55.8862 55.6543L55.65 55.65H53.55C51.2304 55.65 49.35 53.7696 49.35 51.45C49.35 51.3638 49.3396 51.2801 49.3201 51.2C51.4241 50.0838 53.1557 48.3139 54.2727 46.148C54.3757 46.1817 54.4857 46.2 54.6 46.2C57.2799 46.2 58.8 44.6799 58.8 42C58.8 40.4914 58.3286 39.3171 57.3438 38.5829C56.813 38.1871 55.9726 37.9577 54.7411 37.8094C54.6962 37.8033 54.6504 37.8002 54.6039 37.8L54.6022 37.7999C54.5009 37.7995 54.4021 37.8139 54.3083 37.841C54.1571 37.8847 54.0199 37.9614 53.905 38.0629C53.7019 38.2424 53.5687 38.4994 53.5518 38.7875C53.5502 38.8139 53.5496 38.8401 53.55 38.8661V40.425L53.5461 40.7145C53.4008 46.1001 49.216 50.4 44.1 50.4C38.8927 50.4 34.65 45.9452 34.65 40.425V37.1662L44.2597 35.6878L44.3835 35.661C44.6667 35.5816 44.9059 35.3861 45.0392 35.1196L46.0892 33.0196L46.1376 32.9069C46.3169 32.4127 46.1012 31.8516 45.6196 31.6108L45.5069 31.5624C45.0127 31.3831 44.4517 31.5988 44.2109 32.0804L43.4028 33.6945L31.647 35.5026L31.6661 35.3674C32.6952 28.5086 36.7535 25.2 44.1 25.2L44.4771 25.2029C51.4609 25.3132 55.3834 28.5116 56.4779 35.0158L56.532 35.3629L49.6047 33.6313L49.4842 33.6085C48.9628 33.5407 48.462 33.8729 48.3314 34.3953C48.1907 34.9579 48.5328 35.528 49.0953 35.6686L57.4953 37.7686L57.618 37.7919C58.2688 37.8763 58.8526 37.3376 58.7964 36.6628ZM32.55 40.0996C32.3273 40.1581 32.1787 40.2162 32.1113 40.2664C31.7177 40.5599 31.4999 41.1025 31.4999 42C31.4999 43.3354 31.9475 43.9452 33.0869 44.0737C32.7666 43.0163 32.5819 41.8963 32.5538 40.7361L32.55 40.425V40.0996ZM56.7 42C56.7 43.3354 56.2525 43.9452 55.1131 44.0736C55.4619 42.922 55.65 41.6961 55.65 40.425V40.0996C55.8727 40.1581 56.0213 40.2162 56.0886 40.2664C56.4822 40.5599 56.7 41.1025 56.7 42Z" fill="white"/>
</svg>
