<svg width="98" height="39" viewBox="0 0 98 39" fill="none" xmlns="http://www.w3.org/2000/svg">
<path d="M39.4219 0.8125V38H29.1953V19.9531L21.7031 28.4297H18.6406L11.1484 19.9531V38H0.921875V0.8125H4.53125L20.1719 16.6719L35.8125 0.8125H39.4219Z" fill="#FA7659"/>
<path d="M84.0234 0.539062C86.1745 0.539062 88.2891 0.8125 90.3672 1.35938C92.4818 1.86979 94.1771 2.5625 95.4531 3.4375V13.3359C93.8854 12.4245 92.3359 11.6406 90.8047 10.9844C89.2734 10.2917 87.4688 9.94531 85.3906 9.94531C84.1875 9.94531 83.1484 10.1276 82.2734 10.4922C81.3984 10.8568 80.9609 11.4583 80.9609 12.2969C80.9609 13.2083 81.4896 13.901 82.5469 14.375C83.6042 14.8125 84.8984 15.3229 86.4297 15.9062L90.3672 17.3828C93.0286 18.4036 94.9062 19.7891 96 21.5391C97.1302 23.2891 97.6953 25.0391 97.6953 26.7891C97.6953 29.1224 97.0208 31.2005 95.6719 33.0234C94.3229 34.8099 92.5 36.2318 90.2031 37.2891C87.9062 38.3099 85.3359 38.8203 82.4922 38.8203C80.3047 38.8203 78.1354 38.4375 75.9844 37.6719C73.8333 36.9062 71.9557 35.9583 70.3516 34.8281V24.9297C72.1016 26.2422 73.9792 27.3177 75.9844 28.1562C78.026 28.9948 80.0677 29.4141 82.1094 29.4141C83.3854 29.4141 84.4062 29.2682 85.1719 28.9766C85.974 28.6484 86.375 28.1016 86.375 27.3359C86.375 26.7891 86.0833 26.3151 85.5 25.9141C84.9167 25.513 84.1328 25.1667 83.1484 24.875L77.9531 23.2344C75.9115 22.5781 74.3255 21.6849 73.1953 20.5547C72.0651 19.4245 71.2812 18.1667 70.8438 16.7812C70.4062 15.3594 70.1875 13.9193 70.1875 12.4609C70.1875 9.8724 70.8438 7.70312 72.1562 5.95312C73.4688 4.16667 75.1823 2.81771 77.2969 1.90625C79.4115 0.994792 81.6536 0.539062 84.0234 0.539062Z" fill="#5BB5A7"/>
<path d="M57.4287 0.705078C59.3213 0.705078 61.1582 1.02051 62.9395 1.65137C64.7578 2.28223 66.3906 3.20996 67.8379 4.43457C69.2852 5.65918 70.4355 7.14355 71.2891 8.8877C72.1797 10.6318 72.625 12.5986 72.625 14.7881C72.625 17.6455 71.957 20.1133 70.6211 22.1914C69.2852 24.2324 67.541 25.791 65.3887 26.8672C63.2363 27.9434 60.9541 28.4814 58.542 28.4814C57.1318 28.4814 55.8701 28.3516 54.7568 28.0918C53.6436 27.7949 52.6787 27.4238 51.8623 26.9785V38H41.4531V0.705078H57.4287ZM51.8623 10.4463V19.0742C52.4932 19.2969 53.1611 19.4824 53.8662 19.6309C54.6084 19.7793 55.3877 19.8535 56.2041 19.8535C57.8369 19.8535 59.1914 19.3525 60.2676 18.3506C61.3809 17.3115 61.9375 16.124 61.9375 14.7881C61.9375 13.2666 61.3809 12.1719 60.2676 11.5039C59.1914 10.7988 57.8369 10.4463 56.2041 10.4463H51.8623Z" fill="#000091"/>
</svg>
