<svg width="325" height="122" viewBox="0 0 325 122" fill="none" xmlns="http://www.w3.org/2000/svg">
<rect width="33" height="12" transform="translate(16 16)" fill="white"/>
<path d="M26.6562 26.5498C26.6602 26.5498 26.6642 26.5439 26.6642 26.5439C26.696 26.5203 26.7279 26.4909 26.7558 26.4556C26.7518 26.4556 26.7478 26.4556 26.7438 26.4498C26.7159 26.4792 26.6841 26.5145 26.6562 26.5498Z" fill="#00008F"/>
<path d="M31.0694 25.0629L30.9997 25.1229C31.0396 25.1129 31.0694 25.1029 31.0694 25.0629Z" fill="#00008F"/>
<path fill-rule="evenodd" clip-rule="evenodd" d="M29.6426 26.5817C29.7704 26.4532 29.8983 26.3168 30.0261 26.1765H30.0222C30.2624 25.9038 30.4948 25.6428 30.7737 25.4051C30.8589 25.3272 30.9402 25.261 31.0177 25.2064C31.0291 25.195 31.0349 25.1779 31.0406 25.1612C31.0465 25.1438 31.0523 25.1268 31.0642 25.1168C31.009 25.1379 30.965 25.1712 30.9207 25.2047C30.8749 25.2394 30.8289 25.2742 30.7698 25.296C30.7466 25.296 30.7233 25.2727 30.7466 25.2493C30.8279 25.1908 30.9092 25.1285 30.9867 25.0662H30.9712C30.948 25.0662 30.948 25.0428 30.948 25.0194C30.6596 24.9736 30.4381 25.1708 30.2399 25.3473L30.2275 25.3584C30.1966 25.3739 30.1675 25.3585 30.1446 25.3464C30.133 25.3403 30.123 25.335 30.1152 25.335C29.9398 25.3938 29.7885 25.5022 29.6362 25.6114C29.4959 25.7119 29.3548 25.813 29.1933 25.8765V25.8298C29.1384 25.8487 29.0842 25.8734 29.0298 25.8981C28.9498 25.9345 28.8696 25.971 28.7865 25.9895C28.6349 26.0247 28.4943 26.0202 28.358 26.0158C28.3133 26.0143 28.2689 26.0129 28.2249 26.0129C27.9768 26.0375 27.7319 26.0906 27.4872 26.1437L27.4076 26.161C27.4037 26.1629 27.3998 26.1639 27.3959 26.1649C27.3921 26.1658 27.3882 26.1668 27.3843 26.1688C27.2371 26.2077 27.1016 26.2623 26.966 26.3402L26.9505 26.348C26.9452 26.3551 26.9398 26.3614 26.9349 26.3673C26.929 26.3743 26.9237 26.3806 26.9195 26.3869C26.873 26.4415 26.8304 26.4882 26.7646 26.5233C26.6673 26.5722 26.5832 26.6476 26.5005 26.7219C26.4647 26.754 26.429 26.7861 26.3927 26.8155C26.385 26.8233 26.3695 26.8272 26.3578 26.8272C26.2378 26.9441 26.1177 27.061 25.9937 27.1739C25.986 27.1817 25.9511 27.1856 25.924 27.1817C25.924 27.1817 25.9279 27.1817 25.9279 27.1778L25.9395 27.1545L25.9976 27.061C26.0092 27.0434 26.0199 27.0259 26.0305 27.0084C26.0412 26.9908 26.0518 26.9733 26.0635 26.9558C26.0944 26.909 26.1255 26.8622 26.1603 26.8194C26.168 26.8077 26.168 26.796 26.1603 26.7882C26.1525 26.7804 26.1409 26.7765 26.1293 26.7765C26.2416 26.6675 26.3733 26.5739 26.5089 26.4921V26.4882C26.4934 26.4921 26.4702 26.4804 26.4818 26.4649C26.4932 26.4506 26.5024 26.4342 26.5112 26.4188L26.5205 26.4025C26.5225 26.3986 26.5234 26.3957 26.5244 26.3928C26.5254 26.3899 26.5263 26.3869 26.5283 26.383C26.5263 26.3791 26.5234 26.3762 26.5205 26.3733C26.5176 26.3704 26.5147 26.3675 26.5128 26.3636L26.4893 26.3791C26.4612 26.3974 26.4324 26.4163 26.4082 26.4376C26.3911 26.4523 26.3751 26.4725 26.3588 26.4932C26.3232 26.5382 26.2857 26.5856 26.23 26.5856C26.2261 26.5856 26.2068 26.5856 26.1952 26.5817C26.1835 26.5817 26.1758 26.5778 26.1719 26.5739C26.1719 26.572 26.1719 26.571 26.1724 26.5705C26.1729 26.57 26.1738 26.57 26.1758 26.57C26.1758 26.57 26.1797 26.5662 26.1797 26.5623C26.1797 26.5623 26.1797 26.5584 26.1835 26.5584C26.1855 26.5545 26.1874 26.5515 26.1893 26.5486C26.1913 26.5457 26.1932 26.5428 26.1952 26.5389C26.1971 26.535 26.199 26.5321 26.201 26.5291C26.2029 26.5262 26.2048 26.5233 26.2068 26.5194C26.2087 26.5175 26.2097 26.5145 26.2106 26.5116C26.2116 26.5087 26.2126 26.5058 26.2145 26.5038L26.2189 26.4958C26.2227 26.4889 26.2273 26.4808 26.23 26.4726C26.2319 26.4688 26.2339 26.4658 26.2358 26.4629C26.2378 26.46 26.2397 26.4571 26.2416 26.4532C26.2474 26.4454 26.2523 26.4366 26.2571 26.4278C26.262 26.4191 26.2668 26.4103 26.2726 26.4025C26.2765 26.3947 26.2804 26.3869 26.2881 26.3791C26.292 26.3713 26.2959 26.3645 26.2997 26.3577C26.3036 26.3509 26.3075 26.3441 26.3114 26.3363C26.323 26.3168 26.3114 26.3012 26.2959 26.2973C26.3385 26.2428 26.3888 26.196 26.4508 26.161H26.4431C26.4965 26.1341 26.5515 26.1026 26.6062 26.0713C26.6384 26.0528 26.671 26.0341 26.7026 26.0168C26.7142 26.0051 26.7258 25.9934 26.7413 25.9856C26.6135 26.0285 26.4973 26.0869 26.385 26.1649C26.385 26.1649 26.354 26.1765 26.3462 26.1843C26.3462 26.1843 26.323 26.1921 26.292 26.1649C26.2881 26.161 26.2881 26.1571 26.2881 26.1493C26.3016 26.1222 26.3293 26.1043 26.3594 26.0849C26.3812 26.0708 26.4041 26.056 26.4237 26.0363C26.4469 26.0363 26.4663 26.0363 26.4663 26.0597C26.9124 25.7099 27.4625 25.6289 28.0144 25.5477C28.3539 25.4978 28.6941 25.4478 29.0112 25.335C29.0441 25.3116 29.078 25.2892 29.1119 25.2668C29.1458 25.2444 29.1797 25.222 29.2126 25.1986C29.2691 25.1751 29.3198 25.1348 29.3734 25.0922C29.4263 25.0501 29.4822 25.0056 29.5496 24.9727C29.7278 24.8363 29.8634 24.6805 29.9331 24.4506C29.9331 24.4272 29.9099 24.4038 29.9099 24.4038C29.6155 24.7194 29.2785 24.9688 28.9182 25.1519C28.5747 25.3331 28.2067 25.36 27.8423 25.3866C27.7054 25.3966 27.569 25.4065 27.4347 25.4246C27.4579 25.3778 27.5044 25.3779 27.547 25.3779C27.547 25.3225 27.5735 25.2987 27.6075 25.2682C27.6166 25.26 27.6263 25.2514 27.6361 25.2415H27.702C27.7136 25.2415 27.7194 25.2298 27.7252 25.2181C27.731 25.2064 27.7368 25.1947 27.7484 25.1947C27.7949 25.1947 27.8608 25.1714 27.8375 25.1714C27.802 25.1257 27.7504 25.1438 27.6934 25.1637C27.6386 25.1829 27.5789 25.2038 27.5238 25.1714C27.5443 25.1489 27.5504 25.1219 27.556 25.0974C27.5621 25.0708 27.5675 25.0471 27.5896 25.035H27.6787C27.6787 24.9882 27.7252 24.9454 27.7252 24.9454C27.9272 24.8239 28.1223 24.7179 28.3137 24.6138C28.4416 24.5443 28.568 24.4756 28.6936 24.4038C28.6682 24.4038 28.6456 24.4143 28.6238 24.4244C28.589 24.4406 28.5558 24.4559 28.5154 24.4272C28.5386 24.4272 28.5386 24.4107 28.5386 24.3941C28.5386 24.3775 28.5386 24.361 28.5619 24.361C28.7072 24.3222 28.8365 24.2592 28.9686 24.195C29.0619 24.1496 29.1565 24.1036 29.2591 24.0649C29.2287 24.0649 29.2005 24.0731 29.173 24.0811C29.1201 24.0964 29.0699 24.111 29.0112 24.0649C29.0266 24.0571 29.039 24.0473 29.0513 24.0375C29.076 24.0178 29.1002 23.9986 29.1468 23.9986V23.9324C29.1468 23.909 29.17 23.909 29.1933 23.909C29.17 23.909 29.1468 23.8857 29.1468 23.8857C29.1591 23.8609 29.1833 23.8558 29.2103 23.8501C29.2343 23.8451 29.2605 23.8396 29.2824 23.8194C29.2591 23.8194 29.2165 23.8194 29.2165 23.796C29.2824 23.7064 29.3947 23.6831 29.507 23.6597C29.4954 23.6363 29.4731 23.6363 29.4538 23.6363C29.4344 23.6363 29.4179 23.6363 29.4179 23.6129C29.4179 23.5896 29.4412 23.5896 29.4644 23.5896H29.4179C29.3815 23.5712 29.3879 23.5385 29.3924 23.5158C29.3936 23.5096 29.3947 23.5041 29.3947 23.4999C29.4857 23.3927 29.5156 23.2662 29.5454 23.1404C29.5599 23.0788 29.5745 23.0173 29.5961 22.9584C29.5729 22.9584 29.5496 22.9584 29.5496 22.935C29.3318 23.1767 28.9866 23.2683 28.6587 23.3554L28.6277 23.3636H28.5154C28.4031 23.4103 28.2443 23.4103 28.1319 23.3402C28.0785 23.3122 28.0404 23.2771 27.9993 23.2393C27.9718 23.214 27.9429 23.1875 27.9073 23.161C27.7252 23.048 27.547 22.9584 27.3456 22.8883C26.7839 22.709 26.199 22.6155 25.6141 22.6389C25.7775 22.5491 25.9509 22.5133 26.1266 22.4771C26.2176 22.4584 26.3093 22.4395 26.4004 22.4129C26.458 22.396 26.515 22.3785 26.5716 22.3611C26.8929 22.2626 27.2046 22.1671 27.547 22.187C27.5022 22.1711 27.4448 22.1768 27.392 22.1821C27.3672 22.1846 27.3434 22.187 27.3224 22.187C27.0634 22.1677 26.8019 22.2253 26.529 22.2855C26.4712 22.2982 26.4129 22.3111 26.354 22.3233C26.2471 22.3456 26.1455 22.3775 26.0437 22.4095C25.9315 22.4448 25.8191 22.4801 25.6993 22.5025C25.6474 22.5205 25.6056 22.551 25.565 22.5807C25.4996 22.6285 25.437 22.6743 25.3391 22.6623V22.5922C25.5638 22.3194 25.8349 22.0506 26.1952 22.0272C26.5434 21.9705 26.8717 22.0109 27.2142 22.053C27.2718 22.0601 27.3297 22.0673 27.3882 22.074C27.669 22.0966 27.9317 22.1592 28.2148 22.2267L28.2443 22.2337C28.3062 22.2337 28.3411 22.2883 28.3748 22.3411C28.4023 22.384 28.429 22.4258 28.4689 22.4363C28.5241 22.4553 28.5792 22.4589 28.6344 22.4624C28.7148 22.4676 28.7952 22.4728 28.8756 22.5259C28.8756 22.5102 28.873 22.4949 28.8704 22.4798C28.8653 22.4499 28.8602 22.4206 28.8756 22.3896C28.9256 22.3393 28.9829 22.3528 29.0393 22.3661C29.0834 22.3764 29.127 22.3867 29.1662 22.3662C29.289 22.29 29.1738 22.1729 29.0585 22.0558C29.0029 21.9993 28.9472 21.9428 28.9182 21.8909C28.9182 21.8675 28.9415 21.8441 28.9415 21.8441C28.9924 21.8897 29.0398 21.9369 29.0867 21.9837C29.2043 22.1008 29.3194 22.2153 29.4799 22.2961C29.5922 22.3428 29.8634 22.409 29.8169 22.2727C29.7373 22.0961 29.6014 21.9429 29.4642 21.7883C29.4077 21.7246 29.351 21.6607 29.2979 21.5948V21.5052C29.2625 21.5052 29.2541 21.4917 29.2435 21.4749C29.2402 21.4696 29.2367 21.464 29.232 21.4584V21.3688C29.1752 21.339 29.1625 21.2918 29.1497 21.2443C29.1424 21.2173 29.1351 21.1902 29.1197 21.1662C29.0808 21.1033 29.0781 21.0259 29.0752 20.946C29.0729 20.8825 29.0705 20.8175 29.0499 20.7571C29.0035 20.6207 28.9841 20.5078 28.9609 20.3714C28.9356 20.2319 28.9079 20.0985 28.8807 19.9679C28.8328 19.7374 28.7866 19.5157 28.7594 19.2844C28.7236 18.9538 28.8905 18.6743 29.0612 18.3885C29.1118 18.3037 29.1627 18.2185 29.2088 18.1312C29.3676 17.8584 29.5458 17.5896 29.8401 17.4065C29.9044 17.1405 30.0791 16.919 30.253 16.6985L30.2662 16.6818C30.4379 16.4679 30.7245 16.3371 30.9357 16.2408L30.9596 16.2299C31.2734 16.0896 31.5561 16 31.56 16H16V27.996H27.0396C27.3348 27.782 27.6283 27.6469 27.9775 27.4862C28.1369 27.4129 28.3079 27.3342 28.496 27.2402C28.5359 27.2201 28.5832 27.1968 28.6357 27.171C28.951 27.0159 29.4534 26.7687 29.6426 26.5817ZM26.1396 24.9633C26.0958 24.9677 26.0494 24.9723 26.0669 24.9372C26.0832 24.8583 26.1639 24.8347 26.2428 24.8116C26.2765 24.8017 26.31 24.7919 26.3378 24.7779L26.3505 24.7714L26.3598 24.7664C26.4035 24.7432 26.457 24.7148 26.4965 24.7313C26.5231 24.7692 26.5561 24.779 26.5881 24.7884C26.612 24.7955 26.6353 24.8024 26.6551 24.8207C26.5714 24.9047 26.4737 24.913 26.3747 24.9214C26.3089 24.9269 26.2425 24.9326 26.1791 24.9605C26.1678 24.9605 26.1538 24.9619 26.1396 24.9633ZM22.7126 24.4154C22.7126 24.4388 22.7359 24.4622 22.7359 24.4622C23.2782 23.8505 23.7701 23.3284 24.4673 22.8959C24.486 22.8881 24.4791 22.8979 24.4698 22.9109C24.4561 22.9302 24.4373 22.9567 24.4906 22.9427C24.7214 22.8901 24.8251 22.6923 24.9259 22.5C24.952 22.4502 24.9779 22.4008 25.0058 22.3544C25.1115 22.1823 25.2618 22.0721 25.4132 21.9611C25.5223 21.881 25.6321 21.8004 25.7262 21.696C25.7262 21.7193 25.7262 21.7427 25.703 21.7661C25.7262 21.7895 25.7495 21.7895 25.7727 21.7895C25.8136 21.7586 25.8582 21.7459 25.901 21.7336C25.9555 21.718 26.007 21.7033 26.0439 21.6531C25.8657 21.583 25.6372 21.5596 25.459 21.6297C24.9864 21.8557 24.5836 22.218 24.2001 22.6271C23.9677 22.8726 23.7275 23.1024 23.4331 23.2622C23.2317 23.6674 23.007 24.0297 22.7126 24.4154ZM24.6037 22.9664C24.5916 22.9908 24.5794 23.0035 24.5678 23.0156C24.5573 23.0266 24.5471 23.0372 24.5379 23.0557C24.5147 23.1023 24.4915 23.1217 24.4489 23.145C24.4257 23.145 24.4025 23.145 24.4025 23.1217C24.4257 23.0324 24.4915 22.9431 24.5805 22.9198C24.6037 22.9237 24.6037 22.947 24.6037 22.9664ZM25.5942 26.4264C25.6136 26.4069 25.6368 26.3835 25.6484 26.3601C25.6677 26.3134 25.5478 26.3251 25.5284 26.3368C25.5109 26.3509 25.4997 26.365 25.4862 26.3821L25.482 26.3874C25.4659 26.406 25.447 26.4232 25.4278 26.4406C25.4148 26.4525 25.4016 26.4644 25.3891 26.477C25.3349 26.5316 25.2808 26.5861 25.2227 26.6368C25.184 26.6718 25.3078 26.6874 25.3349 26.664C25.3659 26.6407 25.393 26.6134 25.4201 26.5861C25.4304 26.5861 25.4407 26.5844 25.4476 26.5832L25.4523 26.5825L25.4549 26.5822C25.5191 26.5607 25.5668 26.516 25.6132 26.4726L25.6252 26.4614C25.6407 26.4459 25.6213 26.4303 25.5942 26.4264ZM25.244 26.173C25.2436 26.1731 25.2433 26.1732 25.243 26.1734C25.2426 26.1739 25.2426 26.1749 25.2426 26.1768C25.2188 26.1931 25.1953 26.2097 25.1719 26.2263C25.1114 26.2691 25.0512 26.3117 24.9869 26.3483C24.9255 26.3829 24.8625 26.4128 24.7989 26.4429C24.7623 26.4603 24.7255 26.4778 24.6886 26.4963C24.6886 26.4963 24.6886 26.4924 24.6848 26.4924C24.677 26.4807 24.6615 26.4768 24.646 26.4846C24.5608 26.5314 24.4872 26.5937 24.4214 26.6599C24.4097 26.6677 24.3981 26.6794 24.3904 26.6911L24.3555 26.7262V26.7301C24.34 26.7457 24.3245 26.7612 24.3052 26.7846C24.3011 26.7887 24.298 26.7927 24.2951 26.7966C24.2895 26.8039 24.2843 26.8107 24.2742 26.8158C24.2587 26.8236 24.2199 26.8236 24.2238 26.8002V26.7963C24.2122 26.8041 24.1967 26.8119 24.1851 26.8158C24.1793 26.8197 24.1735 26.8226 24.1677 26.8255C24.1618 26.8284 24.156 26.8314 24.1502 26.8353C24.1463 26.8314 24.1386 26.8314 24.1347 26.8314C24.1309 26.8314 24.1231 26.8314 24.1192 26.8353C24.1102 26.8431 24.1012 26.8504 24.0921 26.8578C24.074 26.8725 24.056 26.8872 24.0379 26.9054C23.9914 26.9483 23.9488 26.995 23.9062 27.0457C23.9062 27.0457 23.9062 27.0495 23.9023 27.0495C23.9023 27.0515 23.9013 27.0525 23.9004 27.0534C23.8994 27.0544 23.8984 27.0554 23.8984 27.0573L23.8907 27.0651C23.8892 27.0666 23.8883 27.0681 23.8875 27.0694C23.8863 27.0714 23.8853 27.0729 23.8829 27.0729L23.8791 27.0768C23.8752 27.0846 23.8713 27.0924 23.8636 27.1002C23.8597 27.1041 23.852 27.108 23.8442 27.108C23.8403 27.1041 23.8365 27.1002 23.8365 27.0963C23.8345 27.0944 23.8336 27.0924 23.8326 27.0905C23.8316 27.0885 23.8307 27.0866 23.8287 27.0846C23.8248 27.0788 23.8219 27.0729 23.819 27.0671C23.8161 27.0612 23.8132 27.0554 23.8094 27.0495V27.0457C23.8094 27.0437 23.8084 27.0418 23.8074 27.0398C23.8064 27.0379 23.8055 27.0359 23.8055 27.034L23.8752 26.9521L23.8791 26.9483C23.8829 26.9444 23.8868 26.9395 23.8907 26.9346C23.8946 26.9298 23.8984 26.9249 23.9023 26.921C23.9081 26.9132 23.9149 26.9054 23.9217 26.8976C23.9285 26.8898 23.9352 26.882 23.9411 26.8742C23.943 26.8703 23.9449 26.8674 23.9469 26.8645C23.9488 26.8616 23.9507 26.8586 23.9527 26.8547C23.9759 26.8236 23.9992 26.7924 24.0224 26.7573V26.7534C24.0263 26.7496 24.0301 26.7457 24.0301 26.7379C24.0418 26.7223 24.0534 26.7067 24.0611 26.6911L24.0844 26.6444V26.6405L24.0882 26.6366C24.0882 26.6346 24.0892 26.6336 24.0902 26.6327C24.0912 26.6317 24.0921 26.6307 24.0921 26.6288C24.096 26.619 24.0999 26.6103 24.1037 26.6015C24.1076 26.5928 24.1115 26.584 24.1154 26.5742V26.5703L24.1192 26.5547C24.1212 26.5509 24.1221 26.547 24.1231 26.5431C24.1241 26.5392 24.125 26.5353 24.127 26.5314V26.5275C24.1289 26.5216 24.1299 26.5158 24.1309 26.5099C24.1318 26.5041 24.1328 26.4983 24.1347 26.4924C24.1347 26.4885 24.1347 26.4807 24.1309 26.4768C24.1541 26.434 24.1851 26.395 24.2199 26.356C24.218 26.356 24.2161 26.357 24.2141 26.358C24.213 26.3586 24.2119 26.3591 24.2108 26.3595C24.21 26.3598 24.2092 26.3599 24.2083 26.3599C24.1911 26.3708 24.1762 26.3852 24.1611 26.4C24.1491 26.4117 24.1369 26.4236 24.1231 26.434C24.0999 26.4535 24.0534 26.4223 24.0844 26.3989C24.1037 26.3833 24.1192 26.3677 24.1347 26.3522C24.1347 26.3522 24.1347 26.3483 24.1386 26.3483C24.154 26.3343 24.1689 26.3184 24.1838 26.3025C24.2064 26.2784 24.2292 26.254 24.2548 26.2353C24.2819 26.2158 24.3013 26.2002 24.3245 26.1807C24.3284 26.1768 24.3323 26.1729 24.3362 26.1729C24.3516 26.1535 24.3671 26.134 24.3865 26.1145C24.3865 26.1145 24.3904 26.1145 24.3904 26.1106C24.5234 25.9816 24.7103 25.9361 24.9011 25.8896C25.0214 25.8603 25.1433 25.8307 25.2542 25.7794C25.3168 25.7534 25.3866 25.7636 25.4556 25.7738C25.5104 25.7818 25.5647 25.7898 25.6144 25.7794C25.6803 25.7794 25.75 25.7794 25.8158 25.8262C25.6627 25.9077 25.5165 26.001 25.3719 26.0933C25.33 26.12 25.2882 26.1467 25.2464 26.1729C25.2454 26.1729 25.2446 26.1729 25.244 26.173ZM25.7281 24.5851C25.7099 24.5872 25.6982 24.5885 25.7082 24.5986C25.7741 24.6649 25.9097 24.6415 26.0026 24.5909C26.0685 24.5441 26.1382 24.5441 26.2273 24.5441C26.2505 24.5441 26.2505 24.5012 26.2505 24.4779C26.3164 24.5012 26.3629 24.5012 26.4287 24.5012C26.9671 24.3883 27.4862 24.2753 27.982 24.0259C27.4803 23.6383 26.8618 23.4656 26.256 23.2965C26.1555 23.2684 26.0554 23.2405 25.9561 23.2116C25.978 23.2116 25.9998 23.2189 26.0217 23.2262C26.066 23.241 26.1109 23.2559 26.1576 23.2116C26.0961 23.1626 26.0277 23.1532 25.9599 23.144C25.9038 23.1363 25.8482 23.1286 25.7973 23.0987C25.8026 23.0987 25.809 23.0999 25.8158 23.1012C25.839 23.1057 25.8685 23.1114 25.8864 23.0753C25.7688 23.0161 25.6511 22.996 25.5323 22.9757C25.4712 22.9653 25.4098 22.9548 25.348 22.9389C25.4603 22.9155 25.5301 22.8259 25.5301 22.7129C25.5301 22.6896 25.4836 22.6896 25.4603 22.6896C25.1931 22.8259 25.011 23.0753 24.8987 23.3675C24.9999 23.4271 25.1091 23.4202 25.2161 23.4134C25.2769 23.4096 25.3369 23.4058 25.3945 23.4142C25.3437 23.4625 25.2703 23.4756 25.1997 23.4882C25.1734 23.4929 25.1475 23.4975 25.1233 23.5038C25.0536 23.5194 24.9878 23.5701 25.011 23.6168C25.0265 23.6363 25.042 23.6441 25.0614 23.648C25.011 23.6636 24.9645 23.687 24.9219 23.7298C24.9857 23.78 25.0514 23.7703 25.1163 23.7608C25.1421 23.757 25.1677 23.7532 25.1931 23.7532C25.1931 23.7815 25.2116 23.7911 25.2309 23.8011C25.2409 23.8062 25.251 23.8115 25.2589 23.8194C25.1466 23.8623 25.0575 23.9558 25.0342 24.022C25.0065 24.0895 24.9552 24.1334 24.9044 24.1768C24.8701 24.2062 24.8361 24.2353 24.8096 24.2714V24.3415C24.7348 24.4078 24.6578 24.4671 24.582 24.5255C24.4262 24.6455 24.2748 24.7621 24.155 24.9298C24.1782 24.9298 24.1782 24.9532 24.1782 24.9766C24.1568 25.0089 24.1263 25.0313 24.0974 25.0525C24.0636 25.0774 24.0319 25.1006 24.0194 25.1363C24.0194 25.1597 24.0194 25.1831 24.0426 25.1831C24.1848 25.1361 24.3077 25.057 24.4283 24.9794C24.5377 24.9091 24.6452 24.84 24.7631 24.7973C24.8595 24.7742 24.9434 24.7305 25.0253 24.6878C25.0948 24.6516 25.1628 24.6162 25.2357 24.5947C25.2918 24.5831 25.3538 24.5665 25.4158 24.5499C25.4778 24.5334 25.5397 24.5168 25.5959 24.5051C25.5959 24.5285 25.5959 24.5519 25.6192 24.5519H25.7973C25.7864 24.5784 25.7518 24.5824 25.7281 24.5851Z" fill="#00008F"/>
<path d="M48.9999 16H36.0965C36.0965 16 36.1199 16.0039 36.2175 16.0546C36.3228 16.1092 36.4593 16.1834 36.5412 16.2263C36.7089 16.3121 36.8689 16.4213 36.9742 16.5891C37.021 16.6554 37.0873 16.7919 37.0444 16.8817C36.9976 16.9948 36.9742 17.1782 36.8611 17.2211C36.7246 17.2913 36.5451 17.2913 36.3852 17.2679C36.2955 17.2679 36.2058 17.2445 36.1121 17.2211C36.4515 17.3576 36.7714 17.5176 36.9976 17.8336C37.021 17.8804 37.1107 17.8999 37.2004 17.8999C37.2238 17.8999 37.2238 17.9467 37.2238 17.9662C37.177 18.013 37.1341 18.0364 37.1575 18.1027H37.2238C37.337 18.0559 37.3135 17.8296 37.4735 17.8999C37.5866 17.9662 37.6334 18.1261 37.5632 18.2393C37.4735 18.329 37.3838 18.3992 37.2901 18.4655C37.2667 18.5124 37.2667 18.5787 37.2901 18.6255C37.3565 18.7152 37.3799 18.8049 37.4033 18.8986C37.4735 19.0585 37.493 19.238 37.5632 19.3979C37.6529 19.7373 37.7426 20.0767 37.7231 20.42C37.7231 20.5995 37.6334 20.7594 37.6997 20.9428C37.7465 21.1222 37.8596 21.2588 37.9494 21.4187C38.0391 21.5553 38.1288 21.645 38.199 21.7815C38.3355 22.0078 38.5852 22.2341 38.472 22.5072C38.4057 22.6671 38.1561 22.6437 37.9962 22.7334C37.8596 22.8466 37.9728 23.0299 38.043 23.143C38.1561 23.3459 37.9065 23.4824 37.7465 23.5527C37.7933 23.6229 37.883 23.5995 37.9065 23.6424C37.9299 23.7555 38.043 23.8218 37.9728 23.9389C37.883 24.0754 37.61 24.1417 37.7465 24.3485C37.8362 24.5085 37.7777 24.684 37.7231 24.8479C37.6568 25.0507 37.4735 25.1404 37.3135 25.1873C37.177 25.2341 37.0171 25.2341 36.8845 25.2107C36.8377 25.1873 36.7948 25.1638 36.748 25.1638C36.3618 25.117 35.9756 25.0078 35.5934 25.0078C35.4802 25.0312 35.3671 25.0507 35.2774 25.0975C35.176 25.1717 35.0824 25.2536 35.0044 25.3394C35.0044 25.3394 35.0044 25.3394 35.0005 25.3433C34.9849 25.3628 34.9654 25.3784 34.9497 25.3979C34.9419 25.4096 34.9302 25.4213 34.9224 25.433C34.9146 25.4408 34.9107 25.4486 34.9029 25.4564C34.8366 25.5384 34.7781 25.6281 34.7235 25.7178C34.7196 25.7256 34.7157 25.7295 34.7118 25.7334C34.7079 25.7451 34.7001 25.7529 34.6923 25.7646C34.6182 25.9012 34.5636 26.0416 34.5207 26.1821C34.3646 26.7009 34.4349 27.1456 34.5441 27.2549C34.5753 27.2861 35.293 27.5085 35.7923 27.7308C36.0263 27.8362 36.1902 27.9142 36.3267 28H48.996V16H48.9999Z" fill="#E0000F"/>
<path d="M36.8631 20.3747C36.9526 20.3981 37.0888 20.3981 37.0888 20.4448C37.0421 20.624 36.7736 20.6708 36.6375 20.8539H36.5674C36.5013 20.9006 36.5208 21.0136 36.4546 21.0136C36.3885 20.9903 36.3185 21.0136 36.2523 21.037C36.3418 21.1266 36.4546 21.1967 36.5908 21.1734C36.6141 21.1734 36.6569 21.2201 36.6569 21.263C36.6569 21.263 36.6803 21.263 36.7036 21.2396C36.727 21.2396 36.7503 21.2396 36.7503 21.263V21.3526C36.6842 21.4422 36.5674 21.3993 36.478 21.4188C36.6608 21.4656 36.8398 21.4656 36.9993 21.4188C37.1355 21.3721 36.9993 21.1461 37.0888 21.0331C37.0421 21.0331 37.0888 20.963 37.0421 20.963C37.0888 20.9162 37.1316 20.85 37.1782 20.8266C37.2249 20.8266 37.2911 20.8032 37.3144 20.7565C37.3144 20.7097 37.2249 20.6903 37.2444 20.6435C37.3806 20.5539 37.4934 20.4175 37.4467 20.2812C37.4233 20.211 37.2444 20.211 37.1316 20.1682C37.0187 20.1253 36.8826 20.1682 36.7464 20.1916C36.6336 20.1916 36.5208 20.2617 36.4079 20.2812C36.2484 20.3279 36.1123 20.4175 35.98 20.5071C36.1395 20.4409 36.2951 20.4175 36.478 20.3708C36.6141 20.3747 36.727 20.3435 36.8631 20.3747" fill="#808080"/>
<path d="M17.236 42V33.6H19.36L21.412 37.128L23.464 33.6H25.588V42H23.884V35.976L22.012 39.12H20.812L18.94 35.976V42H17.236ZM28.1124 42V33.6H29.8164V42H28.1124ZM32.3443 42V33.6H34.5283L38.2843 39.672V33.6H39.9883V42H37.8043L34.0483 35.928V42H32.3443ZM42.5176 42V33.6H44.2216V42H42.5176ZM45.9934 40.836L47.2294 39.696C47.7334 40.344 48.4054 40.728 49.0894 40.728C49.7614 40.728 50.1694 40.368 50.1694 39.768C50.1694 38.22 46.3534 38.64 46.3534 35.796C46.3534 34.464 47.4574 33.36 49.0654 33.36C50.3254 33.36 51.2854 33.924 52.0054 34.776L50.7574 35.904C50.2654 35.268 49.7134 34.848 49.0774 34.848C48.4774 34.848 48.0814 35.232 48.0814 35.736C48.0814 37.26 51.8974 36.828 51.8974 39.708C51.8734 41.292 50.6374 42.24 49.1014 42.24C47.6854 42.24 46.7374 41.724 45.9934 40.836ZM52.9415 35.148V33.6H59.8295V35.148H57.2375V42H55.5335V35.148H52.9415ZM63.1982 32.88L61.6502 31.26H63.4022L64.7582 32.88H63.1982ZM61.5062 42V33.6H66.4022V35.016H63.2102V37.008H65.9222V38.424H63.2102V40.584H66.4022V42H61.5062ZM68.5622 42V33.6H71.1302C72.9782 33.6 74.1182 34.548 74.1182 36.108C74.1182 37.128 73.6262 37.884 72.7622 38.28L75.3902 42H73.3862L71.1422 38.604H70.2662V42H68.5622ZM71.2262 35.016H70.2662V37.188H71.2262C71.9462 37.188 72.3662 36.768 72.3662 36.084C72.3662 35.448 71.9462 35.016 71.2262 35.016ZM76.6496 42V33.6H81.5456V35.016H78.3536V37.008H81.0656V38.424H78.3536V40.584H81.5456V42H76.6496ZM17.236 54V45.6H20.536C23.2 45.6 25 47.532 25 49.8C25 52.068 23.2 54 20.536 54H17.236ZM20.56 47.148H18.94V52.452H20.56C22.12 52.452 23.248 51.288 23.248 49.8C23.248 48.3 22.12 47.148 20.56 47.148ZM26.8233 54V45.6H31.7193V47.016H28.5273V49.008H31.2393V50.424H28.5273V52.584H31.7193V54H26.8233ZM37.1738 54V45.6H38.8778V52.452H42.0698V54H37.1738ZM43.3017 49.056H41.8857L42.9657 45.6H44.6937L43.3017 49.056ZM46.2001 54V45.6H51.0961V47.016H47.9041V49.008H50.6161V50.424H47.9041V52.584H51.0961V54H46.2001ZM53.2562 54V45.6H55.4402L59.1962 51.672V45.6H60.9002V54H58.7162L54.9602 47.928V54H53.2562ZM62.6734 52.836L63.9094 51.696C64.4134 52.344 65.0854 52.728 65.7694 52.728C66.4414 52.728 66.8494 52.368 66.8494 51.768C66.8494 50.22 63.0334 50.64 63.0334 47.796C63.0334 46.464 64.1374 45.36 65.7454 45.36C67.0054 45.36 67.9654 45.924 68.6854 46.776L67.4374 47.904C66.9454 47.268 66.3934 46.848 65.7574 46.848C65.1574 46.848 64.7614 47.232 64.7614 47.736C64.7614 49.26 68.5774 48.828 68.5774 51.708C68.5534 53.292 67.3174 54.24 65.7814 54.24C64.3654 54.24 63.4174 53.724 62.6734 52.836ZM70.5441 54V45.6H75.4401V47.016H72.2481V49.008H74.9601V50.424H72.2481V52.584H75.4401V54H70.5441ZM77.6002 54V45.6H79.3042V54H77.6002ZM85.6961 52.644C86.4881 52.644 87.1721 52.368 87.6521 51.912V50.448H85.5161V48.996H89.3561V52.524C88.5761 53.568 87.2681 54.24 85.6961 54.24C82.9721 54.24 81.1121 52.2 81.1121 49.8C81.1121 47.4 82.9241 45.36 85.5761 45.36C87.1001 45.36 88.3481 46.044 89.1161 47.064L87.7721 48.108C87.2921 47.424 86.5361 46.956 85.5761 46.956C83.9921 46.956 82.8641 48.192 82.8641 49.8C82.8641 51.408 84.0521 52.644 85.6961 52.644ZM91.4312 54V45.6H93.6152L97.3712 51.672V45.6H99.0752V54H96.8912L93.1352 47.928V54H91.4312ZM101.604 54V45.6H106.5V47.016H103.308V49.008H106.02V50.424H103.308V52.584H106.5V54H101.604ZM108.661 54V45.6H110.785L112.837 49.128L114.889 45.6H117.013V54H115.309V47.976L113.437 51.12H112.237L110.365 47.976V54H108.661ZM119.537 54V45.6H124.433V47.016H121.241V49.008H123.953V50.424H121.241V52.584H124.433V54H119.537ZM126.593 54V45.6H128.777L132.533 51.672V45.6H134.237V54H132.053L128.297 47.928V54H126.593ZM135.902 47.148V45.6H142.79V47.148H140.198V54H138.494V47.148H135.902ZM16.48 64.836L17.716 63.696C18.22 64.344 18.892 64.728 19.576 64.728C20.248 64.728 20.656 64.368 20.656 63.768C20.656 62.22 16.84 62.64 16.84 59.796C16.84 58.464 17.944 57.36 19.552 57.36C20.812 57.36 21.772 57.924 22.492 58.776L21.244 59.904C20.752 59.268 20.2 58.848 19.564 58.848C18.964 58.848 18.568 59.232 18.568 59.736C18.568 61.26 22.384 60.828 22.384 63.708C22.36 65.292 21.124 66.24 19.588 66.24C18.172 66.24 17.224 65.724 16.48 64.836ZM29.2107 62.856V57.6H30.9147V62.712C30.9147 64.92 29.6187 66.24 27.5067 66.24C25.4067 66.24 24.1107 64.92 24.1107 62.712V57.6H25.8147V62.856C25.8147 63.984 26.4507 64.644 27.5187 64.644C28.5627 64.644 29.2107 63.984 29.2107 62.856ZM33.2115 66V57.6H35.9835C37.8315 57.6 38.9595 58.548 38.9595 60.108C38.9595 61.656 37.8315 62.604 35.9835 62.604H34.9155V66H33.2115ZM36.0555 59.016H34.9155V61.188H36.0555C36.7755 61.188 37.2075 60.768 37.2075 60.084C37.2075 59.448 36.7755 59.016 36.0555 59.016ZM43.7528 56.88H42.2048L43.5608 55.26H45.3128L43.7528 56.88ZM40.5488 66V57.6H45.4448V59.016H42.2528V61.008H44.9648V62.424H42.2528V64.584H45.4448V66H40.5488ZM47.6049 66V57.6H50.1729C52.0209 57.6 53.1609 58.548 53.1609 60.108C53.1609 61.128 52.6689 61.884 51.8049 62.28L54.4329 66H52.4289L50.1849 62.604H49.3089V66H47.6049ZM50.2689 59.016H49.3089V61.188H50.2689C50.9889 61.188 51.4089 60.768 51.4089 60.084C51.4089 59.448 50.9889 59.016 50.2689 59.016ZM55.6922 66V57.6H57.3962V66H55.6922ZM59.9241 66V57.6H64.8201V59.016H61.6281V61.008H64.3401V62.424H61.6281V64.584H64.8201V66H59.9241ZM71.8871 62.856V57.6H73.5911V62.712C73.5911 64.92 72.2951 66.24 70.1831 66.24C68.0831 66.24 66.7871 64.92 66.7871 62.712V57.6H68.4911V62.856C68.4911 63.984 69.1271 64.644 70.1951 64.644C71.2391 64.644 71.8871 63.984 71.8871 62.856ZM75.8879 66V57.6H78.4559C80.3039 57.6 81.4439 58.548 81.4439 60.108C81.4439 61.128 80.9519 61.884 80.0879 62.28L82.7159 66H80.7119L78.4679 62.604H77.5919V66H75.8879ZM78.5519 59.016H77.5919V61.188H78.5519C79.2719 61.188 79.6919 60.768 79.6919 60.084C79.6919 59.448 79.2719 59.016 78.5519 59.016ZM17.236 78V69.6H22.132V71.016H18.94V73.008H21.652V74.424H18.94V76.584H22.132V78H17.236ZM23.6039 71.148V69.6H30.4919V71.148H27.8999V78H26.1959V71.148H23.6039ZM35.4629 78V69.6H38.7629C41.4269 69.6 43.2269 71.532 43.2269 73.8C43.2269 76.068 41.4269 78 38.7629 78H35.4629ZM38.7869 71.148H37.1669V76.452H38.7869C40.3469 76.452 41.4749 75.288 41.4749 73.8C41.4749 72.3 40.3469 71.148 38.7869 71.148ZM45.0502 78V69.6H49.9462V71.016H46.7542V73.008H49.4662V74.424H46.7542V76.584H49.9462V78H45.0502ZM55.4007 78V69.6H57.1047V76.452H60.2967V78H55.4007ZM61.2836 78L64.4636 69.6H66.6956L69.8756 78H68.0636L67.2596 75.816H63.8996L63.0956 78H61.2836ZM64.4276 74.364H66.7316L65.5796 71.208L64.4276 74.364ZM74.6471 78V69.6H77.2151C79.0631 69.6 80.2031 70.548 80.2031 72.108C80.2031 73.128 79.7111 73.884 78.8471 74.28L81.4751 78H79.4711L77.2271 74.604H76.3511V78H74.6471ZM77.3111 71.016H76.3511V73.188H77.3111C78.0311 73.188 78.4511 72.768 78.4511 72.084C78.4511 71.448 78.0311 71.016 77.3111 71.016ZM82.7344 78V69.6H87.6304V71.016H84.4384V73.008H87.1504V74.424H84.4384V76.584H87.6304V78H82.7344ZM93.347 76.644C94.307 76.644 95.063 76.176 95.543 75.492L96.887 76.524C96.119 77.568 94.871 78.24 93.347 78.24C90.695 78.24 88.883 76.2 88.883 73.8C88.883 71.4 90.695 69.36 93.347 69.36C94.871 69.36 96.119 70.044 96.887 71.064L95.543 72.108C95.063 71.424 94.307 70.956 93.347 70.956C91.763 70.956 90.635 72.192 90.635 73.8C90.635 75.408 91.763 76.644 93.347 76.644ZM98.5458 78V69.6H100.25V72.948H104.486V69.6H106.19V78H104.486V74.496H100.25V78H98.5458ZM108.719 78V69.6H113.615V71.016H110.423V73.008H113.135V74.424H110.423V76.584H113.615V78H108.719ZM115.775 78V69.6H118.343C120.191 69.6 121.331 70.548 121.331 72.108C121.331 73.128 120.839 73.884 119.975 74.28L122.603 78H120.599L118.355 74.604H117.479V78H115.775ZM118.439 71.016H117.479V73.188H118.439C119.159 73.188 119.579 72.768 119.579 72.084C119.579 71.448 119.159 71.016 118.439 71.016ZM127.525 76.644C128.485 76.644 129.241 76.176 129.721 75.492L131.065 76.524C130.297 77.568 129.049 78.24 127.525 78.24C124.873 78.24 123.061 76.2 123.061 73.8C123.061 71.4 124.873 69.36 127.525 69.36C129.049 69.36 130.297 70.044 131.065 71.064L129.721 72.108C129.241 71.424 128.485 70.956 127.525 70.956C125.941 70.956 124.813 72.192 124.813 73.8C124.813 75.408 125.941 76.644 127.525 76.644ZM132.723 78V69.6H134.427V72.948H138.663V69.6H140.367V78H138.663V74.496H134.427V78H132.723ZM142.897 78V69.6H147.793V71.016H144.601V73.008H147.313V74.424H144.601V76.584H147.793V78H142.897Z" fill="black"/>
<path fill-rule="evenodd" clip-rule="evenodd" d="M47.18 100.614L46.0638 101.634H45.7758L46.4359 100.47H47.18V100.614ZM46.3759 104.561H46.1359C45.8358 104.921 45.4998 105.209 45.1757 105.209C44.8397 105.209 44.6717 105.005 44.6717 104.561C44.6717 104.381 44.6957 104.189 44.7317 104.021L46.688 103.373C47.072 102.461 46.6159 102.065 46.0759 102.065C45.1517 102.065 44.0956 103.685 44.0956 104.981C44.0956 105.593 44.3836 105.929 44.8397 105.929C45.3678 105.917 45.9198 105.401 46.3759 104.561ZM45.7046 102.594C45.9686 102.594 46.1966 102.798 46.0766 103.266L44.8644 103.59C45.0565 103.014 45.4165 102.594 45.7046 102.594ZM41.8886 102.617H42.5367L41.5045 105.449C41.4085 105.689 41.5405 105.929 41.7925 105.929C42.5247 105.929 43.4008 105.305 43.7368 104.417H43.5568C43.2928 104.789 42.7167 105.197 42.2846 105.269L43.2328 102.617H44.2049L44.3249 102.21H43.3768L43.7368 101.19H43.3648L42.6927 102.21L41.8886 102.318V102.617ZM40.9878 102.078C41.1198 102.078 41.2998 102.222 41.2158 102.486L40.0516 105.306C40.3517 105.258 40.6637 104.97 40.8438 104.706H41.0358C40.7597 105.414 40.1356 105.93 39.5956 105.93C39.4636 105.93 39.2715 105.786 39.3675 105.522L40.4477 102.702C40.1477 102.75 39.8356 103.038 39.6556 103.302H39.4756C39.7516 102.582 40.4237 102.078 40.9878 102.078ZM41.3246 101.358C41.5647 101.358 41.7687 101.166 41.7687 100.914C41.7687 100.674 41.5647 100.47 41.3246 100.47C41.0726 100.47 40.8806 100.674 40.8806 100.914C40.8806 101.154 41.0846 101.358 41.3246 101.358ZM36.0797 103.698C36.3437 103.122 36.2477 102.858 36.0797 102.858C35.9357 102.858 35.7676 103.014 35.5996 103.302H35.4196C35.6956 102.69 36.0557 102.078 36.4517 102.078C36.7878 102.078 36.9078 102.414 36.9078 102.786V103.314C36.9618 103.251 37.0144 103.19 37.0658 103.129L37.0667 103.128L37.0675 103.127C37.5745 102.532 37.9617 102.078 38.408 102.078C38.7561 102.078 38.9361 102.294 38.9361 102.618C38.9361 102.81 38.8761 103.05 38.7441 103.302L37.7479 105.306C38.048 105.258 38.36 104.97 38.54 104.706H38.7201C38.444 105.426 37.7719 105.93 37.2079 105.93C36.9558 105.93 36.8118 105.666 36.9198 105.45L38.072 103.23C38.204 102.978 38.228 102.81 38.024 102.81C37.7479 102.81 37.0998 103.266 36.7518 103.686L35.9957 105.678C35.9117 105.882 35.8277 105.93 35.6356 105.93C35.3236 105.93 35.1676 105.726 35.3116 105.402L36.0797 103.698ZM35.2987 102.929C35.4307 102.473 35.3587 102.065 35.0106 102.065C34.5766 102.065 34.4407 102.352 34.02 103.239L33.9905 103.301V102.773C33.9905 102.401 33.8705 102.065 33.5344 102.065C33.1384 102.065 32.7783 102.677 32.5023 103.289H32.6823C32.8743 103.013 33.0544 102.845 33.1984 102.845C33.3664 102.845 33.4624 103.109 33.1984 103.685L32.4303 105.389C32.2863 105.713 32.4423 105.917 32.7543 105.917C32.9464 105.917 33.0304 105.869 33.1144 105.665L33.8705 103.673C34.0865 103.409 34.2785 103.181 34.5186 102.929H35.2987ZM31.5064 103.266C31.6264 102.798 31.3984 102.594 31.1344 102.594C30.8463 102.594 30.4863 103.014 30.2942 103.59L31.5064 103.266ZM31.8057 104.561H31.5657C31.2656 104.921 30.9296 105.209 30.6055 105.209C30.2695 105.209 30.1015 105.005 30.1015 104.561C30.1015 104.381 30.1255 104.189 30.1615 104.021L32.1178 103.373C32.5018 102.461 32.0458 102.065 31.5057 102.065C30.5815 102.065 29.5254 103.685 29.5254 104.981C29.5254 105.593 29.8134 105.929 30.2695 105.929C30.7976 105.917 31.3497 105.401 31.8057 104.561ZM27.9665 102.617H27.3184V102.318L28.1225 102.21L28.7946 101.19H29.1666L28.8066 102.21H29.7547L29.6347 102.617H28.6626L27.7144 105.269C28.1465 105.197 28.7226 104.789 28.9866 104.417H29.1666C28.8306 105.305 27.9545 105.929 27.2224 105.929C26.9703 105.929 26.8383 105.689 26.9343 105.449L27.9665 102.617ZM23.8865 104.814C23.8865 103.938 24.8586 102.762 25.3987 102.762C25.5187 102.762 25.6387 102.774 25.7347 102.81L25.1707 104.322C24.8466 104.718 24.3425 105.198 24.1025 105.198C23.9705 105.198 23.8865 105.078 23.8865 104.814ZM26.5632 101.886L26.8632 101.91L25.8191 104.31C25.567 104.886 25.675 105.15 25.8191 105.15C25.9631 105.15 26.1431 104.982 26.3351 104.706H26.5152C26.2391 105.318 25.8791 105.93 25.483 105.93C25.147 105.93 24.9429 105.57 25.0029 104.922L25.0269 104.694L24.9616 104.785C24.5317 105.386 24.1427 105.93 23.7428 105.93C23.3947 105.93 23.2147 105.714 23.2147 105.39C23.2147 103.998 24.7389 102.222 26.1671 102.222H26.2271L26.5632 101.886ZM23.814 102.929C23.946 102.473 23.874 102.065 23.526 102.065C23.0919 102.065 22.956 102.352 22.5354 103.239L22.5058 103.301V102.773C22.5058 102.401 22.3858 102.065 22.0498 102.065C21.6537 102.065 21.2937 102.677 21.0176 103.289H21.1976C21.3897 103.013 21.5697 102.845 21.7017 102.845C21.8697 102.845 21.9658 103.109 21.7017 103.685L20.9336 105.401C20.7896 105.725 20.9456 105.929 21.2576 105.929C21.4497 105.929 21.5337 105.881 21.6177 105.677L22.3738 103.685C22.5898 103.421 22.7819 103.193 23.0219 102.941H23.814V102.929ZM18.8684 105.569L18.7964 105.785H16L16.072 105.557C16.9361 105.401 17.0802 105.329 17.4402 104.357L18.2203 102.269C18.5684 101.297 18.4964 101.225 17.7403 101.069L17.8123 100.853H21.4488L21.2328 102.017H20.9687C20.9687 101.321 20.8967 101.141 20.2366 101.141H20.0686C19.4205 101.141 19.3365 101.237 19.1565 101.741L18.6404 103.145H19.3965C19.9006 103.145 20.0926 102.833 20.3206 102.425H20.5847L19.9606 104.129H19.6965C19.7565 103.613 19.7565 103.409 19.2885 103.409H18.5324L18.1843 104.369C17.8081 105.368 17.9156 105.388 18.8115 105.558C18.8301 105.561 18.8491 105.565 18.8684 105.569Z" fill="black"/>
<path fill-rule="evenodd" clip-rule="evenodd" d="M21.2448 91.4341L20.1286 92.2385V92.2505H19.8405L20.5006 91.29H21.2448V91.4341ZM29.0472 97.0648L30.8355 92.3105L30.7755 92.2384L29.5393 92.3825V92.5266L29.7793 92.7066C29.9843 92.8661 29.93 93.0147 29.76 93.4805L29.7313 93.5591L28.3631 97.2089C28.2551 97.425 28.3991 97.6891 28.6511 97.6891C29.2152 97.6891 29.8153 97.1728 30.0914 96.4645H29.9114C29.7193 96.7286 29.3353 97.0168 29.0472 97.0648ZM37.2438 93.403L38.36 92.3825V92.2384H37.6159L36.9558 93.403H37.2438ZM37.315 96.3204H37.5551C37.111 97.1728 36.5589 97.6891 36.0308 97.6891C35.5747 97.6891 35.2867 97.3529 35.2867 96.7406C35.2867 95.444 36.3429 93.8232 37.267 93.8232C37.7951 93.8232 38.2632 94.2194 37.8791 95.1318L35.9108 95.7801C35.8748 95.9482 35.8508 96.1403 35.8508 96.3204C35.8508 96.7646 36.0188 96.9687 36.3549 96.9687C36.6789 96.9687 37.015 96.6806 37.315 96.3204ZM37.2544 95.0238C37.3745 94.5676 37.1464 94.3635 36.8824 94.3635C36.6063 94.3635 36.2463 94.7837 36.0422 95.348L37.2544 95.0238ZM33.7258 94.3872H33.0777V94.0871L33.8818 93.979L34.554 92.9585H34.926L34.566 93.979H35.5141L35.3941 94.3872H34.4219L33.4738 97.0405C33.9058 96.9685 34.4819 96.5603 34.746 96.1881H34.926C34.59 97.0765 33.7138 97.7008 32.9817 97.7008C32.7296 97.7008 32.5976 97.4607 32.6936 97.2206L33.7258 94.3872ZM32.4055 94.2431C32.4775 93.979 32.3095 93.8349 32.1655 93.8349C31.6014 93.8349 30.9292 94.3512 30.6532 95.0595H30.8332C31.0133 94.7954 31.3253 94.5072 31.6254 94.4592L30.5452 97.2806C30.4492 97.5447 30.6412 97.6888 30.7732 97.6888C31.3133 97.6888 31.9374 97.1726 32.2135 96.4642H32.0334C31.8534 96.7283 31.5413 97.0165 31.2413 97.0645L32.4055 94.2431ZM32.9585 92.6826C32.9585 92.9228 32.7544 93.1269 32.5144 93.1269C32.2744 93.1269 32.0703 92.9228 32.0703 92.6826C32.0703 92.4425 32.2624 92.2384 32.5144 92.2384C32.7544 92.2384 32.9585 92.4425 32.9585 92.6826ZM26.8987 94.5315C26.3586 94.5315 25.3864 95.7081 25.3864 96.5846C25.3864 96.8487 25.4704 96.9687 25.6145 96.9687C25.8425 96.9687 26.3466 96.4885 26.6706 96.0923L27.2347 94.5796C27.1267 94.5435 27.0187 94.5315 26.8987 94.5315ZM28.3632 93.6791L28.0632 93.6551L27.7271 93.9913H27.6671C26.2389 93.9913 24.7146 95.7682 24.7146 97.1609C24.7146 97.485 24.8946 97.7011 25.2427 97.7011C25.6426 97.7011 26.0316 97.1571 26.4616 96.5558L26.5269 96.4645L26.5029 96.6926C26.4429 97.3409 26.6469 97.7011 26.983 97.7011C27.3791 97.7011 27.7391 97.0888 28.0152 96.4765H27.8351C27.6431 96.7527 27.4631 96.9207 27.3191 96.9207C27.175 96.9207 27.067 96.6566 27.3191 96.0803L28.3632 93.6791ZM22.3135 97.5692C21.7974 97.7733 21.4373 98.0134 21.4373 98.3856C21.4373 98.7337 21.7614 98.8778 22.4335 98.8778C23.3337 98.8778 23.8258 98.6137 23.8258 98.2655C23.8258 98.1094 23.6217 98.0374 23.0816 97.8573C22.7336 97.7493 22.4815 97.6532 22.3135 97.5692ZM22.9128 96.0924C22.6728 96.0924 22.5888 95.8883 22.5888 95.6722C22.5888 94.9758 22.9248 94.1114 23.4649 94.1114C23.705 94.1114 23.789 94.3155 23.789 94.5316C23.777 95.24 23.4409 96.0924 22.9128 96.0924ZM23.3701 97.2209C24.0302 97.425 24.4383 97.581 24.4383 98.0373C24.4383 98.6255 23.3581 99.3219 22.0499 99.3099C21.2937 99.3099 20.6456 99.1058 20.6456 98.6135C20.6456 98.1453 21.0777 97.7611 22.1339 97.449C21.9899 97.3529 21.9299 97.2329 21.9299 97.0648C21.9299 96.7766 22.1939 96.5485 22.65 96.3324C22.2059 96.2724 21.9178 95.9362 21.9178 95.444C21.9178 94.6876 22.542 93.8232 23.5261 93.8232C23.7302 93.8232 23.9102 93.8712 24.0542 93.9673H25.1344L25.0144 94.3755H24.3783C24.4143 94.4835 24.4383 94.6036 24.4383 94.7356C24.4383 95.468 23.8502 96.3084 22.914 96.3564C22.674 96.4885 22.554 96.6686 22.554 96.8127C22.554 96.9822 22.7503 97.0395 23.1842 97.1662C23.2419 97.183 23.3039 97.2011 23.3701 97.2209ZM19.5646 95.1679C20.0327 95.1679 20.0447 95.372 19.9727 95.8883H20.2367L20.8609 94.1834H20.5968C20.3688 94.5916 20.1767 94.9038 19.6726 94.9038H18.6405L19.1446 93.4991C19.3246 92.9949 19.4086 92.8988 20.0567 92.8988H20.5128C21.1729 92.8988 21.2449 93.0789 21.2449 93.7752H21.509L21.725 92.6107H17.8123L17.7403 92.8268C18.4964 92.9829 18.5684 93.0549 18.2204 94.0274L17.4403 96.1284C17.0802 97.1009 16.9362 97.1729 16.06 97.329L16 97.5571H20.3448L21.1249 96.3205H20.8248C20.3208 96.8127 19.8167 97.269 18.8325 97.269C17.75 97.269 17.7693 97.216 18.0941 96.3234C18.115 96.266 18.1372 96.205 18.1604 96.1404L18.5204 95.1799H19.5646V95.1679Z" fill="black"/>
<path fill-rule="evenodd" clip-rule="evenodd" d="M23.1496 84.8876C23.3896 84.8876 23.5936 84.6837 23.5936 84.4438C23.5936 84.2039 23.3896 84 23.1496 84C22.8977 84 22.7057 84.2039 22.7057 84.4438C22.7057 84.6957 22.8977 84.8876 23.1496 84.8876ZM26.7022 86.3986C26.7022 85.8229 26.5583 85.607 26.1503 85.607C25.6464 85.607 25.1785 86.1467 24.7106 86.7944L25.7184 84.0956L25.6584 84.0117L24.4227 84.1556V84.2996L24.6626 84.4795C24.8716 84.6419 24.811 84.8044 24.633 85.2818L24.6146 85.3311L23.5229 88.1858C23.4269 88.4257 23.3189 88.7136 23.3189 88.7856C23.3189 89.1214 23.7748 89.4453 24.1947 89.4453C25.1305 89.4573 26.7022 87.73 26.7022 86.3986ZM37.1042 85.1752L38.22 84.1556V84.0117H37.4761L36.8163 85.1752H37.1042ZM37.1765 88.0899H37.4164C36.9605 88.9415 36.4086 89.4573 35.8807 89.4453C35.4248 89.4453 35.1369 89.1214 35.1369 88.5097C35.1369 87.2143 36.1927 85.595 37.1165 85.595C37.6444 85.595 38.1123 85.9908 37.7284 86.9024L35.7727 87.5501C35.7368 87.7181 35.7128 87.91 35.7128 88.0899C35.7128 88.5337 35.8807 88.7376 36.2167 88.7376C36.5406 88.7376 36.8765 88.4497 37.1765 88.0899ZM37.1153 86.7945C37.2353 86.3387 37.0073 86.1348 36.7434 86.1348C36.4555 86.1348 36.0955 86.5546 35.9036 87.1184L37.1153 86.7945ZM33.5747 86.1595H32.9268V85.8596L33.7306 85.7516L34.4025 84.7321H34.7744L34.4145 85.7516H35.3623L35.2423 86.1595H34.2705L33.3227 88.8103C33.7546 88.7383 34.3305 88.3305 34.5945 87.9587H34.7744C34.4385 88.8463 33.5627 89.47 32.8308 89.47C32.5789 89.47 32.4469 89.2301 32.5429 88.9902L33.5747 86.1595ZM32.5931 86.4713C32.7251 86.0155 32.6531 85.6077 32.3052 85.6077C31.8713 85.6077 31.7354 85.8942 31.3149 86.7809L31.2854 86.8431V86.3154C31.2854 85.9435 31.1654 85.6077 30.8295 85.6077C30.4336 85.6077 30.0736 86.2194 29.7977 86.8311H29.9776C30.1696 86.5553 30.3496 86.3873 30.4815 86.3873C30.6495 86.3873 30.7455 86.6512 30.4815 87.227L29.7137 88.9302C29.5697 89.2541 29.7257 89.458 30.0376 89.458C30.2296 89.458 30.3136 89.41 30.3976 89.2061L31.1534 87.215C31.3694 86.9511 31.5613 86.7232 31.8013 86.4713H32.5931ZM28.7902 86.7945C28.9101 86.3387 28.6822 86.1348 28.4182 86.1348C28.1303 86.1348 27.7823 86.5546 27.5784 87.1184L28.7902 86.7945ZM29.0893 88.0899H28.8494C28.5495 88.4497 28.2135 88.7376 27.8896 88.7376C27.5536 88.7376 27.3857 88.5337 27.3857 88.0899C27.3857 87.91 27.4097 87.7181 27.4457 87.5501L29.4013 86.9024C29.7852 85.9908 29.3293 85.595 28.7894 85.595C27.8656 85.595 26.8098 87.2143 26.8098 88.5097C26.8098 89.1214 27.0977 89.4453 27.5536 89.4453C28.0815 89.4573 28.6334 88.9415 29.0893 88.0899ZM24.0512 88.5461C24.0512 88.702 24.3272 88.882 24.5191 88.882C25.299 88.882 26.0308 87.4786 26.0188 86.6989C26.0188 86.435 25.8869 86.3271 25.7069 86.3271C25.419 86.3271 24.8911 86.7589 24.5551 87.1667L24.2432 88.0064C24.1352 88.2822 24.0512 88.4981 24.0512 88.5461ZM22.7917 85.6077C22.9357 85.6077 23.1036 85.7516 23.0316 86.0155L21.8799 88.8343C22.1798 88.7863 22.4917 88.4984 22.6717 88.2345H22.8517C22.5757 88.9422 21.9518 89.458 21.4119 89.458C21.268 89.458 21.076 89.314 21.172 89.0502L22.2518 86.2314C21.9518 86.2794 21.6399 86.5673 21.4599 86.8311H21.28C21.5559 86.1235 22.2278 85.6077 22.7917 85.6077ZM17.8116 84.3602H20.3911L20.3192 84.5881C19.4433 84.744 19.2994 84.816 18.9394 85.7876L18.1716 87.8986C17.7997 88.9062 17.8956 89.0261 18.5555 89.0261C19.3708 89.0261 19.9053 88.4337 20.3721 87.9164C20.4068 87.878 20.4411 87.84 20.4751 87.8027H20.7751L19.9232 89.314H16L16.072 89.0981C16.9358 88.9422 17.0798 88.8702 17.4397 87.8986L18.2196 85.7756C18.5675 84.804 18.4955 84.732 17.7397 84.5761L17.8116 84.3602Z" fill="black"/>
<path d="M232.422 42.8125V80H222.195V61.9531L214.703 70.4297H211.641L204.148 61.9531V80H193.922V42.8125H197.531L213.172 58.6719L228.812 42.8125H232.422Z" fill="#FA7659"/>
<path d="M277.023 42.5391C279.174 42.5391 281.289 42.8125 283.367 43.3594C285.482 43.8698 287.177 44.5625 288.453 45.4375V55.3359C286.885 54.4245 285.336 53.6406 283.805 52.9844C282.273 52.2917 280.469 51.9453 278.391 51.9453C277.188 51.9453 276.148 52.1276 275.273 52.4922C274.398 52.8568 273.961 53.4583 273.961 54.2969C273.961 55.2083 274.49 55.901 275.547 56.375C276.604 56.8125 277.898 57.3229 279.43 57.9062L283.367 59.3828C286.029 60.4036 287.906 61.7891 289 63.5391C290.13 65.2891 290.695 67.0391 290.695 68.7891C290.695 71.1224 290.021 73.2005 288.672 75.0234C287.323 76.8099 285.5 78.2318 283.203 79.2891C280.906 80.3099 278.336 80.8203 275.492 80.8203C273.305 80.8203 271.135 80.4375 268.984 79.6719C266.833 78.9062 264.956 77.9583 263.352 76.8281V66.9297C265.102 68.2422 266.979 69.3177 268.984 70.1562C271.026 70.9948 273.068 71.4141 275.109 71.4141C276.385 71.4141 277.406 71.2682 278.172 70.9766C278.974 70.6484 279.375 70.1016 279.375 69.3359C279.375 68.7891 279.083 68.3151 278.5 67.9141C277.917 67.513 277.133 67.1667 276.148 66.875L270.953 65.2344C268.911 64.5781 267.326 63.6849 266.195 62.5547C265.065 61.4245 264.281 60.1667 263.844 58.7812C263.406 57.3594 263.188 55.9193 263.188 54.4609C263.188 51.8724 263.844 49.7031 265.156 47.9531C266.469 46.1667 268.182 44.8177 270.297 43.9062C272.411 42.9948 274.654 42.5391 277.023 42.5391Z" fill="#5BB5A7"/>
<path d="M250.429 42.7051C252.321 42.7051 254.158 43.0205 255.939 43.6514C257.758 44.2822 259.391 45.21 260.838 46.4346C262.285 47.6592 263.436 49.1436 264.289 50.8877C265.18 52.6318 265.625 54.5986 265.625 56.7881C265.625 59.6455 264.957 62.1133 263.621 64.1914C262.285 66.2324 260.541 67.791 258.389 68.8672C256.236 69.9434 253.954 70.4814 251.542 70.4814C250.132 70.4814 248.87 70.3516 247.757 70.0918C246.644 69.7949 245.679 69.4238 244.862 68.9785V80H234.453V42.7051H250.429ZM244.862 52.4463V61.0742C245.493 61.2969 246.161 61.4824 246.866 61.6309C247.608 61.7793 248.388 61.8535 249.204 61.8535C250.837 61.8535 252.191 61.3525 253.268 60.3506C254.381 59.3115 254.938 58.124 254.938 56.7881C254.938 55.2666 254.381 54.1719 253.268 53.5039C252.191 52.7988 250.837 52.4463 249.204 52.4463H244.862Z" fill="#000091"/>
</svg>
