<?xml version="1.0" encoding="utf-8"?>
<!-- Generator: Adobe Illustrator 27.5.0, SVG Export Plug-In . SVG Version: 6.00 Build 0)  -->
<svg version="1.1" id="Layer_1" xmlns="http://www.w3.org/2000/svg" xmlns:xlink="http://www.w3.org/1999/xlink" x="0px" y="0px"
	 width="200px" height="200px" viewBox="0 0 200 200" style="enable-background:new 0 0 200 200;" xml:space="preserve">
<path d="M161.6,16.5c15.1,10.4,23.4,30.4,29.1,50.7c5.7,20.2,8.7,40.7,3.9,59.7c-4.8,19-17.2,36.6-33.6,48.6
	c-16.5,11.9-37.1,18.3-57.7,18.4c-20.8,0.2-41.5-5.7-58.2-17.6c-16.7-11.9-29.3-29.8-36.2-49.7c-7-19.9-8.3-42.1-0.8-60.2
	c7.5-18,23.9-32,41.3-41.6S85.1,9.6,105,7.4S146.6,6,161.6,16.5z"/>
</svg>
