<?xml version="1.0" encoding="utf-8"?>
<!-- Generator: Adobe Illustrator 27.5.0, SVG Export Plug-In . SVG Version: 6.00 Build 0)  -->
<svg version="1.1" id="Layer_1" xmlns="http://www.w3.org/2000/svg" xmlns:xlink="http://www.w3.org/1999/xlink" x="0px" y="0px"
	 width="200px" height="200px" viewBox="0 0 200 200" style="enable-background:new 0 0 200 200;" xml:space="preserve">
<path d="M199.5,166.4c0,18.3-14.8,33.1-33.1,33.1s-33.1-14.8-33.1-33.1s14.8-33.1,33.1-33.1C184.7,133.1,199.5,148.1,199.5,166.4z
	 M158,87.6c0,16-13,29.1-29.1,29.1s-29-13-29-29.1s13-29.1,29.1-29.1S158,71.5,158,87.6L158,87.6z M100,149.8
	c0,27.5-22.3,49.8-49.8,49.8S0.5,177.2,0.5,149.8S22.8,100,50.2,100S100,122.3,100,149.8L100,149.8z M83.4,42
	c0,22.9-18.6,41.5-41.5,41.5S0.5,64.9,0.5,42S19.1,0.5,42,0.5S83.4,19.1,83.4,42z M199.5,25.4c0,13.7-11.1,24.9-24.9,24.9
	s-24.9-11.1-24.9-24.9s11.1-24.9,24.9-24.9S199.5,11.6,199.5,25.4L199.5,25.4z M191.2,108.3c0,4.6-3.7,8.3-8.3,8.3
	c-4.6,0-8.3-3.7-8.3-8.3s3.7-8.3,8.3-8.3C187.6,100,191.2,103.7,191.2,108.3z M129.1,29.6c0,6.9-5.6,12.4-12.4,12.4
	c-6.9,0-12.4-5.6-12.4-12.4s5.6-12.4,12.4-12.4C123.5,17.1,129.1,22.7,129.1,29.6z"/>
</svg>
