<?xml version="1.0" encoding="utf-8"?>
<!-- Generator: Adobe Illustrator 27.5.0, SVG Export Plug-In . SVG Version: 6.00 Build 0)  -->
<svg version="1.1" id="Layer_1" xmlns="http://www.w3.org/2000/svg" xmlns:xlink="http://www.w3.org/1999/xlink" x="0px" y="0px"
	 width="200px" height="200px" viewBox="0 0 200 200" style="enable-background:new 0 0 200 200;" xml:space="preserve">
<path d="M184.1,28.4c-10.4-11.2-24.6-17.4-40-17.4c-11.5,0-22.1,3.6-31.4,10.8c-4.7,3.6-9,8.1-12.7,13.3c-3.8-5.2-8-9.6-12.7-13.3
	C78,14.6,67.4,10.9,55.9,10.9c-15.4,0-29.7,6.2-40,17.4C5.6,39.4,0,54.6,0,71c0,16.9,6.3,32.4,19.8,48.7
	c12.1,14.6,29.5,29.4,49.7,46.6c6.9,5.9,14.7,12.5,22.8,19.6c2.1,1.9,4.9,2.9,7.7,2.9c2.8,0,5.6-1,7.7-2.9
	c8.1-7.1,15.9-13.7,22.8-19.6c20.1-17.2,37.5-32,49.7-46.6C193.7,103.4,200,88,200,71C200,54.6,194.4,39.4,184.1,28.4z"/>
</svg>
