<?xml version="1.0" encoding="utf-8"?>
<!-- Generator: Adobe Illustrator 27.5.0, SVG Export Plug-In . SVG Version: 6.00 Build 0)  -->
<svg version="1.1" id="Capa_1" xmlns="http://www.w3.org/2000/svg" xmlns:xlink="http://www.w3.org/1999/xlink" x="0px" y="0px"
	 width="200px" height="200px" viewBox="0 0 200 200" style="enable-background:new 0 0 200 200;" xml:space="preserve">
<path d="M0.5,0.5h56.9v57H0.5V0.5z M71.5,0.5h56.9v57H71.5V0.5z M171,0.5c-15.7,0-28.5,12.7-28.5,28.5v0.1
	c0,15.7,12.7,28.5,28.5,28.5s28.5-12.7,28.5-28.5V29C199.5,13.2,186.8,0.5,171,0.5z M29,71.4C13.2,71.4,0.5,84.3,0.5,100v0.1
	c0,15.7,12.7,28.5,28.5,28.5s28.5-12.7,28.5-28.5V100C57.4,84.3,44.7,71.4,29,71.4z M71.5,71.4h56.9v57H71.5V71.4z M142.6,71.4h56.9
	v57h-56.9V71.4z M0.5,142.5h56.9v57H0.5V142.5z M100,142.5c-15.7,0-28.5,12.7-28.5,28.5v0.1c0,15.7,12.7,28.5,28.5,28.5
	s28.5-12.7,28.5-28.5v-0.1C128.5,155.2,115.7,142.5,100,142.5z M142.6,142.5h56.9v57h-56.9V142.5z"/>
</svg>
