<svg width="235" height="102" viewBox="0 0 235 102" fill="none" xmlns="http://www.w3.org/2000/svg">
<path d="M93.6878 4.54901V94H69.0175V50.59L50.9436 70.9795H43.5557L25.4818 50.59V94H0.811523V4.54901H9.51868L47.2497 42.6972L84.9807 4.54901H93.6878Z" fill="#FA7659"/>
<path d="M201.283 3.89124C206.472 3.89124 211.574 4.54896 216.587 5.86442C221.688 7.09218 225.778 8.75842 228.856 10.8632V34.6729C225.074 32.4805 221.336 30.595 217.642 29.0164C213.948 27.3502 209.595 26.5171 204.581 26.5171C201.679 26.5171 199.172 26.9556 197.062 27.8325C194.951 28.7095 193.895 30.1565 193.895 32.1735C193.895 34.366 195.171 36.0322 197.721 37.1723C200.272 38.2246 203.394 39.4524 207.088 40.8555L216.587 44.4073C223.007 46.8628 227.537 50.1953 230.175 54.4047C232.902 58.6142 234.265 62.8237 234.265 67.0331C234.265 72.6457 232.638 77.6445 229.384 82.0293C226.129 86.3265 221.732 89.7467 216.191 92.2899C210.65 94.7454 204.45 95.9732 197.589 95.9732C192.312 95.9732 187.079 95.0523 181.89 93.2107C176.701 91.3691 172.172 89.0889 168.302 86.3703V62.5606C172.523 65.7177 177.053 68.3047 181.89 70.3218C186.815 72.3388 191.741 73.3473 196.666 73.3473C199.744 73.3473 202.207 72.9965 204.054 72.2949C205.989 71.5057 206.956 70.1902 206.956 68.3486C206.956 67.0331 206.253 65.8931 204.845 64.9284C203.438 63.9637 201.547 63.1306 199.172 62.429L186.639 58.4827C181.714 56.9041 177.888 54.7555 175.162 52.0369C172.435 49.3183 170.544 46.2928 169.489 42.9603C168.434 39.5401 167.906 36.0761 167.906 32.5682C167.906 26.3417 169.489 21.1237 172.655 16.9142C175.821 12.6171 179.955 9.3723 185.056 7.17988C190.157 4.98745 195.566 3.89124 201.283 3.89124Z" fill="#5BB5A7"/>
<g filter="url(#filter0_d_37_12357)">
<path d="M137.127 4.29059C141.693 4.29059 146.124 5.04932 150.421 6.5668C154.807 8.08427 158.746 10.3158 162.238 13.2615C165.729 16.2072 168.504 19.7777 170.563 23.9731C172.712 28.1685 173.786 32.8994 173.786 38.1659C173.786 45.0392 172.175 50.9752 168.952 55.9739C165.729 60.8834 161.522 64.6324 156.329 67.2211C151.137 69.8097 145.631 71.104 139.813 71.104C136.411 71.104 133.367 70.7916 130.681 70.1667C127.996 69.4526 125.668 68.56 123.699 67.4889V94H98.5879V4.29059H137.127ZM123.699 27.7221V48.4758C125.221 49.0114 126.832 49.4577 128.533 49.8148C130.323 50.1718 132.203 50.3503 134.173 50.3503C138.112 50.3503 141.379 49.1453 143.975 46.7352C146.661 44.2358 148.004 41.3794 148.004 38.1659C148.004 34.5061 146.661 31.8729 143.975 30.2661C141.379 28.5701 138.112 27.7221 134.173 27.7221H123.699Z" fill="#000091"/>
</g>
<defs>
<filter id="filter0_d_37_12357" x="92.5879" y="0.290588" width="87.1981" height="101.709" filterUnits="userSpaceOnUse" color-interpolation-filters="sRGB">
<feFlood flood-opacity="0" result="BackgroundImageFix"/>
<feColorMatrix in="SourceAlpha" type="matrix" values="0 0 0 0 0 0 0 0 0 0 0 0 0 0 0 0 0 0 127 0" result="hardAlpha"/>
<feOffset dy="2"/>
<feGaussianBlur stdDeviation="3"/>
<feColorMatrix type="matrix" values="0 0 0 0 0 0 0 0 0 0 0 0 0 0 0.0705882 0 0 0 0.16 0"/>
<feBlend mode="normal" in2="BackgroundImageFix" result="effect1_dropShadow_37_12357"/>
<feBlend mode="normal" in="SourceGraphic" in2="effect1_dropShadow_37_12357" result="shape"/>
</filter>
</defs>
</svg>
