<svg width="56" height="56" viewBox="0 0 56 56" fill="none" xmlns="http://www.w3.org/2000/svg">
<path fill-rule="evenodd" clip-rule="evenodd" d="M41.2999 53.1999C40.9139 53.1999 40.5999 52.8859 40.5999 52.4999C40.5999 52.1139 40.9139 51.7999 41.2999 51.7999C41.6858 51.7999 41.9999 52.1139 41.9999 52.4999C41.9999 52.8859 41.6858 53.1999 41.2999 53.1999Z" fill="#CACAFB"/>
<path fill-rule="evenodd" clip-rule="evenodd" d="M46.9 5.59995C46.514 5.59995 46.2 5.28593 46.2 4.89995C46.2 4.51394 46.514 4.19995 46.9 4.19995C47.2859 4.19995 47.5999 4.51394 47.5999 4.89995C47.5999 5.28593 47.2859 5.59995 46.9 5.59995Z" fill="#CACAFB"/>
<path fill-rule="evenodd" clip-rule="evenodd" d="M5.5999 9.7999C5.21392 9.7999 4.8999 9.48588 4.8999 9.0999C4.8999 8.71389 5.21392 8.3999 5.5999 8.3999C5.98588 8.3999 6.2999 8.71389 6.2999 9.0999C6.2999 9.48588 5.98588 9.7999 5.5999 9.7999Z" fill="#CACAFB"/>
<path d="M21.7001 22.4C21.7001 22.0134 21.3867 21.7 21.0001 21.7C20.6135 21.7 20.3001 22.0134 20.3001 22.4C20.3001 22.7866 20.6135 23.1 21.0001 23.1C21.3867 23.1 21.7001 22.7866 21.7001 22.4Z" fill="#FA794A"/>
<path d="M17.9789 23.2891C17.6903 23.0175 17.2235 23.0384 16.9623 23.3518L13.4623 27.5518L13.4149 27.6154C13.1124 28.0692 13.4336 28.7 14.0001 28.7H18.2001L18.2817 28.6952C18.6299 28.6548 18.9001 28.3589 18.9001 28L18.8954 27.9183C18.855 27.5702 18.5591 27.3 18.2001 27.3H15.4946L17.5001 24.8934L18.7318 26.3714L18.7922 26.4354C19.0463 26.6729 19.4435 26.6895 19.7177 26.4611C20.0147 26.2136 20.0548 25.7722 19.8073 25.4752L18.0379 23.3518L17.9789 23.2891Z" fill="#FA794A"/>
<path d="M24.1884 44.2175C24.0734 44.1409 23.9383 44.1 23.8001 44.1H9.8001L9.71846 44.1047C9.37033 44.1451 9.1001 44.441 9.1001 44.8L9.10481 44.8816C9.14524 45.2297 9.44111 45.5 9.8001 45.5H23.5936L23.6637 45.5456C25.0921 46.4442 26.5404 46.9 28.0001 46.9L28.2576 46.8952C29.6301 46.8448 30.9921 46.3913 32.3365 45.5456L32.4059 45.5H46.2001L46.2817 45.4952C46.6299 45.4548 46.9001 45.1589 46.9001 44.8C46.9001 44.4134 46.5867 44.1 46.2001 44.1H32.2001L32.1177 44.1048C32.0087 44.1177 31.9038 44.1562 31.8118 44.2175C30.5217 45.0776 29.2546 45.5 28.0001 45.5C26.7456 45.5 25.4785 45.0776 24.1884 44.2175Z" fill="#FA794A"/>
<path d="M21.9051 26.105C22.1575 25.8526 22.5545 25.8332 22.8291 26.0467L22.8951 26.105L24.2951 27.505C24.5684 27.7783 24.5684 28.2216 24.2951 28.4949C24.0427 28.7473 23.6457 28.7667 23.3711 28.5532L23.3051 28.4949L22.4001 27.5905L21.4951 28.4949C21.2427 28.7473 20.8457 28.7667 20.5711 28.5532L20.5051 28.4949C20.2528 28.2426 20.2334 27.8455 20.4469 27.5709L20.5051 27.505L21.9051 26.105Z" fill="#FA794A"/>
<path d="M41.3001 16.8C41.3001 16.4134 40.9867 16.1 40.6001 16.1C39.8655 16.1 38.9997 16.1683 38.0013 16.3047L37.4436 16.3859C37.1582 16.4299 36.8629 16.4789 36.5577 16.533L35.9341 16.6479L35.284 16.7763L34.6075 16.9182L33.9044 17.0736C33.785 17.1006 33.6645 17.1282 33.5429 17.1563L32.7999 17.3319L32.0303 17.5209C31.6552 17.6146 31.4272 17.9947 31.521 18.3697C31.6147 18.7448 31.9948 18.9728 32.3698 18.8791C32.4968 18.8473 32.6227 18.8161 32.7474 18.7855L33.4827 18.6082L34.1913 18.4441C34.3072 18.4178 34.422 18.3921 34.5356 18.367L35.2042 18.2226L35.846 18.0914L36.461 17.9734L37.0492 17.8685C37.145 17.8521 37.2396 17.8362 37.3332 17.8209L37.881 17.7357C38.0591 17.7095 38.2327 17.6855 38.4018 17.6637L38.8957 17.6047C39.5361 17.5349 40.1044 17.5 40.6001 17.5C40.9867 17.5 41.3001 17.1866 41.3001 16.8Z" fill="white"/>
<path d="M40.6001 20.3C40.9867 20.3 41.3001 20.6134 41.3001 21C41.3001 21.3866 40.9867 21.7 40.6001 21.7C40.1044 21.7 39.5361 21.7349 38.8957 21.8047L38.4018 21.8637C38.2327 21.8855 38.0591 21.9095 37.881 21.9357L37.3332 22.0209C37.2396 22.0362 37.145 22.0521 37.0492 22.0685L36.461 22.1734L35.846 22.2914L35.2042 22.4226L34.5356 22.567C34.422 22.5921 34.3072 22.6178 34.1913 22.6441L33.4827 22.8082L32.7474 22.9855C32.6227 23.0161 32.4968 23.0473 32.3698 23.0791C31.9948 23.1728 31.6147 22.9448 31.521 22.5697C31.4272 22.1947 31.6552 21.8146 32.0303 21.7209L32.7999 21.5319L33.5429 21.3563C33.6645 21.3282 33.785 21.3006 33.9044 21.2736L34.6075 21.1182L35.284 20.9763L35.9341 20.8479L36.5577 20.733C36.8629 20.6789 37.1582 20.6299 37.4436 20.5859L38.0013 20.5047C38.9997 20.3683 39.8655 20.3 40.6001 20.3Z" fill="white"/>
<path d="M41.3001 25.2C41.3001 24.8134 40.9867 24.5 40.6001 24.5C39.8655 24.5 38.9997 24.5683 38.0013 24.7047L37.4436 24.7859C37.1582 24.8299 36.8629 24.8789 36.5577 24.933L35.9341 25.0479L35.284 25.1763L34.6075 25.3182L33.9044 25.4736C33.785 25.5006 33.6645 25.5282 33.5429 25.5563L32.7999 25.7319L32.0303 25.9209C31.6552 26.0146 31.4272 26.3947 31.521 26.7697C31.6147 27.1448 31.9948 27.3728 32.3698 27.2791C32.4968 27.2473 32.6227 27.2161 32.7474 27.1855L33.4827 27.0082L34.1913 26.8441C34.3072 26.8178 34.422 26.7921 34.5356 26.767L35.2042 26.6226L35.846 26.4914L36.461 26.3734L37.0492 26.2685C37.145 26.2521 37.2396 26.2362 37.3332 26.2209L37.881 26.1357C38.0591 26.1095 38.2327 26.0855 38.4018 26.0637L38.8957 26.0047C39.5361 25.9349 40.1044 25.9 40.6001 25.9C40.9867 25.9 41.3001 25.5866 41.3001 25.2Z" fill="white"/>
<path fill-rule="evenodd" clip-rule="evenodd" d="M25.695 42.4949C26.4985 41.6915 27.2567 41.3081 27.9769 41.3001C27.9814 41.3002 27.9859 41.3003 27.9904 41.3004C27.9937 41.3004 27.9969 41.3004 28.0002 41.3004H28.0027C28.0095 41.3004 28.0163 41.3003 28.0231 41.3001C28.7434 41.3081 29.5016 41.6914 30.3051 42.4949C30.4364 42.6262 30.6144 42.7 30.8001 42.7H37.8001L37.8817 42.6953C38.2298 42.6548 38.5001 42.359 38.5001 42L38.4953 41.9183C38.4549 41.5702 38.159 41.3 37.8001 41.3H31.0815L30.9605 41.1888C30.7856 41.033 30.6095 40.891 30.4322 40.7629L30.4739 40.7558L30.9311 40.6818L31.4109 40.6112L31.9133 40.5438L32.4382 40.4797L32.9857 40.419L33.5557 40.3616L34.1483 40.3076L34.7633 40.2568L35.4008 40.2095L36.0608 40.1655L37.0928 40.1057L38.1754 40.0535L38.9251 40.023L39.6972 39.9958L40.4916 39.972L41.7253 39.9426L43.0092 39.9209L44.3432 39.9068L45.7275 39.9004C45.8841 39.9001 46.0416 39.9 46.2001 39.9C46.5867 39.9 46.9001 39.5866 46.9001 39.2V13.1948L48.3008 14.945L48.3001 28C48.3001 28.3589 48.5703 28.6548 48.9184 28.6953L49.0001 28.7C49.3591 28.7 49.6549 28.4297 49.6954 28.0816L49.7001 28V14.7C49.7001 14.5728 49.6655 14.4487 49.6008 14.3406L49.5467 14.2627L46.759 10.7781C46.6397 10.62 46.4547 10.5138 46.2429 10.5008C38.7179 10.0396 32.6363 10.9351 28.0001 13.2058C23.3638 10.9351 17.2823 10.0396 9.75722 10.5008C9.54517 10.5138 9.35994 10.6203 9.24067 10.7786L6.45344 14.2627L6.39936 14.3406C6.33467 14.4487 6.30005 14.5728 6.30005 14.7V18.2L6.30476 18.2816C6.34519 18.6297 6.64106 18.9 7.00005 18.9L7.08168 18.8953C7.42982 18.8548 7.70005 18.5589 7.70005 18.2L7.69935 14.945L9.10005 13.1948V39.2C9.10005 39.5866 9.41345 39.9 9.80005 39.9C9.95849 39.9 10.116 39.9001 10.2726 39.9004L11.6569 39.9068L12.9909 39.9209L14.2748 39.9426L15.5085 39.972L16.3029 39.9958L17.075 40.023L17.8247 40.0535L18.9073 40.1057L19.9393 40.1655L20.5993 40.2095L21.2368 40.2568L21.8518 40.3076L22.4444 40.3616L23.0144 40.419L23.5619 40.4797L24.0868 40.5438L24.5892 40.6112L25.069 40.6818L25.5262 40.7558L25.5679 40.7629C25.3906 40.891 25.2145 41.033 25.0396 41.1888L24.918 41.3H7.70005V39.2L7.69534 39.1183C7.6549 38.7702 7.35903 38.5 7.00005 38.5C6.61345 38.5 6.30005 38.8134 6.30005 39.2V42L6.30476 42.0816C6.34519 42.4297 6.64106 42.7 7.00005 42.7H25.2001L25.2921 42.6939C25.4438 42.6738 25.5856 42.6043 25.695 42.4949ZM27.3001 39.6858V14.4221L27.0826 14.3184C22.9277 12.3684 17.5106 11.539 10.8296 11.8453L10.5 11.8615V38.5007L11.2321 38.5039L12.6314 38.5161L13.9779 38.5364L14.8463 38.5545L15.6913 38.5762L16.9149 38.6157L17.7014 38.6466L18.4646 38.6812L19.2044 38.7194L19.9209 38.7614L20.6141 38.807L21.284 38.8563L21.9306 38.9093L22.554 38.966L23.1541 39.0264L23.7311 39.0905L24.2848 39.1584L24.8153 39.23C24.9018 39.2422 24.9873 39.2546 25.0718 39.2671L25.5676 39.3443L26.0402 39.4252L26.4897 39.5099L26.916 39.5983L27.3001 39.6858ZM29.0841 39.5983L28.7001 39.6858V14.4221L28.9175 14.3184C33.0724 12.3684 38.4895 11.539 45.1705 11.8453L45.5001 11.8615V38.5007L44.768 38.5039L43.3687 38.5161L42.0222 38.5364L41.1538 38.5545L40.3088 38.5762L39.0852 38.6157L38.2987 38.6466L37.5355 38.6812L36.7957 38.7194L36.0792 38.7614L35.386 38.807L34.7161 38.8563L34.0695 38.9093L33.4461 38.966L32.846 39.0264L32.269 39.0905L31.7153 39.1584L31.1848 39.23C31.0983 39.2422 31.0128 39.2546 30.9283 39.2671L30.4325 39.3443L29.9599 39.4252L29.5104 39.5099L29.0841 39.5983Z" fill="white"/>
<path d="M49.6953 32.1183C49.6549 31.7702 49.359 31.5 49.0001 31.5L48.9184 31.5047C48.5703 31.5451 48.3001 31.841 48.3001 32.2V41.3H43.4001L43.3184 41.3047C42.9703 41.3451 42.7001 41.641 42.7001 42C42.7001 42.3866 43.0135 42.7 43.4001 42.7H49.0001L49.0817 42.6953C49.4298 42.6548 49.7001 42.359 49.7001 42V32.2L49.6953 32.1183Z" fill="white"/>
<path d="M7.00005 21.7C7.35903 21.7 7.6549 21.9702 7.69534 22.3183L7.70005 22.4V35C7.70005 35.3866 7.38665 35.7 7.00005 35.7C6.64106 35.7 6.34519 35.4297 6.30476 35.0816L6.30005 35V22.4C6.30005 22.0134 6.61345 21.7 7.00005 21.7Z" fill="white"/>
</svg>
