<svg width="84" height="84" viewBox="0 0 84 84" fill="none" xmlns="http://www.w3.org/2000/svg">
<path fill-rule="evenodd" clip-rule="evenodd" d="M61.9501 79.8001C61.3712 79.8001 60.9001 79.329 60.9001 78.7501C60.9001 78.1711 61.3712 77.7001 61.9501 77.7001C62.5291 77.7001 63.0001 78.1711 63.0001 78.7501C63.0001 79.329 62.5291 79.8001 61.9501 79.8001Z" fill="#CACAFB"/>
<path fill-rule="evenodd" clip-rule="evenodd" d="M70.35 8.40005C69.7711 8.40005 69.3 7.92902 69.3 7.35005C69.3 6.77103 69.7711 6.30005 70.35 6.30005C70.929 6.30005 71.4 6.77103 71.4 7.35005C71.4 7.92902 70.929 8.40005 70.35 8.40005Z" fill="#CACAFB"/>
<path fill-rule="evenodd" clip-rule="evenodd" d="M8.4001 14.7001C7.82113 14.7001 7.3501 14.2291 7.3501 13.6501C7.3501 13.0711 7.82113 12.6001 8.4001 12.6001C8.97907 12.6001 9.4501 13.0711 9.4501 13.6501C9.4501 14.2291 8.97907 14.7001 8.4001 14.7001Z" fill="#CACAFB"/>
<path d="M32.5499 33.6C32.5499 33.0201 32.0798 32.55 31.4999 32.55C30.92 32.55 30.4499 33.0201 30.4499 33.6C30.4499 34.1799 30.92 34.65 31.4999 34.65C32.0798 34.65 32.5499 34.1799 32.5499 33.6Z" fill="#FA794A"/>
<path d="M26.9681 34.9338C26.5352 34.5264 25.8351 34.5577 25.4433 35.0279L20.1933 41.3279L20.122 41.4232C19.6684 42.104 20.1501 43.05 20.9999 43.05H27.2999L27.4224 43.043C27.9446 42.9823 28.3499 42.5385 28.3499 42L28.3428 41.8776C28.2822 41.3554 27.8384 40.95 27.2999 40.95H23.2417L26.2499 37.3401L28.0975 39.5573L28.1881 39.6532C28.5693 40.0095 29.1651 40.0344 29.5763 39.6917C30.0218 39.3205 30.082 38.6584 29.7107 38.2129L27.0565 35.0279L26.9681 34.9338Z" fill="#FA794A"/>
<path d="M36.2823 66.3264C36.1099 66.2114 35.9072 66.15 35.6999 66.15H14.6999L14.5775 66.1571C14.0552 66.2178 13.6499 66.6616 13.6499 67.2L13.657 67.3225C13.7176 67.8447 14.1614 68.25 14.6999 68.25H35.3902L35.4953 68.3185C37.6379 69.6664 39.8104 70.35 41.9999 70.35L42.3861 70.343C44.4449 70.2673 46.4879 69.5871 48.5045 68.3185L48.6086 68.25H69.2999L69.4224 68.243C69.9446 68.1823 70.3499 67.7385 70.3499 67.2C70.3499 66.6201 69.8798 66.15 69.2999 66.15H48.2999L48.1763 66.1573C48.0128 66.1767 47.8555 66.2344 47.7175 66.3264C45.7824 67.6165 43.8816 68.25 41.9999 68.25C40.1182 68.25 38.2174 67.6165 36.2823 66.3264Z" fill="#FA794A"/>
<path d="M32.8574 39.1576C33.2359 38.7791 33.8315 38.75 34.2434 39.0702L34.3424 39.1576L36.4424 41.2576C36.8524 41.6676 36.8524 42.3325 36.4424 42.7425C36.0639 43.121 35.4683 43.1501 35.0564 42.8299L34.9574 42.7425L33.5999 41.3858L32.2424 42.7425C31.8639 43.121 31.2683 43.1501 30.8564 42.8299L30.7574 42.7425C30.3789 42.364 30.3498 41.7684 30.6701 41.3565L30.7574 41.2576L32.8574 39.1576Z" fill="#FA794A"/>
<path d="M61.95 25.1999C61.95 24.62 61.4799 24.1499 60.9 24.1499C59.7981 24.1499 58.4994 24.2524 57.0019 24.4571L56.1653 24.5788C55.7372 24.6448 55.2942 24.7183 54.8364 24.7995L53.901 24.9718L52.9259 25.1645L51.9111 25.3773L50.8564 25.6103C50.6773 25.6509 50.4966 25.6922 50.3142 25.7344L49.1997 25.9978L48.0453 26.2813C47.4827 26.4219 47.1407 26.992 47.2813 27.5546C47.422 28.1172 47.992 28.4592 48.5546 28.3186C48.7451 28.271 48.9339 28.2242 49.121 28.1782L50.2239 27.9123L51.2869 27.6661C51.4607 27.6267 51.6329 27.5882 51.8033 27.5505L52.8062 27.3339L53.7689 27.1371L54.6914 26.96L55.5737 26.8027C55.7173 26.7781 55.8593 26.7543 55.9997 26.7314L56.8214 26.6036C57.0885 26.5643 57.3489 26.5283 57.6026 26.4955L58.3434 26.4071C59.304 26.3023 60.1564 26.2499 60.9 26.2499C61.4799 26.2499 61.95 25.7798 61.95 25.1999Z" fill="white"/>
<path d="M60.9 30.4499C61.4799 30.4499 61.95 30.92 61.95 31.4999C61.95 32.0798 61.4799 32.5499 60.9 32.5499C60.1564 32.5499 59.304 32.6023 58.3434 32.7071L57.6026 32.7955C57.3489 32.8283 57.0885 32.8643 56.8214 32.9036L55.9997 33.0314C55.8593 33.0543 55.7173 33.0781 55.5737 33.1027L54.6914 33.26L53.7689 33.4371L52.8062 33.6339L51.8033 33.8505C51.6329 33.8882 51.4607 33.9267 51.2869 33.9661L50.2239 34.2123L49.121 34.4782C48.9339 34.5242 48.7451 34.571 48.5546 34.6186C47.992 34.7592 47.422 34.4172 47.2813 33.8546C47.1407 33.292 47.4827 32.7219 48.0453 32.5813L49.1997 32.2978L50.3142 32.0344C50.4966 31.9922 50.6773 31.9509 50.8564 31.9103L51.9111 31.6773L52.9259 31.4645L53.901 31.2718L54.8364 31.0995C55.2942 31.0183 55.7372 30.9448 56.1653 30.8788L57.0019 30.7571C58.4994 30.5524 59.7981 30.4499 60.9 30.4499Z" fill="white"/>
<path d="M61.95 37.7999C61.95 37.22 61.4799 36.7499 60.9 36.7499C59.7981 36.7499 58.4994 36.8524 57.0019 37.0571L56.1653 37.1788C55.7372 37.2448 55.2942 37.3183 54.8364 37.3995L53.901 37.5718L52.9259 37.7645L51.9111 37.9773L50.8564 38.2103C50.6773 38.2509 50.4966 38.2922 50.3142 38.3344L49.1997 38.5978L48.0453 38.8813C47.4827 39.0219 47.1407 39.592 47.2813 40.1546C47.422 40.7172 47.992 41.0592 48.5546 40.9186C48.7451 40.871 48.9339 40.8242 49.121 40.7782L50.2239 40.5123L51.2869 40.2661C51.4607 40.2267 51.6329 40.1882 51.8033 40.1505L52.8062 39.9339L53.7689 39.7371L54.6914 39.56L55.5737 39.4027C55.7173 39.3781 55.8593 39.3543 55.9997 39.3314L56.8214 39.2036C57.0885 39.1643 57.3489 39.1283 57.6026 39.0955L58.3434 39.0071C59.304 38.9023 60.1564 38.8499 60.9 38.8499C61.4799 38.8499 61.95 38.3798 61.95 37.7999Z" fill="white"/>
<path fill-rule="evenodd" clip-rule="evenodd" d="M38.5424 63.7424C39.7476 62.5372 40.8849 61.9622 41.9653 61.9501C41.972 61.9503 41.9787 61.9505 41.9855 61.9506C41.9904 61.9506 41.9953 61.9507 42.0001 61.9507H42.0039C42.0141 61.9506 42.0243 61.9505 42.0345 61.9501C43.1149 61.9621 44.2522 62.5371 45.4575 63.7424C45.6544 63.9393 45.9215 64.0499 46.2 64.0499H56.7L56.8224 64.0429C57.3446 63.9822 57.75 63.5384 57.75 62.9999L57.7429 62.8775C57.6822 62.3553 57.2384 61.9499 56.7 61.9499H46.6221L46.4406 61.7832C46.1783 61.5495 45.9141 61.3365 45.6482 61.1444L45.7107 61.1337L46.3965 61.0227L47.1163 60.9167L47.8698 60.8157L48.6572 60.7196L49.4785 60.6285L50.3335 60.5424L51.2223 60.4613L52.1448 60.3853L53.1011 60.3142L54.0911 60.2482L55.6392 60.1586L57.2629 60.0803L58.3875 60.0345L59.5456 59.9937L60.7373 59.9579L62.5878 59.9139L64.5136 59.8813L66.5147 59.8602L68.5911 59.8506C68.826 59.8502 69.0623 59.8499 69.3 59.8499C69.8799 59.8499 70.35 59.3798 70.35 58.7999V19.7922L72.451 22.4174L72.45 41.9999C72.45 42.5384 72.8553 42.9822 73.3775 43.0429L73.5 43.0499C74.0385 43.0499 74.4823 42.6446 74.5429 42.1224L74.55 41.9999V22.0499C74.55 21.8592 74.4981 21.673 74.401 21.5108L74.3199 21.394L70.1384 16.1671C69.9594 15.93 69.6819 15.7707 69.3642 15.7512C58.0767 15.0593 48.9543 16.4027 42 19.8087C35.0456 16.4027 25.9233 15.0593 14.6357 15.7512C14.3176 15.7707 14.0398 15.9304 13.8609 16.168L9.68004 21.394L9.59892 21.5108C9.50188 21.673 9.44995 21.8592 9.44995 22.0499V27.2999L9.45702 27.4224C9.51767 27.9446 9.96147 28.3499 10.5 28.3499L10.6224 28.3429C11.1446 28.2822 11.55 27.8384 11.55 27.2999L11.5489 22.4174L13.65 19.7923V58.7999C13.65 59.3798 14.1201 59.8499 14.7 59.8499C14.9376 59.8499 15.1739 59.8502 15.4088 59.8506L17.4852 59.8602L19.4863 59.8813L21.4121 59.9139L23.2626 59.9579L24.4543 59.9937L25.6124 60.0345L26.737 60.0803L28.3608 60.1586L29.9089 60.2482L30.8988 60.3142L31.8551 60.3853L32.7776 60.4613L33.6664 60.5424L34.5214 60.6285L35.3427 60.7196L36.1301 60.8157L36.8837 60.9167L37.6034 61.0227L38.2892 61.1337L38.3517 61.1444C38.0858 61.3365 37.8216 61.5495 37.5593 61.7832L37.3768 61.9499H11.55V58.7999L11.5429 58.6775C11.4822 58.1553 11.0384 57.7499 10.5 57.7499C9.92005 57.7499 9.44995 58.22 9.44995 58.7999V62.9999L9.45702 63.1224C9.51767 63.6446 9.96147 64.0499 10.5 64.0499H37.8L37.938 64.0408C38.1655 64.0107 38.3783 63.9065 38.5424 63.7424ZM40.95 59.5286V21.6331L40.6238 21.4777C34.3915 18.5525 26.2657 17.3085 16.2443 17.7679L15.75 17.7922V57.751L16.848 57.7559L18.9469 57.7741L20.9667 57.8046L22.2693 57.8317L23.5368 57.8643L25.3722 57.9236L26.552 57.9699L27.6967 58.0218L28.8065 58.0791L29.8812 58.142L30.921 58.2105L31.9259 58.2844L32.8958 58.3639L33.8309 58.449L34.7311 58.5396L35.5965 58.6358L36.427 58.7376L37.2228 58.8449C37.3525 58.8633 37.4808 58.8819 37.6076 58.9007L38.3513 59.0165L39.0602 59.1378L39.7344 59.2648L40.3739 59.3974L40.95 59.5286ZM43.626 59.3974L43.05 59.5286V21.6331L43.3761 21.4777C49.6084 18.5525 57.7342 17.3085 67.7556 17.7679L68.25 17.7922V57.751L67.1519 57.7559L65.053 57.7741L63.0332 57.8046L61.7306 57.8317L60.4631 57.8643L58.6277 57.9236L57.4479 57.9699L56.3032 58.0218L55.1934 58.0791L54.1187 58.142L53.0789 58.2105L52.074 58.2844L51.1041 58.3639L50.169 58.449L49.2688 58.5396L48.4034 58.6358L47.5729 58.7376L46.7771 58.8449C46.6474 58.8633 46.5191 58.8819 46.3923 58.9007L45.6486 59.0165L44.9397 59.1378L44.2655 59.2648L43.626 59.3974Z" fill="white"/>
<path d="M74.5429 48.1775C74.4822 47.6553 74.0384 47.2499 73.5 47.2499L73.3775 47.257C72.8553 47.3177 72.45 47.7615 72.45 48.2999V61.9499H65.1L64.9775 61.957C64.4553 62.0177 64.05 62.4615 64.05 62.9999C64.05 63.5798 64.5201 64.0499 65.1 64.0499H73.5L73.6224 64.0429C74.1446 63.9822 74.55 63.5384 74.55 62.9999V48.2999L74.5429 48.1775Z" fill="white"/>
<path d="M10.5 32.5499C11.0384 32.5499 11.4822 32.9553 11.5429 33.4775L11.55 33.5999V52.4999C11.55 53.0798 11.0799 53.5499 10.5 53.5499C9.96147 53.5499 9.51767 53.1446 9.45702 52.6224L9.44995 52.4999V33.5999C9.44995 33.02 9.92005 32.5499 10.5 32.5499Z" fill="white"/>
</svg>
