<svg width="88" height="88" viewBox="0 0 88 88" fill="none" xmlns="http://www.w3.org/2000/svg">
  <path
    d="M40.7008 25.2996C40.7008 24.6921 40.2083 24.1996 39.6008 24.1996H26.4008L26.2725 24.207C25.7254 24.2706 25.3008 24.7355 25.3008 25.2996C25.3008 25.9072 25.7933 26.3996 26.4008 26.3996H39.6008L39.7291 26.3922C40.2761 26.3287 40.7008 25.8638 40.7008 25.2996Z"
    fill="#5BB5A7" />
  <path
    d="M42.9008 43.9996C41.6858 43.9996 40.7008 44.9846 40.7008 46.1996C40.7008 48.9354 41.8103 50.5996 44.0008 50.5996C44.6083 50.5996 45.1008 50.1072 45.1008 49.4996C45.1008 48.8921 44.6083 48.3996 44.0008 48.3996L43.8973 48.3959C43.766 48.3862 43.648 48.357 43.543 48.3044C44.4448 48.0296 45.1008 47.1912 45.1008 46.1996C45.1008 44.9846 44.1158 43.9996 42.9008 43.9996Z"
    fill="#5BB5A7" />
  <path
    d="M47.3008 46.1996C47.3008 44.9846 48.2858 43.9996 49.5008 43.9996C50.7158 43.9996 51.7008 44.9846 51.7008 46.1996C51.7008 47.1912 51.0448 48.0296 50.143 48.3044C50.248 48.357 50.366 48.3862 50.4973 48.3959L50.6008 48.3996C51.2083 48.3996 51.7008 48.8921 51.7008 49.4996C51.7008 50.1072 51.2083 50.5996 50.6008 50.5996C48.4103 50.5996 47.3008 48.9354 47.3008 46.1996Z"
    fill="#5BB5A7" />
  <path
    d="M37.4008 28.5996C38.0083 28.5996 38.5008 29.0921 38.5008 29.6996C38.5008 30.2638 38.0761 30.7287 37.5291 30.7922L37.4008 30.7996H26.4008C25.7933 30.7996 25.3008 30.3072 25.3008 29.6996C25.3008 29.1355 25.7254 28.6706 26.2725 28.607L26.4008 28.5996H37.4008Z"
    fill="#5BB5A7" />
  <path
    d="M34.1008 34.0996C34.1008 33.4921 33.6083 32.9996 33.0008 32.9996H26.4008L26.2725 33.007C25.7254 33.0706 25.3008 33.5355 25.3008 34.0996C25.3008 34.7072 25.7933 35.1996 26.4008 35.1996H33.0008L33.1291 35.1922C33.6761 35.1287 34.1008 34.6638 34.1008 34.0996Z"
    fill="#5BB5A7" />
  <path
    d="M61.6008 54.9996C62.2083 54.9996 62.7008 55.4921 62.7008 56.0996C62.7008 56.6638 62.2761 57.1287 61.7291 57.1922L61.6008 57.1996H41.8008C41.1933 57.1996 40.7008 56.7072 40.7008 56.0996C40.7008 55.5355 41.1254 55.0706 41.6725 55.007L41.8008 54.9996H61.6008Z"
    fill="#5BB5A7" />
  <path
    d="M58.3008 60.4996C58.3008 59.8921 57.8083 59.3996 57.2008 59.3996H41.8008L41.6725 59.407C41.1254 59.4706 40.7008 59.9355 40.7008 60.4996C40.7008 61.1072 41.1933 61.5996 41.8008 61.5996H57.2008L57.3291 61.5922C57.8761 61.5287 58.3008 61.0638 58.3008 60.4996Z"
    fill="#5BB5A7" />
  <path
    d="M35.1996 13.1996C42.7391 13.1996 48.7163 17.6625 51.6203 24.8895C51.8468 25.4532 51.5734 26.0938 51.0097 26.3203C50.446 26.5468 49.8054 26.2735 49.5789 25.7098C46.9958 19.2812 41.797 15.3996 35.1996 15.3996C26.0869 15.3996 18.6996 22.7869 18.6996 31.8996C18.6996 35.4371 19.8142 38.8035 21.8519 41.6017C22.1103 41.9565 22.1307 42.4262 21.9158 42.7986L21.8354 42.9189L17.6293 48.3996H24.1996C24.7637 48.3996 25.2287 48.8243 25.2922 49.3714L25.2996 49.4996C25.2996 50.0638 24.875 50.5287 24.3279 50.5922L24.1996 50.5996H15.3996C14.529 50.5996 14.0194 49.6465 14.4578 48.9306L14.5269 48.83L19.6016 42.2154L19.5394 42.1235C17.6555 39.2441 16.5944 35.8916 16.5057 32.3795L16.4996 31.8996C16.4996 21.5719 24.8719 13.1996 35.1996 13.1996Z"
    fill="#000091" />
  <path
    d="M51.6996 30.7996C63.8499 30.7996 73.6996 40.6494 73.6996 52.7996C73.6996 56.2434 72.9069 59.5761 71.4047 62.5931C71.1339 63.1369 70.4736 63.3583 69.9297 63.0875C69.3859 62.8167 69.1646 62.1564 69.4353 61.6125C70.7867 58.8985 71.4996 55.9011 71.4996 52.7996C71.4996 41.8644 62.6348 32.9996 51.6996 32.9996C40.7644 32.9996 31.8996 41.8644 31.8996 52.7996C31.8996 63.6134 40.5685 72.4024 51.3359 72.5964L51.6996 72.5996H70.5437L67.2844 67.7098C66.9714 67.2404 67.0669 66.618 67.4868 66.2617L67.5894 66.1844C68.0588 65.8715 68.6812 65.9669 69.0376 66.3868L69.1149 66.4895L73.5149 73.0895C73.979 73.7857 73.5258 74.707 72.7226 74.7931L72.5996 74.7996H51.6996C39.5493 74.7996 29.6996 64.9499 29.6996 52.7996C29.6996 40.6494 39.5493 30.7996 51.6996 30.7996Z"
    fill="#000091" />
  <path
    d="M60.4996 20.8996C60.4996 21.5062 60.9931 21.9996 61.5996 21.9996C62.2062 21.9996 62.6996 21.5062 62.6996 20.8996C62.6996 20.2931 62.2062 19.7996 61.5996 19.7996C60.9931 19.7996 60.4996 20.2931 60.4996 20.8996Z"
    fill="#000091" />
  <path
    d="M65.9996 21.9996C65.3931 21.9996 64.8996 21.5062 64.8996 20.8996C64.8996 20.2931 65.3931 19.7996 65.9996 19.7996C66.6062 19.7996 67.0996 20.2931 67.0996 20.8996C67.0996 21.5062 66.6062 21.9996 65.9996 21.9996Z"
    fill="#000091" />
  <path
    d="M69.2996 20.8996C69.2996 21.5062 69.7931 21.9996 70.3996 21.9996C71.0061 21.9996 71.4996 21.5062 71.4996 20.8996C71.4996 20.2931 71.0061 19.7996 70.3996 19.7996C69.7931 19.7996 69.2996 20.2931 69.2996 20.8996Z"
    fill="#000091" />
  <path fill-rule="evenodd" clip-rule="evenodd"
    d="M74.7996 15.3996H57.1996C56.5921 15.3996 56.0996 15.8921 56.0996 16.4996V25.2996L56.107 25.4279C56.1706 25.975 56.6355 26.3996 57.1996 26.3996H65.5431L69.6218 30.4775L69.7148 30.5612C70.4155 31.1268 71.4996 30.637 71.4996 29.6996V26.3996H74.7996C75.4071 26.3996 75.8996 25.9072 75.8996 25.2996V16.4996C75.8996 15.8921 75.4071 15.3996 74.7996 15.3996ZM73.6996 17.5996V24.1996H70.3996L70.2713 24.207C69.7243 24.2706 69.2996 24.7355 69.2996 25.2996V27.0431L66.7774 24.5218L66.6684 24.4263C66.4775 24.2801 66.2427 24.1996 65.9996 24.1996H58.2996V17.5996H73.6996Z"
    fill="#000091" />
  <path
    d="M17.5996 63.7996C18.2071 63.7996 18.6996 64.2921 18.6996 64.8996C18.6996 65.4638 18.275 65.9287 17.7279 65.9922L17.5996 65.9996H13.1996C12.5921 65.9996 12.0996 65.5072 12.0996 64.8996C12.0996 64.3355 12.5243 63.8706 13.0713 63.807L13.1996 63.7996H17.5996Z"
    fill="#000091" />
  <path
    d="M20.8996 64.8996C20.8996 65.5062 21.3931 65.9996 21.9996 65.9996C22.6061 65.9996 23.0996 65.5062 23.0996 64.8996C23.0996 64.2931 22.6061 63.7996 21.9996 63.7996C21.3931 63.7996 20.8996 64.2931 20.8996 64.8996Z"
    fill="#000091" />
  <path
    d="M26.3996 65.9996C25.7931 65.9996 25.2996 65.5062 25.2996 64.8996C25.2996 64.2931 25.7931 63.7996 26.3996 63.7996C27.0062 63.7996 27.4996 64.2931 27.4996 64.8996C27.4996 65.5062 27.0062 65.9996 26.3996 65.9996Z"
    fill="#000091" />
</svg>