<svg width="140" height="140" viewBox="0 0 140 140" fill="none" xmlns="http://www.w3.org/2000/svg">
  <path fill-rule="evenodd" clip-rule="evenodd"
    d="M65.3433 81.5128L54.1745 68.3101L53.9601 68.0795C52.6254 66.7899 50.6008 66.7664 49.2684 68.0107C47.8621 69.3241 47.7365 71.5667 48.9835 73.0405L63.3265 89.9932C63.418 90.1012 63.518 90.2017 63.6256 90.2936C64.7279 91.2353 66.3849 91.105 67.3265 90.0026L98.0057 54.087L98.1995 53.8375C99.2465 52.3313 99.0478 50.2854 97.7438 49.0559C96.3191 47.7126 94.1118 47.8379 92.8364 49.331L65.3433 81.5128Z"
    fill="#5BB5A7" />
  <path
    d="M20.0217 78.8121C15.1546 51.2095 33.5854 24.8876 61.188 20.0205C78.7248 16.9283 96.3017 23.2188 107.93 36.2704C108.573 36.992 108.509 38.0982 107.787 38.7411C107.065 39.3841 105.959 39.3202 105.316 38.5986C94.4874 26.4439 78.125 20.588 61.7958 23.4673C36.0968 27.9987 18.9371 52.5053 23.4685 78.2044C27.9999 103.903 52.5065 121.063 78.2055 116.532C103.905 112 121.064 87.4936 116.533 61.7946C116.365 60.8428 117.001 59.9351 117.952 59.7673C118.904 59.5995 119.812 60.235 119.98 61.1868C124.847 88.7895 106.416 115.111 78.8133 119.978C51.2107 124.846 24.8888 106.415 20.0217 78.8121Z"
    fill="#000091" />
  <path
    d="M122.893 82.1171C123.108 81.1748 124.046 80.5851 124.988 80.8001C125.93 81.0151 126.52 81.9532 126.305 82.8955C123.951 93.2139 118.795 102.637 111.463 110.198C110.79 110.892 109.682 110.909 108.989 110.236C108.295 109.563 108.278 108.455 108.95 107.762C115.839 100.658 120.682 91.8067 122.893 82.1171Z"
    fill="#000091" />
  <path
    d="M126.001 73.4995C125.034 73.4995 124.251 74.283 124.251 75.2495C124.251 76.216 125.034 76.9995 126.001 76.9995C126.967 76.9995 127.751 76.216 127.751 75.2495C127.751 74.283 126.967 73.4995 126.001 73.4995Z"
    fill="#000091" />
</svg>