<svg width="88" height="88" viewBox="0 0 88 88" fill="none" xmlns="http://www.w3.org/2000/svg">
  <path
    d="M59.4407 44.8045C59.6037 44.2193 60.2102 43.877 60.7955 44.0399C63.369 44.7565 65.3419 46.775 65.8642 49.2777C65.9883 49.8724 65.6068 50.4551 65.0121 50.5792C64.4174 50.7033 63.8347 50.3218 63.7106 49.7271C63.3602 48.048 62.0034 46.66 60.2053 46.1593C59.6201 45.9963 59.2777 45.3898 59.4407 44.8045Z"
    fill="#5BB5A7" />
  <path fill-rule="evenodd" clip-rule="evenodd"
    d="M48.4004 50.5996C48.4004 44.5329 53.3339 39.5996 59.4004 39.5996C65.4669 39.5996 70.4004 44.5329 70.4004 50.5996C70.4004 53.4224 69.3322 55.9998 67.5787 57.9491L74.0635 69.1811C74.9748 70.7595 74.434 72.7778 72.8556 73.689C71.3337 74.5678 69.4026 74.0963 68.4496 72.6463L68.3478 72.4811L61.9 61.3133C61.0967 61.5006 60.2599 61.5996 59.4004 61.5996C53.334 61.5996 48.4004 56.666 48.4004 50.5996ZM64.0187 60.5829L70.253 71.3811C70.5568 71.9073 71.2295 72.0875 71.7556 71.7838C72.2442 71.5017 72.4345 70.9015 72.216 70.3959L72.1583 70.2811L65.9114 59.4612C65.3224 59.8951 64.6887 60.2718 64.0187 60.5829ZM68.2004 50.5996C68.2004 45.748 64.2519 41.7996 59.4004 41.7996C54.5489 41.7996 50.6004 45.748 50.6004 50.5996C50.6004 55.451 54.549 59.3996 59.4004 59.3996C64.2517 59.3996 68.2004 55.451 68.2004 50.5996Z"
    fill="#5BB5A7" />
  <path
    d="M75.8934 19.6714C75.8298 19.1243 75.3649 18.6996 74.8008 18.6996H15.4008L15.2725 18.707C14.7254 18.7706 14.3008 19.2355 14.3008 19.7996V70.3996L14.3082 70.5279C14.3717 71.075 14.8367 71.4996 15.4008 71.4996H61.6008L61.7291 71.4922C62.2761 71.4287 62.7008 70.9638 62.7008 70.3996L62.6934 70.2714C62.6298 69.7243 62.1649 69.2996 61.6008 69.2996H16.5008V29.6996H57.2008L57.3291 29.6922C57.8761 29.6287 58.3008 29.1638 58.3008 28.5996C58.3008 27.9921 57.8083 27.4996 57.2008 27.4996H16.5008V20.8996H73.7008V27.4996H63.8008L63.6725 27.507C63.1254 27.5706 62.7008 28.0355 62.7008 28.5996C62.7008 29.2072 63.1933 29.6996 63.8008 29.6996H73.7008V61.5996L73.7082 61.7279C73.7717 62.275 74.2367 62.6996 74.8008 62.6996C75.4083 62.6996 75.9008 62.2072 75.9008 61.5996V19.7996L75.8934 19.6714Z"
    fill="#000091" />
  <path
    d="M19.8008 25.2996C19.1942 25.2996 18.7008 24.8062 18.7008 24.1996C18.7008 23.5931 19.1942 23.0996 19.8008 23.0996C20.4073 23.0996 20.9008 23.5931 20.9008 24.1996C20.9008 24.8062 20.4073 25.2996 19.8008 25.2996Z"
    fill="#000091" />
  <path
    d="M23.1008 24.1996C23.1008 24.8062 23.5942 25.2996 24.2008 25.2996C24.8073 25.2996 25.3008 24.8062 25.3008 24.1996C25.3008 23.5931 24.8073 23.0996 24.2008 23.0996C23.5942 23.0996 23.1008 23.5931 23.1008 24.1996Z"
    fill="#000091" />
  <path
    d="M28.6008 25.2996C27.9942 25.2996 27.5008 24.8062 27.5008 24.1996C27.5008 23.5931 27.9942 23.0996 28.6008 23.0996C29.2073 23.0996 29.7008 23.5931 29.7008 24.1996C29.7008 24.8062 29.2073 25.2996 28.6008 25.2996Z"
    fill="#000091" />
  <path
    d="M70.4008 23.0996C71.0083 23.0996 71.5008 23.5921 71.5008 24.1996C71.5008 24.7638 71.0761 25.2287 70.5291 25.2922L70.4008 25.2996H37.4008C36.7933 25.2996 36.3008 24.8072 36.3008 24.1996C36.3008 23.6355 36.7254 23.1706 37.2725 23.107L37.4008 23.0996H70.4008Z"
    fill="#000091" />
  <path
    d="M45.1008 37.3996C45.1008 36.7921 44.6083 36.2996 44.0008 36.2996H24.2008L24.0725 36.307C23.5254 36.3706 23.1008 36.8355 23.1008 37.3996C23.1008 38.0072 23.5933 38.4996 24.2008 38.4996H44.0008L44.1291 38.4922C44.6761 38.4287 45.1008 37.9638 45.1008 37.3996Z"
    fill="#000091" />
  <path
    d="M39.6008 42.8996C40.2083 42.8996 40.7008 43.3921 40.7008 43.9996C40.7008 44.5638 40.2761 45.0287 39.7291 45.0922L39.6008 45.0996H24.2008C23.5933 45.0996 23.1008 44.6072 23.1008 43.9996C23.1008 43.4355 23.5254 42.9706 24.0725 42.907L24.2008 42.8996H39.6008Z"
    fill="#000091" />
  <path
    d="M38.5008 50.5996C38.5008 49.9921 38.0083 49.4996 37.4008 49.4996H24.2008L24.0725 49.507C23.5254 49.5706 23.1008 50.0355 23.1008 50.5996C23.1008 51.2072 23.5933 51.6996 24.2008 51.6996H37.4008L37.5291 51.6922C38.0761 51.6287 38.5008 51.1638 38.5008 50.5996Z"
    fill="#000091" />
</svg>