<svg width="88" height="88" viewBox="0 0 88 88" fill="none" xmlns="http://www.w3.org/2000/svg">
  <path
    d="M46.3626 10.9996C64.588 10.9996 79.3626 25.7742 79.3626 43.9996C79.3626 44.6071 78.8702 45.0996 78.2626 45.0996C77.6551 45.0996 77.1626 44.6071 77.1626 43.9996C77.1626 26.9893 63.373 13.1996 46.3626 13.1996C29.3523 13.1996 15.5626 26.9893 15.5626 43.9996C15.5626 61.01 29.3523 74.7996 46.3626 74.7996C58.6329 74.7996 69.5805 67.5589 74.4989 56.5488C74.7467 55.9941 75.3972 55.7453 75.9519 55.9931C76.5066 56.2409 76.7554 56.8914 76.5076 57.4461C71.2383 69.2416 59.5086 76.9996 46.3626 76.9996C28.1372 76.9996 13.3626 62.225 13.3626 43.9996C13.3626 25.7742 28.1372 10.9996 46.3626 10.9996Z"
    fill="#5BB5A7" />
  <path
    d="M78.2626 53.4515C78.2626 54.104 77.7337 54.633 77.0812 54.633C76.4286 54.633 75.8997 54.104 75.8997 53.4515C75.8997 52.799 76.4286 52.27 77.0812 52.27C77.7337 52.27 78.2626 52.799 78.2626 53.4515Z"
    fill="#5BB5A7" />
  <path
    d="M15.9422 23.1349C15.4588 22.7669 14.7686 22.8605 14.4006 23.3438C10.683 28.2272 8.63672 34.1873 8.63672 40.4552C8.63672 41.0627 9.12921 41.5552 9.73672 41.5552C10.3442 41.5552 10.8367 41.0627 10.8367 40.4552C10.8367 34.673 12.7226 29.18 16.1511 24.6765C16.5191 24.1931 16.4255 23.5029 15.9422 23.1349Z"
    fill="#5BB5A7" />
  <path fill-rule="evenodd" clip-rule="evenodd"
    d="M61.5962 38.4083C60.8154 29.0389 55.5729 24.1996 46.2 24.1996C36.8271 24.1996 31.5846 29.0389 30.8038 38.4083C30.7447 39.1173 31.3641 39.695 32.0673 39.5869L34.1 39.2741V39.7547C33.3126 39.9065 32.7322 40.1165 32.3254 40.4198C31.2937 41.189 30.7999 42.4192 30.7999 43.9996C30.7999 46.8072 32.3924 48.3996 35.1999 48.3996C35.3197 48.3996 35.4349 48.3805 35.5429 48.3451C36.7131 50.6142 38.5271 52.4684 40.7314 53.6378C40.7109 53.7217 40.7 53.8094 40.7 53.8996C40.7 55.3282 40.0192 56.5977 38.9644 57.4015C38.9474 57.4136 38.9307 57.426 38.9145 57.439C38.1836 57.9798 37.2791 58.2996 36.3 58.2996H34.1L33.8526 58.3042C30.3221 58.4343 27.5 61.3374 27.5 64.8996C27.5 65.5072 27.9925 65.9996 28.6 65.9996C29.2075 65.9996 29.7 65.5072 29.7 64.8996C29.7 62.4696 31.6699 60.4996 34.1 60.4996H36.3L36.5474 60.4951C37.4675 60.4612 38.3394 60.239 39.1258 59.8658C40.3052 61.7219 42.4802 62.2884 45.3668 61.5668C45.9562 61.4195 46.3145 60.8222 46.1672 60.2329C46.0198 59.6435 45.4226 59.2851 44.8332 59.4325C42.7765 59.9467 41.5752 59.6683 40.9344 58.5988C42.0108 57.5372 42.7243 56.1084 42.8716 54.5155C43.9286 54.8308 45.0451 54.9996 46.2 54.9996C47.3549 54.9996 48.4714 54.8308 49.5284 54.5155C49.8314 57.7909 52.5279 60.3726 55.8526 60.4951L56.1 60.4996H58.3C60.7301 60.4996 62.7 62.4696 62.7 64.8996C62.7 65.5072 63.1925 65.9996 63.8 65.9996C64.4075 65.9996 64.9 65.5072 64.9 64.8996C64.9 61.3374 62.0779 58.4343 58.5474 58.3042L58.3 58.2996H56.1C53.6699 58.2996 51.7 56.3297 51.7 53.8996C51.7 53.8094 51.6891 53.7217 51.6686 53.6378C53.8729 52.4684 55.6869 50.6143 56.8571 48.3451C56.965 48.3805 57.0803 48.3996 57.2 48.3996C60.0075 48.3996 61.6 46.8072 61.6 43.9996C61.6 42.4192 61.1062 41.189 60.0745 40.4198C59.5184 40.0052 58.6379 39.7649 57.3479 39.6095C57.3008 39.6032 57.2528 39.5998 57.2041 39.5997L57.2023 39.5995C57.0961 39.5992 56.9927 39.6142 56.8944 39.6426C56.736 39.6884 56.5922 39.7688 56.4719 39.8751C56.2591 40.0631 56.1196 40.3323 56.1019 40.6342C56.1002 40.6618 56.0996 40.6893 56.1 40.7166V42.3496L56.0959 42.653C55.9437 48.295 51.5596 52.7996 46.2 52.7996C40.7447 52.7996 36.3 48.1327 36.3 42.3496V38.9357L46.3673 37.3869L46.4971 37.3588C46.7937 37.2756 47.0443 37.0708 47.1839 36.7916L48.2839 34.5916L48.3346 34.4735C48.5224 33.9558 48.2965 33.3681 47.7919 33.1158L47.6739 33.065C47.1562 32.8772 46.5684 33.1031 46.3161 33.6077L45.4696 35.2986L33.154 37.1928L33.1741 37.0512C34.2521 29.8658 38.5036 26.3996 46.2 26.3996L46.595 26.4027C53.9114 26.5182 58.0207 29.869 59.1674 36.6829L59.224 37.0465L51.9668 35.2325L51.8405 35.2086C51.2944 35.1375 50.7697 35.4856 50.6328 36.0329C50.4855 36.6222 50.8438 37.2195 51.4332 37.3668L60.2332 39.5668L60.3617 39.5912C61.0435 39.6796 61.6551 39.1153 61.5962 38.4083ZM34.1 42.0088C33.8667 42.07 33.711 42.1309 33.6404 42.1836C33.2281 42.491 32.9999 43.0595 32.9999 43.9996C32.9999 45.3987 33.4688 46.0375 34.6624 46.1721C34.3269 45.0643 34.1334 43.891 34.1039 42.6756L34.1 42.3496V42.0088ZM59.4 43.9996C59.4 45.3986 58.9312 46.0375 57.7376 46.1721C58.103 44.9656 58.3 43.6813 58.3 42.3496V42.0088C58.5333 42.0701 58.6889 42.131 58.7595 42.1836C59.1718 42.491 59.4 43.0595 59.4 43.9996Z"
    fill="#000091" />
</svg>