<svg width="32" height="32" viewBox="0 0 32 32" fill="none" xmlns="http://www.w3.org/2000/svg">
<path d="M13.3327 3.99963H18.666C21.495 3.99963 24.2081 5.12344 26.2085 7.12383C28.2089 9.12422 29.3327 11.8373 29.3327 14.6663C29.3327 17.4953 28.2089 20.2084 26.2085 22.2088C24.2081 24.2092 21.495 25.333 18.666 25.333V29.9996C11.9993 27.333 2.66602 23.333 2.66602 14.6663C2.66602 11.8373 3.78982 9.12422 5.79021 7.12383C7.7906 5.12344 10.5037 3.99963 13.3327 3.99963ZM15.9993 22.6663H18.666C19.7166 22.6663 20.7569 22.4594 21.7275 22.0573C22.6981 21.6553 23.58 21.066 24.3229 20.3232C25.0657 19.5803 25.655 18.6984 26.0571 17.7278C26.4591 16.7572 26.666 15.7169 26.666 14.6663C26.666 13.6157 26.4591 12.5754 26.0571 11.6048C25.655 10.6342 25.0657 9.75232 24.3229 9.00945C23.58 8.26658 22.6981 7.6773 21.7275 7.27526C20.7569 6.87323 19.7166 6.6663 18.666 6.6663H13.3327C11.211 6.6663 9.17612 7.50916 7.67583 9.00945C6.17554 10.5097 5.33268 12.5446 5.33268 14.6663C5.33268 19.4796 8.61535 22.621 15.9993 25.973V22.6663Z" fill="#FA7659"/>
<path d="M15.5993 19.333L12.7357 14.6663L15.5993 9.99963H12.5084L9.59935 14.6663L12.5084 19.333H15.5993ZM21.5993 19.333L18.7357 14.6663L21.5993 9.99963H18.5084L15.5993 14.6663L18.5084 19.333H21.5993Z" fill="#FA7659"/>
</svg>
