<svg width="122" height="122" viewBox="0 0 122 122" fill="none" xmlns="http://www.w3.org/2000/svg">
<path fill-rule="evenodd" clip-rule="evenodd" d="M103.7 19.8249C102.859 19.8249 102.175 19.1408 102.175 18.2999C102.175 17.4589 102.859 16.7749 103.7 16.7749C104.541 16.7749 105.225 17.4589 105.225 18.2999C105.225 19.1408 104.541 19.8249 103.7 19.8249Z" fill="#CACAFB"/>
<path fill-rule="evenodd" clip-rule="evenodd" d="M62.525 115.9C61.6841 115.9 61 115.216 61 114.375C61 113.534 61.6841 112.85 62.525 112.85C63.3659 112.85 64.05 113.534 64.05 114.375C64.05 115.216 63.3659 115.9 62.525 115.9Z" fill="#CACAFB"/>
<path fill-rule="evenodd" clip-rule="evenodd" d="M22.8751 15.25C22.0342 15.25 21.3501 14.5658 21.3501 13.725C21.3501 12.884 22.0342 12.2 22.8751 12.2C23.716 12.2 24.4001 12.884 24.4001 13.725C24.4001 14.5658 23.716 15.25 22.8751 15.25Z" fill="#CACAFB"/>
<path fill-rule="evenodd" clip-rule="evenodd" d="M56.942 71.033L47.2092 59.5278L47.0224 59.3268C45.8593 58.2031 44.095 58.1826 42.9339 59.2669C41.7084 60.4114 41.599 62.3657 42.6856 63.65L55.1846 78.4231C55.2642 78.5172 55.3514 78.6048 55.4451 78.6849C56.4057 79.5054 57.8497 79.3919 58.6702 78.4313L85.405 47.1334L85.5738 46.916C86.4863 45.6034 86.3131 43.8205 85.1767 42.7491C83.9352 41.5785 82.0117 41.6878 80.9003 42.9889L56.942 71.033Z" fill="#5BB5A7"/>
<path d="M17.4468 68.6796C13.2055 44.6259 29.2667 21.6882 53.3204 17.4469C68.6024 14.7523 83.9194 20.234 94.0523 31.6075C94.6126 32.2364 94.557 33.2003 93.9281 33.7606C93.2992 34.3209 92.3353 34.2653 91.775 33.6364C82.3384 23.0444 68.0798 17.9415 53.85 20.4506C31.4552 24.3994 16.5017 45.7551 20.4505 68.15C24.3993 90.5448 45.7551 105.498 68.1499 101.549C90.5448 97.6007 105.498 76.2449 101.549 53.8501C101.403 53.0206 101.957 52.2297 102.786 52.0834C103.616 51.9372 104.407 52.491 104.553 53.3204C108.794 77.3742 92.7333 100.312 68.6796 104.553C44.6258 108.794 21.6882 92.7333 17.4468 68.6796Z" fill="#000091"/>
<path d="M107.092 71.5596C107.279 70.7385 108.096 70.2247 108.918 70.412C109.739 70.5993 110.252 71.4168 110.065 72.238C108.014 81.2298 103.52 89.4417 97.1315 96.0303C96.5452 96.6349 95.5798 96.6498 94.9751 96.0634C94.3705 95.4771 94.3556 94.5117 94.9419 93.907C100.945 87.7166 105.165 80.0034 107.092 71.5596Z" fill="#000091"/>
<path d="M109.8 64.05C108.958 64.05 108.275 64.7328 108.275 65.575C108.275 66.4172 108.958 67.1 109.8 67.1C110.642 67.1 111.325 66.4172 111.325 65.575C111.325 64.7328 110.642 64.05 109.8 64.05Z" fill="#000091"/>
</svg>
