<svg width="122" height="122" viewBox="0 0 122 122" fill="none" xmlns="http://www.w3.org/2000/svg">
<path fill-rule="evenodd" clip-rule="evenodd" d="M89.975 115.9C89.1341 115.9 88.45 115.216 88.45 114.375C88.45 113.534 89.1341 112.85 89.975 112.85C90.8158 112.85 91.5 113.534 91.5 114.375C91.5 115.216 90.8158 115.9 89.975 115.9Z" fill="#CACAFB"/>
<path fill-rule="evenodd" clip-rule="evenodd" d="M102.175 18.3C101.334 18.3 100.65 17.6159 100.65 16.775C100.65 15.934 101.334 15.25 102.175 15.25C103.016 15.25 103.7 15.934 103.7 16.775C103.7 17.6159 103.016 18.3 102.175 18.3Z" fill="#CACAFB"/>
<path fill-rule="evenodd" clip-rule="evenodd" d="M13.725 24.4001C12.8841 24.4001 12.2 23.716 12.2 22.8751C12.2 22.0341 12.8841 21.3501 13.725 21.3501C14.5658 21.3501 15.25 22.0341 15.25 22.8751C15.25 23.716 14.5658 24.4001 13.725 24.4001Z" fill="#CACAFB"/>
<path d="M56.425 35.075C56.425 34.2328 55.7422 33.55 54.9 33.55H36.6L36.4221 33.5603C35.6637 33.6484 35.075 34.293 35.075 35.075C35.075 35.9173 35.7577 36.6 36.6 36.6H54.9L55.0778 36.5898C55.8362 36.5017 56.425 35.8571 56.425 35.075Z" fill="#FA794A"/>
<path d="M59.475 61.0001C57.7905 61.0001 56.425 62.3656 56.425 64.0501C56.425 67.8428 57.9631 70.1501 61 70.1501C61.8422 70.1501 62.525 69.4673 62.525 68.6251C62.525 67.7828 61.8422 67.1001 61 67.1001L60.8565 67.0949C60.6744 67.0814 60.5108 67.0409 60.3654 66.968C61.6155 66.5871 62.525 65.4248 62.525 64.0501C62.525 62.3656 61.1594 61.0001 59.475 61.0001Z" fill="#FA794A"/>
<path d="M65.575 64.0501C65.575 62.3656 66.9405 61.0001 68.625 61.0001C70.3094 61.0001 71.675 62.3656 71.675 64.0501C71.675 65.4248 70.7655 66.5871 69.5154 66.968C69.6608 67.0409 69.8244 67.0814 70.0065 67.0949L70.15 67.1001C70.9922 67.1001 71.675 67.7828 71.675 68.6251C71.675 69.4673 70.9922 70.1501 70.15 70.1501C67.1131 70.1501 65.575 67.8428 65.575 64.0501Z" fill="#FA794A"/>
<path d="M51.85 39.65C52.6922 39.65 53.375 40.3328 53.375 41.175C53.375 41.9571 52.7862 42.6017 52.0278 42.6898L51.85 42.7H36.6C35.7577 42.7 35.075 42.0173 35.075 41.175C35.075 40.393 35.6637 39.7484 36.4221 39.6603L36.6 39.65H51.85Z" fill="#FA794A"/>
<path d="M47.275 47.275C47.275 46.4328 46.5922 45.75 45.75 45.75H36.6L36.4221 45.7603C35.6637 45.8484 35.075 46.493 35.075 47.275C35.075 48.1173 35.7577 48.8 36.6 48.8H45.75L45.9278 48.7898C46.6862 48.7017 47.275 48.0571 47.275 47.275Z" fill="#FA794A"/>
<path d="M85.4 76.2501C86.2422 76.2501 86.925 76.9328 86.925 77.7751C86.925 78.5571 86.3362 79.2017 85.5778 79.2898L85.4 79.3001H57.95C57.1077 79.3001 56.425 78.6173 56.425 77.7751C56.425 76.993 57.0137 76.3484 57.7721 76.2603L57.95 76.2501H85.4Z" fill="#FA794A"/>
<path d="M80.825 83.8751C80.825 83.0328 80.1422 82.3501 79.3 82.3501H57.95L57.7721 82.3603C57.0137 82.4484 56.425 83.093 56.425 83.8751C56.425 84.7173 57.1077 85.4001 57.95 85.4001H79.3L79.4778 85.3898C80.2362 85.3017 80.825 84.6571 80.825 83.8751Z" fill="#FA794A"/>
<path d="M48.7999 18.3C59.2523 18.3 67.539 24.4871 71.5649 34.5065C71.879 35.288 71.5 36.1761 70.7185 36.4901C69.937 36.8041 69.0489 36.4251 68.7349 35.6436C65.1537 26.7313 57.9464 21.35 48.7999 21.35C36.1664 21.35 25.9249 31.5915 25.9249 44.225C25.9249 49.1292 27.4702 53.7963 30.2952 57.6757C30.6533 58.1675 30.6816 58.8187 30.3837 59.335L30.2723 59.5017L24.4411 67.1H33.5499C34.332 67.1 34.9765 67.6888 35.0646 68.4472L35.0749 68.625C35.0749 69.4071 34.4862 70.0517 33.7277 70.1398L33.5499 70.15H21.3499C20.143 70.15 19.4365 68.8287 20.0442 67.8361L20.14 67.6967L27.1754 58.5265L27.0892 58.399C24.4774 54.4071 23.0063 49.7594 22.8833 44.8903L22.8749 44.225C22.8749 29.9071 34.4819 18.3 48.7999 18.3Z" fill="#000091"/>
<path d="M71.6749 42.7C88.5196 42.7 102.175 56.3554 102.175 73.2C102.175 77.9743 101.076 82.5947 98.9933 86.7773C98.6179 87.5313 97.7024 87.8382 96.9485 87.4628C96.1945 87.0874 95.8877 86.1719 96.2631 85.4179C98.1365 81.6553 99.1249 77.4998 99.1249 73.2C99.1249 58.0398 86.8351 45.75 71.6749 45.75C56.5147 45.75 44.2249 58.0398 44.2249 73.2C44.2249 88.1918 56.2431 100.377 71.1706 100.646L71.6749 100.65H97.7997L93.281 93.871C92.8472 93.2202 92.9795 92.3574 93.5617 91.8634L93.704 91.7562C94.3547 91.3223 95.2176 91.4546 95.7116 92.0368L95.8188 92.1791L101.919 101.329C102.562 102.294 101.934 103.572 100.82 103.691L100.65 103.7H71.6749C54.8302 103.7 41.1749 90.0447 41.1749 73.2C41.1749 56.3554 54.8302 42.7 71.6749 42.7Z" fill="#000091"/>
<path d="M83.8749 28.975C83.8749 29.8159 84.559 30.5 85.3999 30.5C86.2408 30.5 86.9249 29.8159 86.9249 28.975C86.9249 28.1341 86.2408 27.45 85.3999 27.45C84.559 27.45 83.8749 28.1341 83.8749 28.975Z" fill="#000091"/>
<path d="M91.4999 30.5C90.659 30.5 89.9749 29.8159 89.9749 28.975C89.9749 28.1341 90.659 27.45 91.4999 27.45C92.3408 27.45 93.0249 28.1341 93.0249 28.975C93.0249 29.8159 92.3408 30.5 91.4999 30.5Z" fill="#000091"/>
<path d="M96.0749 28.975C96.0749 29.8159 96.759 30.5 97.5999 30.5C98.4408 30.5 99.1249 29.8159 99.1249 28.975C99.1249 28.1341 98.4408 27.45 97.5999 27.45C96.759 27.45 96.0749 28.1341 96.0749 28.975Z" fill="#000091"/>
<path fill-rule="evenodd" clip-rule="evenodd" d="M103.7 21.35H79.2999C78.4577 21.35 77.7749 22.0328 77.7749 22.875V35.075L77.7852 35.2529C77.8733 36.0113 78.5178 36.6 79.2999 36.6H90.867L96.5216 42.2534L96.6505 42.3695C97.622 43.1536 99.1249 42.4746 99.1249 41.175V36.6H103.7C104.542 36.6 105.225 35.9173 105.225 35.075V22.875C105.225 22.0328 104.542 21.35 103.7 21.35ZM102.175 24.4V33.55H97.5999L97.4221 33.5603C96.6636 33.6484 96.0749 34.293 96.0749 35.075V37.4922L92.5782 33.9967L92.4271 33.8643C92.1625 33.6616 91.837 33.55 91.4999 33.55H80.8249V24.4H102.175Z" fill="#000091"/>
<path d="M24.3999 88.45C25.2421 88.45 25.9249 89.1328 25.9249 89.975C25.9249 90.7571 25.3362 91.4017 24.5777 91.4898L24.3999 91.5H18.2999C17.4577 91.5 16.7749 90.8173 16.7749 89.975C16.7749 89.193 17.3636 88.5484 18.1221 88.4603L18.2999 88.45H24.3999Z" fill="#000091"/>
<path d="M28.9749 89.975C28.9749 90.8159 29.659 91.5 30.4999 91.5C31.3408 91.5 32.0249 90.8159 32.0249 89.975C32.0249 89.1341 31.3408 88.45 30.4999 88.45C29.659 88.45 28.9749 89.1341 28.9749 89.975Z" fill="#000091"/>
<path d="M36.5999 91.5C35.759 91.5 35.0749 90.8159 35.0749 89.975C35.0749 89.1341 35.759 88.45 36.5999 88.45C37.4408 88.45 38.1249 89.1341 38.1249 89.975C38.1249 90.8159 37.4408 91.5 36.5999 91.5Z" fill="#000091"/>
</svg>
