<?xml version="1.0" encoding="iso-8859-1"?>
<!-- Generator: Adobe Illustrator 24.0.3, SVG Export Plug-In . SVG Version: 6.00 Build 0)  -->
<svg version="1.1" xmlns="http://www.w3.org/2000/svg" xmlns:xlink="http://www.w3.org/1999/xlink" x="0px" y="0px"
	 viewBox="0 0 64 64" style="enable-background:new 0 0 64 64;" xml:space="preserve">
<g id="group-discussion">
	<path style="fill:#0074FF;" d="M28.765,7.432V5.256h6.468v2.176H28.765z M50.001,58.232c0,1.981-1.612,3.593-3.593,3.593h-29.1
		c-1.981,0-3.593-1.612-3.593-3.593v-10.26H11.54v10.26c0,3.181,2.588,5.768,5.768,5.768h29.1c3.181,0,5.768-2.588,5.768-5.768
		V31.017h-2.176V58.232z M13.715,5.768c0-1.981,1.612-3.593,3.593-3.593h29.1c1.981,0,3.593,1.612,3.593,3.593v6.663h2.176V5.768
		C52.177,2.588,49.589,0,46.408,0h-29.1c-3.181,0-5.768,2.588-5.768,5.768v22.91h2.176V5.768z M58.806,19.045H48.741v1.088h10.064
		V19.045z M62.857,16.626v9.6c0,0.601-0.487,1.088-1.088,1.088H45.364c-1.568,1.788-3.861,2.923-6.42,2.923
		c-4.713,0-8.547-3.834-8.547-8.547s3.834-8.547,8.547-8.547c2.297,0,4.382,0.916,5.919,2.396h16.906
		C62.371,15.538,62.857,16.025,62.857,16.626z M33.586,25.125c0.24-1.362,1.371-2.406,2.768-2.53
		c-0.555-0.619-0.903-1.427-0.903-2.322c0-1.927,1.567-3.494,3.493-3.494c1.927,0,3.493,1.567,3.493,3.494
		c0,0.895-0.348,1.703-0.903,2.322c1.398,0.124,2.528,1.168,2.768,2.53c0.638-0.992,1.013-2.17,1.013-3.435
		c0-3.513-2.858-6.372-6.372-6.372c-3.514,0-6.372,2.859-6.372,6.372C32.572,22.955,32.947,24.132,33.586,25.125z M38.944,21.59
		c0.727,0,1.318-0.591,1.318-1.317c0-0.727-0.591-1.318-1.318-1.318c-0.727,0-1.318,0.592-1.318,1.318
		C37.626,21,38.217,21.59,38.944,21.59z M38.944,28.062c1.182,0,2.287-0.33,3.237-0.893V25.66c0-0.506-0.411-0.917-0.917-0.917
		h-4.64c-0.506,0-0.917,0.411-0.917,0.917v1.509C36.657,27.732,37.762,28.062,38.944,28.062z M60.682,17.714H46.504
		c0.628,1.189,0.987,2.541,0.987,3.976c0,1.227-0.265,2.392-0.733,3.448h13.923V17.714z M58.806,21.021H48.741v1.088h10.064V21.021z
		 M58.806,22.997H48.741v1.088h10.064V22.997z M5.194,37.685h10.064v-1.088H5.194V37.685z M18.634,44.866H2.231
		c-0.601,0-1.088-0.487-1.088-1.088v-9.6c0-0.601,0.487-1.088,1.088-1.088h16.907c1.537-1.479,3.621-2.394,5.918-2.394
		c4.713,0,8.547,3.834,8.547,8.547s-3.834,8.547-8.547,8.547C22.496,47.79,20.202,46.654,18.634,44.866z M25.055,45.615
		c1.182,0,2.287-0.33,3.237-0.893v-1.509c0-0.506-0.411-0.917-0.917-0.917h-4.64c-0.506,0-0.917,0.411-0.917,0.917v1.509
		C22.769,45.285,23.873,45.615,25.055,45.615z M25.055,39.143c0.727,0,1.318-0.591,1.318-1.317s-0.591-1.318-1.318-1.318
		c-0.727,0-1.318,0.592-1.318,1.318S24.329,39.143,25.055,39.143z M18.684,39.243c0,1.265,0.375,2.442,1.013,3.435
		c0.24-1.362,1.371-2.406,2.768-2.53c-0.555-0.619-0.903-1.427-0.903-2.322c0-1.927,1.567-3.494,3.493-3.494
		s3.493,1.567,3.493,3.494c0,0.895-0.348,1.703-0.903,2.322c1.398,0.124,2.528,1.168,2.768,2.53c0.638-0.992,1.013-2.17,1.013-3.435
		c0-3.513-2.858-6.372-6.372-6.372S18.684,35.73,18.684,39.243z M17.24,42.69c-0.467-1.056-0.732-2.22-0.732-3.447
		c0-1.436,0.36-2.788,0.988-3.977H3.318v7.424H17.24z M5.194,39.661h10.064v-1.088H5.194V39.661z M5.194,41.637h10.064v-1.088H5.194
		V41.637z M31.858,51.711c2.305,0,4.181,1.875,4.181,4.18c0,2.305-1.876,4.181-4.181,4.181s-4.181-1.876-4.181-4.181
		C27.677,53.586,29.553,51.711,31.858,51.711z M29.853,55.891c0,1.106,0.899,2.006,2.005,2.006c1.106,0,2.005-0.9,2.005-2.006
		c0-1.105-0.899-2.005-2.005-2.005C30.752,53.887,29.853,54.787,29.853,55.891z"/>
	<path style="fill:#D9EBFF;" d="M33.867,55.894c0,1.099-0.903,2.002-2.012,2.002c-1.099,0-2.002-0.903-2.002-2.002
		c0-1.11,0.903-2.012,2.002-2.012C32.964,53.882,33.867,54.785,33.867,55.894z M38.947,15.319c-3.514,0-6.375,2.861-6.375,6.375
		c0,1.262,0.37,2.437,1.012,3.427c0.239-1.36,1.371-2.404,2.774-2.524c-0.555-0.62-0.903-1.425-0.903-2.328
		c0-1.925,1.566-3.492,3.492-3.492c1.925,0,3.492,1.566,3.492,3.492c0,0.903-0.348,1.708-0.903,2.328
		c1.392,0.12,2.524,1.164,2.763,2.524c0.642-0.99,1.012-2.165,1.012-3.427C45.311,18.18,42.461,15.319,38.947,15.319z
		 M25.056,32.876c-3.514,0-6.375,2.85-6.375,6.364c0,1.273,0.381,2.448,1.012,3.437c0.239-1.36,1.371-2.404,2.774-2.535
		c-0.555-0.609-0.903-1.425-0.903-2.317c0-1.925,1.566-3.492,3.492-3.492c1.925,0,3.492,1.566,3.492,3.492
		c0,0.892-0.348,1.708-0.903,2.317c1.403,0.131,2.535,1.175,2.774,2.535c0.631-0.99,1.012-2.165,1.012-3.437
		C31.43,35.726,28.569,32.876,25.056,32.876z"/>
</g>
<g id="Layer_1">
</g>
</svg>
