<?xml version="1.0" encoding="iso-8859-1"?>
<!-- Generator: Adobe Illustrator 24.0.3, SVG Export Plug-In . SVG Version: 6.00 Build 0)  -->
<svg version="1.1" xmlns="http://www.w3.org/2000/svg" xmlns:xlink="http://www.w3.org/1999/xlink" x="0px" y="0px"
	 viewBox="0 0 64 64" style="enable-background:new 0 0 64 64;" xml:space="preserve">
<g id="live-chat">
	<path style="fill:#FBAE00;" d="M55.856,42.572H38.427v-2.914c0-2.715-2.209-4.923-4.924-4.923h-9.59
		c-2.715,0-4.924,2.208-4.924,4.923v2.914H1.56V19.385c0-1.055,0.859-1.914,1.914-1.914h29.349v-1.56H3.474
		C1.559,15.911,0,17.47,0,19.385v26.661c0,1.915,1.559,3.474,3.474,3.474h20.478v4.639h-4.009v1.56h17.53v-1.56h-4.064v-4.639
		h20.533c1.915,0,3.474-1.559,3.474-3.474V27.048h-1.56V42.572z M20.55,39.658c0-1.854,1.509-3.362,3.363-3.362h9.59
		c1.855,0,3.363,1.509,3.363,3.362v2.914H20.55V39.658z M31.848,54.159h-6.335v-4.639h6.335V54.159z M53.942,47.96H3.474
		c-1.055,0-1.914-0.859-1.914-1.914v-1.914h54.295v1.914C55.856,47.102,54.997,47.96,53.942,47.96z M28.708,22.772
		c-3.172,0-5.752,2.58-5.752,5.752s2.58,5.752,5.752,5.752s5.753-2.58,5.753-5.752S31.88,22.772,28.708,22.772z M28.708,32.715
		c-2.311,0-4.191-1.88-4.191-4.191s1.88-4.191,4.191-4.191c2.312,0,4.192,1.88,4.192,4.191S31.019,32.715,28.708,32.715z
		 M59.489,8.28H38.85c-2.487,0-4.511,2.024-4.511,4.511v8.065c0,2.488,2.024,4.511,4.511,4.511h1.179v5.055
		c0,0.315,0.19,0.6,0.482,0.721c0.097,0.04,0.198,0.059,0.299,0.059c0.203,0,0.402-0.079,0.552-0.229l5.607-5.607h12.521
		c2.488,0,4.511-2.024,4.511-4.511v-8.065C64,10.304,61.976,8.28,59.489,8.28z M62.44,20.856c0,1.627-1.323,2.951-2.951,2.951
		H46.644c-0.207,0-0.405,0.082-0.552,0.229l-4.504,4.504v-3.952c0-0.431-0.349-0.78-0.78-0.78H38.85c-1.627,0-2.95-1.323-2.95-2.951
		v-8.065c0-1.627,1.323-2.951,2.95-2.951h20.639c1.627,0,2.951,1.323,2.951,2.951V20.856z M41.602,16.169h3.522v1.56h-3.522V16.169z
		 M47.571,16.169h3.522v1.56h-3.522V16.169z M53.54,16.169h3.522v1.56H53.54V16.169z"/>
	<path style="fill:#FEEECD;" d="M59.487,9.844H38.851c-1.631,0-2.949,1.319-2.949,2.949v8.06c0,1.631,1.319,2.957,2.949,2.957h1.958
		c0.429,0,0.78,0.343,0.78,0.78v3.948l4.502-4.502c0.148-0.148,0.343-0.226,0.554-0.226h12.842c1.631,0,2.949-1.326,2.949-2.957
		v-8.06C62.436,11.163,61.118,9.844,59.487,9.844z M45.123,17.732h-3.519v-1.56h3.519V17.732z M51.092,17.732h-3.519v-1.56h3.519
		V17.732z M57.061,17.732h-3.519v-1.56h3.519V17.732z M32.898,28.523c0,2.309-1.88,4.19-4.19,4.19s-4.19-1.88-4.19-4.19
		c0-2.309,1.88-4.19,4.19-4.19S32.898,26.213,32.898,28.523z M36.869,39.656v2.918H20.547v-2.918c0-1.849,1.514-3.363,3.363-3.363
		h9.597C35.355,36.294,36.869,37.807,36.869,39.656z M55.859,44.135v1.912c0,1.053-0.858,1.912-1.919,1.912H3.476
		c-1.053,0-1.919-0.858-1.919-1.912v-1.912H55.859z"/>
</g>
<g id="Layer_1">
</g>
</svg>
