<?xml version="1.0" encoding="iso-8859-1"?>
<!-- Generator: Adobe Illustrator 24.0.3, SVG Export Plug-In . SVG Version: 6.00 Build 0)  -->
<svg version="1.1" xmlns="http://www.w3.org/2000/svg" xmlns:xlink="http://www.w3.org/1999/xlink" x="0px" y="0px"
	 viewBox="0 0 64 64" style="enable-background:new 0 0 64 64;" xml:space="preserve">
<g id="group-communities">
	<path style="fill:#8B68F3;" d="M28.312,46.671c-0.025-0.013-0.052-0.025-0.079-0.036l-7.244-2.749
		c-0.047-0.037-0.097-0.071-0.152-0.096c-0.448-0.208-0.673-0.294-0.841-0.359c-0.218-0.084-0.303-0.117-0.864-0.458
		c0.793-0.907,1.375-2.063,1.69-3.357c0.981-0.974,2.026-2.795,2.026-4.534c0-0.887-0.095-1.21-0.177-1.393
		c-0.105-0.232-0.315-0.396-0.558-0.445l-0.002-0.026c0.143-0.777,0.8-5.052-1.474-7.852c-1.276-1.572-3.206-2.369-5.737-2.369
		c-2.41,0-4.276,0.769-5.544,2.286c-2.357,2.816-1.766,7.221-1.658,7.9l-0.002,0.056c-0.252,0.047-0.469,0.217-0.573,0.458
		c-0.078,0.18-0.167,0.5-0.167,1.385c0,1.747,1.041,3.565,2.021,4.534c0.315,1.293,0.898,2.449,1.69,3.356
		c-0.593,0.36-0.699,0.402-0.964,0.505c-0.18,0.07-0.417,0.163-0.843,0.357l-7.024,2.79c-0.03,0.012-0.059,0.025-0.087,0.041
		C0.67,47.257,0,48.387,0,49.616v5.478c0,0.432,0.35,0.782,0.782,0.782h28.576c0.432,0,0.782-0.35,0.782-0.782v-5.432
		C30.14,48.396,29.439,47.249,28.312,46.671z M10.49,39.224l-0.043-0.185c-0.034-0.147-0.11-0.281-0.219-0.386l-0.132-0.128
		c-0.764-0.743-1.577-2.202-1.577-3.443c0-0.108,0.002-0.202,0.004-0.283c0.387-0.036,0.696-0.354,0.709-0.752l0.031-0.89
		l-0.011-0.165c-0.008-0.042-0.737-4.266,1.303-6.705c0.958-1.145,2.42-1.725,4.345-1.725c2.034,0,3.555,0.601,4.519,1.786
		c1.987,2.44,1.146,6.632,1.138,6.674l-0.014,0.232l0.037,0.792c0.013,0.395,0.317,0.713,0.7,0.752
		c0.003,0.082,0.005,0.176,0.005,0.284c0,1.233-0.816,2.695-1.582,3.443l-0.133,0.129c-0.108,0.104-0.182,0.236-0.217,0.381
		l-0.043,0.182c-0.265,1.108-0.764,2.084-1.441,2.822l-0.436,0.474c-2.237,1.69-4.659,0.262-5.074-0.007l-0.43-0.467
		C11.253,41.303,10.754,40.327,10.49,39.224z M11.501,44.292c0.055-0.028,0.111-0.061,0.209-0.124l0.173-0.124
		c0.782,0.433,1.917,0.838,3.174,0.838c0.931,0,1.926-0.225,2.884-0.821l0.19,0.136c0.057,0.036,0.115,0.069,0.134,0.081
		c0.33,0.201,0.538,0.323,0.7,0.407l-3.992,3.013l-4.217-2.974C10.934,44.633,11.151,44.507,11.501,44.292z M28.576,54.312H1.564
		v-4.696c0-0.643,0.343-1.235,0.897-1.556l6.597-2.621l5.48,3.865c0.135,0.095,0.293,0.143,0.45,0.143
		c0.166,0,0.332-0.053,0.471-0.158l5.138-3.877l7.036,2.67c0.582,0.315,0.942,0.917,0.942,1.581V54.312z M19.326,22.304h7.141v4.84
		c0,0.316,0.19,0.601,0.483,0.722c0.097,0.04,0.199,0.06,0.299,0.06c0.203,0,0.403-0.079,0.553-0.229l5.393-5.393h6.894
		c1.725,0,3.127-1.403,3.127-3.127v-7.926c0-1.724-1.403-3.127-3.127-3.127H19.326c-1.725,0-3.127,1.403-3.127,3.127v7.926
		C16.198,20.901,17.601,22.304,19.326,22.304z M17.762,11.251c0-0.862,0.702-1.564,1.564-1.564h20.762
		c0.862,0,1.564,0.701,1.564,1.564v7.926c0,0.862-0.702,1.564-1.564,1.564H32.87c-0.208,0-0.406,0.082-0.553,0.229l-4.287,4.287
		v-3.734c0-0.432-0.35-0.782-0.782-0.782h-7.922c-0.862,0-1.564-0.701-1.564-1.564V11.251z M40.088,13.206H19.326v-0.782h20.762
		V13.206z M40.088,15.551H19.326V14.77h20.762V15.551z M40.088,17.897H19.326v-0.782h20.762V17.897z M53.129,48.648
		c-0.026-0.013-0.053-0.025-0.08-0.036l-5.216-1.979c-0.035-0.024-0.069-0.05-0.108-0.068c-0.33-0.153-0.496-0.217-0.619-0.264
		c-0.111-0.043-0.168-0.065-0.372-0.183c0.498-0.632,0.87-1.403,1.087-2.257c0.727-0.744,1.483-2.091,1.483-3.382
		c0-0.681-0.076-0.938-0.149-1.098c-0.075-0.164-0.206-0.287-0.36-0.365c0.137-0.861,0.445-3.739-1.136-5.685
		c-0.964-1.188-2.414-1.79-4.309-1.79c-1.807,0-3.209,0.581-4.167,1.727c-1.647,1.969-1.372,4.953-1.264,5.745
		c-0.163,0.079-0.303,0.204-0.379,0.377c-0.069,0.158-0.14,0.412-0.14,1.09c0,1.297,0.754,2.641,1.48,3.383
		c0.215,0.85,0.586,1.621,1.087,2.254c-0.228,0.133-0.3,0.161-0.446,0.218c-0.131,0.051-0.304,0.119-0.613,0.26l-5.064,2.012
		c-0.03,0.012-0.059,0.025-0.087,0.04c-0.848,0.464-1.374,1.353-1.374,2.32v3.953c0,0.432,0.35,0.782,0.782,0.782h20.62
		c0.432,0,0.782-0.35,0.782-0.782V51C54.565,50.004,54.015,49.103,53.129,48.648z M38.964,40.479c0-0.011,0-0.021,0-0.031
		c0.292-0.106,0.504-0.381,0.515-0.709l0.021-0.642l-0.011-0.164c-0.147-0.823-0.275-3.264,0.893-4.66
		c0.657-0.785,1.628-1.167,2.969-1.167c1.399,0,2.439,0.406,3.092,1.208c1.367,1.678,0.783,4.606,0.777,4.636l-0.013,0.229
		l0.025,0.561c0.01,0.326,0.22,0.6,0.509,0.707c0,0.011,0,0.022,0,0.034c0,0.8-0.547,1.813-1.074,2.327L46.569,42.9
		c-0.108,0.104-0.183,0.237-0.218,0.383l-0.031,0.129c-0.183,0.764-0.525,1.435-0.987,1.939l-0.3,0.326
		c-1.461,1.09-3.052,0.195-3.376-0.009l-0.29-0.315c-0.464-0.506-0.806-1.177-0.988-1.937l-0.031-0.134
		c-0.034-0.146-0.11-0.279-0.218-0.383l-0.095-0.092C39.509,42.295,38.964,41.284,38.964,40.479z M45.57,47.243
		c0.047,0.029,0.093,0.056,0.095,0.057c0.084,0.051,0.157,0.095,0.222,0.134l-2.488,1.878l-2.63-1.855
		c0.069-0.04,0.146-0.087,0.234-0.142c0.046-0.023,0.092-0.051,0.172-0.103l0.013-0.009c0.585,0.3,1.393,0.565,2.278,0.565
		c0.665,0,1.372-0.161,2.06-0.556L45.57,47.243z M53.001,54.138H33.945v-3.171c0-0.381,0.2-0.733,0.525-0.927l4.636-1.841
		l3.858,2.721c0.135,0.095,0.293,0.143,0.45,0.143c0.166,0,0.332-0.053,0.471-0.158l3.611-2.725l4.951,1.878
		c0.343,0.191,0.554,0.549,0.554,0.943V54.138z M61.526,20.808H46.544c-1.364,0-2.474,1.11-2.474,2.475v5.719
		c0,1.364,1.109,2.474,2.474,2.474h4.935v3.275c0,0.316,0.19,0.601,0.483,0.722c0.097,0.04,0.199,0.06,0.299,0.06
		c0.203,0,0.403-0.079,0.553-0.229l3.828-3.828h4.885c1.364,0,2.474-1.11,2.474-2.474v-5.719C64,21.919,62.891,20.808,61.526,20.808
		z M62.436,29.002c0,0.502-0.408,0.911-0.91,0.911h-5.209c-0.208,0-0.406,0.082-0.553,0.229l-2.722,2.722v-2.169
		c0-0.432-0.35-0.782-0.782-0.782h-5.717c-0.502,0-0.91-0.408-0.91-0.911v-5.719c0-0.502,0.408-0.911,0.91-0.911h14.982
		c0.502,0,0.91,0.408,0.91,0.911V29.002z M46.544,24.02h14.982v0.782H46.544V24.02z M46.544,25.713h14.982v0.782H46.544V25.713z
		 M46.544,27.405h14.982v0.782H46.544V27.405z"/>
	<path style="fill:#EDE5FF;" d="M61.523,22.37h-14.98c-0.5,0-0.907,0.407-0.907,0.915v5.715c0,0.5,0.407,0.915,0.907,0.915h5.715
		c0.438,0,0.782,0.344,0.782,0.782v2.166l2.729-2.721c0.141-0.149,0.344-0.227,0.547-0.227h5.207c0.508,0,0.915-0.414,0.915-0.915
		v-5.715C62.438,22.777,62.031,22.37,61.523,22.37z M61.523,28.187h-14.98v-0.782h14.98V28.187z M61.523,26.499h-14.98v-0.782h14.98
		V26.499z M61.523,24.802h-14.98V24.02h14.98V24.802z M40.084,9.689H19.326c-0.86,0-1.564,0.704-1.564,1.564v7.928
		c0,0.86,0.704,1.564,1.564,1.564h7.92c0.438,0,0.782,0.344,0.782,0.782v3.729l4.292-4.285c0.141-0.149,0.344-0.227,0.547-0.227
		h7.217c0.868,0,1.564-0.704,1.564-1.564v-7.928C41.648,10.392,40.952,9.689,40.084,9.689z M40.084,17.898H19.326v-0.782h20.758
		V17.898z M40.084,15.553H19.326v-0.782h20.758V15.553z M40.084,13.207H19.326v-0.782h20.758V13.207z M21.281,34.802v0.281
		c0,1.235-0.813,2.697-1.579,3.44l-0.133,0.133c-0.109,0.102-0.18,0.235-0.219,0.383l-0.039,0.18
		c-0.266,1.11-0.766,2.08-1.439,2.822l-0.438,0.469c-2.236,1.697-4.66,0.266-5.074,0l-0.43-0.469
		c-0.68-0.735-1.173-1.712-1.439-2.815l-0.047-0.188c-0.031-0.149-0.109-0.281-0.219-0.383l-0.133-0.133
		c-0.758-0.743-1.572-2.197-1.572-3.44v-0.281c0.391-0.039,0.696-0.36,0.711-0.758l0.031-0.884l-0.016-0.164
		c-0.008-0.047-0.735-4.269,1.306-6.708c0.962-1.149,2.424-1.728,4.347-1.728c2.033,0,3.557,0.602,4.519,1.79
		c1.986,2.439,1.141,6.63,1.134,6.669l-0.008,0.235l0.031,0.79C20.593,34.442,20.898,34.755,21.281,34.802z M47.739,40.447v0.031
		c0,0.798-0.547,1.814-1.071,2.33l-0.102,0.094c-0.102,0.102-0.18,0.235-0.211,0.383l-0.031,0.125
		c-0.188,0.766-0.524,1.439-0.993,1.939l-0.297,0.328c-1.462,1.087-3.049,0.195-3.378-0.008l-0.289-0.313
		c-0.461-0.508-0.805-1.181-0.985-1.939l-0.031-0.133c-0.039-0.149-0.109-0.282-0.219-0.383l-0.094-0.094
		c-0.532-0.516-1.071-1.525-1.071-2.33v-0.031c0.289-0.102,0.5-0.383,0.516-0.712l0.016-0.641L39.49,38.93
		c-0.149-0.821-0.274-3.26,0.891-4.66c0.657-0.782,1.626-1.165,2.971-1.165c1.4,0,2.439,0.407,3.088,1.204
		c1.368,1.681,0.782,4.613,0.782,4.636l-0.016,0.235l0.023,0.555C47.238,40.064,47.449,40.337,47.739,40.447z M53.001,51.002v3.135
		H33.947v-3.174c0-0.375,0.195-0.727,0.524-0.923l4.636-1.845l3.855,2.721c0.141,0.102,0.297,0.149,0.453,0.149
		c0.164,0,0.328-0.055,0.469-0.164l3.612-2.721l4.949,1.876C52.789,50.251,53.001,50.603,53.001,51.002z M28.575,49.665v4.644H1.562
		v-4.691c0-0.641,0.344-1.235,0.899-1.556l6.599-2.627l5.481,3.87c0.133,0.094,0.289,0.141,0.446,0.141
		c0.164,0,0.336-0.055,0.477-0.156l5.137-3.878l7.037,2.666C28.216,48.398,28.575,49,28.575,49.665z"/>
</g>
<g id="Layer_1">
</g>
</svg>
