<svg width="122" height="122" viewBox="0 0 122 122" fill="none" xmlns="http://www.w3.org/2000/svg">
<path fill-rule="evenodd" clip-rule="evenodd" d="M22.8751 21.35C22.0342 21.35 21.3501 20.6659 21.3501 19.825C21.3501 18.9841 22.0342 18.3 22.8751 18.3C23.716 18.3 24.4001 18.9841 24.4001 19.825C24.4001 20.6659 23.716 21.35 22.8751 21.35Z" fill="#CACAFB"/>
<path fill-rule="evenodd" clip-rule="evenodd" d="M7.6251 106.75C6.78421 106.75 6.1001 106.066 6.1001 105.225C6.1001 104.384 6.78421 103.7 7.6251 103.7C8.46598 103.7 9.1501 104.384 9.1501 105.225C9.1501 106.066 8.46598 106.75 7.6251 106.75Z" fill="#CACAFB"/>
<path fill-rule="evenodd" clip-rule="evenodd" d="M114.375 97.6C113.534 97.6 112.85 96.9159 112.85 96.075C112.85 95.2341 113.534 94.55 114.375 94.55C115.216 94.55 115.9 95.2341 115.9 96.075C115.9 96.9159 115.216 97.6 114.375 97.6Z" fill="#CACAFB"/>
<path fill-rule="evenodd" clip-rule="evenodd" d="M89.9752 18.3C89.1343 18.3 88.4502 17.6159 88.4502 16.775C88.4502 15.934 89.1343 15.25 89.9752 15.25C90.8161 15.25 91.5002 15.934 91.5002 16.775C91.5002 17.6159 90.8161 18.3 89.9752 18.3Z" fill="#CACAFB"/>
<path d="M64.276 15.25C89.543 15.25 110.026 35.733 110.026 61C110.026 61.8422 109.343 62.525 108.501 62.525C107.659 62.525 106.976 61.8422 106.976 61C106.976 37.4174 87.8585 18.3 64.276 18.3C40.6934 18.3 21.576 37.4174 21.576 61C21.576 84.5826 40.6934 103.7 64.276 103.7C81.2869 103.7 96.4644 93.6617 103.283 78.3977C103.627 77.6287 104.528 77.2838 105.297 77.6273C106.066 77.9708 106.411 78.8727 106.068 79.6417C98.7627 95.9946 82.5011 106.75 64.276 106.75C39.0089 106.75 18.526 86.267 18.526 61C18.526 35.733 39.0089 15.25 64.276 15.25Z" fill="#FA794A"/>
<path d="M108.501 74.1037C108.501 75.0083 107.768 75.7417 106.863 75.7417C105.958 75.7417 105.225 75.0083 105.225 74.1037C105.225 73.1991 105.958 72.4657 106.863 72.4657C107.768 72.4657 108.501 73.1991 108.501 74.1037Z" fill="#FA794A"/>
<path d="M22.1021 32.0739C21.432 31.5637 20.4752 31.6934 19.965 32.3636C14.811 39.1336 11.9741 47.3966 11.9741 56.0861C11.9741 56.9283 12.6569 57.6111 13.4991 57.6111C14.3414 57.6111 15.0241 56.9283 15.0241 56.0861C15.0241 48.0699 17.6387 40.4546 22.3918 34.211C22.9019 33.5409 22.7723 32.5841 22.1021 32.0739Z" fill="#FA794A"/>
<path fill-rule="evenodd" clip-rule="evenodd" d="M85.3947 53.2484C84.3123 40.2591 77.0442 33.55 64.05 33.55C51.0558 33.55 43.7877 40.2591 42.7053 53.2484C42.6234 54.2313 43.482 55.0323 44.4569 54.8823L47.275 54.4488V55.1151C46.1834 55.3254 45.3788 55.6166 44.8147 56.0371C43.3844 57.1035 42.6998 58.809 42.6998 61C42.6998 64.8923 44.9076 67.1 48.7998 67.1C48.9659 67.1 49.1257 67.0735 49.2753 67.0245C50.8977 70.1703 53.4126 72.7408 56.4685 74.362C56.4401 74.4783 56.425 74.5999 56.425 74.725C56.425 76.7055 55.4812 78.4656 54.0188 79.5799C53.9952 79.5966 53.9722 79.6139 53.9497 79.6318C52.9363 80.3817 51.6824 80.825 50.325 80.825H47.275L46.932 80.8314C42.0375 81.0118 38.125 85.0365 38.125 89.975C38.125 90.8173 38.8078 91.5 39.65 91.5C40.4922 91.5 41.175 90.8173 41.175 89.975C41.175 86.6061 43.9061 83.875 47.275 83.875H50.325L50.668 83.8687C51.9435 83.8217 53.1524 83.5136 54.2426 82.9963C55.8776 85.5695 58.8931 86.355 62.8949 85.3545C63.712 85.1502 64.2087 84.3223 64.0045 83.5052C63.8002 82.6881 62.9722 82.1913 62.1551 82.3956C59.3038 83.1084 57.6384 82.7226 56.75 81.2398C58.2423 79.768 59.2314 77.7871 59.4357 75.5788C60.9011 76.0159 62.4489 76.25 64.05 76.25C65.6511 76.25 67.1989 76.0159 68.6643 75.5788C69.0845 80.1198 72.8228 83.6989 77.432 83.8687L77.775 83.875H80.825C84.1939 83.875 86.925 86.6061 86.925 89.975C86.925 90.8173 87.6078 91.5 88.45 91.5C89.2922 91.5 89.975 90.8173 89.975 89.975C89.975 85.0365 86.0625 81.0118 81.168 80.8314L80.825 80.825H77.775C74.4061 80.825 71.675 78.094 71.675 74.725C71.675 74.5999 71.6599 74.4783 71.6315 74.362C74.6874 72.7408 77.2023 70.1703 78.8246 67.0245C78.9742 67.0735 79.134 67.1 79.3 67.1C83.1922 67.1 85.4 64.8923 85.4 61C85.4 58.809 84.7154 57.1035 83.2851 56.0371C82.5141 55.4623 81.2935 55.1292 79.505 54.9137C79.4398 54.9049 79.3732 54.9003 79.3057 54.9001L79.3032 54.8999C79.156 54.8994 79.0126 54.9202 78.8764 54.9597C78.6567 55.023 78.4574 55.1345 78.2906 55.2819C77.9955 55.5426 77.8022 55.9158 77.7776 56.3344C77.7753 56.3726 77.7745 56.4107 77.775 56.4485V58.7125L77.7693 59.1331C77.5584 66.955 71.4803 73.2 64.05 73.2C56.487 73.2 50.325 66.73 50.325 58.7125V53.9795L64.2819 51.8323L64.4618 51.7934C64.8731 51.6781 65.2204 51.3942 65.414 51.007L66.939 47.957L67.0094 47.7934C67.2698 47.0756 66.9565 46.2608 66.257 45.911L66.0933 45.8407C65.3756 45.5803 64.5608 45.8935 64.211 46.593L63.0374 48.9373L45.9635 51.5633L45.9913 51.367C47.4859 41.4054 53.3801 36.6 64.05 36.6L64.5976 36.6043C74.7408 36.7644 80.4378 41.4098 82.0275 50.8563L82.106 51.3605L72.0449 48.8456L71.8698 48.8124C71.1127 48.7139 70.3852 49.1965 70.1955 49.9552C69.9913 50.7723 70.488 51.6002 71.3051 51.8045L83.5051 54.8545L83.6833 54.8883C84.6285 55.0109 85.4764 54.2285 85.3947 53.2484ZM47.275 58.24C46.9515 58.3249 46.7357 58.4093 46.6378 58.4823C46.0662 58.9085 45.7499 59.6966 45.7499 61C45.7499 62.9396 46.3999 63.8253 48.0548 64.0118C47.5896 62.4761 47.3213 60.8494 47.2805 59.1645L47.275 58.7125V58.24ZM82.35 61C82.35 62.9396 81.7 63.8252 80.0452 64.0118C80.5518 62.3392 80.825 60.5587 80.825 58.7125V58.24C81.1484 58.3249 81.3642 58.4094 81.462 58.4823C82.0336 58.9085 82.35 59.6966 82.35 61Z" fill="#000091"/>
</svg>
