<svg width="712" height="188" viewBox="0 0 712 188" fill="none" xmlns="http://www.w3.org/2000/svg">
<path fill-rule="evenodd" clip-rule="evenodd" d="M639.033 141.73C673.28 164.584 753.844 211.096 815.588 189.315C896.133 160.734 895.301 69.401 807.871 7.06542C604.312 -138.165 496.228 18.8781 599.161 112.227L590.286 165.554L639.033 141.73Z" fill="black" fill-opacity="0.03"/>
<path fill-rule="evenodd" clip-rule="evenodd" d="M205.123 206.997C181.772 193.535 127.149 166.604 87.7472 183.479C36.3553 205.602 40.8133 265.231 100.6 302.205C239.802 388.354 303.679 281.131 232.435 224.561L235.947 189.344L205.123 206.997Z" fill="black" fill-opacity="0.03"/>
<path fill-rule="evenodd" clip-rule="evenodd" d="M143.188 56.1006C128.505 70.7652 93.2505 101.677 60.5863 96.9794C17.9596 90.7678 9.39288 45.5355 46.4863 6.12581C132.84 -85.678 201.708 -18.6685 159.999 37.5967L169.628 63.0865L143.188 56.1006Z" fill="black" fill-opacity="0.03"/>
</svg>
