<svg xmlns="http://www.w3.org/2000/svg" width="259" height="83" fill="none"><g clip-path="url(#a)"><path fill="#FFD500" d="M218.659.589c.928 0 1.682.754 1.682 1.683v56.67h-3.364V2.272c0-.93.754-1.683 1.682-1.683ZM1.684 0c.928 0 1.683.754 1.683 1.683V82.52H.002V1.683C.002.753.756 0 1.684 0ZM255.634.774h3.364v56.478c0 .929-.754 1.683-1.682 1.683a1.683 1.683 0 0 1-1.682-1.683V.774ZM11.921.732 6.985 13.73h8.445l.786-2.029a11.228 11.228 0 0 1 10.535-7.351c4.704 0 8.91 2.934 10.535 7.351l.779 2.043h8.444L41.574.733H11.92ZM50.428.732l4.918 12.995 9.977.04L70.268.731h-19.84v.001ZM117.383.732v12.84h7.942V2.152a4.12 4.12 0 0 1 .25-1.42h-8.192ZM132.8.733l5.636 9.752a6.543 6.543 0 0 0 12.099-3.46V.733H132.8ZM179.975.732v12.942h7.696V1.215c0-.168.017-.328.04-.483h-7.736ZM193.701.733l8.37 12.936h9.558L202.393.733H193.7h.001ZM93.366 59.057a3.85 3.85 0 0 1-.141-1.037c0-2.503 2.265-3.845 3.842-3.845h4.237c3.642 0 6.588-3.798 6.739-7.404.004-.095.028-.185.028-.281h-22.53v12.567h7.825ZM168.867 45.617h-7.942v13.44h7.942v-13.44ZM234.901 59.056c-1.084-.829-1.758-1.8-1.758-3.081 0-2.148 1.674-3.823 4.24-3.823 2.775 0 5.153 1.943 7.745 5.274l5.582-5.278c-2.973-3.599-6.396-5.529-10.522-6.228a16.957 16.957 0 0 0-2.857-.263c-.944 0-1.841.095-2.698.263-5.464 1.067-9.029 5.342-9.029 10.369 0 1.014.126 1.931.349 2.766h8.948v.001Z"/><path fill="#0D181C" d="M166.574.945a3.925 3.925 0 0 0-1.442-.28c-.511 0-.995.104-1.443.28a3.966 3.966 0 0 0-2.528 3.692V39.19h7.942V4.637a3.967 3.967 0 0 0-2.529-3.692ZM33.751 25.583a7.53 7.53 0 0 0-14.086 0L6.942 59.08h8.445l.786-2.029a11.229 11.229 0 0 1 10.535-7.35 11.23 11.23 0 0 1 10.535 7.35l.779 2.044h8.444L33.75 25.582Zm-6.392 18.06a3.847 3.847 0 0 1-4.439-4.44 3.841 3.841 0 0 1 3.137-3.138 3.846 3.846 0 0 1 4.438 4.44 3.84 3.84 0 0 1-3.137 3.138ZM71.683 20.592l-7.762 20.67h-.004a3.839 3.839 0 0 1-3.566 2.422 3.84 3.84 0 0 1-3.566-2.421h-.003L49.065 20.62H40.83l14.53 38.393 9.977.04 14.573-38.42-8.228-.041v-.001ZM101.295 31.488h-4.237c-1.577 0-3.842-1.342-3.842-3.845s2.18-3.848 3.856-3.848h4.888c1.868 0 3.863-1.53 3.863-3.842 0-2.313-1.995-3.843-3.863-3.843h-4.888c-1.676 0-3.856-1.344-3.856-3.848 0-2.504 2.264-3.844 3.842-3.844h4.237c3.64 0 6.588-3.799 6.739-7.405.003-.095.028-.185.028-.28h-22.53v38.439h22.53c0-.096-.026-.186-.028-.28-.15-3.607-3.098-7.405-6.739-7.405ZM125.324 47.6c.018-3.907 5.02-5.56 7.171-1.947l5.94 10.278a6.542 6.542 0 0 0 12.099-3.46V20.47h-7.942v27.557L129.164 20.47h-11.782v38.55h7.942v-11.42ZM199.548 42.07c3.191-1.738 6.085-5.28 6.085-9.98 0-7.275-5.746-11.526-11.248-11.526h-14.402v38.447h7.697v-12.46c0-1.815 1.433-2.899 2.897-2.899.894 0 1.631.258 2.448 1.358l9.055 13.994h9.558l-12.09-16.935Zm-8.969-6.265a3.84 3.84 0 0 1-3.839-3.843 3.84 3.84 0 1 1 7.681 0 3.842 3.842 0 0 1-3.842 3.843ZM233.165 10.752c0-2.149 1.674-3.823 4.239-3.823 2.773 0 5.154 1.943 7.746 5.274l5.582-5.278c-2.974-3.599-6.396-5.529-10.524-6.228a16.934 16.934 0 0 0-2.857-.263c-.943 0-1.841.095-2.696.263-5.465 1.067-9.029 5.342-9.029 10.369 0 12.202 17.646 10.511 17.646 17.264 0 2.672-1.858 4.26-4.789 4.26-2.079 0-4.775-1.266-6.692-2.555-3.807-2.559-8.482 2.68-4.55 6.187 2.584 2.303 6.925 2.967 11.347 2.967 6.7 0 12.039-4.19 12.145-10.997 0-12.411-17.566-10.893-17.566-17.44h-.002Z"/><path fill="#000" d="M78.954 68.258h-55.73V82.96h55.73V68.26Z"/><path fill="#fff" d="M30.8 80.236c-2.554 0-4.423-1.86-4.423-4.53 0-2.669 1.87-4.55 4.422-4.55 2.552 0 4.44 1.874 4.44 4.55 0 2.678-1.884 4.53-4.44 4.53Zm0-6.886c-1.235 0-1.812.984-1.812 2.347 0 1.364.576 2.326 1.811 2.326 1.236 0 1.83-1.117 1.83-2.326 0-1.329-.596-2.347-1.83-2.347ZM53.777 80.236a8.41 8.41 0 0 1-4.104-1.013l.86-1.742c1.05.528 2.212.8 3.392.797.994 0 1.302-.216 1.302-.664 0-.448-.347-.596-1.432-.88-2.352-.63-3.86-1.147-3.86-2.991 0-1.845 1.621-2.587 3.915-2.587a8.564 8.564 0 0 1 3.62.846l-.82 1.81a6.92 6.92 0 0 0-2.854-.694c-1.05 0-1.323.177-1.323.561 0 .385.293.492 2.03 1.013 1.735.52 3.263 1.077 3.263 2.823 0 2.007-1.791 2.72-3.98 2.72M66.683 76.438h-5.859c.095 1.19 1.08 1.643 2.02 1.643a2.287 2.287 0 0 0 1.672-.616l1.83 1.358a4.83 4.83 0 0 1-3.481 1.412c-2.821 0-4.612-1.776-4.612-4.53 0-2.676 1.886-4.55 4.368-4.55 2.607 0 4.118 2.062 4.118 4.55.003.245-.009.49-.035.733h-.02Zm-4.197-3.29c-.42.002-.823.168-1.122.46-.299.292-.47.688-.479 1.104h3.356a1.63 1.63 0 0 0-.547-1.146 1.665 1.665 0 0 0-1.208-.42v.003ZM71.99 80.236a3.324 3.324 0 0 1-2.068-.678V83H67.35V71.348h2.572v.55a3.217 3.217 0 0 1 2.069-.731c2.089 0 3.805 1.397 3.805 4.647 0 2.606-1.383 4.427-3.805 4.427v-.005Zm-.497-6.92a1.898 1.898 0 0 0-.885.17 1.855 1.855 0 0 0-.701.562v3.291a2.159 2.159 0 0 0 1.734.749c.996 0 1.528-.768 1.528-2.229 0-1.795-.672-2.542-1.677-2.542l.001-.001ZM44.6 78.928v-3.787c0-2.46-1.118-3.984-3.616-3.984a3.456 3.456 0 0 0-2.298.763v-.58h-2.572v7.613a1.27 1.27 0 0 0 1.294 1.27c.34 0 .666-.135.908-.372.24-.238.375-.561.375-.897V75.29c0-1.511.606-1.968 1.672-1.968 1.066 0 1.66.467 1.66 2.026v3.606a1.266 1.266 0 0 0 .796 1.179 1.304 1.304 0 0 0 1.403-.28c.12-.117.213-.257.277-.412a1.23 1.23 0 0 0 .096-.487M47.261 73.959a1.407 1.407 0 0 0 .995-.412c.131-.13.236-.282.307-.452.071-.168.108-.35.106-.532a1.367 1.367 0 0 0-.105-.534 1.368 1.368 0 0 0-.308-.45 1.366 1.366 0 0 0-.995-.41 1.334 1.334 0 0 0-.994.41 1.334 1.334 0 0 0-.418.983 1.343 1.343 0 0 0 .419.984 1.37 1.37 0 0 0 .994.412Zm1.288.492h-2.536v4.496c.001.163.036.322.099.473.064.15.158.285.274.398a1.25 1.25 0 0 0 .91.378c.17 0 .339-.032.496-.096a1.29 1.29 0 0 0 .416-.282 1.225 1.225 0 0 0 .377-.9v-.034l-.036-4.433Z"/><path fill="#E1000F" d="M23.223 68.258H8.357V82.96h14.866V68.26Z"/><path fill="#fff" d="M21.03 75.082a.765.765 0 0 0-.568-.232h-1.855a.327.327 0 0 1-.228-.093.212.212 0 0 1-.064-.103.297.297 0 0 1-.023-.182.311.311 0 0 1 .087-.162l1.76-1.737a.906.906 0 0 0-.65-1.55.922.922 0 0 0-.648.266l-1.761 1.736a.315.315 0 0 1-.162.092.323.323 0 0 1-.186-.018.332.332 0 0 1-.14-.117.309.309 0 0 1-.055-.173v-1.84a.765.765 0 0 0-1.481-.295.757.757 0 0 0-.055.295v1.84a.311.311 0 0 1-.199.29.326.326 0 0 1-.186.018.315.315 0 0 1-.162-.092l-1.76-1.736a.926.926 0 0 0-.996-.198.91.91 0 0 0-.563.837c0 .24.095.47.265.64l1.757 1.736c.046.042.08.099.092.16a.293.293 0 0 1-.018.184.318.318 0 0 1-.293.198h-1.866a.796.796 0 0 0-.568.231.755.755 0 0 0-.218.53.766.766 0 0 0 .786.758h1.866c.062 0 .122.019.174.053a.312.312 0 0 1 .138.323.299.299 0 0 1-.094.16l-1.717 1.732a.906.906 0 0 0 .647 1.548c.241 0 .474-.095.646-.264l1.762-1.74a.336.336 0 0 1 .348-.074.32.32 0 0 1 .2.295v1.84a.755.755 0 0 0 .22.548.801.801 0 0 0 .55.233.783.783 0 0 0 .548-.233.758.758 0 0 0 .218-.549v-1.84c0-.063.019-.123.053-.175a.352.352 0 0 1 .14-.121.34.34 0 0 1 .35.074l1.759 1.741a.93.93 0 0 0 1.3 0 .899.899 0 0 0 0-1.278l-1.762-1.742a.312.312 0 0 1-.086-.162.302.302 0 0 1 .022-.181.302.302 0 0 1 .117-.14.3.3 0 0 1 .176-.052h1.855a.792.792 0 0 0 .568-.231.737.737 0 0 0-.002-1.057l-.038.01Zm-4.606 1.864a.629.629 0 0 1-.387.592.64.64 0 0 1-.245.053.647.647 0 0 1-.637-.645v-2.858c0-.083.015-.167.046-.244a.642.642 0 0 1 .59-.396.63.63 0 0 1 .45.19.616.616 0 0 1 .182.45v2.858Z"/></g><defs><clipPath id="a"><path fill="#fff" d="M0 0h259v83H0z"/></clipPath></defs></svg>