<svg xmlns="http://www.w3.org/2000/svg" width="16" height="16" viewBox="0 0 16 16" fill="none">
  <g clip-path="url(#clip0_1230_37272)">
    <path fill-rule="evenodd" clip-rule="evenodd" d="M7.99965 0.66684C10.2643 0.66684 12.282 2.097 13.032 4.23382C13.782 6.37064 13.1008 8.74812 11.333 10.1635V14.7442C11.333 14.8642 11.2685 14.975 11.164 15.0342C11.0595 15.0934 10.9313 15.0919 10.8283 15.0302L7.99965 13.3328L5.17098 15.0302C5.06789 15.0919 4.93952 15.0934 4.83501 15.0341C4.73051 14.9747 4.66605 14.8637 4.66632 14.7435V10.1635C2.8985 8.74812 2.21729 6.37064 2.96731 4.23382C3.71733 2.097 5.73503 0.66684 7.99965 0.66684ZM9.99965 10.9448C9.36421 11.2018 8.68509 11.3336 7.99965 11.3328C7.31421 11.3336 6.63509 11.2018 5.99965 10.9448V12.9782L7.99965 11.7782L9.99965 12.9782V10.9448ZM7.99965 1.99951C5.79051 1.99951 3.99965 3.79037 3.99965 5.99951C3.99965 8.20864 5.79051 9.99951 7.99965 9.99951C10.2088 9.99951 11.9996 8.20864 11.9996 5.99951C11.9996 3.79037 10.2088 1.99951 7.99965 1.99951Z" fill="#666666"/>
  </g>
  <defs>
    <clipPath id="clip0_1230_37272">
      <rect width="16" height="16" fill="white" transform="translate(0 -0.000488281)"/>
    </clipPath>
  </defs>
</svg>