<svg width="56" height="56" viewBox="0 0 56 56" fill="none" xmlns="http://www.w3.org/2000/svg">
<path fill-rule="evenodd" clip-rule="evenodd" d="M41.2999 53.1994C40.9139 53.1994 40.5999 52.8854 40.5999 52.4994C40.5999 52.1134 40.9139 51.7994 41.2999 51.7994C41.6858 51.7994 41.9999 52.1134 41.9999 52.4994C41.9999 52.8854 41.6858 53.1994 41.2999 53.1994Z" fill="#CACAFB"/>
<path fill-rule="evenodd" clip-rule="evenodd" d="M46.9 5.59946C46.514 5.59946 46.2 5.28544 46.2 4.89946C46.2 4.51345 46.514 4.19946 46.9 4.19946C47.2859 4.19946 47.5999 4.51345 47.5999 4.89946C47.5999 5.28544 47.2859 5.59946 46.9 5.59946Z" fill="#CACAFB"/>
<path fill-rule="evenodd" clip-rule="evenodd" d="M5.5999 9.79941C5.21392 9.79941 4.8999 9.48539 4.8999 9.09941C4.8999 8.7134 5.21392 8.39941 5.5999 8.39941C5.98588 8.39941 6.2999 8.7134 6.2999 9.09941C6.2999 9.48539 5.98588 9.79941 5.5999 9.79941Z" fill="#CACAFB"/>
<path d="M21.7001 22.3995C21.7001 22.0129 21.3867 21.6995 21.0001 21.6995C20.6135 21.6995 20.3001 22.0129 20.3001 22.3995C20.3001 22.7861 20.6135 23.0995 21.0001 23.0995C21.3867 23.0995 21.7001 22.7861 21.7001 22.3995Z" fill="#FA794A"/>
<path d="M17.9789 23.2886C17.6903 23.017 17.2235 23.0379 16.9623 23.3513L13.4623 27.5513L13.4149 27.6149C13.1124 28.0688 13.4336 28.6995 14.0001 28.6995H18.2001L18.2817 28.6948C18.6299 28.6543 18.9001 28.3584 18.9001 27.9995L18.8954 27.9178C18.855 27.5697 18.5591 27.2995 18.2001 27.2995H15.4946L17.5001 24.8929L18.7318 26.3709L18.7922 26.4349C19.0463 26.6724 19.4435 26.689 19.7177 26.4606C20.0147 26.2131 20.0548 25.7717 19.8073 25.4747L18.0379 23.3513L17.9789 23.2886Z" fill="#FA794A"/>
<path d="M24.1884 44.217C24.0734 44.1404 23.9383 44.0995 23.8001 44.0995H9.8001L9.71846 44.1042C9.37033 44.1446 9.1001 44.4405 9.1001 44.7995L9.10481 44.8811C9.14524 45.2292 9.44111 45.4995 9.8001 45.4995H23.5936L23.6637 45.5451C25.0921 46.4437 26.5404 46.8995 28.0001 46.8995L28.2576 46.8947C29.6301 46.8443 30.9921 46.3909 32.3365 45.5451L32.4059 45.4995H46.2001L46.2817 45.4948C46.6299 45.4543 46.9001 45.1584 46.9001 44.7995C46.9001 44.4129 46.5867 44.0995 46.2001 44.0995H32.2001L32.1177 44.1043C32.0087 44.1173 31.9038 44.1557 31.8118 44.217C30.5217 45.0771 29.2546 45.4995 28.0001 45.4995C26.7456 45.4995 25.4785 45.0771 24.1884 44.217Z" fill="#FA794A"/>
<path d="M21.9051 26.1045C22.1575 25.8521 22.5545 25.8327 22.8291 26.0463L22.8951 26.1045L24.2951 27.5045C24.5684 27.7779 24.5684 28.2211 24.2951 28.4944C24.0427 28.7468 23.6457 28.7662 23.3711 28.5527L23.3051 28.4944L22.4001 27.59L21.4951 28.4944C21.2427 28.7468 20.8457 28.7662 20.5711 28.5527L20.5051 28.4944C20.2528 28.2421 20.2334 27.845 20.4469 27.5704L20.5051 27.5045L21.9051 26.1045Z" fill="#FA794A"/>
<path d="M41.3001 16.7995C41.3001 16.4129 40.9866 16.0995 40.6001 16.0995C39.8655 16.0995 38.9997 16.1678 38.0013 16.3042L37.4436 16.3854C37.1582 16.4294 36.8629 16.4784 36.5577 16.5325L35.9341 16.6474L35.284 16.7758L34.6075 16.9177L33.9044 17.0731C33.785 17.1001 33.6645 17.1277 33.5429 17.1558L32.7999 17.3314L32.0303 17.5204C31.6552 17.6141 31.4272 17.9942 31.521 18.3693C31.6147 18.7443 31.9948 18.9723 32.3698 18.8786C32.4968 18.8468 32.6227 18.8156 32.7474 18.785L33.4827 18.6077L34.1913 18.4436C34.3072 18.4173 34.422 18.3916 34.5356 18.3665L35.2042 18.2221L35.846 18.0909L36.461 17.9729L37.0492 17.868C37.145 17.8516 37.2396 17.8357 37.3332 17.8205L37.881 17.7353C38.0591 17.709 38.2327 17.685 38.4018 17.6632L38.8957 17.6042C39.5361 17.5344 40.1044 17.4995 40.6001 17.4995C40.9866 17.4995 41.3001 17.1861 41.3001 16.7995Z" fill="#000091"/>
<path d="M40.6001 20.2995C40.9866 20.2995 41.3001 20.6129 41.3001 20.9995C41.3001 21.3861 40.9866 21.6995 40.6001 21.6995C40.1044 21.6995 39.5361 21.7344 38.8957 21.8042L38.4018 21.8632C38.2327 21.885 38.0591 21.909 37.881 21.9353L37.3332 22.0205C37.2396 22.0357 37.145 22.0516 37.0492 22.068L36.461 22.1729L35.846 22.2909L35.2042 22.4221L34.5356 22.5665C34.422 22.5916 34.3072 22.6173 34.1913 22.6436L33.4827 22.8077L32.7474 22.985C32.6227 23.0156 32.4968 23.0468 32.3698 23.0786C31.9948 23.1723 31.6147 22.9443 31.521 22.5693C31.4272 22.1942 31.6552 21.8141 32.0303 21.7204L32.7999 21.5314L33.5429 21.3558C33.6645 21.3277 33.785 21.3001 33.9044 21.2731L34.6075 21.1177L35.284 20.9758L35.9341 20.8474L36.5577 20.7325C36.8629 20.6784 37.1582 20.6294 37.4436 20.5854L38.0013 20.5042C38.9997 20.3678 39.8655 20.2995 40.6001 20.2995Z" fill="#000091"/>
<path d="M41.3001 25.1995C41.3001 24.8129 40.9866 24.4995 40.6001 24.4995C39.8655 24.4995 38.9997 24.5678 38.0013 24.7042L37.4436 24.7854C37.1582 24.8294 36.8629 24.8784 36.5577 24.9325L35.9341 25.0474L35.284 25.1758L34.6075 25.3177L33.9044 25.4731C33.785 25.5001 33.6645 25.5277 33.5429 25.5558L32.7999 25.7314L32.0303 25.9204C31.6552 26.0141 31.4272 26.3942 31.521 26.7693C31.6147 27.1443 31.9948 27.3723 32.3698 27.2786C32.4968 27.2468 32.6227 27.2156 32.7474 27.185L33.4827 27.0077L34.1913 26.8436C34.3072 26.8173 34.422 26.7916 34.5356 26.7665L35.2042 26.6221L35.846 26.4909L36.461 26.3729L37.0492 26.268C37.145 26.2516 37.2396 26.2357 37.3332 26.2205L37.881 26.1353C38.0591 26.109 38.2327 26.085 38.4018 26.0632L38.8957 26.0042C39.5361 25.9344 40.1044 25.8995 40.6001 25.8995C40.9866 25.8995 41.3001 25.5861 41.3001 25.1995Z" fill="#000091"/>
<path fill-rule="evenodd" clip-rule="evenodd" d="M25.695 42.4945C26.4985 41.691 27.2567 41.3076 27.9769 41.2996C27.9814 41.2997 27.9859 41.2998 27.9904 41.2999C27.9937 41.2999 27.9969 41.3 28.0002 41.3H28.0027C28.0095 41.2999 28.0163 41.2998 28.0231 41.2996C28.7434 41.3076 29.5016 41.6909 30.3051 42.4945C30.4364 42.6257 30.6144 42.6995 30.8001 42.6995H37.8001L37.8817 42.6948C38.2298 42.6543 38.5 42.3585 38.5 41.9995L38.4953 41.9178C38.4549 41.5697 38.159 41.2995 37.8001 41.2995H31.0815L30.9605 41.1883C30.7856 41.0325 30.6095 40.8905 30.4322 40.7624L30.4739 40.7553L30.9311 40.6813L31.4109 40.6107L31.9133 40.5433L32.4382 40.4792L32.9857 40.4185L33.5557 40.3611L34.1483 40.3071L34.7633 40.2564L35.4008 40.209L36.0608 40.165L37.0928 40.1052L38.1754 40.0531L38.9251 40.0225L39.6972 39.9953L40.4916 39.9715L41.7253 39.9421L43.0092 39.9204L44.3432 39.9063L45.7275 39.8999C45.8841 39.8996 46.0416 39.8995 46.2001 39.8995C46.5867 39.8995 46.9001 39.5861 46.9001 39.1995V13.1943L48.3008 14.9445L48.3001 27.9995C48.3001 28.3585 48.5703 28.6543 48.9184 28.6948L49.0001 28.6995C49.3591 28.6995 49.6549 28.4292 49.6954 28.0811L49.7001 27.9995V14.6995C49.7001 14.5723 49.6655 14.4482 49.6008 14.3401L49.5467 14.2622L46.759 10.7776C46.6397 10.6195 46.4547 10.5133 46.2429 10.5003C38.7178 10.0391 32.6363 10.9346 28 13.2053C23.3638 10.9346 17.2823 10.0391 9.75722 10.5003C9.54517 10.5133 9.35994 10.6198 9.24067 10.7782L6.45344 14.2622L6.39936 14.3401C6.33467 14.4482 6.30005 14.5723 6.30005 14.6995V18.1995L6.30476 18.2811C6.34519 18.6292 6.64106 18.8995 7.00005 18.8995L7.08168 18.8948C7.42982 18.8543 7.70005 18.5585 7.70005 18.1995L7.69935 14.9445L9.10005 13.1944V39.1995C9.10005 39.5861 9.41345 39.8995 9.80005 39.8995C9.95849 39.8995 10.116 39.8996 10.2726 39.8999L11.6569 39.9063L12.9909 39.9204L14.2748 39.9421L15.5085 39.9715L16.3029 39.9953L17.075 40.0225L17.8247 40.0531L18.9073 40.1052L19.9393 40.165L20.5993 40.209L21.2368 40.2564L21.8518 40.3071L22.4444 40.3611L23.0144 40.4185L23.5619 40.4792L24.0868 40.5433L24.5892 40.6107L25.069 40.6813L25.5262 40.7553L25.5679 40.7624C25.3906 40.8905 25.2145 41.0325 25.0396 41.1883L24.9179 41.2995H7.70005V39.1995L7.69534 39.1178C7.6549 38.7697 7.35903 38.4995 7.00005 38.4995C6.61345 38.4995 6.30005 38.8129 6.30005 39.1995V41.9995L6.30476 42.0811C6.34519 42.4292 6.64106 42.6995 7.00005 42.6995H25.2001L25.2921 42.6934C25.4438 42.6733 25.5856 42.6038 25.695 42.4945ZM27.3001 39.6853V14.4216L27.0826 14.318C22.9277 12.3679 17.5106 11.5385 10.8296 11.8448L10.5 11.861V38.5002L11.2321 38.5034L12.6314 38.5156L13.9779 38.5359L14.8463 38.554L15.6913 38.5757L16.9149 38.6152L17.7014 38.6461L18.4646 38.6807L19.2044 38.7189L19.9209 38.7609L20.6141 38.8065L21.284 38.8558L21.9306 38.9088L22.554 38.9655L23.1541 39.0259L23.7311 39.0901L24.2848 39.1579L24.8153 39.2295C24.9018 39.2417 24.9873 39.2541 25.0718 39.2667L25.5676 39.3438L26.0402 39.4247L26.4897 39.5094L26.916 39.5978L27.3001 39.6853ZM29.0841 39.5978L28.7001 39.6853V14.4216L28.9175 14.318C33.0724 12.3679 38.4895 11.5385 45.1705 11.8448L45.5001 11.861V38.5002L44.768 38.5034L43.3687 38.5156L42.0222 38.5359L41.1538 38.554L40.3088 38.5757L39.0852 38.6152L38.2987 38.6461L37.5355 38.6807L36.7957 38.7189L36.0792 38.7609L35.386 38.8065L34.7161 38.8558L34.0695 38.9088L33.4461 38.9655L32.846 39.0259L32.269 39.0901L31.7153 39.1579L31.1848 39.2295C31.0983 39.2417 31.0128 39.2541 30.9283 39.2667L30.4325 39.3438L29.9599 39.4247L29.5104 39.5094L29.0841 39.5978Z" fill="#000091"/>
<path d="M49.6953 32.1178C49.6549 31.7697 49.359 31.4995 49.0001 31.4995L48.9184 31.5042C48.5703 31.5446 48.3001 31.8405 48.3001 32.1995V41.2995H43.4001L43.3184 41.3042C42.9703 41.3446 42.7001 41.6405 42.7001 41.9995C42.7001 42.3861 43.0135 42.6995 43.4001 42.6995H49.0001L49.0817 42.6948C49.4298 42.6543 49.7001 42.3585 49.7001 41.9995V32.1995L49.6953 32.1178Z" fill="#000091"/>
<path d="M7.00005 21.6995C7.35903 21.6995 7.6549 21.9697 7.69534 22.3178L7.70005 22.3995V34.9995C7.70005 35.3861 7.38665 35.6995 7.00005 35.6995C6.64106 35.6995 6.34519 35.4292 6.30476 35.0811L6.30005 34.9995V22.3995C6.30005 22.0129 6.61345 21.6995 7.00005 21.6995Z" fill="#000091"/>
</svg>
