<svg width="32" height="32" viewBox="0 0 32 32" fill="none" xmlns="http://www.w3.org/2000/svg">
<g id="&#240;&#159;&#145;&#129;&#239;&#184;&#143; Masquer si besoin - Ic&#195;&#180;ne de titre">
<path id="Ic&#195;&#180;ne" fill-rule="evenodd" clip-rule="evenodd" d="M21.3327 1.3335C22.0691 1.3335 22.666 1.93045 22.666 2.66683V6.66683H27.9993C28.7357 6.66683 29.3327 7.26378 29.3327 8.00016V26.6668C29.3327 27.4032 28.7357 28.0002 27.9993 28.0002H3.99935C3.26297 28.0002 2.66602 27.4032 2.66602 26.6668V8.00016C2.66602 7.26378 3.26297 6.66683 3.99935 6.66683H9.33268V2.66683C9.33268 1.93045 9.92964 1.3335 10.666 1.3335H21.3327ZM26.666 20.0002H5.33268V25.3335H26.666V20.0002ZM17.3327 14.6668H14.666V17.3335H17.3327V14.6668ZM19.9993 4.00016H11.9993V6.66683H19.9993V4.00016Z" fill="#161616"/>
</g>
</svg>
