<svg xmlns="http://www.w3.org/2000/svg" width="24" height="24" viewBox="0 0 24 24" fill="none">
  <path d="M10 2.99963H14C16.1217 2.99963 18.1566 3.84249 19.6569 5.34278C21.1571 6.84307 22 8.8779 22 10.9996C22 13.1214 21.1571 15.1562 19.6569 16.6565C18.1566 18.1568 16.1217 18.9996 14 18.9996V22.4996C9 20.4996 2 17.4996 2 10.9996C2 8.8779 2.84285 6.84307 4.34315 5.34278C5.84344 3.84249 7.87827 2.99963 10 2.99963ZM12 16.9996H14C14.7879 16.9996 15.5681 16.8444 16.2961 16.5429C17.0241 16.2414 17.6855 15.7994 18.2426 15.2423C18.7998 14.6851 19.2417 14.0237 19.5433 13.2957C19.8448 12.5678 20 11.7876 20 10.9996C20 10.2117 19.8448 9.43149 19.5433 8.70353C19.2417 7.97558 18.7998 7.31414 18.2426 6.75699C17.6855 6.19984 17.0241 5.75788 16.2961 5.45636C15.5681 5.15483 14.7879 4.99963 14 4.99963H10C8.4087 4.99963 6.88258 5.63177 5.75736 6.75699C4.63214 7.88221 4 9.40833 4 10.9996C4 14.6096 6.462 16.9656 12 19.4796V16.9996Z" fill="#6A6AF4"/>
  <path d="M11.7 14.4996L9.55227 10.9996L11.7 7.49963H9.38182L7.2 10.9996L9.38182 14.4996H11.7ZM16.2 14.4996L14.0523 10.9996L16.2 7.49963H13.8818L11.7 10.9996L13.8818 14.4996H16.2Z" fill="#6A6AF4"/>
</svg>