<svg xmlns="http://www.w3.org/2000/svg" width="56" height="48" viewBox="0 0 56 48" fill="none">
  <path d="M55.9933 0.882891C55.9355 0.385552 55.5128 -0.000488281 55 -0.000488281H1L0.883379 0.00623945C0.38604 0.0640046 0 0.486676 0 0.999512V46.9995L0.00672773 47.1161C0.0644928 47.6135 0.487164 47.9995 1 47.9995H43L43.1166 47.9928C43.614 47.935 44 47.5123 44 46.9995L43.9933 46.8829C43.9355 46.3856 43.5128 45.9995 43 45.9995H2V9.99951H39L39.1166 9.99278C39.614 9.93502 40 9.51235 40 8.99951C40 8.44723 39.5523 7.99951 39 7.99951H2V1.99951H54V7.99951H45L44.8834 8.00624C44.386 8.064 44 8.48668 44 8.99951C44 9.5518 44.4477 9.99951 45 9.99951H54V38.9995L54.0067 39.1161C54.0645 39.6135 54.4872 39.9995 55 39.9995C55.5523 39.9995 56 39.5518 56 38.9995V0.999512L55.9933 0.882891Z" fill="#000091"/>
  <path d="M5 5.99951C4.4486 5.99951 4 5.55091 4 4.99951C4 4.44806 4.4486 3.99951 5 3.99951C5.5514 3.99951 6 4.44806 6 4.99951C6 5.55091 5.5514 5.99951 5 5.99951Z" fill="#000091"/>
  <path d="M8 4.99951C8 5.55091 8.4486 5.99951 9 5.99951C9.5514 5.99951 10 5.55091 10 4.99951C10 4.44806 9.5514 3.99951 9 3.99951C8.4486 3.99951 8 4.44806 8 4.99951Z" fill="#000091"/>
  <path d="M13 5.99951C12.4486 5.99951 12 5.55091 12 4.99951C12 4.44806 12.4486 3.99951 13 3.99951C13.5514 3.99951 14 4.44806 14 4.99951C14 5.55091 13.5514 5.99951 13 5.99951Z" fill="#000091"/>
  <path d="M51 3.99951C51.5523 3.99951 52 4.44723 52 4.99951C52 5.51235 51.614 5.93502 51.1166 5.99278L51 5.99951H21C20.4477 5.99951 20 5.5518 20 4.99951C20 4.48668 20.386 4.064 20.8834 4.00624L21 3.99951H51Z" fill="#000091"/>
  <path d="M28 16.9995C28 16.4472 27.5523 15.9995 27 15.9995H9L8.88338 16.0062C8.38604 16.064 8 16.4867 8 16.9995C8 17.5518 8.44771 17.9995 9 17.9995H27L27.1166 17.9928C27.614 17.935 28 17.5123 28 16.9995Z" fill="#000091"/>
  <path d="M23 21.9995C23.5523 21.9995 24 22.4472 24 22.9995C24 23.5123 23.614 23.935 23.1166 23.9928L23 23.9995H9C8.44771 23.9995 8 23.5518 8 22.9995C8 22.4867 8.38604 22.064 8.88338 22.0062L9 21.9995H23Z" fill="#000091"/>
  <path d="M22 28.9995C22 28.4472 21.5523 27.9995 21 27.9995H9L8.88338 28.0062C8.38604 28.064 8 28.4867 8 28.9995C8 29.5518 8.44771 29.9995 9 29.9995H21L21.1166 29.9928C21.614 29.935 22 29.5123 22 28.9995Z" fill="#000091"/>
<g transform="translate(30, 17)">
  <path d="M10.0367 4.73126C10.1848 4.19922 10.7362 3.88801 11.2682 4.03616C13.6078 4.68762 15.4014 6.52255 15.8762 8.79775C15.989 9.33839 15.6422 9.86813 15.1016 9.98096C14.561 10.0938 14.0312 9.74698 13.9184 9.20635C13.5998 7.6799 12.3664 6.41803 10.7318 5.96286C10.1997 5.81471 9.8885 5.26331 10.0367 4.73126Z" fill="#5BB5A7"/>
  <path fill-rule="evenodd" clip-rule="evenodd" d="M0 9.99951C0 4.48434 4.48498 -0.000488281 10 -0.000488281C15.515 -0.000488281 20 4.48434 20 9.99951C20 12.5656 19.0289 14.9088 17.4349 16.6809L23.3301 26.8918C24.1586 28.3267 23.6669 30.1615 22.2321 30.9899C20.8484 31.7887 19.0929 31.3601 18.2265 30.0419L18.134 29.8918L12.2724 19.7392C11.5421 19.9095 10.7814 19.9995 10 19.9995C4.48511 19.9995 0 15.5144 0 9.99951ZM14.1984 19.0752L19.866 28.8918C20.1422 29.3701 20.7538 29.534 21.2321 29.2578C21.6762 29.0014 21.8492 28.4558 21.6506 27.9962L21.5981 27.8918L15.9191 18.0555C15.3836 18.45 14.8076 18.7924 14.1984 19.0752ZM18 9.99951C18 5.58893 14.4105 1.99951 10 1.99951C5.58953 1.99951 2 5.58893 2 9.99951C2 14.4098 5.58968 17.9995 10 17.9995C14.4103 17.9995 18 14.4098 18 9.99951Z" fill="#5BB5A7"/>
</g>
</svg>
