<svg xmlns="http://www.w3.org/2000/svg" width="16" height="16" viewBox="0 0 16 16" fill="none">
  <path fill-rule="evenodd" clip-rule="evenodd" d="M8.00132 3.01883C9.56732 1.61283 11.9873 1.6595 13.496 3.17083C15.004 4.68283 15.056 7.09083 13.6533 8.6615L7.99999 14.3228L2.34799 8.6615C0.945322 7.09083 0.997989 4.67883 2.50532 3.17083C4.01532 1.6615 6.43066 1.61083 8.00132 3.01883ZM12.552 4.11283C11.552 3.1115 9.93865 3.07083 8.89199 4.01083L8.00199 4.8095L7.11132 4.0115C6.06132 3.07017 4.45132 3.1115 3.44866 4.11417C2.45532 5.1075 2.40532 6.6975 3.32066 7.74817L8.00066 12.4355L12.6807 7.74883C13.5967 6.6975 13.5467 5.1095 12.552 4.11283Z" fill="#000091"/>
</svg>