<svg xmlns="http://www.w3.org/2000/svg" width="16" height="16" viewBox="0 0 16 16" fill="none">
<g clip-path="url(#clip0_1188_31517)">
<path d="M8 15.8182L3.75734 11.5755C2.91823 10.7364 2.34679 9.66728 2.11529 8.5034C1.88378 7.33952 2.0026 6.13312 2.45673 5.03677C2.91086 3.94042 3.6799 3.00335 4.66659 2.34406C5.65328 1.68478 6.81332 1.33289 8 1.33289C9.18669 1.33289 10.3467 1.68478 11.3334 2.34406C12.3201 3.00335 13.0891 3.94042 13.5433 5.03677C13.9974 6.13312 14.1162 7.33952 13.8847 8.5034C13.6532 9.66728 13.0818 10.7364 12.2427 11.5755L8 15.8182ZM11.3 10.6328C11.9526 9.98017 12.397 9.14865 12.577 8.24342C12.7571 7.33818 12.6646 6.3999 12.3114 5.5472C11.9582 4.69451 11.36 3.9657 10.5926 3.45295C9.82519 2.94019 8.92296 2.6665 8 2.6665C7.07704 2.6665 6.17481 2.94019 5.40739 3.45295C4.63997 3.9657 4.04183 4.69451 3.68861 5.5472C3.33539 6.3999 3.24294 7.33818 3.42297 8.24342C3.603 9.14865 4.04741 9.98017 4.7 10.6328L8 13.9328L11.3 10.6328ZM8 8.66617C7.64638 8.66617 7.30724 8.52569 7.05719 8.27564C6.80715 8.02559 6.66667 7.68646 6.66667 7.33283C6.66667 6.97921 6.80715 6.64007 7.05719 6.39002C7.30724 6.13998 7.64638 5.9995 8 5.9995C8.35362 5.9995 8.69276 6.13998 8.94281 6.39002C9.19286 6.64007 9.33334 6.97921 9.33334 7.33283C9.33334 7.68646 9.19286 8.02559 8.94281 8.27564C8.69276 8.52569 8.35362 8.66617 8 8.66617Z" fill="#666666"/>
</g>
<defs>
<clipPath id="clip0_1188_31517">
<rect width="16" height="16" fill="white" transform="translate(0 -0.000488281)"/>
</clipPath>
</defs>
</svg>