<svg xmlns="http://www.w3.org/2000/svg" xmlns:xlink="http://www.w3.org/1999/xlink" viewBox="0 0 60 59"><defs><path id="d2eoU" d="M18.4 33.9H4.7C2.5 33.9.6 35.7.6 38c0 2.2 1.8 4.1 4.1 4.1h9.7v9.7c0 2.2 1.8 4.1 4.1 4.1 1.1 0 2.1-.5 2.9-1.2.7-.7 1.2-1.8 1.2-2.9V38.1c0-1.1-.5-2.1-1.2-2.9-.9-.9-1.9-1.3-3-1.3"/><path id="d2eoV" d="M35 17H21.3c-2.2 0-4.1 1.8-4.1 4.1 0 2.2 1.8 4.1 4.1 4.1H31v9.7c0 2.2 1.8 4.1 4.1 4.1 1.1 0 2.1-.5 2.9-1.2.7-.7 1.2-1.8 1.2-2.9V21.2c0-1.1-.5-2.1-1.2-2.9-.9-.8-1.9-1.3-3-1.3"/><path id="d2eoW" d="M51.5.1H37.8c-2.2 0-4.1 1.8-4.1 4.1 0 2.2 1.8 4.1 4.1 4.1h9.7V18c0 2.2 1.8 4.1 4.1 4.1 1.1 0 2.1-.5 2.9-1.2.7-.7 1.2-1.8 1.2-2.9V4.3c0-1.1-.5-2.1-1.2-2.9-.7-.8-1.8-1.3-3-1.3"/></defs><g><g><g><use fill="#3d566e" xlink:href="#d2eoa"/></g><g><use fill="#3d566e" xlink:href="#d2eob"/></g><g><use fill="#3d566e" xlink:href="#d2eoc"/></g><g><use fill="#3d566e" xlink:href="#d2eod"/></g><g><use fill="#3d566e" xlink:href="#d2eoe"/></g><g><use fill="#3d566e" xlink:href="#d2eof"/></g><g><use fill="#3d566e" xlink:href="#d2eog"/></g><g><use fill="#f33" xlink:href="#d2eoh"/></g><g><use fill="#f33" xlink:href="#d2eoi"/></g><g><g><use fill="#3d566e" xlink:href="#d2eoj"/></g><g><use fill="#3d566e" xlink:href="#d2eok"/></g><g><use fill="#3d566e" xlink:href="#d2eol"/></g><g><use fill="#3d566e" xlink:href="#d2eom"/></g><g><use fill="#3d566e" xlink:href="#d2eon"/></g><g><use fill="#3d566e" xlink:href="#d2eoo"/></g><g><use fill="#3d566e" xlink:href="#d2eop"/></g><g><use fill="#3d566e" xlink:href="#d2eoq"/></g><g><use fill="#3d566e" xlink:href="#d2eor"/></g><g><use fill="#3d566e" xlink:href="#d2eos"/></g><g><use fill="#3d566e" xlink:href="#d2eot"/></g><g><use fill="#3d566e" xlink:href="#d2eou"/></g><g><use fill="#3d566e" xlink:href="#d2eov"/></g><g><use fill="#3d566e" xlink:href="#d2eow"/></g><g><use fill="#3d566e" xlink:href="#d2eox"/></g><g><use fill="#3d566e" xlink:href="#d2eoy"/></g><g><use fill="#3d566e" xlink:href="#d2eoz"/></g><g><use fill="#3d566e" xlink:href="#d2eoA"/></g><g><use fill="#3d566e" xlink:href="#d2eoB"/></g><g><use fill="#3d566e" xlink:href="#d2eoC"/></g><g><use fill="#3d566e" xlink:href="#d2eoD"/></g><g><use fill="#3d566e" xlink:href="#d2eoE"/></g><g><use fill="#3d566e" xlink:href="#d2eoF"/></g><g><use fill="#3d566e" xlink:href="#d2eoG"/></g><g><use fill="#3d566e" xlink:href="#d2eoH"/></g><g><use fill="#3d566e" xlink:href="#d2eoI"/></g><g><use fill="#3d566e" xlink:href="#d2eoJ"/></g><g><use fill="#3d566e" xlink:href="#d2eoK"/></g><g><use fill="#3d566e" xlink:href="#d2eoL"/></g><g><use fill="#3d566e" xlink:href="#d2eoM"/></g><g><use fill="#3d566e" xlink:href="#d2eoN"/></g><g><use fill="#3d566e" xlink:href="#d2eoO"/></g><g><use fill="#3d566e" xlink:href="#d2eoP"/></g></g><g><g><g><use fill="#3d566e" xlink:href="#d2eoQ"/></g><g><use fill="#3d566e" xlink:href="#d2eoR"/></g></g><g><g><use fill="#f33" xlink:href="#d2eoS"/></g><g><use fill="#f33" xlink:href="#d2eoT"/></g></g></g><g><g><use fill="#f33" xlink:href="#d2eoU"/></g><g><use fill="#3d566e" xlink:href="#d2eoV"/></g><g><use fill="#f33" xlink:href="#d2eoW"/></g></g></g></g></svg>