<svg xmlns="http://www.w3.org/2000/svg" xmlns:xlink="http://www.w3.org/1999/xlink" viewBox="0 0 361 59"><defs><path id="d2eoa" d="M61 10.5c-4.8 0-5.5 4-5.5 9.3 0 5.3.6 9.3 5.5 9.3s5.5-4 5.5-9.3c0-5.3-.6-9.3-5.5-9.3zm10.3 22.9c-1.8 1.8-4.7 2.9-7.9 2.9-3.3 0-5.7-.9-7.8-3.2v14.7h-8.1V3.6h7.8v3c2.2-2.5 4.7-3.4 8.1-3.4 3.2 0 6.1 1.1 7.9 2.9 3.2 3.2 3.3 8.8 3.3 13.6 0 4.9-.1 10.5-3.3 13.7z"/><path id="d2eob" d="M98.6 22.3h-6.4c-2.9 0-4.5 1.4-4.5 3.7 0 2.2 1.5 3.7 4.7 3.7 2.2 0 3.7-.2 5.1-1.6.9-.8 1.2-2.1 1.2-4.1v-1.7zm.2 13.6v-2.8c-2.2 2.2-4.2 3.1-7.9 3.1s-6.3-.9-8.3-2.9C80.9 31.6 80 29 80 26.1c0-5.2 3.5-9.4 11.1-9.4h7.6v-1.6c0-3.5-1.7-5.1-6-5.1-3.1 0-4.5.7-6.2 2.7l-5.2-5c3.2-3.5 6.3-4.5 11.7-4.5 9.1 0 13.8 3.8 13.8 11.4v21.3h-8z"/><path id="d2eoc" d="M133 12.4c-1.2-1.2-2.3-1.9-4.3-1.9-2.5 0-5.2 1.9-5.2 6V36h-8.1V3.6h7.9v3.1c1.6-1.9 4.7-3.5 8.1-3.5 3.2 0 5.4.8 7.6 3z"/><path id="d2eod" d="M154.6 36.3c-6.5 0-14.5-3.5-14.5-16.6 0-13.1 8-16.5 14.5-16.5 4.5 0 7.8 1.4 10.7 4.3l-5.5 5.5c-1.7-1.8-3.1-2.5-5.2-2.5-1.9 0-3.4.7-4.6 2.1-1.2 1.6-1.8 3.7-1.8 7.1 0 3.4.6 5.7 1.8 7.2 1.2 1.4 2.7 2.1 4.6 2.1 2.1 0 3.5-.7 5.2-2.5l5.5 5.4c-2.9 3-6.2 4.4-10.7 4.4z"/><path id="d2eoe" d="M186.5 11.9c-.9-.9-2.2-1.4-3.8-1.4-1.6 0-2.8.5-3.7 1.4-1.7 1.7-1.9 4.5-1.9 7.8 0 3.4.2 6.2 1.9 7.9.9.9 2.1 1.4 3.7 1.4s2.9-.5 3.8-1.4c1.7-1.7 1.9-4.5 1.9-7.9 0-3.3-.2-6.1-1.9-7.8zm6.3 20.4c-2 2.1-5.3 4-10.1 4s-8-1.9-10-4c-2.9-3-3.7-6.7-3.7-12.6 0-5.8.7-9.5 3.7-12.5 2-2.1 5.2-4 10-4s8.1 1.9 10.1 4c2.9 3 3.7 6.7 3.7 12.5-.1 5.9-.8 9.6-3.7 12.6z"/><path id="d2eof" d="M222.7 35.9v-3c-2.1 2.2-5.1 3.4-8.1 3.4-3.2 0-5.8-1.1-7.6-2.9-2.6-2.6-3.3-5.6-3.3-9.2V3.6h8.1v19.6c0 4.4 2.8 5.9 5.3 5.9s5.4-1.5 5.4-5.9V3.6h8.1v32.3z"/><path id="d2eog" d="M257.3 12.4c-1.2-1.2-2.3-1.9-4.3-1.9-2.5 0-5.2 1.9-5.2 6V36h-8.1V3.6h7.9v3.1c1.6-1.9 4.7-3.5 8.1-3.5 3.2 0 5.4.8 7.6 3z"/><path id="d2eoh" d="M317 35.9v-3c-2.1 2.2-5.1 3.4-8.1 3.4-3.2 0-5.8-1.1-7.6-2.9-2.6-2.6-3.3-5.6-3.3-9.2V3.6h8.1v19.6c0 4.4 2.8 5.9 5.3 5.9s5.4-1.5 5.4-5.9V3.6h8.1v32.3z"/><path id="d2eoi" d="M347.5 10.5c-4.8 0-5.5 4-5.5 9.3 0 5.3.6 9.3 5.5 9.3s5.5-4 5.5-9.3c0-5.3-.6-9.3-5.5-9.3zm10.3 22.9c-1.8 1.8-4.7 2.9-7.9 2.9-3.3 0-5.7-.9-7.8-3.2v14.7H334V3.6h7.8v3c2.2-2.5 4.7-3.4 8.1-3.4 3.2 0 6.1 1.1 7.9 2.9 3.2 3.2 3.3 8.8 3.3 13.6 0 4.9-.1 10.5-3.3 13.7z"/><path id="d2eoj" d="M74 55.6v-10h6.4V47h-4.9v2.9h4.1v1.3h-4.1v3h4.9v1.4H74z"/><path id="d2eok" d="M86.8 55.6v-4.3c0-1.1-.6-1.6-1.4-1.6-.8 0-1.5.5-1.5 1.6v4.3h-1.4v-7.1h1.4v.7c.5-.5 1.2-.8 1.9-.8s1.3.2 1.8.6c.5.5.7 1.2.7 2v4.5h-1.5z"/><path id="d2eol" d="M92.6 55.6c-1.3 0-1.9-1-1.9-2v-3.9h-.8v-1.1h.8v-2.2h1.4v2.2h1.4v1.1h-1.4v3.8c0 .5.3.8.8.8h.6v1.2h-.9z"/><path id="d2eom" d="M99.4 50.2c-.3-.3-.6-.5-1.1-.5-.8 0-1.4.6-1.4 1.6v4.3h-1.4v-7.1h1.4v.8c.4-.5 1.1-.9 1.9-.9.7 0 1.2.2 1.7.7z"/><path id="d2eon" d="M105.3 50.5c-.2-.5-.7-.9-1.4-.9s-1.2.4-1.4.9c-.1.3-.2.5-.2 1h3.2c0-.5 0-.7-.2-1zm-3 2c0 1.2.6 2 1.8 2 .8 0 1.2-.2 1.7-.7l.9.9c-.7.7-1.4 1.1-2.7 1.1-1.8 0-3.2-.9-3.2-3.6 0-2.3 1.2-3.6 3-3.6 1.9 0 3 1.4 3 3.4v.6h-4.5z"/><path id="d2eoo" d="M108.4 55.6v-1.1l3.5-4.7h-3.3v-1.3h5.1v1.1l-3.6 4.7h3.6v1.3z"/><path id="d2eop" d="M121.8 49.7c-1.3 0-1.5 1.1-1.5 2.4 0 1.3.2 2.4 1.5 2.4s1.5-1.1 1.5-2.4c0-1.3-.3-2.4-1.5-2.4zm1.5 5.9v-.8c-.5.6-1.1.8-1.9.8-.7 0-1.3-.2-1.7-.6-.7-.7-.8-1.9-.8-3s.1-2.3.8-3c.4-.4 1-.6 1.7-.6.8 0 1.3.2 1.9.8v-3.6h1.4v10h-1.4z"/><path id="d2eoq" d="M130.9 52.5h-1.7c-.8 0-1.3.4-1.3 1s.4 1 1.3 1c.5 0 1 0 1.3-.4.2-.2.3-.5.3-1.1v-.5zm0 3.1V55c-.5.5-1 .7-1.9.7-.9 0-1.5-.2-1.9-.6-.4-.4-.6-.9-.6-1.5 0-1.2.8-2 2.5-2h1.9V51c0-.9-.4-1.3-1.6-1.3-.8 0-1.2.2-1.6.7l-.9-.9c.7-.8 1.4-1 2.5-1 1.9 0 2.9.8 2.9 2.4v4.7h-1.3z"/><path id="d2eor" d="M138.9 55.6v-4.3c0-1.1-.6-1.6-1.4-1.6-.8 0-1.5.5-1.5 1.6v4.3h-1.4v-7.1h1.4v.7c.5-.5 1.2-.8 1.9-.8s1.3.2 1.8.6c.5.5.7 1.2.7 2v4.5h-1.5z"/><path id="d2eos" d="M145 55.7c-1.2 0-2.1-.2-3-1l.9-.9c.6.6 1.3.7 2 .7.9 0 1.6-.3 1.6-1 0-.5-.3-.8-1-.8l-1.1-.1c-1.3-.1-2.1-.7-2.1-2 0-1.4 1.2-2.2 2.7-2.2 1.1 0 2 .2 2.6.8l-.9.9c-.4-.4-1.1-.5-1.8-.5-.9 0-1.3.4-1.3.9 0 .4.2.7 1 .8l1.1.1c1.3.1 2.1.7 2.1 2 .2 1.5-1.1 2.3-2.8 2.3z"/><path id="d2eot" d="M155.2 55.6c-1.4 0-1.9-.9-1.9-2v-8h1.4v7.9c0 .5.2.8.8.8h.6v1.2h-.9z"/><path id="d2eou" d="M156.9 48.4v-2.7h1.6v1.5z"/><path id="d2eov" d="M164.9 50.5c-.2-.5-.7-.9-1.4-.9s-1.2.4-1.4.9c-.1.3-.2.5-.2 1h3.2c0-.5 0-.7-.2-1zm-3 2c0 1.2.6 2 1.8 2 .8 0 1.2-.2 1.7-.7l.9.9c-.7.7-1.4 1.1-2.7 1.1-1.8 0-3.2-.9-3.2-3.6 0-2.3 1.2-3.6 3-3.6 1.9 0 3 1.4 3 3.4v.6h-4.5z"/><path id="d2eow" d="M172.9 55.6v-4.3c0-1.1-.6-1.6-1.4-1.6-.8 0-1.5.5-1.5 1.6v4.3h-1.4v-7.1h1.4v.7c.5-.5 1.2-.8 1.9-.8s1.3.2 1.8.6c.5.5.7 1.2.7 2v4.5h-1.5z"/><path id="d2eox" d="M179 55.7c-1.2 0-2.1-.2-3-1l.9-.9c.6.6 1.3.7 2 .7.9 0 1.6-.3 1.6-1 0-.5-.3-.8-1-.8l-1.1-.1c-1.3-.1-2.1-.7-2.1-2 0-1.4 1.2-2.2 2.7-2.2 1.1 0 2 .2 2.6.8l-.9.9c-.4-.4-1.1-.5-1.8-.5-.9 0-1.3.4-1.3.9 0 .4.2.7 1 .8l1.1.1c1.3.1 2.1.7 2.1 2 .1 1.5-1.1 2.3-2.8 2.3z"/><path id="d2eoy" d="M187.8 50.5c-.2-.5-.7-.9-1.4-.9s-1.2.4-1.4.9c-.1.3-.2.5-.2 1h3.2c0-.5 0-.7-.2-1zm-3 2c0 1.2.6 2 1.8 2 .8 0 1.2-.2 1.7-.7l.9.9c-.7.7-1.4 1.1-2.7 1.1-1.8 0-3.2-.9-3.2-3.6 0-2.3 1.2-3.6 3-3.6 1.9 0 3 1.4 3 3.4v.6h-4.5z"/><path id="d2eoz" d="M191.5 55.6v-7.1h1.4v7.1zm-.1-8.5v-1.5h1.5v1.5z"/><path id="d2eoA" d="M197.9 49.7c-1.3 0-1.5 1.1-1.5 2.2s.2 2.2 1.5 2.2 1.4-1.1 1.4-2.2-.2-2.2-1.4-2.2zm-.2 8.8c-1.1 0-1.8-.3-2.5-.9l.9-.9c.4.4.8.6 1.5.6 1.2 0 1.7-.9 1.7-1.8v-.9c-.5.6-1.1.8-1.8.8s-1.3-.2-1.7-.6c-.7-.7-.8-1.7-.8-2.9s.1-2.2.8-2.9c.4-.4 1-.6 1.7-.6.8 0 1.3.2 1.9.8v-.8h1.4v7.1c-.1 1.8-1.2 3-3.1 3z"/><path id="d2eoB" d="M207.5 55.6v-4.3c0-1.1-.6-1.6-1.4-1.6-.8 0-1.5.5-1.5 1.6v4.3h-1.4v-7.1h1.4v.7c.5-.5 1.2-.8 1.9-.8s1.3.2 1.8.6c.5.5.7 1.2.7 2v4.5h-1.5z"/><path id="d2eoC" d="M215.3 50.5c-.2-.5-.7-.9-1.4-.9s-1.2.4-1.4.9c-.1.3-.2.5-.2 1h3.2c0-.5-.1-.7-.2-1zm-3 2c0 1.2.6 2 1.8 2 .8 0 1.2-.2 1.7-.7l.9.9c-.7.7-1.4 1.1-2.7 1.1-1.8 0-3.2-.9-3.2-3.6 0-2.3 1.2-3.6 3-3.6 1.9 0 3 1.4 3 3.4v.6h-4.5z"/><path id="d2eoD" d="M227.6 55.6v-4.3c0-1.1-.6-1.6-1.4-1.6-.8 0-1.5.5-1.5 1.5v4.4h-1.4v-4.3c0-1.1-.6-1.6-1.4-1.6-.8 0-1.5.5-1.5 1.6v4.3H219v-7.1h1.4v.7c.5-.5 1.2-.8 1.9-.8.9 0 1.6.3 2 1 .6-.7 1.3-1 2.2-1 .7 0 1.4.2 1.8.6.5.5.8 1.2.8 2v4.5h-1.5z"/><path id="d2eoE" d="M235.4 50.5c-.2-.5-.7-.9-1.4-.9s-1.2.4-1.4.9c-.1.3-.2.5-.2 1h3.2c0-.5-.1-.7-.2-1zm-3 2c0 1.2.6 2 1.8 2 .8 0 1.2-.2 1.7-.7l.9.9c-.7.7-1.4 1.1-2.7 1.1-1.8 0-3.2-.9-3.2-3.6 0-2.3 1.2-3.6 3-3.6 1.9 0 3 1.4 3 3.4v.6h-4.5z"/><path id="d2eoF" d="M243.3 55.6v-4.3c0-1.1-.6-1.6-1.4-1.6-.8 0-1.5.5-1.5 1.6v4.3H239v-7.1h1.4v.7c.5-.5 1.2-.8 1.9-.8s1.3.2 1.8.6c.5.5.7 1.2.7 2v4.5h-1.5z"/><path id="d2eoG" d="M249.2 55.6c-1.3 0-1.9-1-1.9-2v-3.9h-.8v-1.1h.8v-2.2h1.4v2.2h1.4v1.1h-1.4v3.8c0 .5.3.8.8.8h.6v1.2h-.9z"/><path id="d2eoH" d="M257.8 55.7c-1.2 0-2.1-.2-3-1l.9-.9c.6.6 1.3.7 2 .7.9 0 1.6-.3 1.6-1 0-.5-.3-.8-1-.8l-1.1-.1c-1.3-.1-2.1-.7-2.1-2 0-1.4 1.2-2.2 2.7-2.2 1.1 0 2 .2 2.6.8l-.9.9c-.4-.4-1.1-.5-1.8-.5-.9 0-1.3.4-1.3.9 0 .4.2.7 1 .8l1.1.1c1.3.1 2.1.7 2.1 2 .2 1.5-1.1 2.3-2.8 2.3z"/><path id="d2eoI" d="M266.9 55.6v-.7c-.5.5-1.2.8-1.9.8s-1.3-.2-1.8-.6c-.5-.5-.7-1.2-.7-2v-4.5h1.4v4.3c0 1.1.6 1.6 1.4 1.6.8 0 1.5-.5 1.5-1.6v-4.3h1.4v7.1h-1.3z"/><path id="d2eoJ" d="M273.7 49.7c-1.3 0-1.5 1.1-1.5 2.4 0 1.3.2 2.4 1.5 2.4s1.5-1.1 1.5-2.4c0-1.3-.2-2.4-1.5-2.4zm2.1 5.3c-.4.4-1 .6-1.7.6-.8 0-1.3-.2-1.9-.8v3.6h-1.4v-10h1.4v.8c.5-.6 1.1-.8 1.9-.8.7 0 1.3.2 1.7.6.7.7.8 1.9.8 3s-.1 2.3-.8 3z"/><path id="d2eoK" d="M283.3 44.9h-1.6l-1.1 2.3h1.1zm-.4 6.6h-3.2c0-.5.1-.7.2-1 .2-.5.7-.9 1.4-.9s1.2.4 1.4.9c.1.3.2.5.2 1zm-3.199 1.1h4.499V52c0-2-1.1-3.4-3-3.4-1.8 0-3 1.3-3 3.6 0 2.7 1.4 3.6 3.2 3.6 1.3 0 2-.4 2.7-1.1l-.9-.9c-.5.5-.9.7-1.7.7-1.166 0-1.766-.756-1.799-1.9z"/><path id="d2eoL" d="M290.2 50.2c-.3-.3-.6-.5-1.1-.5-.8 0-1.4.6-1.4 1.6v4.3h-1.4v-7.1h1.4v.8c.4-.5 1.1-.9 1.9-.9.7 0 1.2.2 1.7.7z"/><path id="d2eoM" d="M292.6 55.6v-7.1h1.4v7.1zm0-8.5v-1.5h1.5v1.5z"/><path id="d2eoN" d="M300.5 50.5c-.2-.5-.7-.9-1.4-.9s-1.2.4-1.4.9c-.1.3-.2.5-.2 1h3.2c0-.5-.1-.7-.2-1zm-3 2c0 1.2.6 2 1.8 2 .8 0 1.2-.2 1.7-.7l.9.9c-.7.7-1.4 1.1-2.7 1.1-1.8 0-3.2-.9-3.2-3.6 0-2.3 1.2-3.6 3-3.6 1.9 0 3 1.4 3 3.4v.6h-4.5z"/><path id="d2eoO" d="M308.4 55.6v-.7c-.5.5-1.2.8-1.9.8s-1.3-.2-1.8-.6c-.5-.5-.7-1.2-.7-2v-4.5h1.4v4.3c0 1.1.6 1.6 1.4 1.6.8 0 1.5-.5 1.5-1.6v-4.3h1.4v7.1h-1.3z"/><path id="d2eoP" d="M316.1 50.2c-.3-.3-.6-.5-1.1-.5-.8 0-1.4.6-1.4 1.6v4.3h-1.4v-7.1h1.4v.8c.4-.5 1.1-.9 1.9-.9.7 0 1.2.2 1.7.7z"/><path id="d2eoQ" d="M278.2 9.9c2.8 0 5.7.5 7.5 2.2l5-5c-3.1-2.9-7.3-3.8-12.4-3.8h-.5v6.6h.4z"/><path id="d2eoR" d="M282 16.3l-4.2-.4v7l2.5.2c2.5.2 3.4 1.4 3.4 3 0 2.4-2.9 3.4-5.7 3.4h-.2v6.9h.1c7.6 0 13.7-3.4 13.7-10.6.1-5.5-3.2-8.9-9.6-9.5z"/><path id="d2eoS" d="M265.8 13.5c0 6 3.6 8.5 9.4 9.1l2.6.3v-7l-.9-.1c-2.9-.2-3.4-1.6-3.4-2.8 0-1.6 1.3-3 4.3-3.1V3.3c-6.3.1-12 3.7-12 10.2z"/><path id="d2eoT" d="M269.4 26.4l-5.3 5.3c4.1 4.1 8.6 4.6 13.7 4.7v-6.9c-2.4-.1-5.8-.5-8.4-3.1z"/><path id="d2eoU" d="M18.4 33.9H4.7C2.5 33.9.6 35.7.6 38c0 2.2 1.8 4.1 4.1 4.1h9.7v9.7c0 2.2 1.8 4.1 4.1 4.1 1.1 0 2.1-.5 2.9-1.2.7-.7 1.2-1.8 1.2-2.9V38.1c0-1.1-.5-2.1-1.2-2.9-.9-.9-1.9-1.3-3-1.3"/><path id="d2eoV" d="M35 17H21.3c-2.2 0-4.1 1.8-4.1 4.1 0 2.2 1.8 4.1 4.1 4.1H31v9.7c0 2.2 1.8 4.1 4.1 4.1 1.1 0 2.1-.5 2.9-1.2.7-.7 1.2-1.8 1.2-2.9V21.2c0-1.1-.5-2.1-1.2-2.9-.9-.8-1.9-1.3-3-1.3"/><path id="d2eoW" d="M51.5.1H37.8c-2.2 0-4.1 1.8-4.1 4.1 0 2.2 1.8 4.1 4.1 4.1h9.7V18c0 2.2 1.8 4.1 4.1 4.1 1.1 0 2.1-.5 2.9-1.2.7-.7 1.2-1.8 1.2-2.9V4.3c0-1.1-.5-2.1-1.2-2.9-.7-.8-1.8-1.3-3-1.3"/></defs><g><g><g><use fill="#3d566e" xlink:href="#d2eoa"/></g><g><use fill="#3d566e" xlink:href="#d2eob"/></g><g><use fill="#3d566e" xlink:href="#d2eoc"/></g><g><use fill="#3d566e" xlink:href="#d2eod"/></g><g><use fill="#3d566e" xlink:href="#d2eoe"/></g><g><use fill="#3d566e" xlink:href="#d2eof"/></g><g><use fill="#3d566e" xlink:href="#d2eog"/></g><g><use fill="#f33" xlink:href="#d2eoh"/></g><g><use fill="#f33" xlink:href="#d2eoi"/></g><g><g><use fill="#3d566e" xlink:href="#d2eoj"/></g><g><use fill="#3d566e" xlink:href="#d2eok"/></g><g><use fill="#3d566e" xlink:href="#d2eol"/></g><g><use fill="#3d566e" xlink:href="#d2eom"/></g><g><use fill="#3d566e" xlink:href="#d2eon"/></g><g><use fill="#3d566e" xlink:href="#d2eoo"/></g><g><use fill="#3d566e" xlink:href="#d2eop"/></g><g><use fill="#3d566e" xlink:href="#d2eoq"/></g><g><use fill="#3d566e" xlink:href="#d2eor"/></g><g><use fill="#3d566e" xlink:href="#d2eos"/></g><g><use fill="#3d566e" xlink:href="#d2eot"/></g><g><use fill="#3d566e" xlink:href="#d2eou"/></g><g><use fill="#3d566e" xlink:href="#d2eov"/></g><g><use fill="#3d566e" xlink:href="#d2eow"/></g><g><use fill="#3d566e" xlink:href="#d2eox"/></g><g><use fill="#3d566e" xlink:href="#d2eoy"/></g><g><use fill="#3d566e" xlink:href="#d2eoz"/></g><g><use fill="#3d566e" xlink:href="#d2eoA"/></g><g><use fill="#3d566e" xlink:href="#d2eoB"/></g><g><use fill="#3d566e" xlink:href="#d2eoC"/></g><g><use fill="#3d566e" xlink:href="#d2eoD"/></g><g><use fill="#3d566e" xlink:href="#d2eoE"/></g><g><use fill="#3d566e" xlink:href="#d2eoF"/></g><g><use fill="#3d566e" xlink:href="#d2eoG"/></g><g><use fill="#3d566e" xlink:href="#d2eoH"/></g><g><use fill="#3d566e" xlink:href="#d2eoI"/></g><g><use fill="#3d566e" xlink:href="#d2eoJ"/></g><g><use fill="#3d566e" xlink:href="#d2eoK"/></g><g><use fill="#3d566e" xlink:href="#d2eoL"/></g><g><use fill="#3d566e" xlink:href="#d2eoM"/></g><g><use fill="#3d566e" xlink:href="#d2eoN"/></g><g><use fill="#3d566e" xlink:href="#d2eoO"/></g><g><use fill="#3d566e" xlink:href="#d2eoP"/></g></g><g><g><g><use fill="#3d566e" xlink:href="#d2eoQ"/></g><g><use fill="#3d566e" xlink:href="#d2eoR"/></g></g><g><g><use fill="#f33" xlink:href="#d2eoS"/></g><g><use fill="#f33" xlink:href="#d2eoT"/></g></g></g><g><g><use fill="#f33" xlink:href="#d2eoU"/></g><g><use fill="#3d566e" xlink:href="#d2eoV"/></g><g><use fill="#f33" xlink:href="#d2eoW"/></g></g></g></g></svg>