<svg xmlns="http://www.w3.org/2000/svg" width="16" height="16" viewBox="0 0 16 16" fill="none">
  <g clip-path="url(#clip0_1230_37277)">
    <path d="M8 15.8182L3.75734 11.5755C2.91823 10.7364 2.34679 9.6673 2.11529 8.50341C1.88378 7.33953 2.0026 6.13314 2.45673 5.03678C2.91086 3.94043 3.6799 3.00336 4.66659 2.34408C5.65328 1.68479 6.81332 1.3329 8 1.3329C9.18669 1.3329 10.3467 1.68479 11.3334 2.34408C12.3201 3.00336 13.0891 3.94043 13.5433 5.03678C13.9974 6.13314 14.1162 7.33953 13.8847 8.50341C13.6532 9.6673 13.0818 10.7364 12.2427 11.5755L8 15.8182ZM11.3 10.6328C11.9526 9.98018 12.397 9.14866 12.577 8.24343C12.7571 7.3382 12.6646 6.39991 12.3114 5.54722C11.9582 4.69453 11.36 3.96572 10.5926 3.45296C9.82519 2.9402 8.92296 2.66652 8 2.66652C7.07704 2.66652 6.17481 2.9402 5.40739 3.45296C4.63997 3.96572 4.04183 4.69453 3.68861 5.54722C3.33539 6.39991 3.24294 7.3382 3.42297 8.24343C3.603 9.14866 4.04741 9.98018 4.7 10.6328L8 13.9328L11.3 10.6328V10.6328ZM8 8.66618C7.64638 8.66618 7.30724 8.52571 7.05719 8.27566C6.80714 8.02561 6.66667 7.68647 6.66667 7.33285C6.66667 6.97923 6.80714 6.64009 7.05719 6.39004C7.30724 6.13999 7.64638 5.99952 8 5.99952C8.35362 5.99952 8.69276 6.13999 8.94281 6.39004C9.19286 6.64009 9.33334 6.97923 9.33334 7.33285C9.33334 7.68647 9.19286 8.02561 8.94281 8.27566C8.69276 8.52571 8.35362 8.66618 8 8.66618Z" fill="#666666"/>
  </g>
  <defs>
    <clipPath id="clip0_1230_37277">
      <rect width="16" height="16" fill="white" transform="translate(0 -0.000488281)"/>
    </clipPath>
  </defs>
</svg>