<svg width="235" height="102" viewBox="0 0 235 102" fill="none" xmlns="http://www.w3.org/2000/svg">
<path d="M93.6878 4.54803V93.999H69.0175V50.589L50.9436 70.9786H43.5557L25.4818 50.589V93.999H0.811523V4.54803H9.51868L47.2497 42.6963L84.9807 4.54803H93.6878Z" fill="#FA7659"/>
<path d="M201.283 3.89026C206.472 3.89026 211.574 4.54799 216.587 5.86344C221.688 7.0912 225.778 8.75745 228.856 10.8622V34.6719C225.074 32.4795 221.336 30.594 217.642 29.0155C213.948 27.3492 209.595 26.5161 204.581 26.5161C201.679 26.5161 199.172 26.9546 197.062 27.8316C194.951 28.7085 193.895 30.1555 193.895 32.1726C193.895 34.365 195.171 36.0312 197.721 37.1713C200.272 38.2237 203.394 39.4514 207.088 40.8546L216.587 44.4063C223.007 46.8618 227.537 50.1943 230.175 54.4038C232.902 58.6132 234.265 62.8227 234.265 67.0321C234.265 72.6448 232.638 77.6435 229.384 82.0283C226.129 86.3255 221.732 89.7457 216.191 92.2889C210.65 94.7444 204.45 95.9722 197.589 95.9722C192.312 95.9722 187.079 95.0514 181.89 93.2097C176.701 91.3681 172.172 89.088 168.302 86.3694V62.5596C172.523 65.7167 177.053 68.3038 181.89 70.3208C186.815 72.3378 191.741 73.3463 196.666 73.3463C199.744 73.3463 202.207 72.9955 204.054 72.294C205.989 71.5047 206.956 70.1892 206.956 68.3476C206.956 67.0321 206.253 65.8921 204.845 64.9274C203.438 63.9627 201.547 63.1296 199.172 62.4281L186.639 58.4817C181.714 56.9031 177.888 54.7546 175.162 52.0359C172.435 49.3173 170.544 46.2918 169.489 42.9593C168.434 39.5391 167.906 36.0751 167.906 32.5672C167.906 26.3407 169.489 21.1227 172.655 16.9133C175.821 12.6161 179.955 9.37133 185.056 7.1789C190.157 4.98647 195.566 3.89026 201.283 3.89026Z" fill="#5BB5A7"/>
<g filter="url(#filter0_d_37_12357)">
<path d="M137.127 4.28961C141.693 4.28961 146.124 5.04835 150.421 6.56582C154.807 8.08329 158.746 10.3149 162.238 13.2606C165.729 16.2062 168.504 19.7768 170.563 23.9721C172.712 28.1675 173.786 32.8984 173.786 38.165C173.786 45.0382 172.175 50.9742 168.952 55.9729C165.729 60.8824 161.522 64.6315 156.329 67.2201C151.137 69.8087 145.631 71.103 139.813 71.103C136.411 71.103 133.367 70.7906 130.681 70.1658C127.996 69.4517 125.668 68.559 123.699 67.4879V93.999H98.5879V4.28961H137.127ZM123.699 27.7212V48.4748C125.221 49.0104 126.832 49.4567 128.533 49.8138C130.323 50.1708 132.203 50.3494 134.173 50.3494C138.112 50.3494 141.379 49.1443 143.975 46.7342C146.661 44.2348 148.004 41.3784 148.004 38.165C148.004 34.5052 146.661 31.8719 143.975 30.2652C141.379 28.5692 138.112 27.7212 134.173 27.7212H123.699Z" fill="#000091"/>
</g>
<defs>
<filter id="filter0_d_37_12357" x="92.5879" y="0.289612" width="87.1981" height="101.709" filterUnits="userSpaceOnUse" color-interpolation-filters="sRGB">
<feFlood flood-opacity="0" result="BackgroundImageFix"/>
<feColorMatrix in="SourceAlpha" type="matrix" values="0 0 0 0 0 0 0 0 0 0 0 0 0 0 0 0 0 0 127 0" result="hardAlpha"/>
<feOffset dy="2"/>
<feGaussianBlur stdDeviation="3"/>
<feColorMatrix type="matrix" values="0 0 0 0 0 0 0 0 0 0 0 0 0 0 0.0705882 0 0 0 0.16 0"/>
<feBlend mode="normal" in2="BackgroundImageFix" result="effect1_dropShadow_37_12357"/>
<feBlend mode="normal" in="SourceGraphic" in2="effect1_dropShadow_37_12357" result="shape"/>
</filter>
</defs>
</svg>
