<svg width="767" height="333" viewBox="0 0 767 333" fill="none" xmlns="http://www.w3.org/2000/svg">
<g clip-path="url(#clip0_427_11757)">
<rect width="767" height="333" />
<g opacity="0.6">
<path d="M163.88 190.829L103.42 162.429C93.7105 157.868 81.594 161.873 76.8261 172.024C72.2654 181.733 76.2705 193.849 86.4209 198.617L129.229 218.725L109.121 261.533C104.56 271.242 108.565 283.359 118.716 288.127C123.57 290.407 129.02 290.274 134.001 288.843C138.542 287.205 143.029 283.387 145.309 278.532L173.709 218.071C175.99 213.217 175.856 207.767 174.425 202.785C172.319 196.948 168.735 193.109 163.88 190.829Z" fill="#9090FF"/>
<path d="M257.782 161.491L197.321 133.091C187.612 128.53 175.548 132.423 170.847 142.431C166.351 152.003 170.411 164.001 180.561 168.769L223.37 188.877L203.545 231.083C199.048 240.655 203.109 252.653 213.259 257.421C218.114 259.702 223.549 259.599 228.51 258.212C233.03 256.617 237.485 252.867 239.733 248.081L267.733 188.472C269.981 183.686 269.819 178.298 268.364 173.366C266.232 167.585 262.636 163.771 257.782 161.491Z" fill="#FCC63A"/>
</g>
<path d="M97.24 214V158H111.4L125.08 181.52L138.76 158H152.92V214H141.56V173.84L129.08 194.8H121.08L108.6 173.84V214H97.24ZM185.843 172.08C198.963 172.08 207.923 181.76 207.923 193.84C207.923 205.92 198.963 215.6 185.843 215.6C172.723 215.6 163.763 205.92 163.763 193.84C163.763 181.76 172.723 172.08 185.843 172.08ZM186.003 206C192.483 206 197.363 200.8 197.363 193.84C197.363 186.8 192.483 181.68 186.003 181.68C179.283 181.68 174.323 186.8 174.323 193.84C174.323 200.88 179.283 206 186.003 206ZM217.189 214V173.68H227.349V176.88C230.149 174.16 233.909 172.08 239.269 172.08C247.989 172.08 254.949 178.08 254.949 190V214H244.709V190.4C244.709 185.04 241.669 181.68 236.709 181.68C231.589 181.68 228.869 185.12 227.349 187.68V214H217.189ZM268.646 214V158H287.126C299.446 158 306.966 164.32 306.966 174.72C306.966 185.04 299.446 191.36 287.126 191.36H280.006V214H268.646ZM287.606 167.44H280.006V181.92H287.606C292.406 181.92 295.286 179.12 295.286 174.56C295.286 170.32 292.406 167.44 287.606 167.44ZM314.846 214V173.68H325.006V177.68C327.646 174.96 331.086 172.88 335.646 172.88C337.006 172.88 338.206 173.12 339.166 173.44V183.44C337.886 183.12 336.526 182.88 334.686 182.88C329.726 182.88 326.526 185.6 325.006 188.16V214H314.846ZM364.827 172.08C377.947 172.08 386.907 181.76 386.907 193.84C386.907 205.92 377.947 215.6 364.827 215.6C351.707 215.6 342.747 205.92 342.747 193.84C342.747 181.76 351.707 172.08 364.827 172.08ZM364.987 206C371.467 206 376.347 200.8 376.347 193.84C376.347 186.8 371.467 181.68 364.987 181.68C358.267 181.68 353.307 186.8 353.307 193.84C353.307 200.88 358.267 206 364.987 206ZM400.978 166.64C397.378 166.64 394.338 163.6 394.338 160C394.338 156.4 397.378 153.36 400.978 153.36C404.498 153.36 407.538 156.4 407.538 160C407.538 163.6 404.498 166.64 400.978 166.64ZM406.178 218.32C406.178 228.4 401.458 234 391.298 234C387.937 234 385.617 233.6 383.617 232.72V223.84C384.897 224.4 386.817 224.72 389.617 224.72C393.618 224.72 396.018 222.96 396.018 218.32V173.68H406.178V218.32ZM455.481 207.44C451.721 212.48 445.481 215.6 437.881 215.6C423.561 215.6 415.481 205.6 415.481 193.84C415.481 181.92 423.001 172.08 436.201 172.08C447.401 172.08 454.761 179.68 454.761 190.24C454.761 192.48 454.441 194.56 454.121 195.92H425.881C426.841 203.44 431.481 206.48 437.801 206.48C442.201 206.48 446.041 204.56 448.201 201.68L455.481 207.44ZM435.961 180.4C430.761 180.4 427.321 183.28 426.201 188.56H444.761C444.601 184.48 441.641 180.4 435.961 180.4ZM467.171 199.28V182.8H459.651V173.68H467.171V163.6H477.411V173.68H489.731V182.8H477.411V199.28C477.411 203.76 479.811 205.52 483.811 205.52C486.611 205.52 488.451 205.2 489.811 204.64V213.52C487.811 214.4 485.411 214.8 482.051 214.8C471.971 214.8 467.171 209.12 467.171 199.28Z" fill="#6A6AF4"/>
<path d="M495.95 206.24L504.19 198.64C507.55 202.96 512.03 205.52 516.59 205.52C521.07 205.52 523.79 203.12 523.79 199.12C523.79 188.8 498.35 191.6 498.35 172.64C498.35 163.76 505.71 156.4 516.43 156.4C524.83 156.4 531.23 160.16 536.03 165.84L527.71 173.36C524.43 169.12 520.75 166.32 516.51 166.32C512.51 166.32 509.87 168.88 509.87 172.24C509.87 182.4 535.31 179.52 535.31 198.72C535.15 209.28 526.99 215.6 516.67 215.6C507.23 215.6 500.91 212.16 495.95 206.24ZM580.421 193.04V158H591.781V192.08C591.781 206.8 583.141 215.6 569.061 215.6C555.061 215.6 546.421 206.8 546.421 192.08V158H557.781V193.04C557.781 200.56 562.021 204.96 569.141 204.96C576.101 204.96 580.421 200.56 580.421 193.04Z" fill="#FCC63A"/>
<rect x="604" y="154" width="15" height="88.6364" rx="7.5" fill="#FCC63A"/>
<path d="M629.526 214.016C633.531 214.015 637.497 213.224 641.198 211.69C644.898 210.155 648.259 207.907 651.091 205.074C653.922 202.24 656.167 198.877 657.699 195.176C659.23 191.474 660.018 187.508 660.016 183.502C660.015 179.497 659.224 175.53 657.69 171.83C656.155 168.13 653.907 164.769 651.074 161.937C648.24 159.106 644.877 156.861 641.176 155.329C637.474 153.798 633.508 153.01 629.502 153.012L629.514 183.514L629.526 214.016Z" fill="#6A6AF4"/>
</g>
<defs>
<clipPath id="clip0_427_11757">
<rect width="767" height="333" fill="white"/>
</clipPath>
</defs>
</svg>
