<svg width="64" height="62" viewBox="0 0 64 62" fill="none" xmlns="http://www.w3.org/2000/svg">
<g id="Majeure">
<path d="M23.1996 0.199646C30.7391 0.199646 36.7163 4.66247 39.6203 11.8895C39.8468 12.4532 39.5734 13.0938 39.0097 13.3203C38.446 13.5468 37.8054 13.2735 37.5789 12.7098C34.9958 6.28122 29.797 2.39965 23.1996 2.39965C14.0869 2.39965 6.69961 9.78695 6.69961 18.8996C6.69961 22.4371 7.81424 25.8035 9.85193 28.6017C10.1103 28.9565 10.1307 29.4262 9.91577 29.7986L9.83542 29.9189L5.62931 35.3996H12.1996C12.7637 35.3996 13.2287 35.8243 13.2922 36.3714L13.2996 36.4996C13.2996 37.0638 12.875 37.5287 12.3279 37.5922L12.1996 37.5996H3.39961C2.52905 37.5996 2.01944 36.6465 2.45777 35.9306L2.5269 35.83L7.60161 29.2154L7.53942 29.1235C5.65549 26.2441 4.59437 22.8916 4.50566 19.3795L4.49961 18.8996C4.49961 8.57192 12.8719 0.199646 23.1996 0.199646Z" fill="#000091"/>
<path d="M39.6996 17.7996C51.8499 17.7996 61.6996 27.6494 61.6996 39.7996C61.6996 43.2434 60.9069 46.5761 59.4047 49.5931C59.1339 50.1369 58.4736 50.3583 57.9297 50.0875C57.3859 49.8167 57.1646 49.1564 57.4353 48.6125C58.7867 45.8985 59.4996 42.9011 59.4996 39.7996C59.4996 28.8644 50.6348 19.9996 39.6996 19.9996C28.7644 19.9996 19.8996 28.8644 19.8996 39.7996C19.8996 50.6134 28.5685 59.4024 39.3359 59.5964L39.6996 59.5996H58.5437L55.2844 54.7098C54.9714 54.2404 55.0669 53.618 55.4868 53.2617L55.5894 53.1844C56.0588 52.8715 56.6812 52.9669 57.0376 53.3868L57.1149 53.4895L61.5149 60.0895C61.979 60.7857 61.5258 61.707 60.7226 61.7931L60.5996 61.7996H39.6996C27.5493 61.7996 17.6996 51.9499 17.6996 39.7996C17.6996 27.6494 27.5493 17.7996 39.6996 17.7996Z" fill="#000091"/>
<path d="M48.4996 7.89965C48.4996 8.50619 48.9931 8.99965 49.5996 8.99965C50.2062 8.99965 50.6996 8.50619 50.6996 7.89965C50.6996 7.29305 50.2062 6.79965 49.5996 6.79965C48.9931 6.79965 48.4996 7.29305 48.4996 7.89965Z" fill="#000091"/>
<path d="M53.9996 8.99965C53.3931 8.99965 52.8996 8.50619 52.8996 7.89965C52.8996 7.29305 53.3931 6.79965 53.9996 6.79965C54.6062 6.79965 55.0996 7.29305 55.0996 7.89965C55.0996 8.50619 54.6062 8.99965 53.9996 8.99965Z" fill="#000091"/>
<path d="M57.2996 7.89965C57.2996 8.50619 57.7931 8.99965 58.3996 8.99965C59.0061 8.99965 59.4996 8.50619 59.4996 7.89965C59.4996 7.29305 59.0061 6.79965 58.3996 6.79965C57.7931 6.79965 57.2996 7.29305 57.2996 7.89965Z" fill="#000091"/>
<path fill-rule="evenodd" clip-rule="evenodd" d="M62.7996 2.39965H45.1996C44.5921 2.39965 44.0996 2.89213 44.0996 3.49965V12.2996L44.107 12.4279C44.1706 12.975 44.6355 13.3996 45.1996 13.3996H53.5431L57.6218 17.4775L57.7148 17.5612C58.4155 18.1268 59.4996 17.637 59.4996 16.6996V13.3996H62.7996C63.4071 13.3996 63.8996 12.9072 63.8996 12.2996V3.49965C63.8996 2.89213 63.4071 2.39965 62.7996 2.39965ZM61.6996 4.59965V11.1996H58.3996L58.2713 11.207C57.7243 11.2706 57.2996 11.7355 57.2996 12.2996V14.0431L54.7774 11.5218L54.6684 11.4263C54.4775 11.2801 54.2427 11.1996 53.9996 11.1996H46.2996V4.59965H61.6996Z" fill="#000091"/>
<path d="M5.59961 50.7996C6.20712 50.7996 6.69961 51.2921 6.69961 51.8996C6.69961 52.4638 6.27497 52.9287 5.72789 52.9922L5.59961 52.9996H1.19961C0.592096 52.9996 0.0996094 52.5072 0.0996094 51.8996C0.0996094 51.3355 0.524254 50.8706 1.07133 50.807L1.19961 50.7996H5.59961Z" fill="#000091"/>
<path d="M8.89961 51.8996C8.89961 52.5062 9.39307 52.9996 9.99961 52.9996C10.6061 52.9996 11.0996 52.5062 11.0996 51.8996C11.0996 51.2931 10.6061 50.7996 9.99961 50.7996C9.39307 50.7996 8.89961 51.2931 8.89961 51.8996Z" fill="#000091"/>
<path d="M14.3996 52.9996C13.7931 52.9996 13.2996 52.5062 13.2996 51.8996C13.2996 51.2931 13.7931 50.7996 14.3996 50.7996C15.0062 50.7996 15.4996 51.2931 15.4996 51.8996C15.4996 52.5062 15.0062 52.9996 14.3996 52.9996Z" fill="#000091"/>
</g>
<g transform="translate(14,9)">
<path d="M15.7008 1.29965C15.7008 0.692133 15.2083 0.199646 14.6008 0.199646H1.40078L1.2725 0.207046C0.725425 0.270588 0.300781 0.735527 0.300781 1.29965C0.300781 1.90716 0.793268 2.39965 1.40078 2.39965H14.6008L14.7291 2.39225C15.2761 2.3287 15.7008 1.86377 15.7008 1.29965Z" fill="#5BB5A7"/>
<path d="M17.9008 19.9996C16.6858 19.9996 15.7008 20.9846 15.7008 22.1996C15.7008 24.9354 16.8103 26.5996 19.0008 26.5996C19.6083 26.5996 20.1008 26.1072 20.1008 25.4996C20.1008 24.8921 19.6083 24.3996 19.0008 24.3996L18.8973 24.3959C18.766 24.3862 18.648 24.357 18.543 24.3044C19.4448 24.0296 20.1008 23.1912 20.1008 22.1996C20.1008 20.9846 19.1158 19.9996 17.9008 19.9996Z" fill="#5BB5A7"/>
<path d="M22.3008 22.1996C22.3008 20.9846 23.2858 19.9996 24.5008 19.9996C25.7158 19.9996 26.7008 20.9846 26.7008 22.1996C26.7008 23.1912 26.0448 24.0296 25.143 24.3044C25.248 24.357 25.366 24.3862 25.4973 24.3959L25.6008 24.3996C26.2083 24.3996 26.7008 24.8921 26.7008 25.4996C26.7008 26.1072 26.2083 26.5996 25.6008 26.5996C23.4103 26.5996 22.3008 24.9354 22.3008 22.1996Z" fill="#5BB5A7"/>
<path d="M12.4008 4.59965C13.0083 4.59965 13.5008 5.09213 13.5008 5.69965C13.5008 6.26376 13.0761 6.7287 12.5291 6.79224L12.4008 6.79965H1.40078C0.793268 6.79965 0.300781 6.30716 0.300781 5.69965C0.300781 5.13553 0.725425 4.67059 1.2725 4.60705L1.40078 4.59965H12.4008Z" fill="#5BB5A7"/>
<path d="M9.10078 10.0996C9.10078 9.49213 8.60829 8.99965 8.00078 8.99965H1.40078L1.2725 9.00705C0.725425 9.07059 0.300781 9.53553 0.300781 10.0996C0.300781 10.7072 0.793268 11.1996 1.40078 11.1996H8.00078L8.12906 11.1922C8.67614 11.1287 9.10078 10.6638 9.10078 10.0996Z" fill="#5BB5A7"/>
<path d="M36.6008 30.9996C37.2083 30.9996 37.7008 31.4921 37.7008 32.0996C37.7008 32.6638 37.2761 33.1287 36.7291 33.1922L36.6008 33.1996H16.8008C16.1933 33.1996 15.7008 32.7072 15.7008 32.0996C15.7008 31.5355 16.1254 31.0706 16.6725 31.007L16.8008 30.9996H36.6008Z" fill="#5BB5A7"/>
<path d="M33.3008 36.4996C33.3008 35.8921 32.8083 35.3996 32.2008 35.3996H16.8008L16.6725 35.407C16.1254 35.4706 15.7008 35.9355 15.7008 36.4996C15.7008 37.1072 16.1933 37.5996 16.8008 37.5996H32.2008L32.3291 37.5922C32.8761 37.5287 33.3008 37.0638 33.3008 36.4996Z" fill="#5BB5A7"/>
</g>

</svg>
