<svg width="38" height="38" viewBox="0 0 38 38" fill="none" xmlns="http://www.w3.org/2000/svg">
<g id="&#240;&#159;&#142;&#168; Mineure (indice -main)">
<path d="M15.7008 1.29965C15.7008 0.692133 15.2083 0.199646 14.6008 0.199646H1.40078L1.2725 0.207046C0.725425 0.270588 0.300781 0.735527 0.300781 1.29965C0.300781 1.90716 0.793268 2.39965 1.40078 2.39965H14.6008L14.7291 2.39225C15.2761 2.3287 15.7008 1.86377 15.7008 1.29965Z" fill="#5BB5A7"/>
<path d="M17.9008 19.9996C16.6858 19.9996 15.7008 20.9846 15.7008 22.1996C15.7008 24.9354 16.8103 26.5996 19.0008 26.5996C19.6083 26.5996 20.1008 26.1072 20.1008 25.4996C20.1008 24.8921 19.6083 24.3996 19.0008 24.3996L18.8973 24.3959C18.766 24.3862 18.648 24.357 18.543 24.3044C19.4448 24.0296 20.1008 23.1912 20.1008 22.1996C20.1008 20.9846 19.1158 19.9996 17.9008 19.9996Z" fill="#5BB5A7"/>
<path d="M22.3008 22.1996C22.3008 20.9846 23.2858 19.9996 24.5008 19.9996C25.7158 19.9996 26.7008 20.9846 26.7008 22.1996C26.7008 23.1912 26.0448 24.0296 25.143 24.3044C25.248 24.357 25.366 24.3862 25.4973 24.3959L25.6008 24.3996C26.2083 24.3996 26.7008 24.8921 26.7008 25.4996C26.7008 26.1072 26.2083 26.5996 25.6008 26.5996C23.4103 26.5996 22.3008 24.9354 22.3008 22.1996Z" fill="#5BB5A7"/>
<path d="M12.4008 4.59965C13.0083 4.59965 13.5008 5.09213 13.5008 5.69965C13.5008 6.26376 13.0761 6.7287 12.5291 6.79224L12.4008 6.79965H1.40078C0.793268 6.79965 0.300781 6.30716 0.300781 5.69965C0.300781 5.13553 0.725425 4.67059 1.2725 4.60705L1.40078 4.59965H12.4008Z" fill="#5BB5A7"/>
<path d="M9.10078 10.0996C9.10078 9.49213 8.60829 8.99965 8.00078 8.99965H1.40078L1.2725 9.00705C0.725425 9.07059 0.300781 9.53553 0.300781 10.0996C0.300781 10.7072 0.793268 11.1996 1.40078 11.1996H8.00078L8.12906 11.1922C8.67614 11.1287 9.10078 10.6638 9.10078 10.0996Z" fill="#5BB5A7"/>
<path d="M36.6008 30.9996C37.2083 30.9996 37.7008 31.4921 37.7008 32.0996C37.7008 32.6638 37.2761 33.1287 36.7291 33.1922L36.6008 33.1996H16.8008C16.1933 33.1996 15.7008 32.7072 15.7008 32.0996C15.7008 31.5355 16.1254 31.0706 16.6725 31.007L16.8008 30.9996H36.6008Z" fill="#5BB5A7"/>
<path d="M33.3008 36.4996C33.3008 35.8921 32.8083 35.3996 32.2008 35.3996H16.8008L16.6725 35.407C16.1254 35.4706 15.7008 35.9355 15.7008 36.4996C15.7008 37.1072 16.1933 37.5996 16.8008 37.5996H32.2008L32.3291 37.5922C32.8761 37.5287 33.3008 37.0638 33.3008 36.4996Z" fill="#5BB5A7"/>
</g>
</svg>
