<?xml version="1.0" encoding="utf-8"?>
<!-- Generator: Adobe Illustrator 27.5.0, SVG Export Plug-In . SVG Version: 6.00 Build 0)  -->
<svg version="1.1" id="Layer_1" xmlns="http://www.w3.org/2000/svg" xmlns:xlink="http://www.w3.org/1999/xlink" x="0px" y="0px"
	 width="200px" height="200px" viewBox="0 0 200 200" style="enable-background:new 0 0 200 200;" xml:space="preserve">
<path d="M156.7,20.8c17.2,11.7,30.9,28.8,36.4,48c5.4,19.2,2.7,40.6-3.7,60.8c-6.5,20.2-16.6,39.3-32.4,51.4
	c-15.7,12.1-37,17.3-57.4,16c-20.3-1.2-39.9-8.9-55.6-21c-15.7-12.2-27.5-28.8-33.8-47.4c-6.3-18.7-7.1-39.3-1.1-57.7
	C15,52.2,27.6,35.9,43.7,23.7C59.7,11.7,79.2,4,99.1,3.3C119.1,2.7,139.6,9.1,156.7,20.8z"/>
</svg>
