<?xml version="1.0" encoding="utf-8"?>
<!-- Generator: Adobe Illustrator 27.5.0, SVG Export Plug-In . SVG Version: 6.00 Build 0)  -->
<svg version="1.1" id="Layer_1" xmlns="http://www.w3.org/2000/svg" xmlns:xlink="http://www.w3.org/1999/xlink" x="0px" y="0px"
	 width="200px" height="200px" viewBox="0 0 200 200" style="enable-background:new 0 0 200 200;" xml:space="preserve">
<style type="text/css">
	.st0{fill-rule:evenodd;clip-rule:evenodd;}
</style>
<path class="st0" d="M50,100c27.6,0,50-22.4,50-50c0,27.6,22.4,50,50,50c-27.6,0-50,22.4-50,50C100,122.4,77.6,100,50,100z M50,100
	c-27.6,0-50,22.4-50,50s22.4,50,50,50s50-22.4,50-50c0,27.6,22.4,50,50,50s50-22.4,50-50s-22.4-50-50-50c27.6,0,50-22.4,50-50
	S177.6,0,150,0s-50,22.4-50,50c0-27.6-22.4-50-50-50S0,22.4,0,50S22.4,100,50,100z"/>
</svg>
