<?xml version="1.0" encoding="utf-8"?>
<!-- Generator: Adobe Illustrator 27.5.0, SVG Export Plug-In . SVG Version: 6.00 Build 0)  -->
<svg version="1.1" id="Layer_1" xmlns="http://www.w3.org/2000/svg" xmlns:xlink="http://www.w3.org/1999/xlink" x="0px" y="0px"
	 width="200px" height="200px" viewBox="0 0 200 200" style="enable-background:new 0 0 200 200;" xml:space="preserve">
<path d="M183.7,87c17-10.3,13.7-21.7-6.3-21C191,51.3,185,41.7,166,47.3c9.7-17.7,1-25.7-16-15c4.7-19.3-5.7-25-19.3-10.3
	c-0.3-20.3-12-22.7-21.7-4.7c-5.7-19.7-17.7-19.7-22,0.3C76.3,0.7,65.3,4,66,24c-14.7-13.7-24.3-7.7-18.7,11.7
	c-17.7-9.3-25.7-1-15,16C13,47,7.3,57.3,22,71C2.3,71.7-0.7,82.7,16.7,92c-18.7,5.7-18,17.3,1.3,21.7c-17,10.3-13.7,21.7,6.3,21
	c-13.7,14.7-7.7,24.3,11.3,18.7c-9.7,17.7-1,25.7,16,15c-4.7,19.3,5.7,25,19.3,10.3c0.3,20.3,12,22.7,21.7,4.7
	c5.7,19.7,17.7,19.7,22-0.3c10.7,17,21.7,13.7,21-6.3c14.7,13.7,24.3,7.7,18.7-11.7c17.7,9.3,25.7,1,15-16
	c19.3,4.7,25-5.7,10.3-19.3c19.7-0.7,22.7-11.7,5.3-21C203.7,102.7,203,91.3,183.7,87L183.7,87z"/>
</svg>
