<?xml version="1.0" encoding="utf-8"?>
<!-- Generator: Adobe Illustrator 27.5.0, SVG Export Plug-In . SVG Version: 6.00 Build 0)  -->
<svg version="1.1" id="Layer_1" xmlns="http://www.w3.org/2000/svg" xmlns:xlink="http://www.w3.org/1999/xlink" x="0px" y="0px"
	 width="200px" height="200px" viewBox="0 0 200 200" style="enable-background:new 0 0 200 200;" xml:space="preserve">
<path d="M197.6,84.7c-45.4,3.4-47.1-2.4-7.5-24.4c-43.1,14.9-46.1,9.8-13.6-21.7C139,64.4,134.6,60.3,158,21
	c-29.8,34.6-34.9,31.9-22.4-12.2c-19.7,41-25.8,39.7-25.1-5.4c-8.1,44.1-14.2,44.4-25.8,0.3c3.7,45.4-2,47.1-24.4,7.5
	c15.3,43.1,10.2,46.1-21.7,13.6c25.8,37.6,21.7,41.7-17.3,18.6C55.9,72.8,53.2,78.3,9.5,66.1c41.4,19.7,40,25.1-6.4,24.4
	c45.4,8.5,45.8,14.2,1.4,25.4c45.4-3.4,47.1,2.4,7.5,24.4c43.1-14.9,46.1-9.8,13.6,21.7c37.6-25.8,42-21.7,18.6,17.6
	c29.8-34.6,34.9-31.9,22.4,12.2c19.7-41,25.8-39.7,25.1,5.4c8.1-44.1,14.2-44.4,25.8-0.3c-3.7-45.4,2-47.1,24.4-7.5
	c-15.3-43.1-10.2-46.1,21.7-13.6c-25.8-37.6-21.7-41.7,17.3-18.6c-34.9-29.5-31.9-34.9,11.9-22.7c-41.4-19.7-40-25.1,6.4-24.4
	C153.6,101.7,153.2,95.9,197.6,84.7z"/>
</svg>
