<?xml version="1.0" encoding="utf-8"?>
<!-- Generator: Adobe Illustrator 27.5.0, SVG Export Plug-In . SVG Version: 6.00 Build 0)  -->
<svg version="1.1" id="Capa_1" xmlns="http://www.w3.org/2000/svg" xmlns:xlink="http://www.w3.org/1999/xlink" x="0px" y="0px"
	 width="200px" height="200px" viewBox="0 0 200 200" style="enable-background:new 0 0 200 200;" xml:space="preserve">
<path d="M105.4,90.7H94.6c-2.2,0-3.9,1.7-3.9,3.9v10.6c0,2.2,1.7,3.9,3.9,3.9h10.6c2.2,0,3.9-1.7,3.9-3.9V94.6
	C109.3,92.5,107.5,90.7,105.4,90.7z M75.2,30.5H64.6c-2.2,0-3.9,1.7-3.9,3.9v10.6c0,2.2,1.7,3.9,3.9,3.9h10.6c2.2,0,3.9-1.7,3.9-3.9
	V34.5C79.1,32.3,77.4,30.5,75.2,30.5z M85,169.5h20.4c2.2,0,3.9-1.7,3.9-3.9v-40.8c0-2.2-1.7-3.9-3.9-3.9H64.6
	c-2.2,0-3.9,1.7-3.9,3.9v40.8c0,2.2,1.7,3.9,3.9,3.9H85L85,169.5L85,169.5z M135.4,150.9h-10.6c-2.2,0-3.9,1.7-3.9,3.9v10.6
	c0,2.2,1.7,3.9,3.9,3.9h10.6c2.2,0,3.9-1.7,3.9-3.9v-10.6C139.3,152.7,137.6,150.9,135.4,150.9z M135.4,79.1c2.2,0,3.9-1.7,3.9-3.9
	V34.4c0-2.2-1.7-3.9-3.9-3.9H94.6c-2.2,0-3.9,1.7-3.9,3.9v40.8c0,2.2,1.7,3.9,3.9,3.9H135.4L135.4,79.1z M75.2,109.3
	c2.2,0,3.9-1.7,3.9-3.9V64.6c0-2.2-1.7-3.9-3.9-3.9H34.4c-2.2,0-3.9,1.7-3.9,3.9v40.8c0,2.2,1.7,3.9,3.9,3.9H75.2L75.2,109.3z
	 M185,139.3h10.6c2.2,0,3.9-1.7,3.9-3.9v-10.6c0-2.2-1.7-3.9-3.9-3.9H185c-2.2,0-3.9,1.7-3.9,3.9v10.6
	C181.1,137.6,182.8,139.3,185,139.3z M34.5,139.3h10.6c2.2,0,3.9-1.7,3.9-3.9v-10.6c0-2.2-1.7-3.9-3.9-3.9H34.5
	c-2.2,0-3.9,1.7-3.9,3.9v10.6C30.6,137.6,32.3,139.3,34.5,139.3z M185,60.7c-2.2,0-3.9,1.7-3.9,3.9v40.8c0,2.2,1.7,3.9,3.9,3.9h10.6
	c2.2,0,3.9-1.7,3.9-3.9V64.6c0-2.2-1.7-3.9-3.9-3.9C195.6,60.7,185,60.7,185,60.7z M150.9,45.2c0,2.2,1.7,3.9,3.9,3.9h40.8
	c2.2,0,3.9-1.7,3.9-3.9V4.4c0-2.2-1.7-3.9-3.9-3.9h-40.8c-2.2,0-3.9,1.7-3.9,3.9V45.2L150.9,45.2z M165.6,139.3
	c2.2,0,3.9-1.7,3.9-3.9V94.6c0-2.2-1.7-3.9-3.9-3.9h-40.8c-2.2,0-3.9,1.7-3.9,3.9v40.8c0,2.2,1.7,3.9,3.9,3.9H165.6z M15,60.7H4.4
	c-2.2,0-3.9,1.7-3.9,3.9v10.6c0,2.2,1.7,3.9,3.9,3.9H15c2.2,0,3.9-1.7,3.9-3.9V64.6C18.9,62.4,17.2,60.7,15,60.7z M165.6,60.7h-10.6
	c-2.2,0-3.9,1.7-3.9,3.9v10.6c0,2.2,1.7,3.9,3.9,3.9h10.6c2.2,0,3.9-1.7,3.9-3.9V64.6C169.5,62.4,167.7,60.7,165.6,60.7z M60.7,185
	v10.6c0,2.2,1.7,3.9,3.9,3.9h10.6c2.2,0,3.9-1.7,3.9-3.9V185c0-2.2-1.7-3.9-3.9-3.9H64.6C62.4,181.1,60.7,182.8,60.7,185z
	 M199.5,154.8c0-2.2-1.7-3.9-3.9-3.9h-40.8c-2.2,0-3.9,1.7-3.9,3.9v40.8c0,2.2,1.7,3.9,3.9,3.9h40.8c2.2,0,3.9-1.7,3.9-3.9V154.8
	L199.5,154.8z M90.7,185v10.6c0,2.2,1.7,3.9,3.9,3.9h40.8c2.2,0,3.9-1.7,3.9-3.9V185c0-2.2-1.7-3.9-3.9-3.9H94.6
	C92.5,181.1,90.7,182.8,90.7,185z M0.5,154.8v40.8c0,2.2,1.7,3.9,3.9,3.9h40.8c2.2,0,3.9-1.7,3.9-3.9v-40.8c0-2.2-1.7-3.9-3.9-3.9
	H4.4C2.3,150.9,0.5,152.7,0.5,154.8z M15,90.7H4.4c-2.2,0-3.9,1.7-3.9,3.9v40.8c0,2.2,1.7,3.9,3.9,3.9H15c2.2,0,3.9-1.7,3.9-3.9
	V94.6C18.9,92.5,17.2,90.7,15,90.7z M85,18.9h20.4c2.2,0,3.9-1.7,3.9-3.9V4.4c0-2.2-1.7-3.9-3.9-3.9H64.6c-2.2,0-3.9,1.7-3.9,3.9V15
	c0,2.2,1.7,3.9,3.9,3.9H85z M139.3,15V4.4c0-2.2-1.7-3.9-3.9-3.9h-10.6c-2.2,0-3.9,1.7-3.9,3.9V15c0,2.2,1.7,3.9,3.9,3.9h10.6
	C137.6,18.9,139.3,17.2,139.3,15z M0.5,45.2c0,2.2,1.7,3.9,3.9,3.9h40.8c2.2,0,3.9-1.7,3.9-3.9V4.4c0-2.2-1.8-3.9-3.9-3.9H4.4
	c-2.1,0-3.9,1.7-3.9,3.9V45.2z"/>
</svg>
