<svg width="299" height="145" viewBox="0 0 299 145" fill="none" xmlns="http://www.w3.org/2000/svg">
<g opacity="0.6" clip-path="url(#clip0_2735_52386)">
<path opacity="0.6" d="M6.99084 112.956C121.707 101.003 312.375 110.243 317.493 110.243L6.99084 112.956Z" fill="white"/>
</g>
<path d="M133.597 4.59912V83.9995H111.879V45.4669L95.9675 63.5655H89.4636L73.5524 45.4669V83.9995H51.8341V4.59912H59.4994L92.7155 38.461L125.932 4.59912H133.597Z" fill="#FA7659"/>
<path d="M228.318 4.01538C232.886 4.01538 237.377 4.59921 241.79 5.76686C246.281 6.85667 249.881 8.33569 252.591 10.2039V31.3384C249.262 29.3924 245.971 27.7187 242.719 26.3175C239.467 24.8385 235.635 24.099 231.221 24.099C228.666 24.099 226.46 24.4882 224.601 25.2666C222.743 26.0451 221.814 27.3295 221.814 29.1199C221.814 31.066 222.937 32.545 225.182 33.557C227.427 34.4911 230.176 35.5809 233.428 36.8264L241.79 39.9791C247.442 42.1587 251.43 45.1167 253.753 48.8532C256.153 52.5897 257.353 56.3262 257.353 60.0627C257.353 65.0447 255.921 69.4817 253.056 73.3739C250.191 77.1882 246.32 80.2241 241.442 82.4816C236.564 84.6612 231.105 85.751 225.066 85.751C220.42 85.751 215.813 84.9337 211.245 83.299C206.677 81.6642 202.69 79.6403 199.283 77.2272V56.0927C202.999 58.895 206.987 61.1914 211.245 62.9818C215.581 64.7722 219.917 65.6674 224.253 65.6674C226.963 65.6674 229.131 65.356 230.757 64.7333C232.46 64.0327 233.312 62.865 233.312 61.2303C233.312 60.0627 232.692 59.0507 231.454 58.1944C230.215 57.3382 228.55 56.5986 226.46 55.9759L215.426 52.4729C211.09 51.0718 207.722 49.1646 205.322 46.7514C202.922 44.3383 201.257 41.6527 200.328 38.6946C199.399 35.6588 198.934 32.5839 198.934 29.4702C198.934 23.9433 200.328 19.3116 203.115 15.5751C205.903 11.7608 209.542 8.8806 214.033 6.93451C218.523 4.98842 223.285 4.01538 228.318 4.01538Z" fill="#73E0CF"/>
<g filter="url(#filter0_d_2735_52386)">
<path d="M171.838 4.36987C175.858 4.36987 179.759 5.04336 183.542 6.39033C187.403 7.7373 190.871 9.71814 193.944 12.3328C197.018 14.9475 199.461 18.1169 201.274 21.8409C203.165 25.5648 204.111 29.7642 204.111 34.439C204.111 40.54 202.692 45.809 199.855 50.2461C197.018 54.6039 193.314 57.9317 188.743 60.2295C184.172 62.5273 179.325 63.6762 174.203 63.6762C171.208 63.6762 168.528 63.3989 166.164 62.8442C163.8 62.2104 161.751 61.418 160.017 60.4672V83.9996H137.911V4.36987H171.838ZM160.017 25.1687V43.5905C161.357 44.0659 162.775 44.462 164.273 44.779C165.849 45.0959 167.504 45.2544 169.238 45.2544C172.705 45.2544 175.582 44.1847 177.867 42.0454C180.232 39.8269 181.414 37.2914 181.414 34.439C181.414 31.1904 180.232 28.853 177.867 27.4268C175.582 25.9214 172.705 25.1687 169.238 25.1687H160.017Z" fill="white"/>
</g>
<defs>
<filter id="filter0_d_2735_52386" x="131.911" y="0.369873" width="78.2001" height="91.6296" filterUnits="userSpaceOnUse" color-interpolation-filters="sRGB">
<feFlood flood-opacity="0" result="BackgroundImageFix"/>
<feColorMatrix in="SourceAlpha" type="matrix" values="0 0 0 0 0 0 0 0 0 0 0 0 0 0 0 0 0 0 127 0" result="hardAlpha"/>
<feOffset dy="2"/>
<feGaussianBlur stdDeviation="3"/>
<feColorMatrix type="matrix" values="0 0 0 0 0 0 0 0 0 0 0 0 0 0 0.0705882 0 0 0 0.16 0"/>
<feBlend mode="normal" in2="BackgroundImageFix" result="effect1_dropShadow_2735_52386"/>
<feBlend mode="normal" in="SourceGraphic" in2="effect1_dropShadow_2735_52386" result="shape"/>
</filter>
<clipPath id="clip0_2735_52386">
<rect width="299" height="55" fill="white" transform="translate(0 89.9995)"/>
</clipPath>
</defs>
</svg>
