<svg width="238" height="150" viewBox="0 0 238 150" fill="none" xmlns="http://www.w3.org/2000/svg">
<path d="M94.6878 4.54901V94H70.0175V50.59L51.9436 70.9795H44.5557L26.4818 50.59V94H1.81152V4.54901H10.5187L48.2497 42.6972L85.9807 4.54901H94.6878Z" fill="#FA7659"/>
<path d="M202.283 3.89124C207.472 3.89124 212.574 4.54896 217.587 5.86442C222.688 7.09218 226.778 8.75842 229.856 10.8632V34.6729C226.074 32.4805 222.336 30.595 218.642 29.0164C214.948 27.3502 210.595 26.5171 205.581 26.5171C202.679 26.5171 200.172 26.9556 198.062 27.8325C195.951 28.7095 194.895 30.1565 194.895 32.1735C194.895 34.366 196.171 36.0322 198.721 37.1723C201.272 38.2246 204.394 39.4524 208.088 40.8555L217.587 44.4073C224.007 46.8628 228.537 50.1953 231.175 54.4047C233.902 58.6142 235.265 62.8237 235.265 67.0331C235.265 72.6457 233.638 77.6445 230.384 82.0293C227.129 86.3265 222.732 89.7467 217.191 92.2899C211.65 94.7454 205.45 95.9732 198.589 95.9732C193.312 95.9732 188.079 95.0523 182.89 93.2107C177.701 91.3691 173.172 89.0889 169.302 86.3703V62.5606C173.523 65.7177 178.053 68.3047 182.89 70.3218C187.815 72.3388 192.741 73.3473 197.666 73.3473C200.744 73.3473 203.207 72.9965 205.054 72.2949C206.989 71.5057 207.956 70.1902 207.956 68.3486C207.956 67.0331 207.253 65.8931 205.845 64.9284C204.438 63.9637 202.547 63.1306 200.172 62.429L187.639 58.4827C182.714 56.9041 178.888 54.7555 176.162 52.0369C173.435 49.3183 171.544 46.2928 170.489 42.9603C169.434 39.5401 168.906 36.0761 168.906 32.5682C168.906 26.3417 170.489 21.1237 173.655 16.9142C176.821 12.6171 180.955 9.3723 186.056 7.17988C191.157 4.98745 196.566 3.89124 202.283 3.89124Z" fill="#5BB5A7"/>
<g filter="url(#filter0_d_37_12356)">
<path d="M138.127 4.29059C142.693 4.29059 147.124 5.04932 151.421 6.5668C155.807 8.08427 159.746 10.3158 163.238 13.2615C166.729 16.2072 169.504 19.7777 171.563 23.9731C173.712 28.1685 174.786 32.8994 174.786 38.1659C174.786 45.0392 173.175 50.9752 169.952 55.9739C166.729 60.8834 162.522 64.6324 157.329 67.2211C152.137 69.8097 146.631 71.104 140.813 71.104C137.411 71.104 134.367 70.7916 131.681 70.1667C128.996 69.4526 126.668 68.56 124.699 67.4889V94H99.5879V4.29059H138.127ZM124.699 27.7221V48.4758C126.221 49.0114 127.832 49.4577 129.533 49.8148C131.323 50.1718 133.203 50.3503 135.173 50.3503C139.112 50.3503 142.379 49.1453 144.975 46.7352C147.661 44.2358 149.004 41.3794 149.004 38.1659C149.004 34.5061 147.661 31.8729 144.975 30.2661C142.379 28.5701 139.112 27.7221 135.173 27.7221H124.699Z" fill="#000091"/>
</g>
<path d="M3.296 141V118.6H8.96L14.432 128.008L19.904 118.6H25.568V141H21.024V124.936L16.032 133.32H12.832L7.84 124.936V141H3.296ZM38.737 124.232C43.985 124.232 47.569 128.104 47.569 132.936C47.569 137.768 43.985 141.64 38.737 141.64C33.489 141.64 29.905 137.768 29.905 132.936C29.905 128.104 33.489 124.232 38.737 124.232ZM38.801 137.8C41.393 137.8 43.345 135.72 43.345 132.936C43.345 130.12 41.393 128.072 38.801 128.072C36.113 128.072 34.129 130.12 34.129 132.936C34.129 135.752 36.113 137.8 38.801 137.8ZM51.2758 141V124.872H55.3398V126.152C56.4598 125.064 57.9638 124.232 60.1078 124.232C63.5958 124.232 66.3798 126.632 66.3798 131.4V141H62.2838V131.56C62.2838 129.416 61.0678 128.072 59.0838 128.072C57.0358 128.072 55.9478 129.448 55.3398 130.472V141H51.2758ZM80.4835 141V118.6H87.8755C92.8035 118.6 95.8115 121.128 95.8115 125.288C95.8115 129.416 92.8035 131.944 87.8755 131.944H85.0275V141H80.4835ZM88.0675 122.376H85.0275V128.168H88.0675C89.9875 128.168 91.1395 127.048 91.1395 125.224C91.1395 123.528 89.9875 122.376 88.0675 122.376ZM98.9633 141V124.872H103.027V126.472C104.083 125.384 105.459 124.552 107.283 124.552C107.827 124.552 108.307 124.648 108.691 124.776V128.776C108.179 128.648 107.635 128.552 106.899 128.552C104.915 128.552 103.635 129.64 103.027 130.664V141H98.9633ZM118.956 124.232C124.204 124.232 127.788 128.104 127.788 132.936C127.788 137.768 124.204 141.64 118.956 141.64C113.708 141.64 110.124 137.768 110.124 132.936C110.124 128.104 113.708 124.232 118.956 124.232ZM119.02 137.8C121.612 137.8 123.564 135.72 123.564 132.936C123.564 130.12 121.612 128.072 119.02 128.072C116.332 128.072 114.348 130.12 114.348 132.936C114.348 135.752 116.332 137.8 119.02 137.8ZM133.416 122.056C131.976 122.056 130.76 120.84 130.76 119.4C130.76 117.96 131.976 116.744 133.416 116.744C134.824 116.744 136.04 117.96 136.04 119.4C136.04 120.84 134.824 122.056 133.416 122.056ZM135.496 142.728C135.496 146.76 133.608 149 129.544 149C128.2 149 127.272 148.84 126.472 148.488V144.936C126.984 145.16 127.752 145.288 128.872 145.288C130.472 145.288 131.432 144.584 131.432 142.728V124.872H135.496V142.728ZM155.218 138.376C153.714 140.392 151.218 141.64 148.178 141.64C142.45 141.64 139.218 137.64 139.218 132.936C139.218 128.168 142.226 124.232 147.506 124.232C151.986 124.232 154.93 127.24 154.93 131.464C154.93 132.36 154.802 133.224 154.674 133.768H143.378C143.762 136.776 145.618 137.992 148.146 137.992C149.906 137.992 151.442 137.224 152.306 136.072L155.218 138.376ZM147.41 127.56C145.33 127.56 143.954 128.712 143.506 130.824H150.93C150.866 129.192 149.65 127.56 147.41 127.56ZM159.894 135.112V128.52H156.886V124.872H159.894V120.84H163.99V124.872H168.918V128.52H163.99V135.112C163.99 136.904 164.95 137.608 166.55 137.608C167.67 137.608 168.406 137.48 168.95 137.256V140.808C168.15 141.16 167.19 141.32 165.845 141.32C161.814 141.32 159.894 139.048 159.894 135.112ZM180.03 137.896L183.326 134.856C184.67 136.584 186.462 137.608 188.286 137.608C190.078 137.608 191.166 136.648 191.166 135.048C191.166 130.92 180.99 132.04 180.99 124.456C180.99 120.904 183.934 117.96 188.222 117.96C191.582 117.96 194.142 119.464 196.062 121.736L192.734 124.744C191.422 123.048 189.95 121.928 188.254 121.928C186.654 121.928 185.598 122.952 185.598 124.296C185.598 128.36 195.774 127.208 195.774 134.888C195.71 139.112 192.414 141.64 188.318 141.64C184.542 141.64 182.014 140.264 180.03 137.896ZM210.556 134.024V124.872H214.652V133.832C214.652 138.664 211.836 141.64 207.1 141.64C202.364 141.64 199.58 138.664 199.58 133.832V124.872H203.676V134.024C203.676 136.36 204.892 137.8 207.132 137.8C209.34 137.8 210.556 136.36 210.556 134.024ZM219.151 148.872V124.872H223.215V126.184C224.463 124.936 226.031 124.232 228.239 124.232C233.359 124.232 236.431 128.232 236.431 132.936C236.431 137.64 233.359 141.64 228.239 141.64C226.031 141.64 224.463 140.936 223.215 139.688V148.872H219.151ZM227.663 128.072C225.775 128.072 224.239 128.904 223.215 130.408V135.464C224.303 137 225.807 137.8 227.663 137.8C230.415 137.8 232.207 135.752 232.207 132.936C232.207 130.12 230.415 128.072 227.663 128.072Z" fill="#161616"/>
<defs>
<filter id="filter0_d_37_12356" x="93.5879" y="0.290588" width="87.1981" height="101.709" filterUnits="userSpaceOnUse" color-interpolation-filters="sRGB">
<feFlood flood-opacity="0" result="BackgroundImageFix"/>
<feColorMatrix in="SourceAlpha" type="matrix" values="0 0 0 0 0 0 0 0 0 0 0 0 0 0 0 0 0 0 127 0" result="hardAlpha"/>
<feOffset dy="2"/>
<feGaussianBlur stdDeviation="3"/>
<feColorMatrix type="matrix" values="0 0 0 0 0 0 0 0 0 0 0 0 0 0 0.0705882 0 0 0 0.16 0"/>
<feBlend mode="normal" in2="BackgroundImageFix" result="effect1_dropShadow_37_12356"/>
<feBlend mode="normal" in="SourceGraphic" in2="effect1_dropShadow_37_12356" result="shape"/>
</filter>
</defs>
</svg>
