<svg width="98" height="50" viewBox="0 0 98 50" fill="none" xmlns="http://www.w3.org/2000/svg">
<path d="M39.4219 4.8125V42H29.1953V23.9531L21.7031 32.4297H18.6406L11.1484 23.9531V42H0.921875V4.8125H4.53125L20.1719 20.6719L35.8125 4.8125H39.4219Z" fill="#FA7659"/>
<path d="M84.0234 4.53906C86.1745 4.53906 88.2891 4.8125 90.3672 5.35938C92.4818 5.86979 94.1771 6.5625 95.4531 7.4375V17.3359C93.8854 16.4245 92.3359 15.6406 90.8047 14.9844C89.2734 14.2917 87.4688 13.9453 85.3906 13.9453C84.1875 13.9453 83.1484 14.1276 82.2734 14.4922C81.3984 14.8568 80.9609 15.4583 80.9609 16.2969C80.9609 17.2083 81.4896 17.901 82.5469 18.375C83.6042 18.8125 84.8984 19.3229 86.4297 19.9062L90.3672 21.3828C93.0286 22.4036 94.9062 23.7891 96 25.5391C97.1302 27.2891 97.6953 29.0391 97.6953 30.7891C97.6953 33.1224 97.0208 35.2005 95.6719 37.0234C94.3229 38.8099 92.5 40.2318 90.2031 41.2891C87.9062 42.3099 85.3359 42.8203 82.4922 42.8203C80.3047 42.8203 78.1354 42.4375 75.9844 41.6719C73.8333 40.9062 71.9557 39.9583 70.3516 38.8281V28.9297C72.1016 30.2422 73.9792 31.3177 75.9844 32.1562C78.026 32.9948 80.0677 33.4141 82.1094 33.4141C83.3854 33.4141 84.4062 33.2682 85.1719 32.9766C85.974 32.6484 86.375 32.1016 86.375 31.3359C86.375 30.7891 86.0833 30.3151 85.5 29.9141C84.9167 29.513 84.1328 29.1667 83.1484 28.875L77.9531 27.2344C75.9115 26.5781 74.3255 25.6849 73.1953 24.5547C72.0651 23.4245 71.2812 22.1667 70.8438 20.7812C70.4062 19.3594 70.1875 17.9193 70.1875 16.4609C70.1875 13.8724 70.8438 11.7031 72.1562 9.95312C73.4688 8.16667 75.1823 6.81771 77.2969 5.90625C79.4115 4.99479 81.6536 4.53906 84.0234 4.53906Z" fill="#5BB5A7"/>
<g filter="url(#filter0_d_718_36977)">
<path d="M57.4287 4.70508C59.3213 4.70508 61.1582 5.02051 62.9395 5.65137C64.7578 6.28223 66.3906 7.20996 67.8379 8.43457C69.2852 9.65918 70.4355 11.1436 71.2891 12.8877C72.1797 14.6318 72.625 16.5986 72.625 18.7881C72.625 21.6455 71.957 24.1133 70.6211 26.1914C69.2852 28.2324 67.541 29.791 65.3887 30.8672C63.2363 31.9434 60.9541 32.4814 58.542 32.4814C57.1318 32.4814 55.8701 32.3516 54.7568 32.0918C53.6436 31.7949 52.6787 31.4238 51.8623 30.9785V42H41.4531V4.70508H57.4287ZM51.8623 14.4463V23.0742C52.4932 23.2969 53.1611 23.4824 53.8662 23.6309C54.6084 23.7793 55.3877 23.8535 56.2041 23.8535C57.8369 23.8535 59.1914 23.3525 60.2676 22.3506C61.3809 21.3115 61.9375 20.124 61.9375 18.7881C61.9375 17.2666 61.3809 16.1719 60.2676 15.5039C59.1914 14.7988 57.8369 14.4463 56.2041 14.4463H51.8623Z" fill="#000091"/>
</g>
<defs>
<filter id="filter0_d_718_36977" x="35.4531" y="0.705078" width="43.1719" height="49.2949" filterUnits="userSpaceOnUse" color-interpolation-filters="sRGB">
<feFlood flood-opacity="0" result="BackgroundImageFix"/>
<feColorMatrix in="SourceAlpha" type="matrix" values="0 0 0 0 0 0 0 0 0 0 0 0 0 0 0 0 0 0 127 0" result="hardAlpha"/>
<feOffset dy="2"/>
<feGaussianBlur stdDeviation="3"/>
<feColorMatrix type="matrix" values="0 0 0 0 0 0 0 0 0 0 0 0 0 0 0.0705882 0 0 0 0.16 0"/>
<feBlend mode="normal" in2="BackgroundImageFix" result="effect1_dropShadow_718_36977"/>
<feBlend mode="normal" in="SourceGraphic" in2="effect1_dropShadow_718_36977" result="shape"/>
</filter>
</defs>
</svg>
