<?xml version="1.0" encoding="iso-8859-1"?>
<!-- Generator: Adobe Illustrator 24.0.3, SVG Export Plug-In . SVG Version: 6.00 Build 0)  -->
<svg version="1.1" xmlns="http://www.w3.org/2000/svg" xmlns:xlink="http://www.w3.org/1999/xlink" x="0px" y="0px"
	 viewBox="0 0 64 64" style="enable-background:new 0 0 64 64;" xml:space="preserve">
<g id="participants">
	<path style="fill:#864DFF;" d="M21.113,26.957c-0.261-0.253-0.613-0.4-0.988-0.376c-1.045,0.033-2.001,0.425-2.744,1.045V21.42
		c0-0.743-0.286-1.437-0.817-1.968c-0.833-0.833-2.189-1.021-3.177-0.539c-0.114-0.515-0.376-0.996-0.76-1.38
		c-0.49-0.49-1.135-0.784-1.829-0.817c-0.735-0.025-1.454,0.237-2.009,0.76c-0.58,0.555-0.915,1.331-0.915,2.132v0.466
		c-0.351-0.163-0.743-0.253-1.152-0.253c-1.535,0-2.785,1.25-2.785,2.785v2.124c-0.359-0.163-0.751-0.245-1.152-0.245
		c-0.743,0-1.446,0.302-1.977,0.858C0.286,25.879,0,26.59,0,27.341L0.188,38.62c0.033,3.169,1.486,6.011,3.732,7.947v17.054h1.633
		V47.727c1.56,0.907,3.373,1.437,5.301,1.437c1.854,0,3.602-0.482,5.121-1.315v15.771h1.633V46.747
		c2.385-1.96,3.92-4.933,3.92-8.257v-10.56C21.529,27.562,21.374,27.211,21.113,26.957z M19.896,38.49
		c0,4.982-4.059,9.041-9.041,9.041c-4.925,0-8.976-4.01-9.033-8.935L1.633,27.325c0-0.31,0.131-0.621,0.351-0.849
		c0.221-0.237,0.506-0.359,0.8-0.359c0.302,0,0.596,0.123,0.817,0.335c0.212,0.221,0.335,0.506,0.335,0.817v7.204
		c0,0.449,0.368,0.817,0.817,0.817c0.449,0,0.817-0.368,0.817-0.817V22.604c0-0.629,0.515-1.152,1.152-1.152
		c0.637,0,1.152,0.523,1.152,1.152v11.892h1.633V19.607c0-0.359,0.147-0.702,0.408-0.947c0.229-0.212,0.506-0.335,0.8-0.31
		c0.286,0.008,0.555,0.131,0.76,0.335c0.212,0.221,0.335,0.506,0.335,0.817v14.873h1.633V21.42c0-0.629,0.515-1.152,1.152-1.152
		c0.31,0,0.596,0.123,0.817,0.335c0.212,0.221,0.335,0.515,0.335,0.817v9.687c0,0.008,0,0.008,0,0.016l0.033,4.647
		c-2.687,0.335-4.77,2.63-4.77,5.399v1.397h1.633v-1.397c0-2.099,1.707-3.806,3.806-3.806h0.155c0.212,0,0.425-0.09,0.58-0.245
		c0.147-0.155,0.237-0.359,0.237-0.58l-0.041-5.415c0-1.478,1.078-2.687,2.516-2.883V38.49z M63.191,25.34
		c-0.531-0.555-1.233-0.858-1.985-0.858c-0.4,0-0.792,0.082-1.143,0.245v-2.124c0-1.535-1.258-2.785-2.793-2.785
		c-0.408,0-0.8,0.09-1.152,0.253v-0.466c0-0.8-0.327-1.576-0.907-2.132c-0.555-0.523-1.266-0.792-2.009-0.76
		c-0.694,0.033-1.348,0.327-1.838,0.817c-0.384,0.384-0.645,0.866-0.751,1.38c-0.996-0.482-2.352-0.294-3.185,0.539
		c-0.523,0.531-0.817,1.225-0.817,1.968v6.207c-0.743-0.621-1.691-1.013-2.744-1.045c-0.359-0.016-0.719,0.123-0.988,0.376
		c-0.261,0.253-0.408,0.604-0.408,0.972v10.56c0,3.324,1.527,6.297,3.92,8.257v16.874h1.633V47.85
		c1.519,0.833,3.259,1.315,5.113,1.315c1.928,0,3.741-0.531,5.309-1.437v15.894h1.633V46.567c2.246-1.936,3.692-4.778,3.733-7.939
		L64,27.325C64,26.59,63.706,25.879,63.191,25.34z M62.179,38.604c-0.065,4.917-4.116,8.927-9.041,8.927
		c-4.982,0-9.033-4.059-9.033-9.041V28.24c1.429,0.196,2.507,1.413,2.507,2.883l-0.033,5.415c-0.008,0.221,0.082,0.425,0.237,0.58
		c0.147,0.155,0.359,0.245,0.58,0.245h0.147c2.099,0,3.806,1.707,3.806,3.806v1.397h1.633v-1.397c0-2.769-2.083-5.064-4.762-5.399
		l0.024-14.35c0-0.302,0.123-0.596,0.343-0.809c0.212-0.22,0.506-0.343,0.809-0.343c0.637,0,1.152,0.523,1.152,1.152v12.954h1.633
		V19.501c0-0.31,0.123-0.596,0.343-0.817c0.196-0.204,0.466-0.327,0.751-0.335c0.294-0.016,0.58,0.098,0.809,0.31
		c0.253,0.245,0.4,0.588,0.4,0.947v14.889h1.633V22.604c0-0.629,0.523-1.152,1.16-1.152c0.629,0,1.152,0.523,1.152,1.152v11.867
		c0,0.449,0.359,0.817,0.817,0.817c0.449,0,0.817-0.368,0.817-0.817v-7.204c0-0.31,0.114-0.596,0.335-0.817
		c0.212-0.212,0.506-0.335,0.809-0.335c0.302,0,0.588,0.123,0.809,0.359c0.221,0.229,0.351,0.539,0.351,0.833L62.179,38.604z
		 M42.348,10.623c-0.261-0.253-0.613-0.392-0.988-0.376c-1.045,0.033-2.001,0.425-2.744,1.045V5.085
		c0-0.743-0.286-1.437-0.817-1.968c-0.833-0.833-2.189-1.021-3.177-0.539c-0.114-0.515-0.376-0.996-0.76-1.38
		c-0.49-0.49-1.135-0.784-1.829-0.817c-0.735-0.025-1.454,0.237-2.009,0.76c-0.58,0.555-0.915,1.331-0.915,2.132v0.466
		c-0.351-0.163-0.743-0.253-1.152-0.253c-1.535,0-2.785,1.25-2.785,2.785v2.124c-0.359-0.163-0.751-0.245-1.152-0.245
		c-0.743,0-1.446,0.302-1.977,0.858c-0.523,0.539-0.809,1.25-0.809,2.001l0.188,11.279c0.033,3.169,1.486,6.011,3.732,7.947v33.388
		h1.633V31.392c1.56,0.907,3.373,1.437,5.301,1.437c1.854,0,3.602-0.482,5.121-1.315v32.106h1.633V30.412
		c2.385-1.96,3.92-4.933,3.92-8.257v-10.56C42.765,11.227,42.61,10.876,42.348,10.623z M41.131,22.155
		c0,4.982-4.059,9.041-9.041,9.041c-4.925,0-8.976-4.01-9.033-8.935L22.869,10.99c0-0.31,0.131-0.621,0.351-0.849
		c0.221-0.237,0.506-0.359,0.8-0.359c0.302,0,0.596,0.123,0.817,0.335c0.212,0.221,0.335,0.506,0.335,0.817v7.204
		c0,0.449,0.368,0.817,0.817,0.817c0.449,0,0.817-0.368,0.817-0.817V6.269c0-0.629,0.515-1.152,1.152-1.152
		c0.637,0,1.152,0.523,1.152,1.152v11.892h1.633V3.272c0-0.359,0.147-0.702,0.408-0.947c0.229-0.212,0.506-0.335,0.8-0.31
		c0.286,0.008,0.555,0.131,0.76,0.335c0.212,0.221,0.335,0.506,0.335,0.817v14.873h1.633V5.085c0-0.629,0.515-1.152,1.152-1.152
		c0.31,0,0.596,0.123,0.817,0.335c0.212,0.221,0.335,0.515,0.335,0.817v9.687c0,0.008,0,0.008,0,0.016l0.033,4.647
		c-2.687,0.335-4.77,2.63-4.77,5.399v1.397h1.633v-1.397c0-2.099,1.707-3.806,3.806-3.806h0.155c0.212,0,0.425-0.09,0.58-0.245
		c0.147-0.155,0.237-0.359,0.237-0.58l-0.041-5.415c0-1.478,1.078-2.687,2.516-2.883V22.155z"/>
	<path style="fill:#EDE5FF;" d="M19.896,28.24v10.25c0,4.982-4.059,9.041-9.041,9.041c-4.925,0-8.976-4.01-9.033-8.935L1.633,27.325
		c0-0.31,0.131-0.621,0.351-0.849c0.221-0.237,0.506-0.359,0.8-0.359c0.302,0,0.596,0.123,0.817,0.335
		c0.212,0.221,0.335,0.506,0.335,0.817v7.204c0,0.449,0.368,0.817,0.817,0.817c0.449,0,0.817-0.368,0.817-0.817V22.604
		c0-0.629,0.515-1.152,1.152-1.152c0.637,0,1.152,0.523,1.152,1.152v11.892h1.633V19.607c0-0.359,0.147-0.702,0.408-0.947
		c0.229-0.212,0.506-0.335,0.8-0.31c0.286,0.008,0.555,0.131,0.76,0.335c0.212,0.221,0.335,0.506,0.335,0.817v14.873h1.633V21.42
		c0-0.629,0.515-1.152,1.152-1.152c0.31,0,0.596,0.123,0.817,0.335c0.212,0.221,0.335,0.515,0.335,0.817v9.687
		c0,0.008,0,0.008,0,0.016l0.033,4.647c-2.687,0.335-4.77,2.63-4.77,5.399v1.397h1.633v-1.397c0-2.099,1.707-3.806,3.806-3.806
		h0.155c0.212,0,0.425-0.09,0.58-0.245c0.147-0.155,0.237-0.359,0.237-0.58l-0.041-5.415C17.38,29.644,18.458,28.436,19.896,28.24z
		 M38.616,14.788l0.041,5.415c0,0.221-0.09,0.425-0.237,0.58c-0.155,0.155-0.368,0.245-0.58,0.245h-0.155
		c-2.099,0-3.806,1.707-3.806,3.806v1.397h-1.633v-1.397c0-2.769,2.083-5.064,4.77-5.399l-0.033-4.647c0-0.008,0-0.008,0-0.016
		V5.085c0-0.302-0.123-0.596-0.335-0.817c-0.22-0.212-0.506-0.335-0.817-0.335c-0.637,0-1.152,0.523-1.152,1.152v12.954h-1.633
		V3.166c0-0.31-0.123-0.596-0.335-0.817c-0.204-0.204-0.474-0.327-0.76-0.335c-0.294-0.025-0.572,0.098-0.8,0.31
		c-0.261,0.245-0.408,0.588-0.408,0.947v14.889h-1.633V6.269c0-0.629-0.515-1.152-1.152-1.152c-0.637,0-1.152,0.523-1.152,1.152
		v11.867c0,0.449-0.368,0.817-0.817,0.817c-0.449,0-0.817-0.368-0.817-0.817v-7.204c0-0.31-0.122-0.596-0.335-0.817
		c-0.221-0.212-0.515-0.335-0.817-0.335c-0.294,0-0.58,0.123-0.8,0.359c-0.22,0.229-0.351,0.539-0.351,0.849l0.188,11.271
		c0.057,4.925,4.108,8.935,9.033,8.935c4.982,0,9.041-4.059,9.041-9.041v-10.25C39.694,12.101,38.616,13.31,38.616,14.788z
		 M62.015,26.475c-0.22-0.237-0.506-0.359-0.809-0.359c-0.302,0-0.596,0.123-0.809,0.335c-0.221,0.221-0.335,0.506-0.335,0.817
		v7.204c0,0.449-0.368,0.817-0.817,0.817c-0.457,0-0.817-0.368-0.817-0.817V22.604c0-0.629-0.523-1.152-1.152-1.152
		c-0.637,0-1.16,0.523-1.16,1.152v11.892h-1.633V19.607c0-0.359-0.147-0.702-0.4-0.947c-0.229-0.212-0.515-0.327-0.809-0.31
		c-0.286,0.008-0.555,0.131-0.751,0.335c-0.22,0.221-0.343,0.506-0.343,0.817v14.873h-1.633V21.42c0-0.629-0.515-1.152-1.152-1.152
		c-0.302,0-0.596,0.123-0.809,0.343c-0.22,0.212-0.343,0.506-0.343,0.809l-0.024,14.35c2.679,0.335,4.762,2.63,4.762,5.399v1.397
		h-1.633v-1.397c0-2.099-1.707-3.806-3.806-3.806h-0.147c-0.221,0-0.433-0.09-0.58-0.245c-0.155-0.155-0.245-0.359-0.237-0.58
		l0.033-5.415c0-1.47-1.078-2.687-2.507-2.883v10.25c0,4.982,4.051,9.041,9.033,9.041c4.925,0,8.976-4.01,9.041-8.927l0.188-11.296
		C62.367,27.015,62.236,26.704,62.015,26.475z M10.855,49.165c-1.928,0-3.741-0.531-5.301-1.437v15.894h10.422V47.85
		C14.456,48.683,12.709,49.165,10.855,49.165z M32.09,32.83c-1.928,0-3.741-0.531-5.301-1.437v32.229h10.422V31.515
		C35.692,32.348,33.944,32.83,32.09,32.83z M53.137,49.165c-1.854,0-3.594-0.482-5.113-1.315v15.771h10.422V47.727
		C56.878,48.634,55.065,49.165,53.137,49.165z"/>
</g>
<g id="Layer_1">
</g>
</svg>
