<?xml version="1.0" encoding="iso-8859-1"?>
<!-- Generator: Adobe Illustrator 24.0.3, SVG Export Plug-In . SVG Version: 6.00 Build 0)  -->
<svg version="1.1" xmlns="http://www.w3.org/2000/svg" xmlns:xlink="http://www.w3.org/1999/xlink" x="0px" y="0px"
	 viewBox="0 0 64 64" style="enable-background:new 0 0 64 64;" xml:space="preserve">
<g id="communities">
	<path style="fill:#FFC2A0;" d="M43.027,30.618v13.754c0,1.346-1.096,2.442-2.442,2.442h-1.088v-6.997h-1.783v19.967
		c0,1.337-1.096,2.434-2.434,2.434c-1.346,0-2.434-1.096-2.434-2.434V43.142h-1.783v16.642c0,1.337-1.096,2.434-2.442,2.434
		c-1.337,0-2.434-1.096-2.434-2.434V39.817h-1.783v6.997h-1.087c-1.346,0-2.442-1.096-2.442-2.442V30.618
		c0-2.558,2.095-4.653,4.662-4.653h12.836C40.933,25.965,43.027,28.06,43.027,30.618z M52.842,1.781
		c-2.558,0-4.635,2.086-4.635,4.635c0,2.558,2.077,4.635,4.635,4.635s4.635-2.077,4.635-4.635C57.477,3.867,55.4,1.781,52.842,1.781
		z M11.16,1.781c-2.558,0-4.635,2.086-4.635,4.635c0,2.558,2.077,4.635,4.635,4.635s4.635-2.077,4.635-4.635
		C15.795,3.867,13.718,1.781,11.16,1.781z M31.956,9.955c-3.182,0-5.767,2.585-5.767,5.767c0,3.173,2.585,5.758,5.767,5.758
		c3.173,0,5.758-2.585,5.758-5.758C37.715,12.54,35.13,9.955,31.956,9.955z"/>
	<path style="fill:#303133;" d="M38.37,24.185H25.534c-3.549,0-6.437,2.887-6.437,6.437v13.755c0,2.326,1.892,4.218,4.218,4.218
		h1.09v11.187c0,2.326,1.892,4.218,4.218,4.218c1.358,0,2.555-0.656,3.327-1.656c0.772,1,1.969,1.656,3.327,1.656
		c2.326,0,4.218-1.892,4.218-4.218V48.595h1.09c2.326,0,4.218-1.892,4.218-4.218V30.622C44.807,27.072,41.919,24.185,38.37,24.185z
		 M43.024,44.376c0,1.343-1.092,2.436-2.436,2.436h-1.09v-6.993h-1.783v19.963c0,1.343-1.092,2.436-2.436,2.436
		s-2.436-1.092-2.436-2.436V43.146h-1.783v16.635c0,1.343-1.092,2.436-2.436,2.436s-2.436-1.092-2.436-2.436V39.819h-1.783v6.993
		h-1.09c-1.343,0-2.436-1.092-2.436-2.436V30.622c0-2.566,2.087-4.654,4.654-4.654H38.37c2.566,0,4.654,2.087,4.654,4.654V44.376z
		 M31.952,23.264c4.161,0,7.546-3.385,7.546-7.546s-3.385-7.546-7.546-7.546s-7.546,3.385-7.546,7.546S27.792,23.264,31.952,23.264z
		 M31.952,9.956c3.178,0,5.763,2.585,5.763,5.763s-2.585,5.763-5.763,5.763s-5.763-2.585-5.763-5.763S28.774,9.956,31.952,9.956z
		 M15.795,26.437h1.783V43.02c0,2.015-1.64,3.655-3.655,3.655c-1.109,0-2.093-0.507-2.763-1.29c-0.671,0.783-1.654,1.29-2.764,1.29
		c-2.016,0-3.655-1.64-3.655-3.655v-9.141H3.985c-2.015,0-3.655-1.64-3.655-3.655V18.798c0-3.032,2.466-5.498,5.497-5.498H16.49
		c3.031,0,5.497,2.466,5.497,5.498v4.006h-1.783v-4.006c0-2.048-1.666-3.715-3.714-3.715H5.828c-2.048,0-3.714,1.667-3.714,3.715
		v11.425c0,1.032,0.84,1.872,1.872,1.872H4.74v-5.658h1.783V43.02c0,1.032,0.84,1.872,1.872,1.872s1.872-0.84,1.872-1.872V29.201
		h1.783V43.02c0,1.032,0.84,1.872,1.872,1.872s1.872-0.84,1.872-1.872V26.437z M11.159,12.837c3.539,0,6.419-2.879,6.419-6.419
		S14.699,0,11.159,0S4.74,2.879,4.74,6.419S7.62,12.837,11.159,12.837z M11.159,1.783c2.556,0,4.636,2.08,4.636,4.636
		s-2.08,4.636-4.636,4.636c-2.557,0-4.636-2.08-4.636-4.636S8.602,1.783,11.159,1.783z M63.67,18.798v11.425
		c0,2.016-1.64,3.655-3.655,3.655H59.26v9.141c0,2.015-1.64,3.655-3.655,3.655c-1.109,0-2.093-0.507-2.763-1.29
		c-0.671,0.783-1.654,1.29-2.764,1.29c-2.016,0-3.655-1.64-3.655-3.655V26.437h1.783V43.02c0,1.032,0.84,1.872,1.872,1.872
		c1.032,0,1.872-0.84,1.872-1.872V29.201h1.783V43.02c0,1.032,0.84,1.872,1.872,1.872c1.032,0,1.872-0.84,1.872-1.872V26.437h1.783
		v5.658h0.755c1.032,0,1.872-0.84,1.872-1.872V18.798c0-2.048-1.666-3.715-3.714-3.715H47.51c-2.048,0-3.714,1.667-3.714,3.715
		v4.006h-1.783v-4.006c0-3.032,2.466-5.498,5.497-5.498h10.662C61.203,13.3,63.67,15.766,63.67,18.798z M52.841,12.837
		c3.539,0,6.419-2.879,6.419-6.419S56.381,0,52.841,0c-3.54,0-6.419,2.879-6.419,6.419S49.302,12.837,52.841,12.837z M52.841,1.783
		c2.556,0,4.636,2.08,4.636,4.636s-2.08,4.636-4.636,4.636c-2.557,0-4.636-2.08-4.636-4.636S50.285,1.783,52.841,1.783z"/>
</g>
<g id="Layer_1">
</g>
</svg>
