<svg width="56" height="56" viewBox="0 0 56 56" fill="none" xmlns="http://www.w3.org/2000/svg">
<path fill-rule="evenodd" clip-rule="evenodd" d="M10.5 9.79954C10.1141 9.79954 9.80005 9.48552 9.80005 9.09954C9.80005 8.71352 10.1141 8.39954 10.5 8.39954C10.886 8.39954 11.2 8.71352 11.2 9.09954C11.2 9.48552 10.886 9.79954 10.5 9.79954Z" fill="#CACAFB"/>
<path fill-rule="evenodd" clip-rule="evenodd" d="M3.50005 48.9995C3.11407 48.9995 2.80005 48.6855 2.80005 48.2995C2.80005 47.9135 3.11407 47.5995 3.50005 47.5995C3.88603 47.5995 4.20005 47.9135 4.20005 48.2995C4.20005 48.6855 3.88603 48.9995 3.50005 48.9995Z" fill="#CACAFB"/>
<path fill-rule="evenodd" clip-rule="evenodd" d="M52.5 44.7995C52.1141 44.7995 51.8 44.4855 51.8 44.0995C51.8 43.7135 52.1141 43.3995 52.5 43.3995C52.886 43.3995 53.2001 43.7135 53.2001 44.0995C53.2001 44.4855 52.886 44.7995 52.5 44.7995Z" fill="#CACAFB"/>
<path fill-rule="evenodd" clip-rule="evenodd" d="M41.3001 8.39951C40.9141 8.39951 40.6001 8.08549 40.6001 7.69951C40.6001 7.3135 40.9141 6.99951 41.3001 6.99951C41.6861 6.99951 42.0001 7.3135 42.0001 7.69951C42.0001 8.08549 41.6861 8.39951 41.3001 8.39951Z" fill="#CACAFB"/>
<path d="M29.5037 6.99951C41.1017 6.99951 50.5037 16.4015 50.5037 27.9995C50.5037 28.3861 50.1903 28.6995 49.8037 28.6995C49.4171 28.6995 49.1037 28.3861 49.1037 27.9995C49.1037 17.1747 40.3285 8.39951 29.5037 8.39951C18.679 8.39951 9.90375 17.1747 9.90375 27.9995C9.90375 38.8243 18.679 47.5995 29.5037 47.5995C37.3121 47.5995 44.2788 42.9918 47.4086 35.9853C47.5663 35.6323 47.9803 35.474 48.3333 35.6317C48.6862 35.7894 48.8446 36.2034 48.6869 36.5563C45.3337 44.0626 37.8694 48.9995 29.5037 48.9995C17.9058 48.9995 8.50375 39.5975 8.50375 27.9995C8.50375 16.4015 17.9058 6.99951 29.5037 6.99951Z" fill="#FA794A"/>
<path d="M49.8037 34.0143C49.8037 34.4296 49.4671 34.7662 49.0519 34.7662C48.6367 34.7662 48.3 34.4296 48.3 34.0143C48.3 33.5991 48.6367 33.2625 49.0519 33.2625C49.4671 33.2625 49.8037 33.5991 49.8037 34.0143Z" fill="#FA794A"/>
<path d="M10.1453 14.722C9.83765 14.4878 9.39845 14.5473 9.16428 14.8549C6.79853 17.9625 5.49634 21.7553 5.49634 25.744C5.49634 26.1306 5.80974 26.444 6.19634 26.444C6.58294 26.444 6.89634 26.1306 6.89634 25.744C6.89634 22.0644 8.09646 18.5688 10.2782 15.7029C10.5124 15.3953 10.4529 14.9561 10.1453 14.722Z" fill="#FA794A"/>
<path fill-rule="evenodd" clip-rule="evenodd" d="M39.1976 24.4414C38.7007 18.4791 35.3645 15.3995 29.4 15.3995C23.4355 15.3995 20.0993 18.4791 19.6024 24.4414C19.5648 24.8926 19.959 25.2602 20.4064 25.1914L21.7 24.9924V25.2982C21.1989 25.3948 20.8296 25.5284 20.5707 25.7215C19.9142 26.211 19.5999 26.9938 19.5999 27.9995C19.5999 29.7861 20.6133 30.7995 22.3999 30.7995C22.4761 30.7995 22.5495 30.7874 22.6182 30.7648C23.3629 32.2088 24.5173 33.3887 25.92 34.1329C25.9069 34.1863 25.9 34.2421 25.9 34.2995C25.9 35.2086 25.4668 36.0165 24.7955 36.528C24.7847 36.5357 24.7741 36.5436 24.7638 36.5518C24.2986 36.896 23.7231 37.0995 23.1 37.0995H21.7L21.5425 37.1024C19.2959 37.1852 17.5 39.0327 17.5 41.2995C17.5 41.6861 17.8134 41.9995 18.2 41.9995C18.5866 41.9995 18.9 41.6861 18.9 41.2995C18.9 39.7531 20.1536 38.4995 21.7 38.4995H23.1L23.2575 38.4966C23.8429 38.4751 24.3978 38.3336 24.8983 38.0962C25.6488 39.2773 27.0329 39.6379 28.8698 39.1786C29.2448 39.0849 29.4729 38.7048 29.3791 38.3298C29.2853 37.9547 28.9053 37.7267 28.5302 37.8204C27.2214 38.1476 26.457 37.9705 26.0492 37.2899C26.7342 36.6143 27.1882 35.7051 27.282 34.6914C27.9546 34.8921 28.6651 34.9995 29.4 34.9995C30.1349 34.9995 30.8454 34.8921 31.518 34.6914C31.7109 36.7758 33.4269 38.4187 35.5425 38.4966L35.7 38.4995H37.1C38.6464 38.4995 39.9 39.7531 39.9 41.2995C39.9 41.6861 40.2134 41.9995 40.6 41.9995C40.9866 41.9995 41.3 41.6861 41.3 41.2995C41.3 39.0327 39.5041 37.1852 37.2575 37.1024L37.1 37.0995H35.7C34.1536 37.0995 32.9 35.8459 32.9 34.2995C32.9 34.2421 32.8931 34.1863 32.88 34.1329C34.2827 33.3887 35.4371 32.2088 36.1818 30.7649C36.2505 30.7874 36.3238 30.7995 36.4 30.7995C38.1866 30.7995 39.2 29.7861 39.2 27.9995C39.2 26.9938 38.8858 26.211 38.2292 25.7215C37.8753 25.4576 37.3151 25.3047 36.4941 25.2058C36.4642 25.2018 36.4336 25.1997 36.4026 25.1995L36.4015 25.1995C36.3339 25.1992 36.2681 25.2088 36.2056 25.2269C36.1047 25.256 36.0132 25.3072 35.9367 25.3748C35.8012 25.4945 35.7125 25.6658 35.7012 25.8579C35.7002 25.8755 35.6998 25.8929 35.7 25.9103V26.9495L35.6974 27.1426C35.6006 30.733 32.8106 33.5995 29.4 33.5995C25.9285 33.5995 23.1 30.6297 23.1 26.9495V24.777L29.5064 23.7914L29.589 23.7735C29.7778 23.7206 29.9373 23.5903 30.0261 23.4126L30.7261 22.0126L30.7584 21.9375C30.8779 21.608 30.7341 21.234 30.413 21.0734L30.3379 21.0411C30.0085 20.9216 29.6344 21.0654 29.4739 21.3865L28.9352 22.4625L21.098 23.6679L21.1108 23.5778C21.7968 19.0053 24.5023 16.7995 29.4 16.7995L29.6514 16.8015C34.3072 16.875 36.9223 19.0073 37.652 23.3434L37.688 23.5748L33.0698 22.4204L32.9894 22.4052C32.6419 22.36 32.308 22.5815 32.2209 22.9298C32.1271 23.3048 32.3552 23.6849 32.7302 23.7786L38.3302 25.1786L38.412 25.1941C38.8459 25.2504 39.2351 24.8913 39.1976 24.4414ZM21.7 26.7326C21.5515 26.7716 21.4524 26.8104 21.4075 26.8438C21.1451 27.0395 20.9999 27.4012 20.9999 27.9995C20.9999 28.8898 21.2983 29.2964 22.0579 29.382C21.8444 28.6771 21.7212 27.9304 21.7025 27.157L21.7 26.9495V26.7326ZM37.8 27.9995C37.8 28.8898 37.5016 29.2963 36.7421 29.382C36.9746 28.6142 37.1 27.797 37.1 26.9495V26.7326C37.2484 26.7716 37.3475 26.8104 37.3924 26.8438C37.6548 27.0395 37.8 27.4012 37.8 27.9995Z" fill="#000091"/>
</svg>
