<svg width="122" height="122" viewBox="0 0 122 122" fill="none" xmlns="http://www.w3.org/2000/svg">
<path fill-rule="evenodd" clip-rule="evenodd" d="M111.325 27.4501C110.484 27.4501 109.8 26.766 109.8 25.9251C109.8 25.0842 110.484 24.4001 111.325 24.4001C112.166 24.4001 112.85 25.0842 112.85 25.9251C112.85 26.766 112.166 27.4501 111.325 27.4501Z" fill="#CACAFB"/>
<path fill-rule="evenodd" clip-rule="evenodd" d="M10.6749 27.4501C9.83402 27.4501 9.1499 26.766 9.1499 25.9251C9.1499 25.0842 9.83402 24.4001 10.6749 24.4001C11.5158 24.4001 12.1999 25.0842 12.1999 25.9251C12.1999 26.766 11.5158 27.4501 10.6749 27.4501Z" fill="#CACAFB"/>
<path fill-rule="evenodd" clip-rule="evenodd" d="M16.775 103.7C15.9341 103.7 15.25 103.016 15.25 102.175C15.25 101.334 15.9341 100.65 16.775 100.65C17.6159 100.65 18.3 101.334 18.3 102.175C18.3 103.016 17.6159 103.7 16.775 103.7Z" fill="#CACAFB"/>
<path fill-rule="evenodd" clip-rule="evenodd" d="M28.975 9.1501C28.1341 9.1501 27.45 8.46598 27.45 7.6251C27.45 6.78414 28.1341 6.1001 28.975 6.1001C29.8158 6.1001 30.5 6.78414 30.5 7.6251C30.5 8.46598 29.8158 9.1501 28.975 9.1501Z" fill="#CACAFB"/>
<path fill-rule="evenodd" clip-rule="evenodd" d="M83.8749 118.95C83.034 118.95 82.3499 118.266 82.3499 117.425C82.3499 116.584 83.034 115.9 83.8749 115.9C84.7157 115.9 85.3999 116.584 85.3999 117.425C85.3999 118.266 84.7157 118.95 83.8749 118.95Z" fill="#CACAFB"/>
<path d="M82.406 62.1159C82.6319 61.3046 83.4728 60.83 84.2842 61.0559C87.852 62.0494 90.5872 64.8477 91.3113 68.3173C91.4834 69.1418 90.9545 69.9497 90.13 70.1217C89.3056 70.2938 88.4977 69.7649 88.3256 68.9404C87.8398 66.6126 85.9588 64.6883 83.466 63.9941C82.6547 63.7682 82.1801 62.9273 82.406 62.1159Z" fill="#FA794A"/>
<path fill-rule="evenodd" clip-rule="evenodd" d="M67.1001 70.15C67.1001 61.7394 73.9397 54.9 82.3501 54.9C90.7605 54.9 97.6001 61.7394 97.6001 70.15C97.6001 74.0634 96.1192 77.6367 93.6883 80.3392L102.679 95.9108C103.942 98.099 103.192 100.897 101.004 102.16C98.8939 103.379 96.2168 102.725 94.8955 100.715L94.7544 100.486L85.8155 85.0031C84.7019 85.2627 83.5417 85.4 82.3501 85.4C73.9399 85.4 67.1001 78.5602 67.1001 70.15ZM88.7527 83.9905L97.3958 98.9608C97.8169 99.6902 98.7496 99.9401 99.479 99.519C100.156 99.1279 100.42 98.2958 100.117 97.5949L100.037 97.4358L91.3767 82.4355C90.5601 83.037 89.6816 83.5592 88.7527 83.9905ZM94.5501 70.15C94.5501 63.4239 89.0761 57.95 82.3501 57.95C75.6241 57.95 70.1501 63.4239 70.1501 70.15C70.1501 76.8758 75.6244 82.35 82.3501 82.35C89.0758 82.35 94.5501 76.8758 94.5501 70.15Z" fill="#FA794A"/>
<path d="M105.215 27.2722C105.127 26.5138 104.482 25.925 103.7 25.925H21.35L21.1721 25.9353C20.4137 26.0234 19.825 26.668 19.825 27.45V97.6L19.8352 97.7779C19.9233 98.5363 20.5679 99.125 21.35 99.125H85.3999L85.5778 99.1148C86.3362 99.0267 86.9249 98.3821 86.9249 97.6L86.9147 97.4222C86.8266 96.6638 86.182 96.075 85.3999 96.075H22.875V41.175H79.2999L79.4778 41.1648C80.2362 41.0767 80.8249 40.4321 80.8249 39.65C80.8249 38.8078 80.1422 38.125 79.2999 38.125H22.875V28.975H102.175V38.125H88.4499L88.2721 38.1353C87.5137 38.2234 86.9249 38.868 86.9249 39.65C86.9249 40.4923 87.6077 41.175 88.4499 41.175H102.175V85.4L102.185 85.5779C102.273 86.3363 102.918 86.925 103.7 86.925C104.542 86.925 105.225 86.2423 105.225 85.4V27.45L105.215 27.2722Z" fill="#000091"/>
<path d="M27.45 35.075C26.6091 35.075 25.925 34.3909 25.925 33.55C25.925 32.7091 26.6091 32.025 27.45 32.025C28.2908 32.025 28.975 32.7091 28.975 33.55C28.975 34.3909 28.2908 35.075 27.45 35.075Z" fill="#000091"/>
<path d="M32.025 33.55C32.025 34.3909 32.7091 35.075 33.5499 35.075C34.3908 35.075 35.0749 34.3909 35.0749 33.55C35.0749 32.7091 34.3908 32.025 33.5499 32.025C32.7091 32.025 32.025 32.7091 32.025 33.55Z" fill="#000091"/>
<path d="M39.6499 35.075C38.8091 35.075 38.1249 34.3909 38.1249 33.55C38.1249 32.7091 38.8091 32.025 39.6499 32.025C40.4908 32.025 41.1749 32.7091 41.1749 33.55C41.1749 34.3909 40.4908 35.075 39.6499 35.075Z" fill="#000091"/>
<path d="M97.5999 32.025C98.4422 32.025 99.1249 32.7078 99.1249 33.55C99.1249 34.3321 98.5362 34.9767 97.7778 35.0648L97.5999 35.075H51.8499C51.0077 35.075 50.3249 34.3923 50.3249 33.55C50.3249 32.768 50.9137 32.1234 51.6721 32.0353L51.8499 32.025H97.5999Z" fill="#000091"/>
<path d="M62.5249 51.85C62.5249 51.0078 61.8422 50.325 60.9999 50.325H33.5499L33.3721 50.3353C32.6137 50.4234 32.025 51.068 32.025 51.85C32.025 52.6923 32.7077 53.375 33.5499 53.375H60.9999L61.1778 53.3648C61.9362 53.2767 62.5249 52.6321 62.5249 51.85Z" fill="#000091"/>
<path d="M54.8999 59.475C55.7422 59.475 56.4249 60.1578 56.4249 61C56.4249 61.7821 55.8362 62.4267 55.0778 62.5148L54.8999 62.525H33.5499C32.7077 62.525 32.025 61.8423 32.025 61C32.025 60.218 32.6137 59.5734 33.3721 59.4853L33.5499 59.475H54.8999Z" fill="#000091"/>
<path d="M53.3749 70.15C53.3749 69.3078 52.6922 68.625 51.8499 68.625H33.5499L33.3721 68.6353C32.6137 68.7234 32.025 69.368 32.025 70.15C32.025 70.9923 32.7077 71.675 33.5499 71.675H51.8499L52.0278 71.6648C52.7862 71.5767 53.3749 70.9321 53.3749 70.15Z" fill="#000091"/>
</svg>
