<svg width="56" height="56" viewBox="0 0 56 56" fill="none" xmlns="http://www.w3.org/2000/svg">
<path fill-rule="evenodd" clip-rule="evenodd" d="M41.3001 53.1996C40.9141 53.1996 40.6001 52.8855 40.6001 52.4996C40.6001 52.1135 40.9141 51.7996 41.3001 51.7996C41.6861 51.7996 42.0001 52.1135 42.0001 52.4996C42.0001 52.8855 41.6861 53.1996 41.3001 53.1996Z" fill="#CACAFB"/>
<path fill-rule="evenodd" clip-rule="evenodd" d="M46.9002 8.39951C46.5142 8.39951 46.2002 8.08549 46.2002 7.69951C46.2002 7.3135 46.5142 6.99951 46.9002 6.99951C47.2862 6.99951 47.6002 7.3135 47.6002 7.69951C47.6002 8.08549 47.2862 8.39951 46.9002 8.39951Z" fill="#CACAFB"/>
<path fill-rule="evenodd" clip-rule="evenodd" d="M6.3001 11.1996C5.91412 11.1996 5.6001 10.8855 5.6001 10.4996C5.6001 10.1135 5.91412 9.79956 6.3001 9.79956C6.68608 9.79956 7.0001 10.1135 7.0001 10.4996C7.0001 10.8855 6.68608 11.1996 6.3001 11.1996Z" fill="#CACAFB"/>
<path d="M25.9001 16.0995C25.9001 15.7129 25.5867 15.3995 25.2001 15.3995H16.8001L16.7185 15.4042C16.3703 15.4447 16.1001 15.7406 16.1001 16.0995C16.1001 16.4861 16.4135 16.7995 16.8001 16.7995H25.2001L25.2817 16.7948C25.6299 16.7544 25.9001 16.4585 25.9001 16.0995Z" fill="#FA794A"/>
<path d="M27.3001 27.9995C26.5269 27.9995 25.9001 28.6263 25.9001 29.3995C25.9001 31.1405 26.6061 32.1995 28.0001 32.1995C28.3867 32.1995 28.7001 31.8861 28.7001 31.4995C28.7001 31.1129 28.3867 30.7995 28.0001 30.7995L27.9342 30.7972C27.8507 30.791 27.7756 30.7724 27.7088 30.7389C28.2826 30.5641 28.7001 30.0306 28.7001 29.3995C28.7001 28.6263 28.0733 27.9995 27.3001 27.9995Z" fill="#FA794A"/>
<path d="M30.1001 29.3995C30.1001 28.6263 30.7269 27.9995 31.5001 27.9995C32.2733 27.9995 32.9001 28.6263 32.9001 29.3995C32.9001 30.0306 32.4826 30.5641 31.9088 30.7389C31.9756 30.7724 32.0507 30.791 32.1342 30.7972L32.2001 30.7995C32.5867 30.7995 32.9001 31.1129 32.9001 31.4995C32.9001 31.8861 32.5867 32.1995 32.2001 32.1995C30.8061 32.1995 30.1001 31.1405 30.1001 29.3995Z" fill="#FA794A"/>
<path d="M23.8001 18.1995C24.1867 18.1995 24.5001 18.5129 24.5001 18.8995C24.5001 19.2585 24.2299 19.5544 23.8817 19.5948L23.8001 19.5995H16.8001C16.4135 19.5995 16.1001 19.2861 16.1001 18.8995C16.1001 18.5406 16.3703 18.2447 16.7185 18.2042L16.8001 18.1995H23.8001Z" fill="#FA794A"/>
<path d="M21.7001 21.6995C21.7001 21.3129 21.3867 20.9995 21.0001 20.9995H16.8001L16.7185 21.0042C16.3703 21.0447 16.1001 21.3406 16.1001 21.6995C16.1001 22.0861 16.4135 22.3995 16.8001 22.3995H21.0001L21.0817 22.3948C21.4299 22.3544 21.7001 22.0585 21.7001 21.6995Z" fill="#FA794A"/>
<path d="M39.2001 34.9995C39.5867 34.9995 39.9001 35.3129 39.9001 35.6995C39.9001 36.0585 39.6299 36.3544 39.2817 36.3948L39.2001 36.3995H26.6001C26.2135 36.3995 25.9001 36.0861 25.9001 35.6995C25.9001 35.3406 26.1703 35.0447 26.5185 35.0042L26.6001 34.9995H39.2001Z" fill="#FA794A"/>
<path d="M37.1001 38.4995C37.1001 38.1129 36.7867 37.7995 36.4001 37.7995H26.6001L26.5185 37.8042C26.1703 37.8447 25.9001 38.1406 25.9001 38.4995C25.9001 38.8861 26.2135 39.1995 26.6001 39.1995H36.4001L36.4817 39.1948C36.8299 39.1544 37.1001 38.8585 37.1001 38.4995Z" fill="#FA794A"/>
<path d="M22.4 8.39954C27.1978 8.39954 31.0015 11.2395 32.8495 15.8385C32.9936 16.1973 32.8197 16.6049 32.4609 16.7491C32.1022 16.8932 31.6946 16.7192 31.5504 16.3605C29.9066 12.2696 26.5983 9.79954 22.4 9.79954C16.601 9.79954 11.9 14.5005 11.9 20.2995C11.9 22.5506 12.6093 24.6929 13.906 26.4736C14.0704 26.6993 14.0833 26.9983 13.9466 27.2353L13.8955 27.3118L11.2189 30.7995H15.4C15.7589 30.7995 16.0548 31.0698 16.0952 31.4179L16.1 31.4995C16.1 31.8585 15.8297 32.1544 15.4816 32.1948L15.4 32.1995H9.79995C9.24596 32.1995 8.92166 31.593 9.2006 31.1374L9.24459 31.0734L12.474 26.8641L12.4344 26.8056C11.2355 24.9733 10.5603 22.8399 10.5038 20.6049L10.5 20.2995C10.5 13.7273 15.8278 8.39954 22.4 8.39954Z" fill="#000091"/>
<path d="M32.9 19.5995C40.6319 19.5995 46.9 25.8675 46.9 33.5995C46.9 35.791 46.3955 37.9118 45.4396 39.8317C45.2672 40.1778 44.847 40.3187 44.5009 40.1464C44.1549 39.974 44.014 39.5538 44.1863 39.2077C45.0463 37.4806 45.5 35.5732 45.5 33.5995C45.5 26.6407 39.8587 20.9995 32.9 20.9995C25.9412 20.9995 20.3 26.6407 20.3 33.5995C20.3 40.481 25.8165 46.074 32.6685 46.1974L32.9 46.1995H44.8917L42.8175 43.0878C42.6184 42.7891 42.6791 42.3931 42.9464 42.1663L43.0117 42.1171C43.3104 41.918 43.7064 41.9787 43.9332 42.2459L43.9824 42.3112L46.7824 46.5112C47.0777 46.9543 46.7893 47.5405 46.2782 47.5954L46.2 47.5995H32.9C25.168 47.5995 18.9 41.3315 18.9 33.5995C18.9 25.8675 25.168 19.5995 32.9 19.5995Z" fill="#000091"/>
<path d="M38.5 13.2995C38.5 13.6855 38.814 13.9995 39.2 13.9995C39.5859 13.9995 39.9 13.6855 39.9 13.2995C39.9 12.9135 39.5859 12.5995 39.2 12.5995C38.814 12.5995 38.5 12.9135 38.5 13.2995Z" fill="#000091"/>
<path d="M42 13.9995C41.614 13.9995 41.2999 13.6855 41.2999 13.2995C41.2999 12.9135 41.614 12.5995 42 12.5995C42.3859 12.5995 42.7 12.9135 42.7 13.2995C42.7 13.6855 42.3859 13.9995 42 13.9995Z" fill="#000091"/>
<path d="M44.0999 13.2995C44.0999 13.6855 44.414 13.9995 44.7999 13.9995C45.1859 13.9995 45.5 13.6855 45.5 13.2995C45.5 12.9135 45.1859 12.5995 44.7999 12.5995C44.414 12.5995 44.0999 12.9135 44.0999 13.2995Z" fill="#000091"/>
<path fill-rule="evenodd" clip-rule="evenodd" d="M47.5999 9.79954H36.4C36.0134 9.79954 35.7 10.1129 35.7 10.4995V16.0995L35.7047 16.1812C35.7451 16.5293 36.041 16.7995 36.4 16.7995H41.7094L44.305 19.3945L44.3642 19.4478C44.8101 19.8077 45.5 19.4961 45.5 18.8995V16.7995H47.5999C47.9865 16.7995 48.2999 16.4861 48.2999 16.0995V10.4995C48.2999 10.1129 47.9865 9.79954 47.5999 9.79954ZM46.9 11.1995V15.3995H44.7999L44.7183 15.4042C44.3702 15.4447 44.0999 15.7406 44.0999 16.0995V17.209L42.4949 15.6046L42.4256 15.5438C42.3041 15.4508 42.1547 15.3995 42 15.3995H37.1V11.1995H46.9Z" fill="#000091"/>
<path d="M11.2 40.5995C11.5866 40.5995 11.9 40.9129 11.9 41.2995C11.9 41.6585 11.6297 41.9544 11.2816 41.9948L11.2 41.9995H8.39995C8.01335 41.9995 7.69995 41.6861 7.69995 41.2995C7.69995 40.9405 7.97018 40.6447 8.31832 40.6042L8.39995 40.5995H11.2Z" fill="#000091"/>
<path d="M13.3 41.2995C13.3 41.6855 13.614 41.9995 14 41.9995C14.3859 41.9995 14.7 41.6855 14.7 41.2995C14.7 40.9135 14.3859 40.5995 14 40.5995C13.614 40.5995 13.3 40.9135 13.3 41.2995Z" fill="#000091"/>
<path d="M16.8 41.9995C16.414 41.9995 16.1 41.6855 16.1 41.2995C16.1 40.9135 16.414 40.5995 16.8 40.5995C17.1859 40.5995 17.5 40.9135 17.5 41.2995C17.5 41.6855 17.1859 41.9995 16.8 41.9995Z" fill="#000091"/>
</svg>
